<svg width="110" height="34" viewBox="0 0 110 34" fill="none" xmlns="http://www.w3.org/2000/svg">
<path d="M46.8994 19.4039C46.5241 20.7225 45.2257 21.603 43.6409 21.603C41.3968 21.603 39.946 19.9684 39.946 17.4347C39.946 14.9011 41.3968 13.2457 43.6409 13.2457C45.26 13.2457 46.5584 14.1099 46.9005 15.4045H49.9188C49.4759 12.5527 46.9841 10.6445 43.6806 10.6445C39.7391 10.6445 37.0918 13.3569 37.0918 17.3933C37.0918 21.4548 39.7391 24.1835 43.6806 24.1835C47.027 24.1835 49.5199 22.2677 49.9198 19.4039H46.8994Z" fill="black"/>
<path d="M69.726 14.8389H67.0026L64.7391 21.094L62.5561 14.8389H58.576V12.4338H56.0027V14.8389H50.6416V23.9165H53.2149V17.0086H56.0027V23.9165H58.576V17.0086H60.6551L63.5608 24.299L63.4107 24.7447C63.1426 25.4432 62.8402 26.2289 61.322 26.2289C60.9156 26.2255 60.5104 26.1843 60.1114 26.1058L60.0943 28.2547C60.6531 28.3845 61.2238 28.4536 61.797 28.4607C64.4775 28.4607 65.2356 26.521 65.6441 25.4792L69.726 14.8389Z" fill="black"/>
<path d="M51.9272 14.0652C52.825 14.0652 53.5527 13.3421 53.5527 12.4502C53.5527 11.5583 52.825 10.8352 51.9272 10.8352C51.0295 10.8352 50.3018 11.5583 50.3018 12.4502C50.3018 13.3421 51.0295 14.0652 51.9272 14.0652Z" fill="black"/>
<path d="M80.9204 14.0652C81.8181 14.0652 82.5459 13.3421 82.5459 12.4502C82.5459 11.5583 81.8181 10.8352 80.9204 10.8352C80.0227 10.8352 79.2949 11.5583 79.2949 12.4502C79.2949 13.3421 80.0227 14.0652 80.9204 14.0652Z" fill="black"/>
<path d="M77.7194 16.3603H73.052V13.4517H78.59V10.9333H70.3564V23.9165H73.052V18.7762H77.7012L77.7194 16.3603Z" fill="black"/>
<path d="M82.2095 14.8389H79.6318V23.9164H82.2095V14.8389Z" fill="black"/>
<path d="M89.0903 14.511C87.9741 14.511 87.037 14.8576 86.4505 15.4918L86.2843 15.6694V11.0151H83.7109V23.9166H85.8264L86.0066 22.6514L86.146 22.8465C86.74 23.6834 87.8422 24.1836 89.0946 24.1836C91.6743 24.1836 93.4092 22.2482 93.4092 19.368C93.3995 16.5074 91.625 14.511 89.0903 14.511ZM88.5542 21.7883C87.2064 21.7883 86.3025 20.7988 86.3025 19.3266C86.3025 17.8783 87.2075 16.9063 88.5542 16.9063C89.8773 16.9063 90.7661 17.8871 90.7661 19.3473C90.7661 20.8076 89.8741 21.7883 88.5542 21.7883Z" fill="black"/>
<path d="M99.9963 17.1242V14.8205C99.7534 14.7781 99.5073 14.7562 99.2608 14.7551C98.2325 14.7551 97.4949 15.2172 97.2365 16.0236L97.1089 16.4224L96.8837 14.8369H94.5312V23.9144H97.1046V19.6764C97.1046 18.8319 97.3469 18.178 97.823 17.7345C98.328 17.2648 99.0624 17.0588 99.9963 17.1242Z" fill="black"/>
<path d="M106.55 21.1301C106.27 21.7033 105.572 22.0553 104.708 22.0553C103.497 22.0553 102.655 21.2925 102.615 20.1526V20.0512H108.965C109.036 19.6702 109.07 19.2829 109.066 18.895C109.066 16.3134 107.252 14.511 104.653 14.511C101.919 14.511 100.081 16.454 100.081 19.3473C100.081 22.2405 101.942 24.1835 104.712 24.1835C106.919 24.1835 108.65 22.9619 109.064 21.1323L106.55 21.1301ZM102.654 18.2717C102.715 17.2909 103.46 16.6589 104.55 16.6589C105.641 16.6589 106.385 17.3127 106.425 18.2739V18.3752H102.643L102.654 18.2717Z" fill="black"/>
<path d="M16.793 0C13.4848 0 10.2509 0.997032 7.50022 2.86502C4.74954 4.733 2.60565 7.38804 1.33965 10.4944C0.0736529 13.6007 -0.257589 17.0189 0.387811 20.3165C1.03321 23.6142 2.62627 26.6433 4.96553 29.0208C7.30479 31.3983 10.2852 33.0174 13.5298 33.6733C16.7745 34.3293 20.1377 33.9926 23.194 32.7059C26.2504 31.4193 28.8628 29.2403 30.7007 26.4447C32.5387 23.6491 33.5197 20.3623 33.5197 17C33.5197 12.4913 31.7574 8.1673 28.6205 4.97918C25.4837 1.79107 21.2292 0 16.793 0ZM25.998 21.5944C25.1776 21.5941 24.3757 21.3467 23.6936 20.8833C23.0115 20.4198 22.48 19.7613 22.1662 18.9909C21.8523 18.2204 21.7704 17.3727 21.9305 16.5549C22.0907 15.7371 22.4859 14.986 23.0661 14.3964C23.6463 13.8069 24.3855 13.4054 25.1902 13.2429C25.9949 13.0803 26.8289 13.1638 27.5869 13.483C28.3449 13.8021 28.9927 14.3425 29.4485 15.0358C29.9043 15.7292 30.1475 16.5443 30.1475 17.3781C30.1478 17.9321 30.0407 18.4807 29.8323 18.9925C29.6238 19.5044 29.3182 19.9695 28.9329 20.3612C28.5475 20.753 28.09 21.0637 27.5864 21.2757C27.0828 21.4877 26.5431 21.5967 25.998 21.5965V21.5944Z" fill="black"/>
</svg>
