<svg width="110" height="34" viewBox="0 0 110 34" fill="none" xmlns="http://www.w3.org/2000/svg">
<path d="M47.333 19.4039C46.9577 20.7225 45.6593 21.603 44.0745 21.603C41.8304 21.603 40.3796 19.9684 40.3796 17.4347C40.3796 14.9011 41.8304 13.2457 44.0745 13.2457C45.6936 13.2457 46.992 14.1099 47.3341 15.4045H50.3524C49.9095 12.5527 47.4177 10.6445 44.1142 10.6445C40.1727 10.6445 37.5254 13.3569 37.5254 17.3933C37.5254 21.4548 40.1727 24.1835 44.1142 24.1835C47.4606 24.1835 49.9535 22.2677 50.3534 19.4039H47.333Z" fill="#2D2D2D"/>
<path d="M70.1596 14.8389H67.4362L65.1727 21.094L62.9897 14.8389H59.0096V12.4338H56.4363V14.8389H51.0752V23.9165H53.6485V17.0086H56.4363V23.9165H59.0096V17.0086H61.0887L63.9944 24.299L63.8443 24.7447C63.5762 25.4432 63.2738 26.2289 61.7556 26.2289C61.3492 26.2255 60.944 26.1843 60.545 26.1058L60.5279 28.2547C61.0867 28.3845 61.6574 28.4536 62.2306 28.4607C64.9111 28.4607 65.6692 26.521 66.0777 25.4792L70.1596 14.8389Z" fill="#2D2D2D"/>
<path d="M52.3608 14.0652C53.2586 14.0652 53.9863 13.3421 53.9863 12.4502C53.9863 11.5583 53.2586 10.8352 52.3608 10.8352C51.4631 10.8352 50.7354 11.5583 50.7354 12.4502C50.7354 13.3421 51.4631 14.0652 52.3608 14.0652Z" fill="#2D2D2D"/>
<path d="M81.354 14.0652C82.2517 14.0652 82.9795 13.3421 82.9795 12.4502C82.9795 11.5583 82.2517 10.8352 81.354 10.8352C80.4563 10.8352 79.7285 11.5583 79.7285 12.4502C79.7285 13.3421 80.4563 14.0652 81.354 14.0652Z" fill="#2D2D2D"/>
<path d="M78.153 16.3603H73.4856V13.4517H79.0236V10.9333H70.79V23.9165H73.4856V18.7762H78.1347L78.153 16.3603Z" fill="#2D2D2D"/>
<path d="M82.6431 14.8389H80.0654V23.9164H82.6431V14.8389Z" fill="#2D2D2D"/>
<path d="M89.5239 14.511C88.4077 14.511 87.4706 14.8576 86.8841 15.4918L86.7179 15.6694V11.0151H84.1445V23.9166H86.26L86.4402 22.6514L86.5796 22.8465C87.1736 23.6834 88.2758 24.1836 89.5282 24.1836C92.1079 24.1836 93.8428 22.2482 93.8428 19.368C93.8331 16.5074 92.0586 14.511 89.5239 14.511ZM88.9878 21.7883C87.64 21.7883 86.7361 20.7988 86.7361 19.3266C86.7361 17.8783 87.641 16.9063 88.9878 16.9063C90.3109 16.9063 91.1997 17.8871 91.1997 19.3473C91.1997 20.8076 90.3077 21.7883 88.9878 21.7883V21.7883Z" fill="#2D2D2D"/>
<path d="M100.43 17.1242V14.8205C100.187 14.7781 99.9409 14.7562 99.6944 14.7551C98.6661 14.7551 97.9285 15.2172 97.67 16.0236L97.5425 16.4224L97.3173 14.8369H94.9648V23.9144H97.5382V19.6764C97.5382 18.8319 97.7805 18.178 98.2565 17.7345C98.7616 17.2648 99.496 17.0588 100.43 17.1242Z" fill="#2D2D2D"/>
<path d="M106.983 21.1301C106.703 21.7033 106.005 22.0553 105.141 22.0553C103.931 22.0553 103.089 21.2925 103.048 20.1526V20.0512H109.399C109.47 19.6702 109.504 19.2829 109.5 18.895C109.5 16.3134 107.686 14.511 105.087 14.511C102.352 14.511 100.515 16.454 100.515 19.3473C100.515 22.2405 102.376 24.1835 105.146 24.1835C107.352 24.1835 109.084 22.9619 109.498 21.1323L106.983 21.1301ZM103.088 18.2717C103.149 17.2909 103.893 16.6589 104.984 16.6589C106.074 16.6589 106.818 17.3127 106.859 18.2739V18.3752H103.076L103.088 18.2717Z" fill="#2D2D2D"/>
<path d="M17.2266 0C13.9184 0 10.6845 0.997032 7.93381 2.86502C5.18314 4.733 3.03924 7.38804 1.77325 10.4944C0.507247 13.6007 0.176005 17.0189 0.821405 20.3165C1.46681 23.6142 3.05986 26.6433 5.39912 29.0208C7.73838 31.3983 10.7188 33.0174 13.9634 33.6733C17.2081 34.3293 20.5712 33.9926 23.6276 32.7059C26.684 31.4193 29.2964 29.2403 31.1343 26.4447C32.9723 23.6491 33.9533 20.3623 33.9533 17C33.9533 12.4913 32.191 8.1673 29.0541 4.97918C25.9173 1.79107 21.6628 0 17.2266 0V0ZM26.4316 21.5944C25.6112 21.5941 24.8093 21.3467 24.1272 20.8833C23.4451 20.4198 22.9136 19.7613 22.5998 18.9909C22.2859 18.2204 22.2039 17.3727 22.3641 16.5549C22.5243 15.7371 22.9195 14.986 23.4997 14.3964C24.0799 13.8069 24.8191 13.4054 25.6238 13.2429C26.4285 13.0803 27.2625 13.1638 28.0205 13.483C28.7784 13.8021 29.4263 14.3425 29.8821 15.0358C30.3379 15.7292 30.5811 16.5443 30.5811 17.3781C30.5814 17.9321 30.4743 18.4807 30.2659 18.9925C30.0574 19.5044 29.7518 19.9695 29.3665 20.3612C28.9811 20.753 28.5236 21.0637 28.02 21.2757C27.5164 21.4877 26.9767 21.5967 26.4316 21.5965V21.5944Z" fill="#2D2D2D"/>
</svg>
