<svg width="128" height="40" viewBox="0 0 128 40" fill="none" xmlns="http://www.w3.org/2000/svg">
<path d="M55.0854 22.7575C54.649 24.27 53.1391 25.28 51.2963 25.28C48.6867 25.28 46.9997 23.405 46.9997 20.4987C46.9997 17.5925 48.6867 15.6937 51.2963 15.6937C53.179 15.6937 54.6889 16.685 55.0866 18.17H58.5964C58.0815 14.8987 55.1839 12.71 51.3424 12.71C46.7591 12.71 43.6807 15.8212 43.6807 20.4512C43.6807 25.11 46.7591 28.24 51.3424 28.24C55.2337 28.24 58.1326 26.0425 58.5977 22.7575H55.0854Z" fill="#2D2D2D"/>
<path d="M81.6288 17.5212H78.4618L75.8298 24.6962L73.2912 17.5212H68.663V14.7625H65.6706V17.5212H59.4365V27.9337H62.4289V20.01H65.6706V27.9337H68.663V20.01H71.0806L74.4595 28.3724L74.285 28.8837C73.9733 29.6849 73.6217 30.5862 71.8561 30.5862C71.3836 30.5823 70.9124 30.535 70.4485 30.4449L70.4285 32.9099C71.0783 33.0589 71.742 33.138 72.4085 33.1462C75.5255 33.1462 76.407 30.9212 76.8821 29.7262L81.6288 17.5212Z" fill="#2D2D2D"/>
<path d="M60.9312 16.6338C61.9751 16.6338 62.8214 15.8044 62.8214 14.7813C62.8214 13.7582 61.9751 12.9288 60.9312 12.9288C59.8873 12.9288 59.041 13.7582 59.041 14.7813C59.041 15.8044 59.8873 16.6338 60.9312 16.6338Z" fill="#2D2D2D"/>
<path d="M94.646 16.6338C95.69 16.6338 96.5362 15.8044 96.5362 14.7813C96.5362 13.7582 95.69 12.9288 94.646 12.9288C93.6021 12.9288 92.7559 13.7582 92.7559 14.7813C92.7559 15.8044 93.6021 16.6338 94.646 16.6338Z" fill="#2D2D2D"/>
<path d="M90.9242 19.2663H85.4968V15.93H91.9367V13.0413H82.3623V27.9338H85.4968V22.0375H90.903L90.9242 19.2663Z" fill="#2D2D2D"/>
<path d="M96.1439 17.5212H93.1465V27.9337H96.1439V17.5212Z" fill="#2D2D2D"/>
<path d="M104.146 17.145C102.848 17.145 101.758 17.5425 101.076 18.27L100.883 18.4738V13.135H97.8906V27.9338H100.351L100.56 26.4825L100.722 26.7063C101.413 27.6663 102.695 28.24 104.151 28.24C107.151 28.24 109.168 26.02 109.168 22.7163C109.157 19.435 107.093 17.145 104.146 17.145ZM103.523 25.4925C101.955 25.4925 100.904 24.3575 100.904 22.6688C100.904 21.0075 101.957 19.8925 103.523 19.8925C105.061 19.8925 106.095 21.0175 106.095 22.6925C106.095 24.3675 105.057 25.4925 103.523 25.4925V25.4925Z" fill="#2D2D2D"/>
<path d="M116.828 20.1425V17.5C116.545 17.4513 116.259 17.4262 115.972 17.425C114.777 17.425 113.919 17.955 113.618 18.88L113.47 19.3375L113.208 17.5187H110.473V27.9312H113.465V23.07C113.465 22.1012 113.747 21.3512 114.3 20.8425C114.888 20.3037 115.742 20.0675 116.828 20.1425Z" fill="#2D2D2D"/>
<path d="M124.448 24.7375C124.122 25.395 123.311 25.7987 122.306 25.7987C120.898 25.7987 119.919 24.9237 119.872 23.6162V23.5H127.257C127.34 23.0628 127.379 22.6186 127.374 22.1737C127.374 19.2125 125.265 17.145 122.242 17.145C119.063 17.145 116.926 19.3737 116.926 22.6925C116.926 26.0112 119.09 28.24 122.311 28.24C124.877 28.24 126.89 26.8387 127.372 24.74L124.448 24.7375ZM119.918 21.4587C119.989 20.3337 120.855 19.6087 122.123 19.6087C123.391 19.6087 124.256 20.3587 124.303 21.4612V21.5775H119.904L119.918 21.4587Z" fill="#2D2D2D"/>
<path d="M20.0755 0.5C16.2285 0.5 12.468 1.64365 9.26937 3.78634C6.07076 5.92903 3.57774 8.97451 2.10559 12.5377C0.633427 16.1008 0.248244 20.0216 0.998744 23.8043C1.74924 27.5869 3.60172 31.0615 6.32192 33.7886C9.04211 36.5157 12.5078 38.3729 16.2809 39.1253C20.0539 39.8777 23.9647 39.4915 27.5188 38.0156C31.0729 36.5397 34.1107 34.0404 36.2479 30.8336C38.3852 27.6269 39.5259 23.8567 39.5259 20C39.5259 14.8283 37.4767 9.86838 33.829 6.21142C30.1813 2.55446 25.234 0.5 20.0755 0.5V0.5ZM30.7795 25.27C29.8254 25.2697 28.8929 24.9859 28.0997 24.4543C27.3066 23.9228 26.6885 23.1674 26.3236 22.2836C25.9587 21.3999 25.8633 20.4275 26.0496 19.4895C26.2359 18.5514 26.6954 17.6898 27.3701 17.0136C28.0448 16.3373 28.9043 15.8768 29.84 15.6903C30.7758 15.5038 31.7456 15.5997 32.627 15.9658C33.5084 16.3318 34.2617 16.9517 34.7918 17.747C35.3218 18.5423 35.6047 19.4773 35.6047 20.4337C35.605 21.0692 35.4804 21.6984 35.2381 22.2856C34.9957 22.8727 34.6403 23.4062 34.1922 23.8555C33.7441 24.3049 33.212 24.6613 32.6265 24.9045C32.0409 25.1476 31.4133 25.2727 30.7795 25.2725V25.27Z" fill="#2D2D2D"/>
</svg>
