<svg width="158" height="48" viewBox="0 0 158 48" fill="none" xmlns="http://www.w3.org/2000/svg">
<path d="M67.7906 27.3937C67.251 29.2553 65.3838 30.4984 63.105 30.4984C59.8779 30.4984 57.7918 28.1907 57.7918 24.6137C57.7918 21.0368 59.8779 18.6999 63.105 18.6999C65.4331 18.6999 67.3003 19.9199 67.7921 21.7476H72.1324C71.4956 17.7214 67.9124 15.0276 63.162 15.0276C57.4943 15.0276 53.6875 18.8568 53.6875 24.5553C53.6875 30.2891 57.4943 34.1414 63.162 34.1414C67.9741 34.1414 71.5588 31.4368 72.1339 27.3937H67.7906Z" fill="#2D2D2D"/>
<path d="M100.615 20.9491H96.6986L93.4438 29.7799L90.3047 20.9491H84.5814V17.5537H80.881V20.9491H73.1719V33.7645H76.8723V24.0122H80.881V33.7645H84.5814V24.0122H87.571L91.7494 34.3045L91.5335 34.9337C91.148 35.9199 90.7133 37.0291 88.53 37.0291C87.9457 37.0243 87.363 36.9661 86.7893 36.8552L86.7646 39.8891C87.5681 40.0724 88.3889 40.1698 89.213 40.1799C93.0676 40.1799 94.1577 37.4414 94.7451 35.9706L100.615 20.9491Z" fill="#2D2D2D"/>
<path d="M75.02 19.8569C76.3109 19.8569 77.3574 18.8361 77.3574 17.5769C77.3574 16.3177 76.3109 15.2969 75.02 15.2969C73.7291 15.2969 72.6826 16.3177 72.6826 17.5769C72.6826 18.8361 73.7291 19.8569 75.02 19.8569Z" fill="#2D2D2D"/>
<path d="M116.711 19.8569C118.002 19.8569 119.049 18.8361 119.049 17.5769C119.049 16.3177 118.002 15.2969 116.711 15.2969C115.421 15.2969 114.374 16.3177 114.374 17.5769C114.374 18.8361 115.421 19.8569 116.711 19.8569Z" fill="#2D2D2D"/>
<path d="M112.109 23.0968H105.398V18.9907H113.361V15.4353H101.521V33.7645H105.398V26.5076H112.083L112.109 23.0968Z" fill="#2D2D2D"/>
<path d="M118.565 20.9492H114.858V33.7646H118.565V20.9492Z" fill="#2D2D2D"/>
<path d="M128.46 20.4862C126.855 20.4862 125.507 20.9754 124.664 21.8708L124.425 22.1215V15.5508H120.725V33.7646H123.767L124.026 31.9785L124.226 32.2539C125.08 33.4354 126.665 34.1415 128.466 34.1415C132.176 34.1415 134.67 31.4092 134.67 27.3431C134.657 23.3046 132.105 20.4862 128.46 20.4862ZM127.689 30.76C125.751 30.76 124.451 29.3631 124.451 27.2846C124.451 25.24 125.753 23.8677 127.689 23.8677C129.592 23.8677 130.87 25.2523 130.87 27.3139C130.87 29.3754 129.587 30.76 127.689 30.76Z" fill="#2D2D2D"/>
<path d="M144.142 24.1754V20.9231C143.792 20.8632 143.439 20.8323 143.084 20.8308C141.606 20.8308 140.545 21.4831 140.173 22.6216L139.99 23.1847L139.666 20.9462H136.283V33.7616H139.984V27.7785C139.984 26.5862 140.332 25.6631 141.017 25.037C141.743 24.3739 142.799 24.0831 144.142 24.1754Z" fill="#2D2D2D"/>
<path d="M153.566 29.8307C153.163 30.6399 152.159 31.1369 150.917 31.1369C149.176 31.1369 147.966 30.0599 147.907 28.4507V28.3076H157.039C157.141 27.7696 157.19 27.2229 157.184 26.6753C157.184 23.0307 154.575 20.4861 150.838 20.4861C146.906 20.4861 144.264 23.2292 144.264 27.3138C144.264 31.3984 146.94 34.1415 150.923 34.1415C154.096 34.1415 156.586 32.4169 157.181 29.8338L153.566 29.8307ZM147.964 25.7953C148.052 24.4107 149.122 23.5184 150.69 23.5184C152.258 23.5184 153.328 24.4415 153.387 25.7984V25.9415H147.947L147.964 25.7953Z" fill="#2D2D2D"/>
<path d="M24.4978 0C19.7407 0 15.0904 1.40758 11.135 4.04473C7.17955 6.68188 4.09669 10.4302 2.27621 14.8156C0.455733 19.201 -0.0205854 24.0266 0.907486 28.6822C1.83556 33.3377 4.12634 37.6141 7.49014 40.9706C10.8539 44.327 15.1397 46.6128 19.8054 47.5388C24.4711 48.4649 29.3073 47.9896 33.7023 46.1731C38.0974 44.3566 41.8538 41.2805 44.4968 37.3337C47.1397 33.3869 48.5503 28.7467 48.5503 24C48.5503 17.6348 46.0162 11.5303 41.5055 7.02944C36.9948 2.52856 30.8769 0 24.4978 0ZM37.7344 30.4861C36.5547 30.4858 35.4015 30.1365 34.4207 29.4823C33.4399 28.828 32.6755 27.8983 32.2243 26.8106C31.773 25.723 31.6551 24.5262 31.8854 23.3717C32.1158 22.2171 32.6841 21.1567 33.5184 20.3244C34.3527 19.4921 35.4156 18.9253 36.5728 18.6958C37.7299 18.4662 38.9292 18.5842 40.0191 19.0348C41.1091 19.4853 42.0406 20.2483 42.6961 21.2271C43.3515 22.2059 43.7013 23.3566 43.7013 24.5338C43.7017 25.3159 43.5476 26.0904 43.2479 26.813C42.9482 27.5356 42.5088 28.1922 41.9546 28.7453C41.4005 29.2984 40.7426 29.737 40.0184 30.0363C39.2943 30.3355 38.5182 30.4894 37.7344 30.4892V30.4861Z" fill="#2D2D2D"/>
</svg>
