<svg width="84" height="32" viewBox="0 0 84 32" fill="none" xmlns="http://www.w3.org/2000/svg">
<g clip-path="url(#clip0_2808_2579)">
<path fill-rule="evenodd" clip-rule="evenodd" d="M67.9522 6.46444L83.3938 31.4916H80.2605C75.726 31.4916 73.4681 27.644 71.2874 24.3495C68.619 28.2188 66.2242 31.783 60.9416 31.783C57.4546 31.783 54.5327 29.654 52.6477 26.9055L50.9604 24.3333C48.2702 28.1876 45.9135 31.783 40.6188 31.783C35.8795 31.783 32.8628 28.006 30.6754 24.3386C27.2372 29.3461 22.7337 31.9998 16.5309 31.9998C7.42458 32 0.739258 24.649 0.739258 15.8617C0.739258 6.84931 7.74307 0 16.8829 0C22.2443 0 27.012 2.79311 29.2819 7.48352C28.1245 7.50387 26.1377 7.65977 25.185 7.9172C23.7565 5.26772 20.3292 4.08049 17.4398 4.08049C11.5974 4.08049 8.57111 9.43634 8.57111 14.6229C8.57111 20.727 11.6001 27.6928 18.7543 27.6928C22.4309 27.6928 25.7202 25.7861 27.7815 22.8519L28.7938 21.4111C26.7217 18.5678 23.4163 16.4915 19.7937 16.451L19.1202 15.5904C21.3469 15.0253 23.6466 14.7529 25.9452 14.7529C28.1652 14.7529 30.5124 15.0239 32.3773 16.3141L39.262 6.51833C38.0449 4.38372 36.622 2.06777 33.9196 1.71528L33.246 0.854632C34.8764 0.564589 36.5353 0.420955 38.1899 0.420955C41.8058 0.420955 45.1422 2.60969 47.6318 6.46398L53.42 15.273L59.5835 6.5181C58.3664 4.38349 56.9449 2.06754 54.241 1.71505L53.5675 0.8544C55.2102 0.561582 56.8771 0.420724 58.5452 0.420724C62.5598 0.421418 65.9573 3.23233 67.9522 6.46444ZM45.4364 26.6509L49.0712 21.4521L41.1757 9.41344L34.897 18.3391C37.0339 20.4614 39.2904 26.6509 45.4364 26.6509ZM65.731 26.6509C65.731 26.6509 68.1705 23.5515 69.336 21.3912L61.4972 9.41367L55.32 18.1628L59.3871 24.3536C60.1867 25.5693 61.447 26.6509 65.731 26.6509Z" fill="black"/>
</g>
<defs>
<clipPath id="clip0_2808_2579">
<rect width="82.6546" height="32" fill="white" transform="translate(0.739258)"/>
</clipPath>
</defs>
</svg>
