<svg width="152" height="24" viewBox="0 0 152 24" fill="none" xmlns="http://www.w3.org/2000/svg">
<path d="M33.5181 10.7582V13.4476C33.5181 16.5511 32.6908 18.6207 31.2426 20.2759C29.1734 22.3451 25.4512 23.9999 17.5861 23.9999C8.69161 23.9999 4.96642 22.1381 2.89645 19.8638C1.03461 18.0019 0 15.3129 0 12.0024C0 8.89896 1.03461 6.00365 2.89645 4.14105C4.96529 2.07221 9.10259 0.00488281 17.5861 0.00488281C24.207 0.00488281 29.38 1.24611 32.0683 2.69433V7.24525C28.9653 5.38303 23.5848 4.14181 17.5861 4.14181C11.3799 4.14181 8.27686 5.38303 6.82902 6.83126C5.58779 8.07248 4.96717 9.7277 4.96717 12.0043C4.96717 14.4871 5.58779 16.1405 6.82902 17.1773C8.27724 18.6256 10.9652 19.8668 17.5861 19.8668C22.9665 19.8668 26.2769 18.8322 27.5174 17.591C28.345 16.7633 28.7586 15.7291 28.7586 14.6945H15.1021V10.5583H33.5169L33.5181 10.7582Z" fill="black"/>
<path d="M61.6454 18.4122C62.0594 17.9986 62.266 17.3776 62.266 16.757C62.266 16.1363 62.0594 15.5157 61.6454 15.1021C61.0248 14.4815 59.5765 14.0675 51.9214 13.6539C43.0232 13.2399 40.3349 12.4123 38.887 10.9641C38.0594 10.1368 37.6458 8.68859 37.6458 7.24037C37.6458 5.58515 38.0594 3.92993 39.094 2.68946C40.5422 1.03423 43.6449 0 51.5063 0C57.7124 0 62.2633 0.827612 65.1628 2.06884V6.41239C61.8527 4.96416 56.2683 3.92955 51.5063 3.92955C45.5075 3.92955 43.6449 4.55017 43.0228 5.17078C42.6092 5.58477 42.4022 5.99839 42.4022 6.61901C42.4022 7.24 42.6092 7.65361 42.8158 8.06723C43.4364 8.68822 44.8846 9.10184 52.125 9.51546C61.4342 9.92945 64.1263 10.7571 65.5742 12.2053C66.4018 13.0329 67.0224 14.4811 67.0224 16.1341C67.0224 17.7893 66.6084 19.4445 65.5742 20.685C63.9189 22.3402 60.8159 23.5814 52.5398 23.5814C46.3336 23.5814 40.3349 22.5468 37.0244 21.0986V16.7551C40.3349 18.4103 47.3705 19.6515 52.5398 19.6515C58.7459 19.8585 60.8159 19.4449 61.6416 18.4103L61.6454 18.4122Z" fill="black"/>
<path d="M109.869 23.3892H105.318V4.35605L93.5243 23.3892H87.5255L75.7316 4.35605V23.3892H71.1807V0.630859H78.6273L90.6248 20.2861L102.622 0.630859H109.862L109.869 23.3892Z" fill="black"/>
<path d="M134.076 0.389648L148.973 23.3554H143.593L140.075 17.975H121.457L117.94 23.3554H112.767L127.664 0.389648H134.076ZM123.937 13.8388H137.594L130.766 3.08174L123.937 13.8388Z" fill="black"/>
<path d="M143.577 1.21897H142.129V0.391357H145.853V1.21897H144.405V5.56251H143.577V1.21897Z" fill="black"/>
<path d="M146.895 0.389648H147.722L149.17 2.8721L150.619 0.389648H151.446V5.56269H150.619V1.83863L149.17 4.32108L147.722 1.83863V5.56269H146.895V0.389648Z" fill="black"/>
</svg>
