<svg width="92" height="16" viewBox="0 0 92 16" fill="none" xmlns="http://www.w3.org/2000/svg">
<path d="M20.3613 7.24547V8.87923C20.3613 10.7645 19.8588 12.0217 18.979 13.0272C17.722 14.2842 15.4609 15.2895 10.6831 15.2895C5.27992 15.2895 3.01697 14.1585 1.75952 12.7769C0.628497 11.6458 0 10.0123 0 8.00131C0 6.11605 0.628497 4.35722 1.75952 3.22575C3.01628 1.96898 5.52957 0.713135 10.6831 0.713135C14.7051 0.713135 17.8475 1.46714 19.4806 2.3469V5.11146C17.5956 3.98021 14.3271 3.2262 10.6831 3.2262C6.913 3.2262 5.02797 3.98021 4.14844 4.85997C3.39443 5.61398 3.01742 6.61948 3.01742 8.00245C3.01742 9.5107 3.39443 10.5151 4.14844 11.1449C5.0282 12.0247 6.66105 12.7787 10.6831 12.7787C13.9515 12.7787 15.9625 12.1502 16.7161 11.3962C17.2188 10.8934 17.4701 10.2652 17.4701 9.63668H9.17412V7.12407H20.3606L20.3613 7.24547Z" fill="black"/>
<path d="M37.4478 11.8952C37.6993 11.644 37.8248 11.2667 37.8248 10.8897C37.8248 10.5127 37.6993 10.1357 37.4478 9.88445C37.0708 9.50744 36.191 9.25595 31.5407 9.00469C26.1353 8.7532 24.5022 8.25045 23.6227 7.37069C23.1199 6.86817 22.8687 5.98841 22.8687 5.10865C22.8687 4.10315 23.1199 3.09765 23.7484 2.3441C24.6282 1.3386 26.513 0.710327 31.2886 0.710327C35.0586 0.710327 37.8232 1.21308 39.5845 1.96709V4.60568C37.5737 3.72592 34.1814 3.09742 31.2886 3.09742C27.6445 3.09742 26.513 3.47443 26.1351 3.85144C25.8838 4.10293 25.7581 4.35419 25.7581 4.73119C25.7581 5.10843 25.8838 5.35969 26.0093 5.61095C26.3863 5.98818 27.2661 6.23945 31.6644 6.49071C37.3195 6.7422 38.9549 7.24494 39.8344 8.1247C40.3372 8.62745 40.7142 9.50722 40.7142 10.5113C40.7142 11.5168 40.4627 12.5223 39.8344 13.2759C38.8289 14.2814 36.9439 15.0354 31.9164 15.0354C28.1463 15.0354 24.5022 14.4069 22.4912 13.5272V10.8886C24.5022 11.8941 28.7762 12.6481 31.9164 12.6481C35.6864 12.7738 36.9439 12.5226 37.4455 11.8941L37.4478 11.8952Z" fill="black"/>
<path d="M66.7434 14.9185H63.9788V3.35639L56.8143 14.9185H53.1703L46.0058 3.35639V14.9185H43.2412V1.09344H47.7648L55.053 13.0335L62.3412 1.09344H66.7388L66.7434 14.9185Z" fill="black"/>
<path d="M81.4478 0.947021L90.4973 14.8981H87.2289L85.0923 11.6296H73.7822L71.6454 14.8981H68.5029L77.5524 0.947021H81.4478ZM75.2888 9.11701H83.5848L79.4368 2.5824L75.2888 9.11701Z" fill="black"/>
<path d="M87.2196 1.45094H86.3398V0.948181H88.6021V1.45094H87.7224V4.08952H87.2196V1.45094Z" fill="black"/>
<path d="M89.2344 0.947021H89.7371L90.6169 2.45505L91.4966 0.947021H91.9992V4.0895H91.4966V1.82724L90.6169 3.33526L89.7371 1.82724V4.0895H89.2344V0.947021Z" fill="black"/>
</svg>
