<svg width="93" height="16" viewBox="0 0 93 16" fill="none" xmlns="http://www.w3.org/2000/svg">
<path d="M20.6279 7.24571V8.87948C20.6279 10.7647 20.1254 12.022 19.2456 13.0275C17.9886 14.2845 15.7275 15.2897 10.9497 15.2897C5.54652 15.2897 3.28357 14.1587 2.02612 12.7771C0.895099 11.6461 0.266602 10.0126 0.266602 8.00155C0.266602 6.11629 0.895099 4.35747 2.02612 3.22599C3.28288 1.96923 5.79618 0.713379 10.9497 0.713379C14.9717 0.713379 18.1142 1.46739 19.7472 2.34715V5.11171C17.8622 3.98046 14.5937 3.22645 10.9497 3.22645C7.1796 3.22645 5.29457 3.98046 4.41504 4.86021C3.66103 5.61423 3.28402 6.61973 3.28402 8.00269C3.28402 9.51095 3.66103 10.5153 4.41504 11.1452C5.2948 12.0249 6.92765 12.7789 10.9497 12.7789C14.2181 12.7789 16.2291 12.1504 16.9827 11.3964C17.4854 10.8937 17.7367 10.2654 17.7367 9.63692H9.44072V7.12431H20.6272L20.6279 7.24571Z" fill="black"/>
<path d="M37.7144 11.8953C37.9659 11.6441 38.0914 11.2669 38.0914 10.8898C38.0914 10.5128 37.9659 10.1358 37.7144 9.88457C37.3374 9.50757 36.4576 9.25607 31.8073 9.00481C26.4019 8.75332 24.7688 8.25057 23.8893 7.37082C23.3865 6.8683 23.1353 5.98853 23.1353 5.10878C23.1353 4.10327 23.3865 3.09777 24.015 2.34422C24.8948 1.33872 26.7796 0.710449 31.5552 0.710449C35.3252 0.710449 38.0898 1.2132 39.8511 1.96721V4.6058C37.8403 3.72604 34.448 3.09754 31.5552 3.09754C27.9111 3.09754 26.7796 3.47455 26.4017 3.85156C26.1504 4.10305 26.0247 4.35431 26.0247 4.73131C26.0247 5.10855 26.1504 5.35981 26.2759 5.61107C26.6529 5.98831 27.5327 6.23957 31.931 6.49083C37.5861 6.74232 39.2215 7.24507 40.101 8.12482C40.6038 8.62757 40.9808 9.50734 40.9808 10.5115C40.9808 11.517 40.7293 12.5225 40.101 13.276C39.0955 14.2815 37.2105 15.0355 32.183 15.0355C28.4129 15.0355 24.7688 14.407 22.7578 13.5273V10.8887C24.7688 11.8942 29.0428 12.6482 32.183 12.6482C35.953 12.774 37.2105 12.5227 37.7121 11.8942L37.7144 11.8953Z" fill="black"/>
<path d="M67.01 14.9186H64.2454V3.35646L57.0809 14.9186H53.4369L46.2724 3.35646V14.9186H43.5078V1.09351H48.0314L55.3196 13.0336L62.6078 1.09351H67.0054L67.01 14.9186Z" fill="black"/>
<path d="M81.7144 0.947266L90.7639 14.8983H87.4955L85.3589 11.6299H74.0488L71.912 14.8983H68.7695L77.819 0.947266H81.7144ZM75.5554 9.11726H83.8514L79.7034 2.58264L75.5554 9.11726Z" fill="black"/>
<path d="M87.4862 1.451H86.6064V0.948242H88.8687V1.451H87.989V4.08958H87.4862V1.451Z" fill="black"/>
<path d="M89.501 0.947266H90.0037L90.8835 2.45529L91.7632 0.947266H92.2658V4.08975H91.7632V1.82748L90.8835 3.33551L90.0037 1.82748V4.08975H89.501V0.947266Z" fill="black"/>
</svg>
