<svg width="92" height="16" viewBox="0 0 92 16" fill="none" xmlns="http://www.w3.org/2000/svg">
<path d="M20.3613 7.24571V8.87948C20.3613 10.7647 19.8588 12.022 18.979 13.0275C17.722 14.2845 15.4609 15.2897 10.6831 15.2897C5.27992 15.2897 3.01697 14.1587 1.75952 12.7771C0.628497 11.6461 0 10.0126 0 8.00155C0 6.11629 0.628497 4.35747 1.75952 3.22599C3.01628 1.96923 5.52957 0.713379 10.6831 0.713379C14.7051 0.713379 17.8475 1.46739 19.4806 2.34715V5.11171C17.5956 3.98046 14.3271 3.22645 10.6831 3.22645C6.913 3.22645 5.02797 3.98046 4.14844 4.86021C3.39443 5.61423 3.01742 6.61973 3.01742 8.00269C3.01742 9.51095 3.39443 10.5153 4.14844 11.1452C5.0282 12.0249 6.66105 12.7789 10.6831 12.7789C13.9515 12.7789 15.9625 12.1504 16.7161 11.3964C17.2188 10.8937 17.4701 10.2654 17.4701 9.63692H9.17412V7.12431H20.3606L20.3613 7.24571Z" fill="black"/>
<path d="M37.4478 11.8953C37.6993 11.6441 37.8248 11.2669 37.8248 10.8898C37.8248 10.5128 37.6993 10.1358 37.4478 9.88457C37.0708 9.50757 36.191 9.25607 31.5407 9.00481C26.1353 8.75332 24.5022 8.25057 23.6227 7.37082C23.1199 6.8683 22.8687 5.98853 22.8687 5.10878C22.8687 4.10327 23.1199 3.09777 23.7484 2.34422C24.6282 1.33872 26.513 0.710449 31.2886 0.710449C35.0586 0.710449 37.8232 1.2132 39.5845 1.96721V4.6058C37.5737 3.72604 34.1814 3.09754 31.2886 3.09754C27.6445 3.09754 26.513 3.47455 26.1351 3.85156C25.8838 4.10305 25.7581 4.35431 25.7581 4.73131C25.7581 5.10855 25.8838 5.35981 26.0093 5.61107C26.3863 5.98831 27.2661 6.23957 31.6644 6.49083C37.3195 6.74232 38.9549 7.24507 39.8344 8.12482C40.3372 8.62757 40.7142 9.50734 40.7142 10.5115C40.7142 11.517 40.4627 12.5225 39.8344 13.276C38.8289 14.2815 36.9439 15.0355 31.9164 15.0355C28.1463 15.0355 24.5022 14.407 22.4912 13.5273V10.8887C24.5022 11.8942 28.7762 12.6482 31.9164 12.6482C35.6864 12.774 36.9439 12.5227 37.4455 11.8942L37.4478 11.8953Z" fill="black"/>
<path d="M66.7434 14.9186H63.9788V3.35646L56.8143 14.9186H53.1703L46.0058 3.35646V14.9186H43.2412V1.09351H47.7648L55.053 13.0336L62.3412 1.09351H66.7388L66.7434 14.9186Z" fill="black"/>
<path d="M81.4478 0.947266L90.4973 14.8983H87.2289L85.0923 11.6299H73.7822L71.6454 14.8983H68.5029L77.5524 0.947266H81.4478ZM75.2888 9.11726H83.5848L79.4368 2.58264L75.2888 9.11726Z" fill="black"/>
<path d="M87.2196 1.451H86.3398V0.948242H88.6021V1.451H87.7224V4.08958H87.2196V1.451Z" fill="black"/>
<path d="M89.2344 0.947266H89.7371L90.6169 2.45529L91.4966 0.947266H91.9992V4.08975H91.4966V1.82748L90.6169 3.33551L89.7371 1.82748V4.08975H89.2344V0.947266Z" fill="black"/>
</svg>
