<svg width="116" height="26" viewBox="0 0 116 26" fill="none" xmlns="http://www.w3.org/2000/svg">
<g clip-path="url(#clip0_1863_1268)">
<path d="M34.9999 3.05688V20.765H31.5371V3.05688H34.9999Z" fill="#012D6C"/>
<path d="M48.9914 13.7099V20.7369H45.7458V13.9066C45.7458 11.6674 44.9493 10.5477 43.3564 10.5477C42.9847 10.5225 42.6128 10.594 42.271 10.7564C41.9291 10.9188 41.6268 11.1675 41.3886 11.4823C40.8902 12.2448 40.6465 13.1731 40.6986 14.1104V20.765H37.4658V7.76502H40.2961L40.5964 9.38123C41.0024 8.83303 41.5127 8.38929 42.0914 8.08123C42.7689 7.74452 43.5077 7.58344 44.2508 7.61042C44.8749 7.58345 45.4976 7.69388 46.0824 7.93522C46.6671 8.17656 47.2022 8.54395 47.6561 9.01583C48.5463 9.96682 48.9914 11.5315 48.9914 13.7099Z" fill="#012D6C"/>
<path d="M54.4417 17.8275C54.9659 18.2056 55.5851 18.3925 56.2114 18.3616C56.7758 18.3924 57.3382 18.2667 57.8469 17.9962C58.027 17.9011 58.1786 17.7513 58.2839 17.5646C58.3892 17.3778 58.4437 17.1619 58.4411 16.9421C58.454 16.7975 58.4359 16.6516 58.3882 16.5161C58.3405 16.3807 58.2645 16.2594 58.1664 16.1621C57.9281 15.9757 57.6515 15.8574 57.3614 15.8178C57.0228 15.7405 56.4733 15.6562 55.7067 15.5508C54.8269 15.4383 53.9571 15.2456 53.1064 14.9746C52.4724 14.7754 51.9001 14.3889 51.4517 13.8573C51.0124 13.2966 50.7839 12.5729 50.8128 11.8335C50.8026 11.0326 51.0265 10.2492 51.4517 9.59889C51.9033 8.9209 52.5217 8.39912 53.2342 8.09511C54.0741 7.72274 54.9738 7.54108 55.8792 7.56106C57.2526 7.50265 58.6103 7.89923 59.7764 8.69944C60.2493 9.03418 60.6419 9.48929 60.921 10.0263C61.2002 10.5632 61.3576 11.1662 61.38 11.7843H58.3261C58.302 11.5377 58.2259 11.3007 58.1039 11.0921C57.9819 10.8835 57.8173 10.7091 57.6233 10.5827C57.1398 10.2507 56.5765 10.0866 56.0069 10.1119C55.4905 10.0853 54.9774 10.2167 54.5247 10.4913C54.3557 10.5878 54.2135 10.7328 54.1134 10.911C54.0133 11.0891 53.9589 11.2938 53.9561 11.5032C53.9466 11.6389 53.9693 11.775 54.022 11.8981C54.0746 12.0213 54.1554 12.1273 54.2564 12.2059C54.4948 12.373 54.7626 12.4831 55.0422 12.5292C55.3617 12.5994 55.8983 12.6767 56.6522 12.7611C57.9304 12.8638 59.1772 13.2461 60.3194 13.8854C60.7478 14.1782 61.0941 14.5959 61.3196 15.0921C61.5452 15.5883 61.6413 16.1435 61.5972 16.6962C61.6105 17.5022 61.3714 18.2887 60.92 18.9238C60.418 19.6034 59.7545 20.1166 59.0033 20.4065C58.1101 20.769 57.1633 20.9453 56.2114 20.9265C54.8091 20.9842 53.4251 20.5619 52.2503 19.7178C51.7603 19.3535 51.3568 18.8655 51.0734 18.2946C50.7899 17.7237 50.6349 17.0865 50.6211 16.4362H53.7005C53.7191 16.715 53.7955 16.9854 53.924 17.2267C54.0525 17.4679 54.2296 17.6735 54.4417 17.8275Z" fill="#012D6C"/>
<path d="M75.0391 10.7726C75.521 11.8666 75.7597 13.0708 75.7355 14.2861C75.7657 15.502 75.5267 16.7078 75.0391 17.7996C74.6095 18.7542 73.9456 19.5575 73.1224 20.1185C72.2685 20.6748 71.2909 20.9595 70.2986 20.9407C69.6171 20.9739 68.9383 20.828 68.3184 20.5152C67.6984 20.2023 67.1551 19.7315 66.7336 19.1418V25.8456H63.4561V7.76501H66.3055L66.6249 9.55691C67.0318 8.96583 67.5563 8.48508 68.1583 8.1515C68.8232 7.78263 69.5604 7.59923 70.3049 7.61745C71.2884 7.59845 72.2573 7.88068 73.1033 8.43258C73.9366 8.9957 74.6078 9.80705 75.0391 10.7726ZM72.4836 14.2369C72.5253 13.2614 72.2387 12.3033 71.6786 11.5456C71.4095 11.2059 71.0732 10.9387 70.6955 10.7645C70.3178 10.5903 69.9088 10.5137 69.4999 10.5407C69.1036 10.5246 68.7091 10.6088 68.347 10.7866C67.9848 10.9645 67.6645 11.2313 67.4108 11.5666C66.864 12.3308 66.5871 13.2868 66.6313 14.258C66.5859 15.2423 66.8624 16.212 67.4108 16.9915C67.6632 17.328 67.9834 17.5953 68.346 17.7721C68.7086 17.949 69.1037 18.0306 69.4999 18.0104C69.9032 18.0248 70.3042 17.9373 70.6719 17.7545C71.0396 17.5718 71.3643 17.2987 71.6211 16.9564C72.1894 16.1912 72.4847 15.2243 72.4516 14.2369H72.4836Z" fill="#012D6C"/>
<path d="M81.0318 4.34988C81.037 4.61702 80.9926 4.88251 80.9014 5.13018C80.8103 5.37784 80.6742 5.60249 80.5015 5.79042C80.3268 5.9825 80.1182 6.13331 79.8886 6.2336C79.659 6.33389 79.4132 6.38155 79.1662 6.37366C78.9154 6.38211 78.6656 6.33482 78.4318 6.2346C78.1979 6.13438 77.9849 5.98331 77.8054 5.79042C77.6346 5.60793 77.499 5.38939 77.4068 5.1479C77.3146 4.90641 77.2676 4.64694 77.2687 4.38501C77.2654 4.12274 77.3113 3.86252 77.4036 3.62068C77.496 3.37883 77.6328 3.16058 77.8054 2.97961C78.1701 2.60384 78.6538 2.3996 79.1534 2.41042C79.3994 2.40191 79.6443 2.44792 79.8737 2.54571C80.1031 2.6435 80.3123 2.79106 80.4887 2.97961C80.6577 3.15666 80.7928 3.36909 80.8861 3.60442C80.9794 3.83974 81.0289 4.09319 81.0318 4.34988ZM80.7762 7.76502V20.765H77.5307V7.76502H80.7762Z" fill="#012D6C"/>
<path d="M90.226 10.9972H88.9483C88.5691 10.9633 88.1881 11.0284 87.8361 11.1871C87.4842 11.3459 87.1713 11.5938 86.923 11.9108C86.4633 12.6355 86.2383 13.5091 86.2841 14.3913V20.7648H83.0449V7.7648H85.9902L86.2841 9.71129C86.6013 9.11195 87.052 8.61135 87.5938 8.2567C88.2419 7.89609 88.9639 7.72661 89.6894 7.7648H90.2388L90.226 10.9972Z" fill="#012D6C"/>
<path d="M102.812 20.765H99.937L99.6367 19.198C99.2355 19.7225 98.7422 20.1527 98.1864 20.4628C97.553 20.787 96.8594 20.9434 96.1612 20.9196C95.5411 20.9452 94.9226 20.834 94.3421 20.5926C93.7617 20.3512 93.2311 19.9846 92.7814 19.5142C91.904 18.5773 91.4675 17.0126 91.4717 14.8201V7.79311H94.7173V14.4196C94.6601 15.3513 94.8558 16.2806 95.2795 17.0899C95.4749 17.3887 95.7366 17.6276 96.0396 17.7839C96.3427 17.9401 96.677 18.0084 97.0109 17.9823C97.3809 18.0066 97.7505 17.928 98.0855 17.7535C98.4205 17.5791 98.7101 17.3146 98.9275 16.9845C99.4055 16.1454 99.6292 15.1613 99.5664 14.1736V7.77905H102.812V20.765Z" fill="#012D6C"/>
<path d="M108.472 17.8276C108.997 18.2048 109.616 18.3916 110.242 18.3617C110.806 18.3931 111.369 18.2674 111.877 17.9963C112.058 17.9015 112.211 17.752 112.317 17.5653C112.423 17.3787 112.479 17.1625 112.478 16.9422C112.487 16.8005 112.466 16.6584 112.418 16.5268C112.369 16.3952 112.293 16.2777 112.197 16.1833C111.968 15.9924 111.701 15.8668 111.417 15.8179C111.079 15.7406 110.529 15.6563 109.763 15.5509C108.883 15.4377 108.013 15.245 107.162 14.9747C106.529 14.7738 105.957 14.3876 105.508 13.8574C105.068 13.2971 104.839 12.5731 104.869 11.8336C104.858 11.0327 105.082 10.2493 105.508 9.59898C105.959 8.92099 106.578 8.39921 107.29 8.0952C108.13 7.72283 109.03 7.54117 109.935 7.56115C111.308 7.5036 112.666 7.90012 113.832 8.69952C114.304 9.03463 114.696 9.48999 114.974 10.027C115.252 10.564 115.408 11.1668 115.43 11.7844H112.35C112.323 11.5387 112.246 11.3029 112.124 11.0948C112.002 10.8867 111.839 10.7116 111.647 10.5828C111.161 10.2518 110.596 10.0879 110.025 10.112C109.508 10.0861 108.995 10.2174 108.542 10.4914C108.374 10.5882 108.233 10.7335 108.134 10.9117C108.035 11.09 107.982 11.2944 107.98 11.5033C107.969 11.6384 107.991 11.7743 108.042 11.8975C108.094 12.0208 108.174 12.1271 108.274 12.206C108.513 12.3718 108.78 12.4818 109.06 12.5293C109.379 12.5995 109.916 12.6768 110.67 12.7611C111.948 12.8624 113.195 13.2447 114.337 13.8855C114.765 14.1783 115.112 14.596 115.337 15.0922C115.563 15.5884 115.659 16.1436 115.615 16.6963C115.626 17.5031 115.385 18.2897 114.931 18.9238C114.431 19.6051 113.767 20.1187 113.015 20.4066C112.121 20.7691 111.175 20.9454 110.223 20.9266C108.808 20.9976 107.409 20.5772 106.223 19.7249C105.741 19.3541 105.346 18.8625 105.07 18.2907C104.795 17.719 104.647 17.0833 104.639 16.4363H107.718C107.739 16.7159 107.818 16.9866 107.949 17.2276C108.08 17.4687 108.259 17.6739 108.472 17.8276Z" fill="#012D6C"/>
<path d="M0.78159 14.813C0.516054 13.9619 0.447976 13.0512 0.583534 12.1638C0.813534 11.0957 1.57381 10.6741 2.45548 10.4773C2.89345 10.3862 3.33867 10.3438 3.78437 10.3508C9.56631 10.3508 15.3483 10.3508 21.1302 10.3508C21.5912 10.3891 22.0525 10.2818 22.46 10.0415C22.8674 9.80129 23.204 9.43809 23.4302 8.99463C23.4658 8.9345 23.5088 8.8801 23.558 8.83301H23.7113C23.815 9.55359 23.8684 10.2818 23.871 11.0114C23.788 12.3044 22.868 13.0633 21.4177 13.1827C21.1494 13.1827 20.8874 13.1827 20.6255 13.1827H3.57992C2.00187 13.2108 1.77826 13.3514 0.78159 14.813Z" fill="#012D6C"/>
<path d="M0.640625 9.63421C0.864236 8.93151 1.03674 8.14448 1.31785 7.44178C1.57674 6.80675 1.9911 6.26343 2.51461 5.87253C3.03812 5.48164 3.65015 5.25857 4.28229 5.22826C4.52916 5.21413 4.77653 5.21413 5.0234 5.22826C10.1345 5.22826 15.2456 5.22826 20.3567 5.22826C20.8742 5.22826 21.3278 5.22826 21.4748 4.32178C21.7919 4.83439 22.0737 5.37227 22.3181 5.93097C22.409 6.17431 22.4415 6.43931 22.4122 6.70043C22.383 6.96155 22.2931 7.20999 22.1512 7.42181C22.0094 7.63363 21.8203 7.8017 21.6022 7.90981C21.3841 8.01792 21.1444 8.06244 20.9062 8.03907C15.3415 8.03907 9.77674 8.03907 4.21201 8.03907C2.82563 8.03907 1.65646 8.37637 0.806736 9.71151L0.666181 9.62718" fill="#012D6C"/>
<path d="M23.6277 13.8994C23.3082 16.921 21.8899 18.3686 19.4813 18.3545C14.3702 18.3545 9.20796 18.3545 4.07129 18.3545C3.55379 18.3545 3.11296 18.3967 2.96601 19.0994H2.83185C2.53271 18.592 2.2761 18.0557 2.06518 17.4973C1.99824 17.2716 1.98179 17.0314 2.01724 16.7973C2.05268 16.5631 2.13896 16.3418 2.26876 16.1521C2.39856 15.9625 2.56805 15.81 2.76284 15.7078C2.95763 15.6056 3.17198 15.5565 3.38768 15.5648C4.23101 15.5648 5.06796 15.5648 5.94324 15.5648C10.6838 15.5648 15.4243 15.5086 20.1649 15.5648C21.5577 15.5648 22.7843 15.2978 23.6596 13.9556" fill="#012D6C"/>
<path d="M5.24707 20.9898C5.53347 20.8782 5.8286 20.7958 6.12874 20.7438C6.65263 20.7017 7.1829 20.7087 7.71318 20.7087H16.2232C16.8616 20.7469 17.5014 20.7469 18.1398 20.7087C18.7472 20.6026 19.3486 20.4595 19.9415 20.28C15.9612 24.5454 9.18263 24.5525 5.24707 20.9827" fill="#012D6C"/>
<path d="M18.9446 2.68479C18.5745 2.75112 18.2011 2.79335 17.8265 2.81127H8.02595C6.74817 2.81127 5.47039 2.67776 4.30762 3.37344C6.39172 1.21982 9.14025 0.0146068 11.9998 0.000462769C14.7471 -0.0698075 17.6732 1.14587 18.9446 2.481C18.9446 2.54425 18.9446 2.61452 18.9446 2.68479Z" fill="#012D6C"/>
</g>
<defs>
<clipPath id="clip0_1863_1268">
<rect width="115" height="26" fill="white" transform="translate(0.5)"/>
</clipPath>
</defs>
</svg>
