<svg width="157" height="32" viewBox="0 0 157 32" fill="none" xmlns="http://www.w3.org/2000/svg">
<g clip-path="url(#clip0_1863_1268)">
<path d="M46.9678 3.76196V25.5566H42.2705V3.76196H46.9678Z" fill="#012D6C"/>
<path d="M65.9472 16.8735V25.5221H61.5445V17.1157C61.5445 14.3596 60.4641 12.9816 58.3032 12.9816C57.799 12.9506 57.2945 13.0386 56.8308 13.2384C56.367 13.4383 55.9569 13.7444 55.6338 14.1319C54.9577 15.0703 54.6271 16.2129 54.6978 17.3665V25.5567H50.3125V9.55674H54.1518L54.5592 11.5459C55.11 10.8712 55.8022 10.3251 56.5872 9.94593C57.5063 9.53151 58.5085 9.33326 59.5165 9.36647C60.3631 9.33328 61.2078 9.46919 62.0011 9.76622C62.7943 10.0633 63.5201 10.5154 64.1358 11.0962C65.3434 12.2666 65.9472 14.1924 65.9472 16.8735Z" fill="#012D6C"/>
<path d="M73.3399 21.9414C74.051 22.4068 74.891 22.6368 75.7406 22.5987C76.5062 22.6366 77.2691 22.482 77.9592 22.149C78.2035 22.032 78.4092 21.8476 78.552 21.6178C78.6948 21.3879 78.7688 21.1221 78.7652 20.8517C78.7828 20.6738 78.7582 20.4942 78.6935 20.3274C78.6288 20.1607 78.5257 20.0114 78.3926 19.8917C78.0694 19.6623 77.6941 19.5167 77.3006 19.4679C76.8412 19.3728 76.0959 19.269 75.0559 19.1393C73.8625 19.0009 72.6826 18.7637 71.5286 18.4301C70.6685 18.1849 69.8922 17.7093 69.2839 17.055C68.688 16.3649 68.3781 15.4742 68.4172 14.5641C68.4034 13.5784 68.7072 12.6143 69.2839 11.8139C69.8965 10.9794 70.7355 10.3372 71.7019 9.96306C72.8412 9.50476 74.0617 9.28118 75.2899 9.30577C77.153 9.23388 78.9947 9.72198 80.5766 10.7068C81.2181 11.1188 81.7507 11.679 82.1293 12.3399C82.508 13.0007 82.7215 13.7429 82.7519 14.5036H78.6092C78.5765 14.2001 78.4733 13.9084 78.3078 13.6517C78.1423 13.3949 77.9191 13.1803 77.6559 13.0247C77 12.6161 76.2359 12.4141 75.4632 12.4452C74.7626 12.4126 74.0667 12.5742 73.4526 12.9123C73.2233 13.031 73.0305 13.2094 72.8946 13.4287C72.7588 13.648 72.6851 13.8999 72.6812 14.1577C72.6684 14.3247 72.6992 14.4921 72.7706 14.6437C72.842 14.7953 72.9515 14.9258 73.0886 15.0225C73.4121 15.2282 73.7752 15.3637 74.1546 15.4204C74.5879 15.5068 75.3159 15.602 76.3386 15.7058C78.0725 15.8322 79.7637 16.3027 81.3132 17.0896C81.8944 17.4499 82.364 17.964 82.67 18.5747C82.976 19.1854 83.1064 19.8688 83.0466 20.549C83.0646 21.541 82.7402 22.509 82.1279 23.2906C81.4469 24.1271 80.5469 24.7587 79.5279 25.1155C78.3162 25.5617 77.0319 25.7787 75.7406 25.7555C73.8383 25.8266 71.9609 25.3069 70.3672 24.2679C69.7026 23.8195 69.1552 23.2189 68.7707 22.5163C68.3863 21.8136 68.1759 21.0294 68.1572 20.229H72.3346C72.3597 20.5722 72.4634 20.905 72.6377 21.2019C72.812 21.4988 73.0522 21.7518 73.3399 21.9414Z" fill="#012D6C"/>
<path d="M101.281 13.2583C101.935 14.6047 102.258 16.0869 102.226 17.5826C102.267 19.0792 101.942 20.5632 101.281 21.9069C100.698 23.0818 99.7976 24.0705 98.681 24.761C97.5226 25.4457 96.1965 25.796 94.8504 25.7729C93.926 25.8137 93.0052 25.6342 92.1642 25.2492C91.3232 24.8642 90.5862 24.2847 90.0144 23.5588V31.8097H85.5684V9.55668H89.4337L89.867 11.7621C90.4189 11.0346 91.1305 10.4429 91.947 10.0324C92.849 9.57836 93.849 9.35263 94.859 9.37506C96.1931 9.35167 97.5074 9.69903 98.655 10.3783C99.7855 11.0714 100.696 12.0699 101.281 13.2583ZM97.8144 17.5221C97.871 16.3215 97.4822 15.1422 96.7224 14.2097C96.3574 13.7916 95.9012 13.4628 95.3888 13.2483C94.8764 13.0339 94.3216 12.9397 93.767 12.9729C93.2293 12.9531 92.6943 13.0567 92.203 13.2756C91.7117 13.4945 91.2772 13.8229 90.933 14.2356C90.1913 15.1761 89.8158 16.3527 89.8757 17.548C89.814 18.7595 90.1891 19.953 90.933 20.9124C91.2755 21.3265 91.7098 21.6555 92.2017 21.8731C92.6936 22.0908 93.2295 22.1912 93.767 22.1664C94.3141 22.1841 94.858 22.0764 95.3568 21.8515C95.8556 21.6266 96.2961 21.2905 96.6444 20.8691C97.4154 19.9273 97.816 18.7374 97.771 17.5221H97.8144Z" fill="#012D6C"/>
<path d="M109.411 5.35334C109.418 5.68212 109.357 6.00889 109.234 6.31371C109.11 6.61853 108.925 6.89501 108.691 7.12631C108.454 7.36272 108.171 7.54833 107.86 7.67176C107.548 7.7952 107.215 7.85386 106.88 7.84415C106.54 7.85455 106.201 7.79634 105.884 7.673C105.566 7.54965 105.277 7.36372 105.034 7.12631C104.802 6.90171 104.618 6.63274 104.493 6.33552C104.368 6.0383 104.304 5.71895 104.306 5.39658C104.301 5.07378 104.364 4.75351 104.489 4.45586C104.614 4.15821 104.8 3.88959 105.034 3.66685C105.529 3.20437 106.185 2.953 106.863 2.96631C107.196 2.95585 107.528 3.01247 107.84 3.13283C108.151 3.25318 108.435 3.43479 108.674 3.66685C108.903 3.88476 109.086 4.14622 109.213 4.43585C109.339 4.72547 109.407 5.03742 109.411 5.35334ZM109.064 9.55658V25.5566H104.661V9.55658H109.064Z" fill="#012D6C"/>
<path d="M121.882 13.5349H120.149C119.634 13.4932 119.117 13.5732 118.64 13.7686C118.163 13.964 117.738 14.2692 117.401 14.6593C116.778 15.5512 116.472 16.6264 116.535 17.7122V25.5565H112.141V9.55655H116.136L116.535 11.9522C116.965 11.2146 117.576 10.5985 118.311 10.162C119.19 9.71814 120.17 9.50954 121.154 9.55655H121.899L121.882 13.5349Z" fill="#012D6C"/>
<path d="M138.956 25.5567H135.056L134.648 23.628C134.104 24.2736 133.435 24.803 132.681 25.1848C131.822 25.5837 130.881 25.7763 129.934 25.7469C129.092 25.7784 128.253 25.6416 127.466 25.3445C126.679 25.0474 125.959 24.5962 125.349 24.0172C124.159 22.8641 123.567 20.9383 123.572 18.2399V9.59127H127.975V17.7469C127.897 18.8936 128.163 20.0375 128.738 21.0334C129.003 21.4013 129.358 21.6953 129.769 21.8876C130.18 22.0798 130.633 22.1639 131.086 22.1318C131.588 22.1618 132.09 22.0649 132.544 21.8503C132.998 21.6356 133.391 21.3101 133.686 20.9037C134.335 19.8711 134.638 18.6599 134.553 17.4442V9.57397H138.956V25.5567Z" fill="#012D6C"/>
<path d="M146.634 21.9415C147.345 22.4058 148.185 22.6356 149.034 22.5988C149.8 22.6374 150.563 22.4828 151.253 22.1491C151.498 22.0324 151.705 21.8484 151.849 21.6187C151.994 21.3889 152.069 21.1229 152.068 20.8518C152.08 20.6773 152.052 20.5024 151.986 20.3404C151.92 20.1785 151.817 20.0339 151.686 19.9177C151.377 19.6827 151.013 19.5282 150.629 19.468C150.17 19.3728 149.424 19.2691 148.384 19.1393C147.191 19.0001 146.011 18.7629 144.857 18.4301C143.998 18.1829 143.222 17.7077 142.612 17.055C142.016 16.3654 141.706 15.4744 141.746 14.5642C141.732 13.5785 142.036 12.6144 142.612 11.8139C143.225 10.9795 144.064 10.3373 145.03 9.96312C146.17 9.50482 147.39 9.28124 148.618 9.30582C150.481 9.235 152.323 9.72302 153.905 10.7069C154.545 11.1193 155.077 11.6798 155.454 12.3407C155.831 13.0017 156.043 13.7436 156.072 14.5037H151.894C151.858 14.2013 151.753 13.9111 151.588 13.655C151.423 13.3988 151.202 13.1833 150.941 13.0247C150.281 12.6174 149.515 12.4157 148.74 12.4453C148.039 12.4135 147.343 12.5751 146.729 12.9123C146.501 13.0314 146.309 13.2102 146.175 13.4296C146.04 13.649 145.968 13.9006 145.966 14.1577C145.952 14.324 145.981 14.4913 146.051 14.6429C146.121 14.7946 146.229 14.9255 146.365 15.0226C146.689 15.2266 147.052 15.362 147.431 15.4204C147.864 15.5069 148.592 15.602 149.615 15.7058C151.349 15.8304 153.041 16.301 154.59 17.0896C155.171 17.45 155.64 17.9641 155.946 18.5748C156.252 19.1855 156.383 19.8689 156.323 20.5491C156.338 21.5421 156.011 22.5102 155.396 23.2907C154.717 24.1291 153.816 24.7613 152.796 25.1156C151.584 25.5617 150.3 25.7787 149.008 25.7556C147.089 25.8431 145.191 25.3256 143.583 24.2766C142.929 23.8202 142.393 23.2152 142.019 22.5115C141.645 21.8077 141.445 21.0254 141.434 20.2291H145.611C145.64 20.5732 145.747 20.9063 145.924 21.203C146.101 21.4997 146.344 21.7523 146.634 21.9415Z" fill="#012D6C"/>
<path d="M0.549263 18.2313C0.189059 17.1838 0.0967092 16.063 0.280597 14.9708C0.592597 13.6562 1.62393 13.1373 2.81993 12.8951C3.41405 12.7829 4.01799 12.7307 4.6226 12.7394C12.4659 12.7394 20.3093 12.7394 28.1526 12.7394C28.7779 12.7865 29.4038 12.6545 29.9565 12.3588C30.5092 12.0631 30.9658 11.6161 31.2726 11.0703C31.3208 10.9962 31.3792 10.9293 31.4459 10.8713H31.6539C31.7946 11.7582 31.867 12.6545 31.8706 13.5524C31.7579 15.1438 30.5099 16.0778 28.5426 16.2249C28.1786 16.2249 27.8233 16.2249 27.4679 16.2249H4.34526C2.2046 16.2594 1.90126 16.4324 0.549263 18.2313Z" fill="#012D6C"/>
<path d="M0.358398 11.8572C0.661732 10.9924 0.895732 10.0237 1.27707 9.15885C1.62826 8.37728 2.19035 7.70857 2.9005 7.22747C3.61065 6.74637 4.44088 6.47182 5.2984 6.43452C5.63328 6.41713 5.96885 6.41713 6.30373 6.43452C13.2371 6.43452 20.1704 6.43452 27.1037 6.43452C27.8057 6.43452 28.4211 6.43452 28.6204 5.31885C29.0505 5.94975 29.4329 6.61177 29.7644 7.29939C29.8877 7.59889 29.9317 7.92504 29.892 8.24642C29.8524 8.5678 29.7305 8.87357 29.538 9.13428C29.3456 9.39498 29.0891 9.60183 28.7933 9.73489C28.4974 9.86795 28.1723 9.92274 27.8491 9.89398C20.3004 9.89398 12.7517 9.89398 5.20307 9.89398C3.3224 9.89398 1.7364 10.3091 0.583732 11.9524L0.393065 11.8486" fill="#012D6C"/>
<path d="M31.5409 17.1069C31.1076 20.8259 29.1836 22.6075 25.9162 22.5902C18.9829 22.5902 11.9802 22.5902 5.01225 22.5902C4.31025 22.5902 3.71225 22.6421 3.51291 23.5069H3.33091C2.92512 22.8824 2.57703 22.2224 2.29091 21.535C2.20011 21.2573 2.1778 20.9617 2.22588 20.6735C2.27395 20.3853 2.391 20.1129 2.56708 19.8795C2.74316 19.6461 2.97307 19.4585 3.23731 19.3326C3.50155 19.2068 3.79231 19.1464 4.08491 19.1567C5.22891 19.1567 6.36425 19.1567 7.55158 19.1567C13.9822 19.1567 20.4129 19.0875 26.8436 19.1567C28.7329 19.1567 30.3969 18.828 31.5842 17.1761" fill="#012D6C"/>
<path d="M6.60645 25.8335C6.99495 25.6961 7.39531 25.5948 7.80245 25.5308C8.51311 25.4789 9.23245 25.4875 9.95178 25.4875H21.4958C22.3618 25.5345 23.2298 25.5345 24.0958 25.4875C24.9196 25.3569 25.7355 25.1808 26.5398 24.96C21.1404 30.2097 11.9451 30.2183 6.60645 25.8248" fill="#012D6C"/>
<path d="M25.1883 3.3037C24.6863 3.38533 24.1799 3.43731 23.6717 3.45937H10.377C8.64367 3.45937 6.91034 3.29505 5.33301 4.15126C8.16013 1.50065 11.8886 0.0173204 15.7677 -8.77397e-05C19.4943 -0.0865742 23.4637 1.40964 25.1883 3.05289C25.1883 3.13072 25.1883 3.21721 25.1883 3.3037Z" fill="#012D6C"/>
</g>
<defs>
<clipPath id="clip0_1863_1268">
<rect width="156" height="32" fill="white" transform="translate(0.166992)"/>
</clipPath>
</defs>
</svg>
