<svg width="116" height="26" viewBox="0 0 116 26" fill="none" xmlns="http://www.w3.org/2000/svg">
<g clip-path="url(#clip0_1863_1268)">
<path d="M34.9999 3.05676V20.7649H31.5371V3.05676H34.9999Z" fill="#012D6C"/>
<path d="M48.9914 13.7098V20.7368H45.7458V13.9065C45.7458 11.6672 44.9493 10.5476 43.3564 10.5476C42.9847 10.5224 42.6128 10.5939 42.271 10.7563C41.9291 10.9187 41.6268 11.1673 41.3886 11.4822C40.8902 12.2446 40.6465 13.173 40.6986 14.1103V20.7649H37.4658V7.76489H40.2961L40.5964 9.38111C41.0024 8.8329 41.5127 8.38917 42.0914 8.08111C42.7689 7.7444 43.5077 7.58332 44.2508 7.6103C44.8749 7.58333 45.4976 7.69376 46.0824 7.9351C46.6671 8.17644 47.2022 8.54383 47.6561 9.0157C48.5463 9.9667 48.9914 11.5314 48.9914 13.7098Z" fill="#012D6C"/>
<path d="M54.4417 17.8277C54.9659 18.2058 55.5851 18.3926 56.2114 18.3617C56.7758 18.3925 57.3382 18.2669 57.8469 17.9963C58.027 17.9012 58.1786 17.7514 58.2839 17.5647C58.3892 17.3779 58.4437 17.162 58.4411 16.9423C58.454 16.7977 58.4359 16.6517 58.3882 16.5163C58.3405 16.3808 58.2645 16.2595 58.1664 16.1623C57.9281 15.9759 57.6515 15.8575 57.3614 15.8179C57.0228 15.7406 56.4733 15.6563 55.7067 15.5509C54.8269 15.4385 53.9571 15.2457 53.1064 14.9747C52.4724 14.7755 51.9001 14.3891 51.4517 13.8574C51.0124 13.2967 50.7839 12.573 50.8128 11.8336C50.8026 11.0327 51.0265 10.2494 51.4517 9.59902C51.9033 8.92102 52.5217 8.39924 53.2342 8.09523C54.0741 7.72287 54.9738 7.5412 55.8792 7.56118C57.2526 7.50277 58.6103 7.89936 59.7764 8.69956C60.2493 9.0343 60.6419 9.48941 60.921 10.0264C61.2002 10.5633 61.3576 11.1664 61.38 11.7844H58.3261C58.302 11.5378 58.2259 11.3008 58.1039 11.0922C57.9819 10.8836 57.8173 10.7092 57.6233 10.5828C57.1398 10.2508 56.5765 10.0867 56.0069 10.112C55.4905 10.0854 54.9774 10.2168 54.5247 10.4914C54.3557 10.5879 54.2135 10.7329 54.1134 10.9111C54.0133 11.0892 53.9589 11.2939 53.9561 11.5033C53.9466 11.639 53.9693 11.7751 54.022 11.8983C54.0746 12.0214 54.1554 12.1275 54.2564 12.206C54.4948 12.3731 54.7626 12.4833 55.0422 12.5293C55.3617 12.5996 55.8983 12.6769 56.6522 12.7612C57.9304 12.8639 59.1772 13.2462 60.3194 13.8855C60.7478 14.1783 61.0941 14.596 61.3196 15.0922C61.5452 15.5884 61.6413 16.1437 61.5972 16.6963C61.6105 17.5023 61.3714 18.2888 60.92 18.9239C60.418 19.6035 59.7545 20.1167 59.0033 20.4066C58.1101 20.7691 57.1633 20.9454 56.2114 20.9266C54.8091 20.9844 53.4251 20.5621 52.2503 19.7179C51.7603 19.3536 51.3568 18.8656 51.0734 18.2947C50.7899 17.7238 50.6349 17.0866 50.6211 16.4363H53.7005C53.7191 16.7151 53.7955 16.9856 53.924 17.2268C54.0525 17.468 54.2296 17.6736 54.4417 17.8277V17.8277Z" fill="#012D6C"/>
<path d="M75.0391 10.7725C75.521 11.8664 75.7597 13.0707 75.7355 14.286C75.7657 15.5019 75.5267 16.7077 75.0391 17.7995C74.6095 18.7541 73.9456 19.5573 73.1224 20.1184C72.2685 20.6747 71.2909 20.9593 70.2986 20.9406C69.6171 20.9738 68.9383 20.8279 68.3184 20.5151C67.6984 20.2022 67.1551 19.7314 66.7336 19.1417V25.8454H63.4561V7.76489H66.3055L66.6249 9.55678C67.0318 8.96571 67.5563 8.48496 68.1583 8.15138C68.8232 7.78251 69.5604 7.59911 70.3049 7.61732C71.2884 7.59832 72.2573 7.88055 73.1033 8.43246C73.9366 8.99558 74.6078 9.80693 75.0391 10.7725V10.7725ZM72.4836 14.2368C72.5253 13.2613 72.2387 12.3031 71.6786 11.5454C71.4095 11.2058 71.0732 10.9386 70.6955 10.7644C70.3178 10.5902 69.9088 10.5136 69.4999 10.5406C69.1036 10.5245 68.7091 10.6086 68.347 10.7865C67.9848 10.9644 67.6645 11.2312 67.4108 11.5665C66.864 12.3307 66.5871 13.2867 66.6313 14.2579C66.5859 15.2422 66.8624 16.2119 67.4108 16.9914C67.6632 17.3279 67.9834 17.5952 68.346 17.772C68.7086 17.9489 69.1037 18.0304 69.4999 18.0103C69.9032 18.0247 70.3042 17.9371 70.6719 17.7544C71.0396 17.5717 71.3643 17.2986 71.6211 16.9562C72.1894 16.1911 72.4847 15.2242 72.4516 14.2368H72.4836Z" fill="#012D6C"/>
<path d="M81.0318 4.34976C81.037 4.61689 80.9926 4.88239 80.9014 5.13005C80.8103 5.37772 80.6742 5.60237 80.5015 5.7903C80.3268 5.98238 80.1182 6.13318 79.8886 6.23348C79.659 6.33377 79.4132 6.38143 79.1662 6.37354C78.9154 6.38199 78.6656 6.33469 78.4318 6.23448C78.1979 6.13426 77.9849 5.98319 77.8054 5.7903C77.6346 5.60781 77.499 5.38927 77.4068 5.14778C77.3146 4.90629 77.2676 4.64681 77.2687 4.38489C77.2654 4.12261 77.3113 3.86239 77.4036 3.62055C77.496 3.37871 77.6328 3.16046 77.8054 2.97949C78.1701 2.60372 78.6538 2.39948 79.1534 2.4103C79.3994 2.40179 79.6443 2.4478 79.8737 2.54559C80.1031 2.64338 80.3123 2.79094 80.4887 2.97949C80.6577 3.15654 80.7928 3.36897 80.8861 3.60429C80.9794 3.83961 81.0289 4.09307 81.0318 4.34976ZM80.7762 7.76489V20.7649H77.5307V7.76489H80.7762Z" fill="#012D6C"/>
<path d="M90.226 10.9974H88.9483C88.5691 10.9634 88.1881 11.0285 87.8361 11.1872C87.4842 11.346 87.1713 11.5939 86.923 11.9109C86.4633 12.6356 86.2383 13.5092 86.2841 14.3914V20.7649H83.0449V7.76493H85.9902L86.2841 9.71141C86.6013 9.11207 87.052 8.61147 87.5938 8.25682C88.2419 7.89621 88.9639 7.72673 89.6894 7.76493H90.2388L90.226 10.9974Z" fill="#012D6C"/>
<path d="M102.812 20.7649H99.937L99.6367 19.1979C99.2355 19.7224 98.7422 20.1525 98.1864 20.4627C97.553 20.7869 96.8594 20.9433 96.1612 20.9195C95.5411 20.945 94.9226 20.8339 94.3421 20.5925C93.7617 20.3511 93.2311 19.9845 92.7814 19.5141C91.904 18.5771 91.4675 17.0124 91.4717 14.82V7.79299H94.7173V14.4195C94.6601 15.3512 94.8558 16.2805 95.2795 17.0897C95.4749 17.3886 95.7366 17.6275 96.0396 17.7837C96.3427 17.9399 96.677 18.0083 97.0109 17.9822C97.3809 18.0065 97.7505 17.9278 98.0855 17.7534C98.4205 17.579 98.7101 17.3145 98.9275 16.9843C99.4055 16.1453 99.6292 15.1612 99.5664 14.1735V7.77893H102.812V20.7649Z" fill="#012D6C"/>
<path d="M108.472 17.8276C108.997 18.2048 109.616 18.3916 110.242 18.3617C110.806 18.3931 111.369 18.2674 111.877 17.9963C112.058 17.9015 112.211 17.752 112.317 17.5653C112.423 17.3787 112.479 17.1625 112.478 16.9422C112.487 16.8005 112.466 16.6584 112.418 16.5268C112.369 16.3952 112.293 16.2777 112.197 16.1833C111.968 15.9924 111.701 15.8668 111.417 15.8179C111.079 15.7406 110.529 15.6563 109.763 15.5509C108.883 15.4377 108.013 15.245 107.162 14.9747C106.529 14.7738 105.957 14.3876 105.508 13.8574C105.068 13.2971 104.839 12.5731 104.869 11.8336C104.858 11.0327 105.082 10.2493 105.508 9.59898C105.959 8.92099 106.578 8.39921 107.29 8.0952C108.13 7.72283 109.03 7.54117 109.935 7.56115C111.308 7.5036 112.666 7.90012 113.832 8.69952C114.304 9.03463 114.696 9.48999 114.974 10.027C115.252 10.564 115.408 11.1668 115.43 11.7844H112.35C112.323 11.5387 112.246 11.3029 112.124 11.0948C112.002 10.8867 111.839 10.7116 111.647 10.5828C111.161 10.2518 110.596 10.0879 110.025 10.112C109.508 10.0861 108.995 10.2174 108.542 10.4914C108.374 10.5882 108.233 10.7335 108.134 10.9117C108.035 11.09 107.982 11.2944 107.98 11.5033C107.969 11.6384 107.991 11.7743 108.042 11.8975C108.094 12.0208 108.174 12.1271 108.274 12.206C108.513 12.3718 108.78 12.4818 109.06 12.5293C109.379 12.5995 109.916 12.6768 110.67 12.7611C111.948 12.8624 113.195 13.2447 114.337 13.8855C114.765 14.1783 115.112 14.596 115.337 15.0922C115.563 15.5884 115.659 16.1436 115.615 16.6963C115.626 17.5031 115.385 18.2897 114.931 18.9238C114.431 19.6051 113.767 20.1187 113.015 20.4066C112.121 20.7691 111.175 20.9454 110.223 20.9266C108.808 20.9976 107.409 20.5772 106.223 19.7249C105.741 19.3541 105.346 18.8625 105.07 18.2907C104.795 17.719 104.647 17.0833 104.639 16.4363H107.718C107.739 16.7159 107.818 16.9866 107.949 17.2276C108.08 17.4687 108.259 17.6739 108.472 17.8276V17.8276Z" fill="#012D6C"/>
<path d="M0.78159 14.813C0.516054 13.9619 0.447976 13.0512 0.583534 12.1638C0.813534 11.0957 1.57381 10.6741 2.45548 10.4773C2.89345 10.3862 3.33867 10.3438 3.78437 10.3508C9.56631 10.3508 15.3483 10.3508 21.1302 10.3508C21.5912 10.3891 22.0525 10.2818 22.46 10.0415C22.8674 9.80129 23.204 9.43809 23.4302 8.99463C23.4658 8.9345 23.5088 8.8801 23.558 8.83301H23.7113C23.815 9.55359 23.8684 10.2818 23.871 11.0114C23.788 12.3044 22.868 13.0633 21.4177 13.1827C21.1494 13.1827 20.8874 13.1827 20.6255 13.1827H3.57992C2.00187 13.2108 1.77826 13.3514 0.78159 14.813Z" fill="#012D6C"/>
<path d="M0.640625 9.63409C0.864236 8.93138 1.03674 8.14436 1.31785 7.44166C1.57674 6.80663 1.9911 6.26331 2.51461 5.87241C3.03812 5.48152 3.65015 5.25845 4.28229 5.22814C4.52916 5.21401 4.77653 5.21401 5.0234 5.22814C10.1345 5.22814 15.2456 5.22814 20.3567 5.22814C20.8742 5.22814 21.3278 5.22814 21.4748 4.32166C21.7919 4.83427 22.0737 5.37215 22.3181 5.93084C22.409 6.17419 22.4414 6.43919 22.4122 6.70031C22.383 6.96143 22.2931 7.20987 22.1512 7.42169C22.0094 7.63351 21.8203 7.80158 21.6022 7.90969C21.3841 8.0178 21.1444 8.06232 20.9062 8.03895C15.3415 8.03895 9.77674 8.03895 4.21201 8.03895C2.82563 8.03895 1.65646 8.37625 0.806736 9.71138L0.666181 9.62706" fill="#012D6C"/>
<path d="M23.6277 13.8995C23.3082 16.9212 21.8899 18.3687 19.4813 18.3547C14.3702 18.3547 9.20796 18.3547 4.07129 18.3547C3.55379 18.3547 3.11296 18.3968 2.96601 19.0995H2.83185C2.53271 18.5921 2.2761 18.0559 2.06518 17.4974C1.99824 17.2717 1.98179 17.0316 2.01724 16.7974C2.05268 16.5632 2.13896 16.3419 2.26876 16.1522C2.39856 15.9626 2.56805 15.8102 2.76284 15.7079C2.95763 15.6057 3.17198 15.5566 3.38768 15.5649C4.23101 15.5649 5.06796 15.5649 5.94324 15.5649C10.6838 15.5649 15.4243 15.5087 20.1649 15.5649C21.5577 15.5649 22.7843 15.2979 23.6596 13.9558" fill="#012D6C"/>
<path d="M5.24707 20.9898C5.53347 20.8782 5.8286 20.7958 6.12874 20.7438C6.65263 20.7017 7.1829 20.7087 7.71318 20.7087H16.2232C16.8616 20.7469 17.5014 20.7469 18.1398 20.7087C18.7472 20.6026 19.3486 20.4595 19.9415 20.28C15.9612 24.5454 9.18263 24.5525 5.24707 20.9827" fill="#012D6C"/>
<path d="M18.9446 2.68479C18.5745 2.75112 18.2011 2.79335 17.8265 2.81127H8.02595C6.74817 2.81127 5.4704 2.67776 4.30762 3.37344C6.39172 1.21982 9.14025 0.0146068 11.9998 0.000462769C14.7471 -0.0698075 17.6732 1.14587 18.9446 2.481C18.9446 2.54425 18.9446 2.61452 18.9446 2.68479" fill="#012D6C"/>
</g>
<defs>
<clipPath id="clip0_1863_1268">
<rect width="115" height="26" fill="white" transform="translate(0.5)"/>
</clipPath>
</defs>
</svg>
