<svg width="116" height="26" viewBox="0 0 116 26" fill="none" xmlns="http://www.w3.org/2000/svg">
<g clip-path="url(#clip0_1900_5279)">
<path d="M35.2323 3.05688V20.765H31.7695V3.05688H35.2323Z" fill="black"/>
<path d="M49.2238 13.7099V20.7369H45.9782V13.9066C45.9782 11.6674 45.1818 10.5477 43.5888 10.5477C43.2171 10.5225 42.8453 10.594 42.5034 10.7564C42.1615 10.9188 41.8592 11.1675 41.621 11.4823C41.1226 12.2448 40.8789 13.1731 40.931 14.1104V20.765H37.6982V7.76502H40.5285L40.8288 9.38123C41.2348 8.83303 41.7451 8.38929 42.3238 8.08123C43.0013 7.74452 43.7402 7.58344 44.4832 7.61042C45.1073 7.58345 45.73 7.69388 46.3148 7.93522C46.8996 8.17656 47.4346 8.54395 47.8885 9.01583C48.7787 9.96682 49.2238 11.5315 49.2238 13.7099Z" fill="black"/>
<path d="M54.6741 17.8275C55.1983 18.2056 55.8175 18.3925 56.4438 18.3616C57.0082 18.3924 57.5706 18.2667 58.0794 17.9962C58.2594 17.9011 58.4111 17.7513 58.5163 17.5646C58.6216 17.3778 58.6761 17.1619 58.6735 16.9421C58.6865 16.7975 58.6684 16.6516 58.6206 16.5161C58.5729 16.3807 58.4969 16.2594 58.3988 16.1621C58.1606 15.9757 57.8839 15.8574 57.5938 15.8178C57.2552 15.7405 56.7057 15.6562 55.9391 15.5508C55.0593 15.4383 54.1895 15.2456 53.3388 14.9746C52.7048 14.7754 52.1325 14.3889 51.6841 13.8573C51.2448 13.2966 51.0163 12.5729 51.0452 11.8335C51.035 11.0326 51.259 10.2492 51.6841 9.59889C52.1357 8.9209 52.7542 8.39912 53.4666 8.09511C54.3065 7.72274 55.2062 7.54108 56.1116 7.56106C57.485 7.50265 58.8427 7.89923 60.0088 8.69944C60.4817 9.03418 60.8743 9.48929 61.1535 10.0263C61.4326 10.5632 61.59 11.1662 61.6124 11.7843H58.5585C58.5344 11.5377 58.4583 11.3007 58.3363 11.0921C58.2143 10.8835 58.0498 10.7091 57.8557 10.5827C57.3722 10.2507 56.8089 10.0866 56.2393 10.1119C55.7229 10.0853 55.2098 10.2167 54.7571 10.4913C54.5881 10.5878 54.446 10.7328 54.3458 10.911C54.2457 11.0891 54.1914 11.2938 54.1885 11.5032C54.1791 11.6389 54.2018 11.775 54.2544 11.8981C54.307 12.0213 54.3878 12.1273 54.4888 12.2059C54.7273 12.373 54.995 12.4831 55.2746 12.5292C55.5941 12.5994 56.1307 12.6767 56.8846 12.7611C58.1629 12.8638 59.4096 13.2461 60.5518 13.8854C60.9803 14.1782 61.3265 14.5959 61.5521 15.0921C61.7776 15.5883 61.8737 16.1435 61.8296 16.6962C61.8429 17.5022 61.6038 18.2887 61.1524 18.9238C60.6504 19.6034 59.987 20.1166 59.2357 20.4065C58.3425 20.769 57.3957 20.9453 56.4438 20.9265C55.0415 20.9842 53.6575 20.5619 52.4827 19.7178C51.9927 19.3535 51.5892 18.8655 51.3058 18.2946C51.0224 17.7237 50.8673 17.0865 50.8535 16.4362H53.933C53.9515 16.715 54.0279 16.9854 54.1564 17.2267C54.2849 17.4679 54.462 17.6735 54.6741 17.8275Z" fill="black"/>
<path d="M75.2715 10.7726C75.7534 11.8666 75.9921 13.0708 75.9679 14.2861C75.9981 15.502 75.7591 16.7078 75.2715 17.7996C74.8419 18.7542 74.178 19.5575 73.3549 20.1185C72.5009 20.6748 71.5233 20.9595 70.531 20.9407C69.8496 20.9739 69.1707 20.828 68.5508 20.5152C67.9308 20.2023 67.3876 19.7315 66.966 19.1418V25.8456H63.6885V7.76501H66.5379L66.8574 9.55691C67.2642 8.96583 67.7887 8.48508 68.3907 8.1515C69.0556 7.78263 69.7928 7.59923 70.5374 7.61745C71.5208 7.59845 72.4897 7.88068 73.3357 8.43258C74.1691 8.9957 74.8403 9.80705 75.2715 10.7726ZM72.716 14.2369C72.7577 13.2614 72.4711 12.3033 71.911 11.5456C71.6419 11.2059 71.3056 10.9387 70.9279 10.7645C70.5502 10.5903 70.1412 10.5137 69.7324 10.5407C69.336 10.5246 68.9416 10.6088 68.5794 10.7866C68.2172 10.9645 67.8969 11.2313 67.6432 11.5666C67.0964 12.3308 66.8196 13.2868 66.8638 14.258C66.8183 15.2423 67.0948 16.212 67.6432 16.9915C67.8956 17.328 68.2158 17.5953 68.5785 17.7721C68.9411 17.949 69.3361 18.0306 69.7324 18.0104C70.1357 18.0248 70.5366 17.9373 70.9043 17.7545C71.272 17.5718 71.5967 17.2987 71.8535 16.9564C72.4219 16.1912 72.7171 15.2243 72.684 14.2369H72.716Z" fill="black"/>
<path d="M81.2642 4.34988C81.2694 4.61702 81.225 4.88251 81.1339 5.13018C81.0427 5.37784 80.9066 5.60249 80.7339 5.79042C80.5592 5.9825 80.3506 6.13331 80.121 6.2336C79.8914 6.33389 79.6456 6.38155 79.3986 6.37366C79.1478 6.38211 78.898 6.33482 78.6642 6.2346C78.4304 6.13438 78.2173 5.98331 78.0378 5.79042C77.867 5.60793 77.7314 5.38939 77.6392 5.1479C77.547 4.90641 77.5 4.64694 77.5011 4.38501C77.4978 4.12274 77.5437 3.86252 77.6361 3.62068C77.7284 3.37883 77.8652 3.16058 78.0378 2.97961C78.4025 2.60384 78.8862 2.3996 79.3859 2.41042C79.6318 2.40191 79.8767 2.44792 80.1061 2.54571C80.3355 2.6435 80.5447 2.79106 80.7211 2.97961C80.8901 3.15666 81.0253 3.36909 81.1185 3.60442C81.2118 3.83974 81.2613 4.09319 81.2642 4.34988ZM81.0086 7.76502V20.765H77.7631V7.76502H81.0086Z" fill="black"/>
<path d="M90.4585 10.9972H89.1807C88.8015 10.9633 88.4205 11.0284 88.0685 11.1871C87.7166 11.3459 87.4037 11.5938 87.1554 11.9108C86.6957 12.6355 86.4707 13.5091 86.5165 14.3913V20.7648H83.2773V7.7648H86.2226L86.5165 9.71129C86.8337 9.11195 87.2844 8.61135 87.8262 8.2567C88.4743 7.89609 89.1963 7.72661 89.9218 7.7648H90.4712L90.4585 10.9972Z" fill="black"/>
<path d="M103.044 20.765H100.169L99.8691 19.198C99.4679 19.7225 98.9746 20.1527 98.4189 20.4628C97.7855 20.787 97.0918 20.9434 96.3936 20.9196C95.7735 20.9452 95.155 20.834 94.5746 20.5926C93.9941 20.3512 93.4635 19.9846 93.0139 19.5142C92.1364 18.5773 91.6999 17.0126 91.7041 14.8201V7.79311H94.9497V14.4196C94.8926 15.3513 95.0882 16.2806 95.5119 17.0899C95.7073 17.3887 95.969 17.6276 96.272 17.7839C96.5751 17.9401 96.9095 18.0084 97.2433 17.9823C97.6133 18.0066 97.9829 17.928 98.3179 17.7535C98.6529 17.5791 98.9425 17.3146 99.16 16.9845C99.6379 16.1454 99.8616 15.1613 99.7989 14.1736V7.77905H103.044V20.765Z" fill="black"/>
<path d="M108.704 17.8276C109.229 18.2048 109.848 18.3916 110.474 18.3617C111.039 18.3931 111.601 18.2674 112.11 17.9963C112.291 17.9015 112.443 17.752 112.549 17.5653C112.656 17.3787 112.712 17.1625 112.71 16.9422C112.719 16.8005 112.699 16.6584 112.65 16.5268C112.601 16.3952 112.526 16.2777 112.429 16.1833C112.201 15.9924 111.933 15.8668 111.65 15.8179C111.311 15.7406 110.762 15.6563 109.995 15.5509C109.115 15.4377 108.246 15.245 107.395 14.9747C106.761 14.7738 106.189 14.3876 105.74 13.8574C105.3 13.2971 105.072 12.5731 105.101 11.8336C105.091 11.0327 105.315 10.2493 105.74 9.59898C106.192 8.92099 106.81 8.39921 107.522 8.0952C108.362 7.72283 109.262 7.54117 110.167 7.56115C111.541 7.5036 112.898 7.90012 114.065 8.69952C114.537 9.03463 114.928 9.48999 115.207 10.027C115.485 10.564 115.641 11.1668 115.662 11.7844H112.582C112.556 11.5387 112.478 11.3029 112.357 11.0948C112.235 10.8867 112.072 10.7116 111.88 10.5828C111.393 10.2518 110.828 10.0879 110.257 10.112C109.741 10.0861 109.228 10.2174 108.775 10.4914C108.606 10.5882 108.465 10.7335 108.366 10.9117C108.267 11.09 108.214 11.2944 108.212 11.5033C108.202 11.6384 108.223 11.7743 108.275 11.8975C108.326 12.0208 108.406 12.1271 108.506 12.206C108.745 12.3718 109.013 12.4818 109.292 12.5293C109.612 12.5995 110.148 12.6768 110.902 12.7611C112.181 12.8624 113.428 13.2447 114.569 13.8855C114.998 14.1783 115.344 14.596 115.57 15.0922C115.795 15.5884 115.891 16.1436 115.847 16.6963C115.859 17.5031 115.617 18.2897 115.164 18.9238C114.663 19.6051 113.999 20.1187 113.247 20.4066C112.354 20.7691 111.407 20.9454 110.455 20.9266C109.04 20.9976 107.641 20.5772 106.456 19.7249C105.973 19.3541 105.578 18.8625 105.303 18.2907C105.027 17.719 104.879 17.0833 104.871 16.4363H107.951C107.972 16.7159 108.051 16.9866 108.182 17.2276C108.312 17.4687 108.491 17.6739 108.704 17.8276Z" fill="black"/>
<path d="M1.01401 14.813C0.748476 13.9619 0.680398 13.0512 0.815956 12.1638C1.04596 11.0957 1.80623 10.6741 2.6879 10.4773C3.12587 10.3862 3.57109 10.3438 4.01679 10.3508C9.79873 10.3508 15.5807 10.3508 21.3626 10.3508C21.8236 10.3891 22.2849 10.2818 22.6924 10.0415C23.0998 9.80129 23.4364 9.43809 23.6626 8.99463C23.6982 8.9345 23.7412 8.8801 23.7904 8.83301H23.9437C24.0474 9.55359 24.1008 10.2818 24.1035 11.0114C24.0204 12.3044 23.1004 13.0633 21.6501 13.1827C21.3818 13.1827 21.1198 13.1827 20.8579 13.1827H3.81235C2.23429 13.2108 2.01068 13.3514 1.01401 14.813Z" fill="black"/>
<path d="M0.873047 9.63421C1.09666 8.93151 1.26916 8.14448 1.55027 7.44178C1.80917 6.80675 2.22352 6.26343 2.74703 5.87253C3.27054 5.48164 3.88257 5.25857 4.51471 5.22826C4.76158 5.21413 5.00896 5.21413 5.25582 5.22826C10.3669 5.22826 15.478 5.22826 20.5892 5.22826C21.1067 5.22826 21.5603 5.22826 21.7072 4.32178C22.0243 4.83439 22.3062 5.37227 22.5505 5.93097C22.6415 6.17431 22.6739 6.43931 22.6446 6.70043C22.6154 6.96155 22.5255 7.20999 22.3837 7.42181C22.2418 7.63363 22.0527 7.8017 21.8346 7.90981C21.6166 8.01792 21.3769 8.06244 21.1386 8.03907C15.5739 8.03907 10.0092 8.03907 4.44444 8.03907C3.05805 8.03907 1.88888 8.37637 1.03916 9.71151L0.898602 9.62718" fill="black"/>
<path d="M23.8601 13.8994C23.5407 16.921 22.1223 18.3686 19.7137 18.3545C14.6026 18.3545 9.44038 18.3545 4.30371 18.3545C3.78621 18.3545 3.34538 18.3967 3.19843 19.0994H3.06427C2.76513 18.592 2.50852 18.0557 2.2976 17.4973C2.23066 17.2716 2.21422 17.0314 2.24966 16.7973C2.2851 16.5631 2.37138 16.3418 2.50118 16.1521C2.63099 15.9625 2.80047 15.81 2.99527 15.7078C3.19006 15.6056 3.4044 15.5565 3.6201 15.5648C4.46343 15.5648 5.30038 15.5648 6.17566 15.5648C10.9162 15.5648 15.6568 15.5086 20.3973 15.5648C21.7901 15.5648 23.0168 15.2978 23.892 13.9556" fill="black"/>
<path d="M5.47949 20.9898C5.76589 20.8782 6.06102 20.7958 6.36116 20.7438C6.88505 20.7017 7.41533 20.7087 7.9456 20.7087H16.4556C17.094 20.7469 17.7339 20.7469 18.3723 20.7087C18.9796 20.6026 19.5811 20.4595 20.1739 20.28C16.1937 24.5454 9.41505 24.5525 5.47949 20.9827" fill="black"/>
<path d="M19.177 2.68479C18.8069 2.75112 18.4336 2.79335 18.0589 2.81127H8.25837C6.98059 2.81127 5.70282 2.67776 4.54004 3.37344C6.62414 1.21982 9.37267 0.0146068 12.2323 0.000462769C14.9795 -0.0698075 17.9056 1.14587 19.177 2.481C19.177 2.54425 19.177 2.61452 19.177 2.68479Z" fill="black"/>
</g>
<defs>
<clipPath id="clip0_1900_5279">
<rect width="115" height="26" fill="white" transform="translate(0.732422)"/>
</clipPath>
</defs>
</svg>
