<svg width="92" height="24" viewBox="0 0 92 24" fill="none" xmlns="http://www.w3.org/2000/svg">
<path d="M1.83301 23.0688V0.931337H8.27142L13.5164 9.50171L18.7613 0.931337H25.1997V23.0688H19.1382V10.3556L13.5164 19.0208H13.3907L7.80032 10.4188V23.0688H1.83301Z" fill="black"/>
<path d="M34.9724 23.227L27.6232 0.931337H34.0616L37.8933 13.7395L42.1332 0.868088H47.3782L51.6181 13.7395L55.4497 0.931337H61.7625L54.4133 23.227H49.1055L44.6772 10.4821L40.2802 23.227H34.9724Z" fill="black"/>
<path d="M73.5134 23.5116C67.232 23.5116 62.1755 18.673 62.1755 12.0633V12.0001C62.1755 5.54859 67.1063 0.488586 73.7646 0.488586C78.2558 0.488586 81.1452 2.38609 83.0925 5.10584L78.507 8.67946C77.2508 7.09821 75.8061 6.08621 73.7018 6.08621C70.6239 6.08621 68.4568 8.71109 68.4568 11.9368V12.0001C68.4568 15.3207 70.6239 17.914 73.7018 17.914C75.9945 17.914 77.345 16.8387 78.6641 15.2258L83.2495 18.5148C81.1766 21.3927 78.3814 23.5116 73.5134 23.5116Z" fill="black"/>
<path d="M86.539 4.38118V2.09555H85.6396V1.36243H88.2693V2.09555H87.3699V4.38118H86.539Z" fill="black"/>
<path d="M88.634 4.38118V1.36243H89.5119L90.2272 2.53111L90.9424 1.36243H91.8203V4.38118H90.9938V2.64755L90.2272 3.82918H90.21L89.4477 2.65618V4.38118H88.634Z" fill="black"/>
</svg>
