<svg width="129" height="34" viewBox="0 0 129 34" fill="none" xmlns="http://www.w3.org/2000/svg">
<path d="M2.17285 32.4001V1.60013H11.1929L18.5408 13.5241L25.8888 1.60013H34.9088V32.4001H26.4169V14.7121L18.5408 26.7681H18.3648L10.5329 14.8001V32.4001H2.17285Z" fill="black"/>
<path d="M48.6001 32.6201L38.3041 1.60013H47.3241L52.6921 19.4201L58.6321 1.51213H65.9801L71.9201 19.4201L77.2881 1.60013H86.1321L75.8361 32.6201H68.4001L62.1961 14.8881L56.0361 32.6201H48.6001Z" fill="black"/>
<path d="M102.595 33.0161C93.7946 33.0161 86.7106 26.2841 86.7106 17.0881V17.0001C86.7106 8.02413 93.6186 0.984131 102.947 0.984131C109.239 0.984131 113.287 3.62413 116.015 7.40813L109.591 12.3801C107.831 10.1801 105.807 8.77213 102.859 8.77213C98.5466 8.77213 95.5106 12.4241 95.5106 16.9121V17.0001C95.5106 21.6201 98.5466 25.2281 102.859 25.2281C106.071 25.2281 107.963 23.7321 109.811 21.4881L116.235 26.0641C113.331 30.0681 109.415 33.0161 102.595 33.0161Z" fill="black"/>
<path d="M120.843 6.39995V3.21995H119.583V2.19995H123.267V3.21995H122.007V6.39995H120.843Z" fill="black"/>
<path d="M123.778 6.39995V2.19995H125.008L126.01 3.82595L127.012 2.19995H128.242V6.39995H127.084V3.98795L126.01 5.63195H125.986L124.918 3.99995V6.39995H123.778Z" fill="black"/>
</svg>
