<svg width="92" height="24" viewBox="0 0 92 24" fill="none" xmlns="http://www.w3.org/2000/svg">
<path d="M1.5 23.0688V0.931276H7.93841L13.1834 9.50165L18.4283 0.931276H24.8667V23.0688H18.8052V10.3555L13.1834 19.0208H13.0577L7.46731 10.4188V23.0688H1.5Z" fill="black"/>
<path d="M34.6394 23.2269L27.2902 0.931276H33.7286L37.5603 13.7394L41.8002 0.868027H47.0451L51.2851 13.7394L55.1167 0.931276H61.4295L54.0803 23.2269H48.7725L44.3442 10.482L39.9472 23.2269H34.6394Z" fill="black"/>
<path d="M73.1803 23.5115C66.899 23.5115 61.8425 18.6729 61.8425 12.0633V12C61.8425 5.54853 66.7733 0.488525 73.4316 0.488525C77.9228 0.488525 80.8122 2.38603 82.7594 5.10578L78.174 8.6794C76.9178 7.09815 75.473 6.08615 73.3688 6.08615C70.2909 6.08615 68.1238 8.71103 68.1238 11.9368V12C68.1238 15.3207 70.2909 17.9139 73.3688 17.9139C75.6615 17.9139 77.012 16.8387 78.3311 15.2258L82.9165 18.5148C80.8436 21.3927 78.0484 23.5115 73.1803 23.5115Z" fill="black"/>
<path d="M86.206 4.38105V2.09543H85.3066V1.3623H87.9363V2.09543H87.0369V4.38105H86.206Z" fill="black"/>
<path d="M88.301 4.38105V1.3623H89.1789L89.8941 2.53099L90.6094 1.3623H91.4873V4.38105H90.6608V2.64743L89.8941 3.82905H89.877L89.1147 2.65605V4.38105H88.301Z" fill="black"/>
</svg>
