<svg width="92" height="24" viewBox="0 0 92 24" fill="none" xmlns="http://www.w3.org/2000/svg">
<path d="M1.83301 23.0688V0.931276H8.27142L13.5164 9.50165L18.7613 0.931276H25.1997V23.0688H19.1382V10.3555L13.5164 19.0208H13.3907L7.80032 10.4188V23.0688H1.83301Z" fill="black"/>
<path d="M34.9724 23.2269L27.6232 0.931276H34.0616L37.8933 13.7394L42.1332 0.868027H47.3782L51.6181 13.7394L55.4497 0.931276H61.7625L54.4133 23.2269H49.1055L44.6772 10.482L40.2802 23.2269H34.9724Z" fill="black"/>
<path d="M73.5134 23.5115C67.232 23.5115 62.1755 18.6729 62.1755 12.0633V12C62.1755 5.54853 67.1063 0.488525 73.7646 0.488525C78.2558 0.488525 81.1452 2.38603 83.0925 5.10578L78.507 8.6794C77.2508 7.09815 75.8061 6.08615 73.7018 6.08615C70.6239 6.08615 68.4568 8.71103 68.4568 11.9368V12C68.4568 15.3207 70.6239 17.9139 73.7018 17.9139C75.9945 17.9139 77.345 16.8387 78.6641 15.2258L83.2495 18.5148C81.1766 21.3927 78.3814 23.5115 73.5134 23.5115Z" fill="black"/>
<path d="M86.539 4.38105V2.09543H85.6396V1.3623H88.2693V2.09543H87.3699V4.38105H86.539Z" fill="black"/>
<path d="M88.634 4.38105V1.3623H89.5119L90.2272 2.53099L90.9424 1.3623H91.8203V4.38105H90.9938V2.64743L90.2272 3.82905H90.21L89.4477 2.65605V4.38105H88.634Z" fill="black"/>
</svg>
