<svg width="181" height="180" viewBox="0 0 181 180" fill="none" xmlns="http://www.w3.org/2000/svg">
<g clip-path="url(#clip0_6804_128)">
<path d="M2.99512 55.7671V0.652344H17.5284L21.7649 21.9395L22.9712 47.842H24.6261L25.7974 21.9395L30.1038 0.652344H44.6022V55.7671H35.7155V39.0252L37.3705 8.50757H35.6164L32.5163 39.6138L28.6936 55.6972H18.8396L15.0868 39.6138L11.9517 8.50757H10.2676L11.8876 39.0252V55.7671H2.99512Z" fill="black"/>
<path d="M64.2401 56.42C59.6482 56.42 56.3266 55.441 54.2871 53.4889C52.2417 51.5367 51.1753 48.3084 51.082 43.8097C51.0354 41.2632 50.9946 38.6817 50.9597 36.0769C50.9247 33.472 50.9072 30.8381 50.9072 28.1692C50.9072 25.5003 50.9247 22.8722 50.9597 20.2615C50.9946 17.6567 51.0354 15.0869 51.082 12.5636C51.1753 8.06494 52.2417 4.84244 54.2871 2.90194C56.3325 0.961443 59.6482 -0.0117188 64.2401 -0.0117188C68.8321 -0.0117188 72.1653 0.961443 74.1582 2.90194C76.157 4.84244 77.2117 8.06494 77.3283 12.5636C77.4215 15.1102 77.4856 17.6975 77.5322 20.314C77.5789 22.9304 77.6022 25.5644 77.6022 28.2216C77.6022 30.8789 77.5789 33.4954 77.5322 36.0943C77.4856 38.6875 77.4157 41.2632 77.3283 43.8097C77.2117 48.3084 76.157 51.5367 74.1582 53.4889C72.1595 55.441 68.8554 56.42 64.2401 56.42ZM64.2401 49.1184C65.6387 49.1184 66.6876 48.8095 67.3752 48.186C68.0628 47.5683 68.4183 46.6476 68.4416 45.4297C68.5582 42.7899 68.6398 40.0103 68.698 37.0966C68.7563 34.183 68.7854 31.1994 68.7854 28.1575C68.7854 25.1157 68.7621 22.1379 68.7155 19.2184C68.6689 16.3048 68.5756 13.5484 68.4416 10.9495C68.4183 9.73156 68.057 8.81667 67.3577 8.19314C66.6585 7.56962 65.6154 7.26077 64.2401 7.26077C62.8649 7.26077 61.816 7.56962 61.105 8.19314C60.3941 8.81084 60.0153 9.73156 59.9687 10.9495C59.8755 13.5426 59.7997 16.2989 59.7473 19.2184C59.689 22.1321 59.6599 25.1157 59.6599 28.1575C59.6599 31.1994 59.689 34.1771 59.7473 37.0966C59.8055 40.0103 59.8755 42.7899 59.9687 45.4297C60.0153 46.6476 60.3941 47.5625 61.105 48.186C61.816 48.8037 62.8591 49.1184 64.2401 49.1184Z" fill="black"/>
<path d="M83.6689 55.7671V0.652344H95.242C99.8805 0.652344 103.266 1.6022 105.405 3.51356C107.538 5.41909 108.622 8.56584 108.645 12.9538V15.8675C108.645 16.7532 108.622 17.6215 108.575 18.4665C108.435 20.809 107.922 22.6738 107.042 24.0665C106.157 25.4534 104.775 26.4732 102.893 27.1142V28.6643C104.822 29.3053 106.244 30.325 107.165 31.7119C108.085 33.1047 108.575 35.016 108.645 37.446C108.691 38.5241 108.715 39.5205 108.715 40.4238C108.715 41.327 108.691 42.3468 108.645 43.4715C108.482 47.8361 107.374 50.9771 105.323 52.8942C103.266 54.8114 99.9213 55.7729 95.2828 55.7729H83.6748L83.6689 55.7671ZM92.5556 23.8684H95.242C96.7105 23.8684 97.8235 23.3789 98.581 22.4057C99.3386 21.4326 99.729 20.034 99.7523 18.2217C99.7756 17.2136 99.7873 16.2462 99.7873 15.3255C99.7873 14.4048 99.7756 13.4666 99.7523 12.4993C99.729 11.1648 99.3386 10.1684 98.581 9.50404C97.8235 8.83972 96.7105 8.50757 95.242 8.50757H92.5556V23.8684ZM92.5556 47.9119H95.277C96.7454 47.9119 97.8585 47.5273 98.616 46.7581C99.3736 45.9889 99.7523 44.8584 99.7523 43.3666V37.8539C99.7523 35.6512 99.391 34.0778 98.6685 33.1338C97.9459 32.1898 96.7804 31.7236 95.1721 31.7236H92.5556V47.9119Z" fill="black"/>
<path d="M114.886 55.7671V0.652344H123.772V55.7671H114.886Z" fill="black"/>
<path d="M130.211 55.7671V0.652344H139.098V47.9119H152.017V55.7671H130.211Z" fill="black"/>
<path d="M158.422 55.7671V0.652344H180.158V8.50757H167.309V23.8684H179.47V31.7236H167.309V47.9119H180.158V55.7671H158.422Z" fill="black"/>
<path d="M4.85998 117.281L0 62.166H8.95658L10.5766 86.2795L11.7479 109.426H13.5369L13.7758 86.2795L17.8724 62.5098H29.7543L33.8159 86.2795L34.0548 109.426H35.8438L36.9801 86.2795L38.6351 62.166H47.5917L42.7026 117.281H27.9595L25.6868 101.227L24.6845 70.0853H22.8955L21.8991 101.227L19.5914 117.281H4.85998Z" fill="black"/>
<path d="M64.2401 117.933C59.6482 117.933 56.3266 116.954 54.2871 115.002C52.2417 113.049 51.1753 109.821 51.082 105.322C51.0354 102.776 50.9946 100.194 50.9597 97.5896C50.9247 94.9847 50.9072 92.3508 50.9072 89.6819C50.9072 87.013 50.9247 84.3849 50.9597 81.7742C50.9946 79.1694 51.0354 76.5996 51.082 74.0763C51.1753 69.5776 52.2417 66.3551 54.2871 64.4146C56.3325 62.4741 59.6482 61.501 64.2401 61.501C68.8321 61.501 72.1595 62.4741 74.1582 64.4146C76.157 66.3551 77.2117 69.5776 77.3283 74.0763C77.4215 76.6229 77.4914 79.2102 77.5322 81.8267C77.5789 84.4431 77.6022 87.0771 77.6022 89.7343C77.6022 92.3916 77.5789 95.0081 77.5322 97.607C77.4856 100.2 77.4157 102.776 77.3283 105.322C77.2117 109.821 76.157 113.049 74.1582 115.002C72.1595 116.954 68.8554 117.933 64.2401 117.933ZM64.2401 110.631C65.6387 110.631 66.6876 110.322 67.3752 109.699C68.0628 109.081 68.4183 108.16 68.4416 106.942C68.5582 104.303 68.6398 101.523 68.698 98.6093C68.7563 95.6957 68.7854 92.7121 68.7854 89.6702C68.7854 86.6284 68.7621 83.6506 68.7155 80.7311C68.6689 77.8116 68.5756 75.0611 68.4416 72.4622C68.4183 71.2442 68.057 70.3294 67.3577 69.7058C66.6585 69.0881 65.6154 68.7735 64.2401 68.7735C62.8649 68.7735 61.816 69.0823 61.105 69.7058C60.3941 70.3235 60.0153 71.2442 59.9687 72.4622C59.8755 75.0553 59.8055 77.8116 59.7473 80.7311C59.689 83.6448 59.6599 86.6284 59.6599 89.6702C59.6599 92.7121 59.689 95.6898 59.7473 98.6093C59.8055 101.523 59.8813 104.303 59.9687 106.942C60.0153 108.16 60.3941 109.075 61.105 109.699C61.816 110.316 62.8591 110.631 64.2401 110.631Z" fill="black"/>
<path d="M83.6689 117.281V62.166H95.7256C100.341 62.166 103.686 63.1159 105.749 65.0272C107.817 66.9328 108.93 70.0795 109.088 74.4675C109.158 75.936 109.193 77.2646 109.193 78.4475V81.9439C109.193 83.0919 109.158 84.3681 109.088 85.7666C109.018 88.5696 108.546 90.8481 107.677 92.6021C106.803 94.3619 105.475 95.6847 103.68 96.5822L109.915 117.287H100.475L95.3061 98.0681H92.5497V117.287H83.6631L83.6689 117.281ZM92.5556 90.242H95.6907C97.1591 90.242 98.2605 89.8924 98.9948 89.1931C99.729 88.4938 100.131 87.509 100.201 86.2503C100.271 84.9392 100.318 83.5931 100.341 82.2003C100.364 80.8134 100.364 79.4265 100.341 78.0513C100.318 76.676 100.271 75.3299 100.201 74.0188C100.131 72.6843 99.7348 71.6879 99.0122 71.0235C98.2896 70.3592 97.1883 70.0271 95.7198 70.0271H92.5497V90.2479L92.5556 90.242Z" fill="black"/>
<path d="M114.886 117.281V62.166H123.772V109.426H136.692V117.281H114.886Z" fill="black"/>
<path d="M143.789 117.281V62.166H156.463C161.125 62.166 164.494 63.1683 166.574 65.1787C168.654 67.1892 169.738 70.4758 169.831 75.0502C169.901 78.5408 169.948 81.8565 169.971 84.9858C169.995 88.1209 169.995 91.256 169.971 94.3911C169.948 97.5262 169.901 100.848 169.831 104.362C169.738 108.954 168.654 112.258 166.574 114.262C164.494 116.273 161.125 117.275 156.463 117.275H143.789V117.281ZM152.676 109.426H156.463C157.932 109.426 159.039 109.082 159.785 108.394C160.531 107.706 160.916 106.704 160.939 105.399C161.009 102.759 161.061 100.131 161.096 97.5087C161.131 94.8922 161.149 92.2758 161.149 89.671C161.149 87.0661 161.131 84.4555 161.096 81.8507C161.061 79.2459 161.009 76.6294 160.939 74.013C160.916 72.6785 160.531 71.682 159.785 71.0177C159.039 70.3534 157.932 70.0212 156.463 70.0212H152.676V109.426Z" fill="black"/>
<path d="M2.99512 178.788V123.673H11.8818V170.932H24.8009V178.788H2.99512Z" fill="black"/>
<path d="M30.6055 178.788V123.673H39.4921V178.788H30.6055Z" fill="black"/>
<path d="M52.3057 178.788L44.8643 123.673H54.0248L57.8475 152.093L58.675 170.932H60.5689L61.3964 152.093L65.1841 123.673H74.3796L66.9381 178.788H52.2999H52.3057Z" fill="black"/>
<path d="M79.7588 178.788V123.673H101.495V131.528H88.6454V146.889H100.807V154.744H88.6454V170.932H101.495V178.788H79.7588Z" fill="black"/>
<path d="M138.014 170.932C148.815 170.932 157.571 162.177 157.571 151.376C157.571 140.575 148.815 131.819 138.014 131.819C127.214 131.819 118.458 140.575 118.458 151.376C118.458 162.177 127.214 170.932 138.014 170.932Z" fill="black"/>
<path d="M138.014 127.012C151.452 127.012 162.378 137.944 162.378 151.376C162.378 164.808 151.446 175.74 138.014 175.74C124.582 175.74 113.65 164.808 113.65 151.376C113.65 137.944 124.582 127.012 138.014 127.012ZM138.014 122.752C122.205 122.752 109.391 135.566 109.391 151.376C109.391 167.185 122.205 180 138.014 180C153.824 180 166.638 167.185 166.638 151.376C166.638 135.566 153.824 122.752 138.014 122.752Z" fill="black"/>
</g>
<defs>
<clipPath id="clip0_6804_128">
<rect width="180.157" height="180" fill="black"/>
</clipPath>
</defs>
</svg>
