<?xml version="1.0" encoding="UTF-8"?>
<svg id="logo-gliffy-reg" xmlns="http://www.w3.org/2000/svg" version="1.1" viewBox="0 0 633 200" width="633" height="200">
  <!-- Generator: Adobe Illustrator 29.3.1, SVG Export Plug-In . SVG Version: 2.1.0 Build 151)  -->
  <defs>
    <style>
      .st0 {
        fill: #000000;
      }

      .st1 {
        fill: #000000;
      }
    </style>
  </defs>
  <g>
    <g id="logo-helixcore-reg">
      <g>
        <path class="st1" d="M214.1,38.5c-2.1-1.2-3.7-2.8-4.8-5-1.1-2.2-1.7-4.7-1.7-7.5s.6-5.3,1.8-7.5c1.2-2.2,2.8-3.9,4.9-5.2,2.1-1.2,4.4-1.9,7-1.9,4.1,0,7.3,1.3,9.6,3.8,2.3,2.5,3.5,6,3.5,10.4v1.9c0,0,0,.2-.2.2h-20.6c-.1,0-.2,0-.2.2.2,2.3,1,4.1,2.4,5.5,1.4,1.4,3.3,2.1,5.7,2.1s3.9-.5,5.1-1.4c1.2-.9,2.1-2.1,2.7-3.5,0,0,.1-.1.2,0l4.8,1.8c0,0,.1.1,0,.2-1,2.2-2.6,4.1-4.7,5.4-2.1,1.4-4.9,2.1-8.2,2.1s-5.3-.6-7.3-1.7h0ZM226.4,18c-1.3-1.3-3-1.9-5.2-1.9s-3.9.7-5.3,2c-1.4,1.3-2.2,3-2.5,5.2,0,.1,0,.2.2.2h14.8c.1,0,.2,0,.2-.2-.1-2.3-.8-4.1-2.1-5.3Z"/>
        <path class="st1" d="M238.2,12h5.4c0,0,.2,0,.2.2v4c0,.2.3.2.3,0,.5-1.3,1.2-2.3,2.2-3,1.3-1,3.1-1.4,5.6-1.4h.7c0,0,.2,0,.2.2v5.3c0,0,0,.2-.2.2h-2.4c-2.4,0-4.1.6-5,1.9-.9,1.3-1.4,3.4-1.4,6.3v14.1c0,0,0,.2-.2.2h-5.4c0,0-.2,0-.2-.2V12.1c0,0,0-.2.2-.2h0Z"/>
        <path class="st1" d="M266.7,6.6c.2-.6.5-.9,1.1-1.1.5-.2,1.5-.2,2.9-.2h4.3c0,0,.2,0,.2-.2V.2C275.1,0,275.1,0,275,0h-6.8c-1.9.1-3.4.5-4.4,1.1-1.1.6-1.8,1.6-2.3,2.8-.4,1.2-.7,2.9-.7,5.1v2.8c0,0,0,.2-.2.2h-4.5v4.9h4.5c0,0,.2,0,.2.2v22.6c0,0,0,.2.2.2h5.2c0,0,.2,0,.2-.2v-22.6c0,0,0-.2.2-.2h5.4c0,0,.2,0,.2-.2v-4.6c0,0,0-.2-.2-.2h-5.3c0,0-.2,0-.2-.2v-2.3c0-1.4,0-2.4.3-2.9Z"/>
        <path class="st1" d="M279.9,38.4c-2.1-1.2-3.7-2.9-4.9-5.1-1.2-2.2-1.8-4.6-1.8-7.4s.6-5.3,1.8-7.5c1.2-2.2,2.8-3.9,5-5.1s4.5-1.8,7.2-1.8,5.1.6,7.2,1.8c2.1,1.2,3.8,2.9,5,5.1,1.2,2.2,1.8,4.7,1.8,7.5s-.6,5.2-1.8,7.4c-1.2,2.2-2.9,3.9-5,5.1s-4.5,1.8-7.2,1.8-5.1-.6-7.2-1.8h0ZM293,32.9c1.5-1.6,2.2-3.9,2.2-6.8v-.2c0-2.9-.7-5.3-2.2-7-1.4-1.7-3.4-2.6-5.9-2.6s-4.5.9-6,2.6c-1.5,1.7-2.2,4-2.2,7v.2c0,2.9.7,5.1,2.2,6.8,1.4,1.6,3.4,2.5,5.9,2.5s4.6-.8,6-2.5h0Z"/>
        <path class="st1" d="M304.4,12h5.4c0,0,.2,0,.2.2v4c0,.2.3.2.3,0,.5-1.3,1.2-2.3,2.2-3,1.3-1,3.1-1.4,5.6-1.4h.7c0,0,.2,0,.2.2v5.3c0,0,0,.2-.2.2h-2.4c-2.4,0-4.1.6-5,1.9-.9,1.3-1.4,3.4-1.4,6.3v14.1c0,0,0,.2-.2.2h-5.4c0,0-.2,0-.2-.2V12.1c0,0,0-.2.2-.2Z"/>
        <path class="st1" d="M326.3,38.4c-2.1-1.2-3.7-2.9-4.8-5.1-1.1-2.2-1.7-4.7-1.7-7.5s.6-5.2,1.7-7.4c1.2-2.2,2.8-3.9,4.9-5.1,2.1-1.2,4.5-1.8,7.2-1.8s5.8.8,7.9,2.4c2.1,1.6,3.5,3.7,4.5,6.4,0,0,0,.2-.1.2l-5.2,1.7c0,0-.2,0-.2-.1-.5-1.8-1.3-3.2-2.4-4.2-1.1-1-2.6-1.5-4.6-1.5s-4.3.9-5.7,2.6c-1.4,1.7-2.2,4-2.2,6.8v.2c0,2.8.7,5.1,2.1,6.8,1.4,1.7,3.3,2.6,5.7,2.6s3.8-.5,5-1.5c1.1-1,1.9-2.5,2.5-4.4,0,0,.1-.1.2-.1l5.1,1.6c0,0,.1.1.1.2-1,2.9-2.5,5.1-4.6,6.7-2.1,1.6-4.8,2.4-8.1,2.4s-5.1-.6-7.2-1.8h0Z"/>
        <path class="st1" d="M355.1,38.5c-2.1-1.2-3.7-2.8-4.8-5-1.1-2.2-1.7-4.7-1.7-7.5s.6-5.3,1.8-7.5c1.2-2.2,2.8-3.9,4.9-5.2,2.1-1.2,4.4-1.9,7-1.9,4.1,0,7.3,1.3,9.6,3.8,2.3,2.5,3.5,6,3.5,10.4v1.9c0,0,0,.2-.2.2h-20.6c-.1,0-.2,0-.2.2.2,2.3,1,4.1,2.4,5.5,1.4,1.4,3.3,2.1,5.7,2.1s3.9-.5,5.1-1.4c1.2-.9,2.1-2.1,2.7-3.5,0,0,.1-.1.2,0l4.8,1.8c0,0,.1.1,0,.2-1,2.2-2.6,4.1-4.7,5.4-2.1,1.4-4.9,2.1-8.2,2.1s-5.3-.6-7.3-1.7h0ZM367.3,18c-1.3-1.3-3-1.9-5.2-1.9s-3.9.7-5.3,2c-1.4,1.3-2.2,3-2.5,5.2,0,.1,0,.2.2.2h14.8c.1,0,.2,0,.2-.2-.1-2.3-.8-4.1-2.1-5.3Z"/>
        <path class="st1" d="M203,18.1c-1.1-2.2-2.6-3.8-4.5-5-1.9-1.2-4.1-1.7-6.5-1.7s-3.7.4-5.2,1.2c-1.4.7-2.6,1.8-3.5,3-.1.1-.3,0-.3,0v-3.4c0,0,0-.2-.2-.2h-5.3c0,0-.2,0-.2.2v38.5c0,0,0,.2.2.2h5.3c0,0,.2,0,.2-.2v-10c0,0,0-.2.2-.2h8.7c2.4,0,4.6-.6,6.5-1.8,1.9-1.2,3.4-2.9,4.5-5.1,1.1-2.2,1.6-4.8,1.6-7.7h0c0-3-.5-5.5-1.6-7.7h0ZM198.6,25.9c0,3-.7,5.3-2.2,7-1.5,1.7-3.4,2.5-5.8,2.5h-7.4c0,0-.2,0-.2-.2v-12.5c.3-1.5.9-2.8,1.8-3.9,1.4-1.7,3.3-2.6,5.8-2.6s4.4.8,5.8,2.4c1.4,1.6,2.1,3.9,2.1,6.8v.4h0Z"/>
      </g>
    </g>
    <g>
      <path class="st1" d="M357.3,78.7h34.2c14.9,0,26.4,4,34.5,11.9,8.1,7.9,12.1,19.5,12.1,34.9s-4.2,26.2-12.5,34.2c-8.4,8-20.1,12-35.3,12h-32.9v-92.9ZM406.8,153.4c4.3-2.3,7.6-5.7,9.7-10.4,2.1-4.6,3.1-10.4,3.1-17.3v-.8c0-7.2-1-13.1-3-17.7-2-4.6-5.1-8-9.2-10.3-4.2-2.2-9.5-3.4-16-3.4h-16.2v63.3h15.4c6.5,0,12-1.1,16.3-3.4Z"/>
      <path class="st1" d="M471.3,78.7h20.3l33.7,92.9h-18.8l-8.8-24.9h-34.7l-9.2,24.9h-17.5l35-92.9ZM492.9,132.1l-12.2-34.4-12.7,34.4h24.9Z"/>
      <path class="st1" d="M532.9,78.7h29.5l20.3,67.9,21.6-67.9h28.6v92.9h-17.4v-77.7l-25.9,77.7h-15l-24.9-76.8v76.8h-16.8v-92.9Z"/>
      <g>
        <path class="st1" d="M177.7,78.7h31.2c12.9,0,22.5,2.5,28.8,7.4,6.3,4.9,9.5,12.4,9.5,22.4s-1.5,12.2-4.4,16.7c-2.9,4.5-7.3,7.9-13.1,10.2-5.8,2.3-13,3.4-21.6,3.4h-12.9v32.8h-17.6v-92.9ZM220.4,123.1c3.1-1.1,5.3-2.9,6.8-5.2,1.4-2.4,2.2-5.5,2.2-9.3,0-5.6-1.6-9.6-4.9-12-3.3-2.4-8.6-3.6-16.1-3.6h-13v32.1h12.7c5.1,0,9.2-.7,12.3-1.8Z"/>
        <path class="st1" d="M292.6,151h-45.3v-17.1l39.9-55.1h22l-45.8,57.9h29.4v-19.7l16.9-20.6v40.2h14.3v14.3h-14.3v20.7h-17.1v-20.7Z"/>
      </g>
    </g>
  </g>
  <path class="st0" d="M134.1,184.5v-119.1c0-8.1-5.4-12-7.7-13.4s-8.5-4-15.4,0l-1.2.7-74.6,43.1h0s-2.4,1.4-2.4,1.4l-.4.2-24.5,14.2C.8,115.6,0,122.2,0,124.9c0,2.7.8,9.4,7.7,13.4l54.7,32c.2-.5.4-1,.7-1.5l12-20.7-30-17.7c-3.4-2-4.9-6-3.9-9.7.2-2.7,1.7-5.2,4.2-6.7l53.6-30.9c2.9-1.7,6.4-1.4,8.9.3,2.8,1.4,4.8,4.2,4.8,7.6v3.7s-16.8,9.7-16.8,9.7h0s-31.1,17.9-31.1,17.9l31.1,18v-17.4s16.8-9.7,16.8-9.7v40.5c0,1.7-.5,3.4-1.4,4.7,0,.1-.1.3-.2.4-2.3,4-7.5,5.4-11.5,3.1l-10-5.4-12,20.7c-.3.5-.6.9-1,1.3l34.2,19.3c7,4,13.1,1.3,15.4,0,2.3-1.3,7.7-5.3,7.7-13.4Z"/>
</svg>
