<svg width="144" height="12" viewBox="0 0 144 12" fill="none" xmlns="http://www.w3.org/2000/svg">
<path d="M17.0146 8.07803H18.7953C18.7953 8.53246 18.9232 8.90885 19.179 9.20721C19.6277 9.69377 20.2865 9.93705 21.1551 9.93705C21.7631 9.93705 22.2384 9.82 22.5811 9.5859C22.9237 9.3518 23.095 9.04197 23.095 8.65639C23.095 8.30754 22.9309 8.03902 22.6028 7.85082C22.2939 7.66262 21.7004 7.41016 20.8221 7.09344L20.6918 7.05213L20.4529 6.96262C19.3334 6.55869 18.5227 6.16393 18.0208 5.77836C17.5382 5.39279 17.297 4.82361 17.297 4.07082C17.297 3.19869 17.6275 2.50328 18.2886 1.98459C18.9546 1.46131 19.869 1.19967 21.032 1.19967C22.2384 1.19967 23.1819 1.47738 23.8623 2.03279C24.5475 2.5882 24.8901 3.41902 24.8901 4.52525H23.1095C23.1095 3.93311 22.9189 3.49016 22.5376 3.19639C22.1564 2.89803 21.6497 2.74885 21.0175 2.74885C20.4385 2.74885 19.9728 2.86131 19.6205 3.08623C19.2682 3.31115 19.0921 3.59803 19.0921 3.94689C19.0921 4.33705 19.2441 4.62393 19.5481 4.80754C19.8425 4.98197 20.436 5.22066 21.3288 5.52361L21.5387 5.59934C22.0695 5.77377 22.5135 5.93672 22.8706 6.0882C23.2084 6.2259 23.5607 6.4141 23.9274 6.65279C24.6271 7.10721 24.977 7.74754 24.977 8.57377C24.977 9.45967 24.632 10.1689 23.9419 10.7013C23.2567 11.2292 22.2915 11.4931 21.0465 11.4931C19.8932 11.4931 18.9304 11.2016 18.1583 10.6187C17.3959 10.0174 17.0146 9.17049 17.0146 8.07803Z" fill="black"/>
<path d="M27.785 11.2797V1.40623H32.2801C33.1873 1.40623 33.8991 1.67934 34.4154 2.22557C34.9366 2.76721 35.1972 3.50623 35.1972 4.44262C35.1972 5.37443 34.9366 6.11344 34.4154 6.65967C33.8991 7.20131 33.1873 7.47213 32.2801 7.47213H29.5656V11.2797H27.785ZM29.5656 5.9918H31.9688C32.3887 5.9918 32.7289 5.85639 32.9895 5.58557C33.2549 5.31016 33.3876 4.92918 33.3876 4.44262C33.3876 3.95607 33.2549 3.57508 32.9895 3.29967C32.7289 3.02426 32.3887 2.88656 31.9688 2.88656H29.5656V5.9918Z" fill="black"/>
<path d="M37.4912 7.94033V4.75246C37.4912 3.64623 37.8556 2.77869 38.5842 2.14984C39.3177 1.51639 40.3142 1.19967 41.5737 1.19967C42.8284 1.19967 43.8201 1.51639 44.5488 2.14984C45.2823 2.77869 45.649 3.64623 45.649 4.75246V7.94033C45.649 9.04656 45.2823 9.91639 44.5488 10.5498C43.8201 11.1787 42.8284 11.4931 41.5737 11.4931C40.3142 11.4931 39.3177 11.1787 38.5842 10.5498C37.8556 9.91639 37.4912 9.04656 37.4912 7.94033ZM39.2719 8.02295C39.2719 8.59672 39.4746 9.06033 39.8799 9.41377C40.2853 9.76262 40.8499 9.93705 41.5737 9.93705C42.2976 9.93705 42.8598 9.76262 43.2603 9.41377C43.6657 9.06033 43.8683 8.59672 43.8683 8.02295V4.66295C43.8683 4.08918 43.6657 3.62787 43.2603 3.27902C42.8598 2.92557 42.2976 2.74885 41.5737 2.74885C40.8499 2.74885 40.2853 2.92557 39.8799 3.27902C39.4746 3.62787 39.2719 4.08918 39.2719 4.66295V8.02295Z" fill="black"/>
<path d="M48.6162 11.2797V1.40623H53.0824C54.0861 1.40623 54.8582 1.67246 55.3987 2.20492C55.9392 2.73279 56.2094 3.47869 56.2094 4.44262C56.2094 5.10361 56.0526 5.68197 55.7389 6.1777C55.4301 6.67344 54.9789 7.04295 54.3853 7.28623L56.3252 10.7151V11.2797H54.5808L52.4454 7.4859H50.3969V11.2797H48.6162ZM50.3969 6.04689H52.7566C53.8521 6.04689 54.3998 5.52131 54.3998 4.47016C54.3998 3.41443 53.8521 2.88656 52.7566 2.88656H50.3969V6.04689Z" fill="black"/>
<path d="M57.9606 2.88656V1.40623H65.7564V2.88656H62.7452V11.2797H60.9718V2.88656H57.9606Z" fill="black"/>
<path d="M67.3194 8.07803H69.1C69.1 8.53246 69.2279 8.90885 69.4837 9.20721C69.9325 9.69377 70.5912 9.93705 71.4598 9.93705C72.0678 9.93705 72.5432 9.82 72.8858 9.5859C73.2284 9.3518 73.3997 9.04197 73.3997 8.65639C73.3997 8.30754 73.2356 8.03902 72.9075 7.85082C72.5986 7.66262 72.0051 7.41016 71.1268 7.09344L70.9965 7.05213L70.7577 6.96262C69.6381 6.55869 68.8274 6.16393 68.3255 5.77836C67.8429 5.39279 67.6017 4.82361 67.6017 4.07082C67.6017 3.19869 67.9322 2.50328 68.5933 1.98459C69.2593 1.46131 70.1737 1.19967 71.3367 1.19967C72.5432 1.19967 73.4866 1.47738 74.167 2.03279C74.8522 2.5882 75.1949 3.41902 75.1949 4.52525H73.4142C73.4142 3.93311 73.2236 3.49016 72.8423 3.19639C72.4611 2.89803 71.9544 2.74885 71.3223 2.74885C70.7432 2.74885 70.2775 2.86131 69.9252 3.08623C69.573 3.31115 69.3968 3.59803 69.3968 3.94689C69.3968 4.33705 69.5488 4.62393 69.8528 4.80754C70.1472 4.98197 70.7408 5.22066 71.6335 5.52361L71.8434 5.59934C72.3743 5.77377 72.8182 5.93672 73.1753 6.0882C73.5131 6.2259 73.8654 6.4141 74.2321 6.65279C74.9319 7.10721 75.2817 7.74754 75.2817 8.57377C75.2817 9.45967 74.9367 10.1689 74.2466 10.7013C73.5614 11.2292 72.5962 11.4931 71.3512 11.4931C70.1979 11.4931 69.2352 11.2016 68.463 10.6187C67.7006 10.0174 67.3194 9.17049 67.3194 8.07803Z" fill="black"/>
<path d="M77.4527 1.49574V1.20656H78.3141L80.1165 9.94393L82.5631 4.29115H83.1349L85.6177 9.9577L87.4056 1.20656H88.2163V1.49574L86.1606 11.2797H85.3137L82.8309 5.55803L80.3553 11.2797H79.5084L77.4527 1.49574Z" fill="black"/>
<path d="M90.6479 7.89902V4.5941C90.6479 3.46492 91.0002 2.58361 91.7047 1.95016C92.4141 1.31672 93.3865 1 94.6218 1C95.8427 1 96.8103 1.32131 97.5245 1.96393C98.2435 2.60197 98.603 3.47869 98.603 4.5941V7.89902C98.603 9.01443 98.2435 9.89344 97.5245 10.5361C96.8103 11.1787 95.8427 11.5 94.6218 11.5C93.3865 11.5 92.4141 11.1833 91.7047 10.5498C91.0002 9.9118 90.6479 9.0282 90.6479 7.89902ZM91.5165 7.94721C91.5165 8.80557 91.7916 9.48262 92.3417 9.97836C92.8967 10.4695 93.6567 10.7151 94.6218 10.7151C95.587 10.7151 96.3446 10.4695 96.8947 9.97836C97.4449 9.48262 97.7199 8.80557 97.7199 7.94721V4.55279C97.7199 3.69443 97.4449 3.01738 96.8947 2.52164C96.3446 2.02131 95.587 1.77115 94.6218 1.77115C93.6567 1.77115 92.8967 2.02131 92.3417 2.52164C91.7916 3.01738 91.5165 3.69443 91.5165 4.55279V7.94721Z" fill="black"/>
<path d="M101.795 11.2797V1.20656H106.13C107.067 1.20656 107.795 1.47049 108.317 1.99836C108.838 2.52623 109.098 3.25607 109.098 4.18787C109.098 5.75311 108.367 6.72164 106.905 7.09344L109.286 10.9905V11.2797H108.447L105.921 7.16229H102.663V11.2797H101.795ZM102.663 6.41869H105.993C106.693 6.41869 107.233 6.2259 107.614 5.84033C107.996 5.45475 108.186 4.90393 108.186 4.18787C108.186 3.47639 107.996 2.92787 107.614 2.5423C107.233 2.15213 106.693 1.95705 105.993 1.95705H102.663V6.41869Z" fill="black"/>
<path d="M112.102 11.2797V1.20656H112.97V5.84721H114.975L118.312 1.20656H119.13V1.49574L115.728 6.17082L119.311 10.9905V11.2797H118.45L114.99 6.59082H112.97V11.2797H112.102Z" fill="black"/>
<path d="M121.482 11.2797V9.42754H122.365V11.2797H121.482Z" fill="black"/>
<path d="M124.84 7.87148V4.62164C124.84 3.47869 125.193 2.59049 125.897 1.95705C126.602 1.31902 127.579 1 128.829 1C129.919 1 130.822 1.29148 131.536 1.87443C132.269 2.46197 132.636 3.29049 132.636 4.36V4.50459H131.768V4.36C131.768 3.52459 131.473 2.88885 130.884 2.45279C130.296 1.99836 129.61 1.77115 128.829 1.77115C128.172 1.77115 127.61 1.88131 127.142 2.10164C126.674 2.31738 126.317 2.63639 126.071 3.05869C125.83 3.47639 125.709 3.97902 125.709 4.56656V7.92656C125.709 8.81246 125.982 9.49869 126.527 9.98525C127.072 10.4718 127.839 10.7151 128.829 10.7151C129.615 10.7151 130.301 10.4902 130.884 10.0403C131.473 9.60426 131.768 8.96623 131.768 8.12623V7.98852H132.636V8.12623C132.636 9.20033 132.269 10.0311 131.536 10.6187C130.822 11.2062 129.919 11.5 128.829 11.5C127.579 11.5 126.602 11.181 125.897 10.543C125.193 9.90492 124.84 9.01443 124.84 7.87148Z" fill="black"/>
<path d="M135.379 7.89902V4.5941C135.379 3.46492 135.731 2.58361 136.436 1.95016C137.145 1.31672 138.118 1 139.353 1C140.574 1 141.541 1.32131 142.256 1.96393C142.975 2.60197 143.334 3.47869 143.334 4.5941V7.89902C143.334 9.01443 142.975 9.89344 142.256 10.5361C141.541 11.1787 140.574 11.5 139.353 11.5C138.118 11.5 137.145 11.1833 136.436 10.5498C135.731 9.9118 135.379 9.0282 135.379 7.89902ZM136.248 7.94721C136.248 8.80557 136.523 9.48262 137.073 9.97836C137.628 10.4695 138.388 10.7151 139.353 10.7151C140.318 10.7151 141.076 10.4695 141.626 9.97836C142.176 9.48262 142.451 8.80557 142.451 7.94721V4.55279C142.451 3.69443 142.176 3.01738 141.626 2.52164C141.076 2.02131 140.318 1.77115 139.353 1.77115C138.388 1.77115 137.628 2.02131 137.073 2.52164C136.523 3.01738 136.248 3.69443 136.248 4.55279V7.94721Z" fill="black"/>
<path d="M7.18607 1.41176L6.90866 0H0.666992V12H2.05403V7.05882H5.93773L6.21514 8.47059H11.0698V1.41176H7.18607Z" fill="#E76A52"/>
</svg>
