<svg width="235" height="20" viewBox="0 0 235 20" fill="none" xmlns="http://www.w3.org/2000/svg">
<path d="M26.832 13.4635H29.7547C29.7547 14.2208 29.9646 14.8482 30.3844 15.3454C31.1211 16.1564 32.2022 16.5618 33.6279 16.5618C34.6259 16.5618 35.4061 16.3667 35.9685 15.9766C36.5309 15.5864 36.812 15.07 36.812 14.4274C36.812 13.846 36.5427 13.3984 36.0041 13.0848C35.4972 12.7711 34.523 12.3504 33.0814 11.8225L32.8676 11.7536L32.4755 11.6045C30.6379 10.9312 29.3072 10.2733 28.4835 9.63068C27.6914 8.98806 27.2954 8.03943 27.2954 6.78478C27.2954 5.33123 27.838 4.17221 28.9231 3.30773C30.0161 2.4356 31.5171 1.99953 33.426 1.99953C35.4061 1.99953 36.9546 2.46238 38.0714 3.38806C39.1961 4.31374 39.7585 5.69844 39.7585 7.54216H36.8358C36.8358 6.55527 36.5229 5.81702 35.8972 5.3274C35.2715 4.83014 34.4398 4.5815 33.4022 4.5815C32.4517 4.5815 31.6874 4.76893 31.1092 5.1438C30.531 5.51866 30.2419 5.9968 30.2419 6.57822C30.2419 7.2285 30.4914 7.70664 30.9904 8.01265C31.4735 8.30336 32.4478 8.70117 33.9131 9.20609L34.2576 9.33232C35.1289 9.62303 35.8576 9.89462 36.4437 10.1471C36.9982 10.3766 37.5764 10.6902 38.1783 11.0881C39.3268 11.8454 39.9011 12.9127 39.9011 14.2897C39.9011 15.7662 39.3348 16.9482 38.2021 17.8356C37.0774 18.7154 35.4932 19.1553 33.4497 19.1553C31.5567 19.1553 29.9765 18.6695 28.7092 17.6979C27.4578 16.6957 26.832 15.2842 26.832 13.4635Z" fill="black"/>
<path d="M44.5099 18.7995V2.3438H51.888C53.3771 2.3438 54.5454 2.79899 55.3929 3.70937C56.2483 4.6121 56.676 5.8438 56.676 7.40445C56.676 8.95746 56.2483 10.1892 55.3929 11.0995C54.5454 12.0023 53.3771 12.4536 51.888 12.4536H47.4327V18.7995H44.5099ZM47.4327 9.98642H51.3771C52.0662 9.98642 52.6246 9.76074 53.0524 9.30937C53.488 8.85035 53.7058 8.21538 53.7058 7.40445C53.7058 6.59352 53.488 5.95855 53.0524 5.49953C52.6246 5.04052 52.0662 4.81101 51.3771 4.81101H47.4327V9.98642Z" fill="black"/>
<path d="M60.4414 13.234V7.92085C60.4414 6.07713 61.0394 4.63123 62.2354 3.58314C63.4393 2.5274 65.0749 1.99953 67.1422 1.99953C69.2016 1.99953 70.8293 2.5274 72.0253 3.58314C73.2292 4.63123 73.8312 6.07713 73.8312 7.92085V13.234C73.8312 15.0777 73.2292 16.5274 72.0253 17.5831C70.8293 18.6312 69.2016 19.1553 67.1422 19.1553C65.0749 19.1553 63.4393 18.6312 62.2354 17.5831C61.0394 16.5274 60.4414 15.0777 60.4414 13.234ZM63.3641 13.3717C63.3641 14.328 63.6967 15.1006 64.3621 15.6897C65.0274 16.2711 65.9541 16.5618 67.1422 16.5618C68.3303 16.5618 69.2531 16.2711 69.9105 15.6897C70.5758 15.1006 70.9085 14.328 70.9085 13.3717V7.77167C70.9085 6.81538 70.5758 6.04653 69.9105 5.46511C69.2531 4.87604 68.3303 4.5815 67.1422 4.5815C65.9541 4.5815 65.0274 4.87604 64.3621 5.46511C63.6967 6.04653 63.3641 6.81538 63.3641 7.77167V13.3717Z" fill="black"/>
<path d="M78.7014 18.7995V2.3438H86.032C87.6795 2.3438 88.9468 2.78751 89.8339 3.67494C90.721 4.55473 91.1646 5.7979 91.1646 7.40445C91.1646 8.50609 90.9072 9.47003 90.3923 10.2963C89.8854 11.1225 89.1448 11.7383 88.1706 12.1438L91.3547 17.8586V18.7995H88.4914L84.9865 12.4766H81.6242V18.7995H78.7014ZM81.6242 10.0782H85.4974C87.2953 10.0782 88.1943 9.20227 88.1943 7.45035C88.1943 5.69079 87.2953 4.81101 85.4974 4.81101H81.6242V10.0782Z" fill="black"/>
<path d="M94.0388 4.81101V2.3438H106.835V4.81101H101.892V18.7995H98.9813V4.81101H94.0388Z" fill="black"/>
<path d="M109.4 13.4635H112.323C112.323 14.2208 112.533 14.8482 112.952 15.3454C113.689 16.1564 114.77 16.5618 116.196 16.5618C117.194 16.5618 117.974 16.3667 118.536 15.9766C119.099 15.5864 119.38 15.07 119.38 14.4274C119.38 13.846 119.111 13.3984 118.572 13.0848C118.065 12.7711 117.091 12.3504 115.649 11.8225L115.435 11.7536L115.043 11.6045C113.206 10.9312 111.875 10.2733 111.051 9.63068C110.259 8.98806 109.863 8.03943 109.863 6.78478C109.863 5.33123 110.406 4.17221 111.491 3.30773C112.584 2.4356 114.085 1.99953 115.994 1.99953C117.974 1.99953 119.523 2.46238 120.639 3.38806C121.764 4.31374 122.326 5.69844 122.326 7.54216H119.404C119.404 6.55527 119.091 5.81702 118.465 5.3274C117.839 4.83014 117.008 4.5815 115.97 4.5815C115.02 4.5815 114.255 4.76893 113.677 5.1438C113.099 5.51866 112.81 5.9968 112.81 6.57822C112.81 7.2285 113.059 7.70664 113.558 8.01265C114.041 8.30336 115.016 8.70117 116.481 9.20609L116.826 9.33232C117.697 9.62303 118.426 9.89462 119.012 10.1471C119.566 10.3766 120.144 10.6902 120.746 11.0881C121.895 11.8454 122.469 12.9127 122.469 14.2897C122.469 15.7662 121.903 16.9482 120.77 17.8356C119.645 18.7154 118.061 19.1553 116.018 19.1553C114.125 19.1553 112.544 18.6695 111.277 17.6979C110.026 16.6957 109.4 15.2842 109.4 13.4635Z" fill="black"/>
<path d="M126.032 2.49298V2.01101H127.446L130.405 16.5733L134.42 7.15199H135.359L139.434 16.5963L142.369 2.01101H143.699V2.49298L140.325 18.7995H138.935L134.86 9.26347L130.797 18.7995H129.407L126.032 2.49298Z" fill="black"/>
<path d="M147.69 13.1651V7.65691C147.69 5.77494 148.269 4.30609 149.425 3.25035C150.589 2.19462 152.185 1.66675 154.213 1.66675C156.217 1.66675 157.805 2.20227 158.977 3.27331C160.157 4.33669 160.748 5.7979 160.748 7.65691V13.1651C160.748 15.0241 160.157 16.4892 158.977 17.5602C157.805 18.6312 156.217 19.1667 154.213 19.1667C152.185 19.1667 150.589 18.6389 149.425 17.5831C148.269 16.5198 147.69 15.0471 147.69 13.1651ZM149.116 13.2454C149.116 14.676 149.568 15.8045 150.471 16.6307C151.381 17.4493 152.629 17.8586 154.213 17.8586C155.797 17.8586 157.041 17.4493 157.944 16.6307C158.847 15.8045 159.298 14.676 159.298 13.2454V7.58806C159.298 6.15746 158.847 5.02904 157.944 4.20281C157.041 3.36893 155.797 2.95199 154.213 2.95199C152.629 2.95199 151.381 3.36893 150.471 4.20281C149.568 5.02904 149.116 6.15746 149.116 7.58806V13.2454Z" fill="black"/>
<path d="M165.986 18.7995V2.01101H173.103C174.639 2.01101 175.835 2.4509 176.691 3.33068C177.546 4.21046 177.974 5.42686 177.974 6.97986C177.974 9.58861 176.774 11.2028 174.374 11.8225L178.283 18.3176V18.7995H176.905L172.758 11.9372H167.412V18.7995H165.986ZM167.412 10.6979H172.877C174.026 10.6979 174.913 10.3766 175.538 9.73396C176.164 9.09134 176.477 8.17331 176.477 6.97986C176.477 5.79407 176.164 4.87986 175.538 4.23724C174.913 3.58697 174.026 3.26183 172.877 3.26183H167.412V10.6979Z" fill="black"/>
<path d="M182.904 18.7995V2.01101H184.329V9.74544H187.62L193.097 2.01101H194.44V2.49298L188.856 10.2848L194.737 18.3176V18.7995H193.323L187.644 10.9848H184.329V18.7995H182.904Z" fill="black"/>
<path d="M198.3 18.7995V15.7126H199.75V18.7995H198.3Z" fill="black"/>
<path d="M203.812 13.1192V7.70281C203.812 5.7979 204.39 4.31757 205.547 3.26183C206.703 2.19844 208.307 1.66675 210.359 1.66675C212.149 1.66675 213.63 2.15254 214.802 3.12413C216.006 4.10336 216.608 5.48423 216.608 7.26675V7.50773H215.182V7.26675C215.182 5.8744 214.699 4.81484 213.733 4.08806C212.766 3.33068 211.642 2.95199 210.359 2.95199C209.281 2.95199 208.359 3.1356 207.59 3.50281C206.822 3.86238 206.236 4.39407 205.832 5.0979C205.436 5.79407 205.238 6.63178 205.238 7.61101V13.211C205.238 14.6875 205.685 15.8312 206.58 16.6422C207.476 17.4531 208.735 17.8586 210.359 17.8586C211.65 17.8586 212.774 17.4837 213.733 16.734C214.699 16.0072 215.182 14.9438 215.182 13.5438V13.3143H216.608V13.5438C216.608 15.334 216.006 16.7187 214.802 17.6979C213.63 18.6771 212.149 19.1667 210.359 19.1667C208.307 19.1667 206.703 18.6351 205.547 17.5717C204.39 16.5083 203.812 15.0241 203.812 13.1192Z" fill="black"/>
<path d="M221.11 13.1651V7.65691C221.11 5.77494 221.688 4.30609 222.845 3.25035C224.009 2.19462 225.605 1.66675 227.633 1.66675C229.637 1.66675 231.225 2.20227 232.397 3.27331C233.577 4.33669 234.167 5.7979 234.167 7.65691V13.1651C234.167 15.0241 233.577 16.4892 232.397 17.5602C231.225 18.6312 229.637 19.1667 227.633 19.1667C225.605 19.1667 224.009 18.6389 222.845 17.5831C221.688 16.5198 221.11 15.0471 221.11 13.1651ZM222.536 13.2454C222.536 14.676 222.987 15.8045 223.89 16.6307C224.801 17.4493 226.048 17.8586 227.633 17.8586C229.217 17.8586 230.46 17.4493 231.363 16.6307C232.266 15.8045 232.718 14.676 232.718 13.2454V7.58806C232.718 6.15746 232.266 5.02904 231.363 4.20281C230.46 3.36893 229.217 2.95199 227.633 2.95199C226.048 2.95199 224.801 3.36893 223.89 4.20281C222.987 5.02904 222.536 6.15746 222.536 7.58806V13.2454Z" fill="black"/>
<path d="M10.7001 2.35294L10.2448 0H0V20H2.27662V11.7647H8.65116L9.10648 14.1176H17.0747V2.35294H10.7001Z" fill="#E76A52"/>
</svg>
