<svg width="143" height="12" viewBox="0 0 143 12" fill="none" xmlns="http://www.w3.org/2000/svg">
<path d="M16.4141 8.07803H18.1947C18.1947 8.53246 18.3226 8.90885 18.5784 9.20721C19.0272 9.69377 19.6859 9.93705 20.5545 9.93705C21.1625 9.93705 21.6379 9.82 21.9805 9.5859C22.3231 9.3518 22.4944 9.04197 22.4944 8.65639C22.4944 8.30754 22.3303 8.03902 22.0022 7.85082C21.6933 7.66262 21.0998 7.41016 20.2215 7.09344L20.0912 7.05213L19.8524 6.96262C18.7328 6.55869 17.9221 6.16393 17.4202 5.77836C16.9376 5.39279 16.6964 4.82361 16.6964 4.07082C16.6964 3.19869 17.0269 2.50328 17.688 1.98459C18.354 1.46131 19.2684 1.19967 20.4314 1.19967C21.6379 1.19967 22.5813 1.47738 23.2617 2.03279C23.9469 2.5882 24.2896 3.41902 24.2896 4.52525H22.5089C22.5089 3.93311 22.3183 3.49016 21.937 3.19639C21.5558 2.89803 21.0491 2.74885 20.417 2.74885C19.8379 2.74885 19.3722 2.86131 19.0199 3.08623C18.6677 3.31115 18.4915 3.59803 18.4915 3.94689C18.4915 4.33705 18.6435 4.62393 18.9475 4.80754C19.2419 4.98197 19.8355 5.22066 20.7282 5.52361L20.9381 5.59934C21.469 5.77377 21.9129 5.93672 22.27 6.0882C22.6078 6.2259 22.9601 6.4141 23.3268 6.65279C24.0266 7.10721 24.3764 7.74754 24.3764 8.57377C24.3764 9.45967 24.0314 10.1689 23.3413 10.7013C22.6561 11.2292 21.6909 11.4931 20.4459 11.4931C19.2926 11.4931 18.3299 11.2016 17.5577 10.6187C16.7953 10.0174 16.4141 9.17049 16.4141 8.07803Z" fill="black"/>
<path d="M27.1844 11.2797V1.40623H31.6795C32.5867 1.40623 33.2985 1.67934 33.8148 2.22557C34.336 2.76721 34.5966 3.50623 34.5966 4.44262C34.5966 5.37443 34.336 6.11344 33.8148 6.65967C33.2985 7.20131 32.5867 7.47213 31.6795 7.47213H28.9651V11.2797H27.1844ZM28.9651 5.9918H31.3682C31.7881 5.9918 32.1283 5.85639 32.3889 5.58557C32.6543 5.31016 32.787 4.92918 32.787 4.44262C32.787 3.95607 32.6543 3.57508 32.3889 3.29967C32.1283 3.02426 31.7881 2.88656 31.3682 2.88656H28.9651V5.9918Z" fill="black"/>
<path d="M36.8906 7.94033V4.75246C36.8906 3.64623 37.255 2.77869 37.9837 2.14984C38.7172 1.51639 39.7137 1.19967 40.9732 1.19967C42.2278 1.19967 43.2195 1.51639 43.9482 2.14984C44.6817 2.77869 45.0484 3.64623 45.0484 4.75246V7.94033C45.0484 9.04656 44.6817 9.91639 43.9482 10.5498C43.2195 11.1787 42.2278 11.4931 40.9732 11.4931C39.7137 11.4931 38.7172 11.1787 37.9837 10.5498C37.255 9.91639 36.8906 9.04656 36.8906 7.94033ZM38.6713 8.02295C38.6713 8.59672 38.874 9.06033 39.2793 9.41377C39.6847 9.76262 40.2493 9.93705 40.9732 9.93705C41.697 9.93705 42.2592 9.76262 42.6597 9.41377C43.0651 9.06033 43.2678 8.59672 43.2678 8.02295V4.66295C43.2678 4.08918 43.0651 3.62787 42.6597 3.27902C42.2592 2.92557 41.697 2.74885 40.9732 2.74885C40.2493 2.74885 39.6847 2.92557 39.2793 3.27902C38.874 3.62787 38.6713 4.08918 38.6713 4.66295V8.02295Z" fill="black"/>
<path d="M48.0156 11.2797V1.40623H52.4818C53.4855 1.40623 54.2576 1.67246 54.7981 2.20492C55.3386 2.73279 55.6088 3.47869 55.6088 4.44262C55.6088 5.10361 55.452 5.68197 55.1383 6.1777C54.8295 6.67344 54.3783 7.04295 53.7847 7.28623L55.7246 10.7151V11.2797H53.9802L51.8448 7.4859H49.7963V11.2797H48.0156ZM49.7963 6.04689H52.1561C53.2515 6.04689 53.7992 5.52131 53.7992 4.47016C53.7992 3.41443 53.2515 2.88656 52.1561 2.88656H49.7963V6.04689Z" fill="black"/>
<path d="M57.36 2.88656V1.40623H65.1558V2.88656H62.1446V11.2797H60.3712V2.88656H57.36Z" fill="black"/>
<path d="M66.7188 8.07803H68.4995C68.4995 8.53246 68.6273 8.90885 68.8831 9.20721C69.3319 9.69377 69.9906 9.93705 70.8592 9.93705C71.4672 9.93705 71.9426 9.82 72.2852 9.5859C72.6278 9.3518 72.7991 9.04197 72.7991 8.65639C72.7991 8.30754 72.635 8.03902 72.3069 7.85082C71.9981 7.66262 71.4045 7.41016 70.5262 7.09344L70.3959 7.05213L70.1571 6.96262C69.0375 6.55869 68.2268 6.16393 67.7249 5.77836C67.2424 5.39279 67.0011 4.82361 67.0011 4.07082C67.0011 3.19869 67.3316 2.50328 67.9928 1.98459C68.6587 1.46131 69.5732 1.19967 70.7361 1.19967C71.9426 1.19967 72.886 1.47738 73.5664 2.03279C74.2516 2.5882 74.5943 3.41902 74.5943 4.52525H72.8136C72.8136 3.93311 72.623 3.49016 72.2418 3.19639C71.8605 2.89803 71.3538 2.74885 70.7217 2.74885C70.1426 2.74885 69.6769 2.86131 69.3246 3.08623C68.9724 3.31115 68.7962 3.59803 68.7962 3.94689C68.7962 4.33705 68.9482 4.62393 69.2523 4.80754C69.5466 4.98197 70.1402 5.22066 71.0329 5.52361L71.2428 5.59934C71.7737 5.77377 72.2176 5.93672 72.5747 6.0882C72.9125 6.2259 73.2648 6.4141 73.6315 6.65279C74.3313 7.10721 74.6811 7.74754 74.6811 8.57377C74.6811 9.45967 74.3361 10.1689 73.646 10.7013C72.9608 11.2292 71.9956 11.4931 70.7506 11.4931C69.5973 11.4931 68.6346 11.2016 67.8625 10.6187C67.1 10.0174 66.7188 9.17049 66.7188 8.07803Z" fill="black"/>
<path d="M76.8521 1.49574V1.20656H77.7135L79.5159 9.94393L81.9625 4.29115H82.5343L85.0171 9.9577L86.805 1.20656H87.6158V1.49574L85.56 11.2797H84.7131L82.2303 5.55803L79.7547 11.2797H78.9078L76.8521 1.49574Z" fill="black"/>
<path d="M90.0473 7.89902V4.5941C90.0473 3.46492 90.3996 2.58361 91.1041 1.95016C91.8135 1.31672 92.7859 1 94.0213 1C95.2422 1 96.2097 1.32131 96.9239 1.96393C97.6429 2.60197 98.0024 3.47869 98.0024 4.5941V7.89902C98.0024 9.01443 97.6429 9.89344 96.9239 10.5361C96.2097 11.1787 95.2422 11.5 94.0213 11.5C92.7859 11.5 91.8135 11.1833 91.1041 10.5498C90.3996 9.9118 90.0473 9.0282 90.0473 7.89902ZM90.9159 7.94721C90.9159 8.80557 91.191 9.48262 91.7411 9.97836C92.2961 10.4695 93.0561 10.7151 94.0213 10.7151C94.9864 10.7151 95.744 10.4695 96.2942 9.97836C96.8443 9.48262 97.1193 8.80557 97.1193 7.94721V4.55279C97.1193 3.69443 96.8443 3.01738 96.2942 2.52164C95.744 2.02131 94.9864 1.77115 94.0213 1.77115C93.0561 1.77115 92.2961 2.02131 91.7411 2.52164C91.191 3.01738 90.9159 3.69443 90.9159 4.55279V7.94721Z" fill="black"/>
<path d="M101.194 11.2797V1.20656H105.53C106.466 1.20656 107.195 1.47049 107.716 1.99836C108.237 2.52623 108.498 3.25607 108.498 4.18787C108.498 5.75311 107.767 6.72164 106.304 7.09344L108.686 10.9905V11.2797H107.846L105.32 7.16229H102.063V11.2797H101.194ZM102.063 6.41869H105.392C106.092 6.41869 106.633 6.2259 107.014 5.84033C107.395 5.45475 107.586 4.90393 107.586 4.18787C107.586 3.47639 107.395 2.92787 107.014 2.54229C106.633 2.15213 106.092 1.95705 105.392 1.95705H102.063V6.41869Z" fill="black"/>
<path d="M111.501 11.2797V1.20656H112.37V5.84721H114.375L117.712 1.20656H118.53V1.49574L115.128 6.17082L118.711 10.9905V11.2797H117.849L114.389 6.59082H112.37V11.2797H111.501Z" fill="black"/>
<path d="M120.882 11.2797V9.42754H121.765V11.2797H120.882Z" fill="black"/>
<path d="M124.24 7.87148V4.62164C124.24 3.47869 124.592 2.59049 125.297 1.95705C126.001 1.31902 126.978 1 128.228 1C129.319 1 130.221 1.29148 130.935 1.87443C131.669 2.46197 132.036 3.29049 132.036 4.36V4.50459H131.167V4.36C131.167 3.52459 130.873 2.88885 130.284 2.45279C129.695 1.99836 129.01 1.77115 128.228 1.77115C127.572 1.77115 127.01 1.88131 126.542 2.10164C126.073 2.31738 125.716 2.63639 125.47 3.05869C125.229 3.47639 125.108 3.97902 125.108 4.56656V7.92656C125.108 8.81246 125.381 9.49869 125.926 9.98525C126.472 10.4718 127.239 10.7151 128.228 10.7151C129.015 10.7151 129.7 10.4902 130.284 10.0403C130.873 9.60426 131.167 8.96623 131.167 8.12623V7.98852H132.036V8.12623C132.036 9.20033 131.669 10.0311 130.935 10.6187C130.221 11.2062 129.319 11.5 128.228 11.5C126.978 11.5 126.001 11.181 125.297 10.543C124.592 9.90492 124.24 9.01443 124.24 7.87148Z" fill="black"/>
<path d="M134.778 7.89902V4.5941C134.778 3.46492 135.131 2.58361 135.835 1.95016C136.545 1.31672 137.517 1 138.752 1C139.973 1 140.941 1.32131 141.655 1.96393C142.374 2.60197 142.734 3.47869 142.734 4.5941V7.89902C142.734 9.01443 142.374 9.89344 141.655 10.5361C140.941 11.1787 139.973 11.5 138.752 11.5C137.517 11.5 136.545 11.1833 135.835 10.5498C135.131 9.9118 134.778 9.0282 134.778 7.89902ZM135.647 7.94721C135.647 8.80557 135.922 9.48262 136.472 9.97836C137.027 10.4695 137.787 10.7151 138.752 10.7151C139.717 10.7151 140.475 10.4695 141.025 9.97836C141.575 9.48262 141.85 8.80557 141.85 7.94721V4.55279C141.85 3.69443 141.575 3.01738 141.025 2.52164C140.475 2.02131 139.717 1.77115 138.752 1.77115C137.787 1.77115 137.027 2.02131 136.472 2.52164C135.922 3.01738 135.647 3.69443 135.647 4.55279V7.94721Z" fill="black"/>
<path d="M6.58548 1.41176L6.30807 0H0.0664062V12H1.45344V7.05882H5.33715L5.61455 8.47059H10.4692V1.41176H6.58548Z" fill="black"/>
</svg>
