<svg width="50" height="50" viewBox="0 0 50 50" fill="none" xmlns="http://www.w3.org/2000/svg">
<path d="M33.1065 25.1725C33.3416 25.2282 33.5549 25.295 33.7463 25.384V25.7792C33.7463 26.191 33.5877 26.5194 33.276 26.7754C32.9643 27.0259 32.5488 27.1539 32.0293 27.1539C31.6739 27.1539 31.3841 27.0704 31.1653 26.9035C30.9466 26.7365 30.8318 26.5027 30.8318 26.2022V26.1744C30.8318 25.8237 30.9685 25.5566 31.2364 25.3729C31.5044 25.1892 31.8762 25.0946 32.3464 25.0946C32.6144 25.0946 32.8714 25.1169 33.1065 25.1725ZM20.322 24.8163C20.322 24.2598 20.2455 23.7255 20.0978 23.2134C19.9502 22.7014 19.7205 22.2506 19.4088 21.8554C19.0971 21.4602 18.7089 21.1486 18.2386 20.9148C17.7684 20.6811 17.2161 20.5642 16.5709 20.5642C16.0131 20.5642 15.5046 20.6699 15.0343 20.887C14.5641 21.104 14.1649 21.3935 13.8259 21.7664C13.4923 22.1393 13.2298 22.5678 13.0439 23.0687C12.858 23.5641 12.765 24.0928 12.765 24.6494V24.6772C12.765 25.2727 12.8635 25.8181 13.0658 26.3135C13.2681 26.8088 13.547 27.2374 13.9079 27.5992C14.2688 27.9609 14.6953 28.2392 15.1874 28.434C15.6796 28.6288 16.2154 28.7234 16.7896 28.7234C17.4895 28.7234 18.0965 28.5954 18.6159 28.3338C19.1354 28.0778 19.5729 27.716 19.9392 27.2597L18.687 26.1354C18.3808 26.4192 18.0855 26.6252 17.7957 26.7476C17.5114 26.8756 17.1833 26.9368 16.8169 26.9368C16.3303 26.9368 15.9202 26.8088 15.5866 26.5473C15.2585 26.2912 15.0398 25.9072 14.9359 25.4007H20.2947C20.3056 25.295 20.3111 25.1892 20.3165 25.0946C20.3165 24.9944 20.322 24.8998 20.322 24.8163ZM23.2967 18.2878H21.1149V28.5398H23.2967V18.2878ZM35.8132 23.9982C35.8132 23.4694 35.7476 22.9964 35.6109 22.5734C35.4797 22.1504 35.2664 21.7886 34.9766 21.4992C34.6977 21.2154 34.3478 20.9983 33.9213 20.848C33.4948 20.6978 32.9808 20.6198 32.3793 20.6198C31.7285 20.6198 31.1708 20.6755 30.7115 20.7868C30.4654 20.848 30.2248 20.9204 29.9897 21.0039L30.2576 22.8294C30.4927 22.7515 30.7224 22.6791 30.9466 22.629C31.2692 22.5567 31.6356 22.5177 32.0621 22.5177C32.6089 22.5177 33.019 22.6402 33.2979 22.8851C33.5768 23.1299 33.7135 23.4861 33.7135 23.9537V24.0872C33.4346 23.9871 33.1503 23.9091 32.8605 23.8535C32.5706 23.7923 32.2261 23.7644 31.8324 23.7644C31.3731 23.7644 30.9521 23.8145 30.5748 23.9203C30.1975 24.0204 29.8694 24.1763 29.596 24.3822C29.3226 24.5881 29.1093 24.8442 28.9562 25.1558C28.8031 25.4675 28.7265 25.8404 28.7265 26.269V26.2968C28.7265 26.6864 28.7976 27.0315 28.9343 27.3264C29.071 27.6214 29.2624 27.8719 29.503 28.0778C29.7436 28.2837 30.0225 28.434 30.3451 28.5398C30.6677 28.6399 31.0068 28.6956 31.3731 28.6956C31.909 28.6956 32.3628 28.6065 32.7402 28.4229C33.112 28.2448 33.4346 27.9999 33.7025 27.6993V28.5453H35.8132V23.9982V23.9982ZM42.5609 26.1298C42.5609 25.7681 42.4898 25.4619 42.3477 25.2115C42.2055 24.961 42.0251 24.744 41.8009 24.5659C41.5821 24.3878 41.3306 24.2431 41.0572 24.1206C40.7783 23.9982 40.5049 23.8924 40.237 23.8089C40.0237 23.731 39.8269 23.6587 39.6409 23.5975C39.455 23.5362 39.291 23.4639 39.1433 23.3915C39.0012 23.3192 38.8863 23.2413 38.7989 23.1578C38.7114 23.0743 38.6676 22.9797 38.6676 22.8739V22.8461C38.6676 22.6903 38.7332 22.5622 38.8699 22.4565C39.0066 22.3563 39.2035 22.3007 39.4714 22.3007C39.7503 22.3007 40.0675 22.3674 40.4338 22.4955C40.7893 22.6235 41.3197 22.8906 41.697 23.1132L42.3805 21.4936C41.9594 21.2098 41.5001 20.9872 40.997 20.8313C40.494 20.6699 39.9964 20.592 39.5097 20.592C39.1269 20.592 38.7606 20.6477 38.4161 20.7534C38.0716 20.8592 37.7708 21.0206 37.5193 21.2376C37.2678 21.4547 37.0655 21.7107 36.9178 22.0168C36.7702 22.3229 36.6936 22.6791 36.6936 23.0743V23.1021C36.6936 23.4806 36.7647 23.8034 36.9014 24.065C37.0381 24.3266 37.2186 24.5492 37.4373 24.7273C37.656 24.9054 37.9021 25.0557 38.1755 25.167C38.4489 25.2783 38.7168 25.3729 38.9848 25.4508C39.1926 25.5176 39.3949 25.5844 39.5863 25.6401C39.7776 25.6957 39.9472 25.7569 40.0948 25.8237C40.2424 25.8849 40.3627 25.9629 40.4448 26.0519C40.5323 26.141 40.576 26.2411 40.576 26.358V26.3858C40.576 26.5639 40.4994 26.7031 40.3518 26.8088C40.2042 26.9146 39.969 26.9702 39.6573 26.9702C39.291 26.9702 38.9027 26.8923 38.4872 26.7365C38.0825 26.5862 37.5849 26.2912 37.1201 25.9517L36.4257 27.588C36.9014 27.9442 37.4045 28.2169 37.924 28.3895C38.4926 28.5787 39.0504 28.6733 39.5972 28.6733C40.0182 28.6733 40.4065 28.6232 40.7619 28.5175C41.1173 28.4173 41.429 28.2615 41.697 28.0555C41.9649 27.8496 42.1727 27.588 42.3203 27.2708C42.468 26.9535 42.5445 26.5751 42.5445 26.1354V26.1298H42.5609ZM45.9184 28.6733L31.477 32.4747L31.4497 38.6303L16.4451 49.5L13.3775 39.2314L7.61952 43.734L1.76861 31.5619L10.3536 28.2726C10.6817 28.1613 10.977 28.0166 11.2285 27.8385C11.5566 27.6047 11.8136 27.3097 11.9886 26.9591C12.1635 26.6085 12.251 26.1966 12.251 25.7291V25.7013C12.251 25.3618 12.2073 25.0557 12.1198 24.7941C12.0323 24.5325 11.912 24.2987 11.748 24.0984C11.5839 23.898 11.3871 23.7255 11.1519 23.5808C10.9168 23.4361 10.6598 23.3025 10.3755 23.1856C10.7364 22.9797 11.048 22.707 11.305 22.3619C11.562 22.0168 11.6878 21.5549 11.6878 20.9816V20.9538C11.6878 20.2636 11.4582 19.6792 10.9988 19.2117C10.4083 18.6051 9.53337 18.3045 8.37412 18.3045H3.72073V25.2838L0.5 23.8423L6.29076 10.1007L12.2838 13.5904L9.91067 5.01374L26.0581 0.5L28.639 17.8982C28.5242 17.8704 28.3984 17.8426 28.2727 17.8259C28.0266 17.7869 27.7368 17.7647 27.3923 17.7647C26.6158 17.7647 26.0253 17.9706 25.6261 18.3769C25.216 18.7943 25.0082 19.4288 25.0082 20.2748V20.7868H24.1005V22.6012H25.0082V28.5342H27.19V22.6068H29.339L29.0765 20.7924H27.1626V20.4863C27.1626 19.9186 27.4251 19.6403 27.9501 19.6403C28.1414 19.6403 28.311 19.657 28.4695 19.6904C28.6172 19.7238 28.7703 19.7739 28.9289 19.8295L49.5 11.9541L47.6244 20.7033H45.8746V18.6997H43.6928V20.7033H42.7687V22.6012H43.6874V26.3135C43.6874 26.7643 43.742 27.1372 43.8514 27.4378C43.9608 27.7383 44.1139 27.9832 44.3107 28.1669C44.5076 28.3505 44.7427 28.4785 45.0161 28.5565C45.2895 28.6344 45.5848 28.6733 45.9184 28.6733ZM16.5709 22.3452C16.1115 22.3452 15.7397 22.4955 15.4554 22.796C15.171 23.0965 14.9906 23.5028 14.9031 24.0093H18.1894C18.1238 23.514 17.9488 23.1077 17.67 22.8016C17.402 22.4955 17.0302 22.3452 16.5709 22.3452ZM45.8746 22.6068V25.9406C45.8746 26.3525 46.0332 26.5973 46.3449 26.6753L47.2198 22.6068H45.8746V22.6068ZM9.50603 21.3656V21.3378C9.50603 20.9983 9.38026 20.7367 9.13419 20.553C8.88266 20.3749 8.52723 20.2803 8.05697 20.2803H5.86971V22.4454H7.90933C8.39599 22.4454 8.78423 22.3619 9.07404 22.1893C9.36385 22.0224 9.50603 21.7441 9.50603 21.3656ZM5.86971 26.2578L6.5587 26.5695H8.49442C8.98108 26.5695 9.36385 26.4805 9.64273 26.2968C9.9216 26.1187 10.0583 25.8348 10.0583 25.4564V25.4286C10.0583 25.089 9.92707 24.8163 9.67007 24.616C9.41307 24.4156 8.99749 24.3154 8.42333 24.3154H5.86971V26.2578Z" fill="#C44C93"/>
</svg>
