<svg width="65" height="64" viewBox="0 0 65 64" fill="none" xmlns="http://www.w3.org/2000/svg">
<path d="M42.5969 32.2253C42.904 32.298 43.1825 32.3853 43.4325 32.5016V33.0177C43.4325 33.5557 43.2254 33.9846 42.8183 34.3189C42.4112 34.6461 41.8684 34.8133 41.1899 34.8133C40.7257 34.8133 40.3471 34.7042 40.0615 34.4861C39.7758 34.2681 39.6258 33.9627 39.6258 33.5702V33.5338C39.6258 33.0759 39.8043 32.7269 40.1543 32.487C40.5043 32.2472 40.9899 32.1236 41.6041 32.1236C41.9541 32.1236 42.2898 32.1527 42.5969 32.2253ZM25.8988 31.7601C25.8988 31.0332 25.7988 30.3353 25.6059 29.6665C25.4131 28.9977 25.1131 28.4089 24.706 27.8928C24.2989 27.3766 23.7918 26.9696 23.1776 26.6642C22.5634 26.3589 21.8421 26.2063 20.9993 26.2063C20.2708 26.2063 19.6066 26.3444 18.9924 26.6279C18.3782 26.9114 17.8568 27.2894 17.414 27.7765C16.9783 28.2635 16.6355 28.8233 16.3927 29.4775C16.1498 30.1245 16.0284 30.8151 16.0284 31.542V31.5784C16.0284 32.3562 16.157 33.0686 16.4212 33.7156C16.6855 34.3626 17.0497 34.9223 17.5211 35.3948C17.9925 35.8673 18.5496 36.2308 19.1924 36.4852C19.8351 36.7397 20.5351 36.8632 21.285 36.8632C22.1992 36.8632 22.9919 36.696 23.6704 36.3544C24.3489 36.02 24.9203 35.5475 25.3988 34.9514L23.7633 33.483C23.3633 33.8537 22.9777 34.1227 22.5991 34.2826C22.2277 34.4498 21.7992 34.5298 21.3207 34.5298C20.6851 34.5298 20.1494 34.3626 19.7137 34.0209C19.2852 33.6865 18.9995 33.1849 18.8638 32.5234H25.863C25.8773 32.3853 25.8845 32.2472 25.8916 32.1236C25.8916 31.9927 25.8988 31.8691 25.8988 31.7601ZM29.784 23.2331H26.9344V36.6234H29.784V23.2331ZM46.1322 30.6915C46.1322 30.0009 46.0465 29.383 45.868 28.8305C45.6965 28.2781 45.418 27.8055 45.0395 27.4275C44.6752 27.0568 44.2181 26.7733 43.6611 26.577C43.104 26.3807 42.4326 26.279 41.647 26.279C40.7971 26.279 40.0686 26.3517 39.4687 26.497C39.1473 26.577 38.833 26.6715 38.5259 26.7806L38.8759 29.1649C39.183 29.0632 39.483 28.9687 39.7758 28.9032C40.1972 28.8087 40.6757 28.7578 41.2328 28.7578C41.947 28.7578 42.4826 28.9178 42.8469 29.2376C43.2111 29.5575 43.3897 30.0227 43.3897 30.6333V30.8078C43.0254 30.677 42.654 30.5752 42.2755 30.5025C41.897 30.4225 41.447 30.3862 40.9328 30.3862C40.3329 30.3862 39.7829 30.4516 39.2901 30.5897C38.7973 30.7206 38.3688 30.9241 38.0117 31.1931C37.6546 31.4621 37.376 31.7965 37.1761 32.2035C36.9761 32.6106 36.8761 33.0977 36.8761 33.6574V33.6938C36.8761 34.2026 36.969 34.6533 37.1475 35.0386C37.3261 35.4239 37.576 35.751 37.8903 36.02C38.2045 36.289 38.5688 36.4852 38.9902 36.6234C39.4115 36.7542 39.8543 36.8269 40.3329 36.8269C41.0328 36.8269 41.6256 36.7106 42.1184 36.4707C42.604 36.2381 43.0254 35.9182 43.3754 35.5257V36.6306H46.1322V30.6915ZM54.9455 33.4757C54.9455 33.0032 54.8527 32.6034 54.667 32.2762C54.4813 31.9491 54.2456 31.6656 53.9528 31.433C53.6671 31.2004 53.3386 31.0114 52.9814 30.8514C52.6172 30.6915 52.2601 30.5534 51.9101 30.4443C51.6316 30.3426 51.3745 30.2481 51.1317 30.1681C50.8888 30.0881 50.6746 29.9936 50.4817 29.8991C50.296 29.8046 50.1461 29.7029 50.0318 29.5938C49.9175 29.4848 49.8604 29.3612 49.8604 29.2231V29.1867C49.8604 28.9832 49.9461 28.816 50.1246 28.6779C50.3032 28.547 50.5603 28.4743 50.9103 28.4743C51.2745 28.4743 51.6887 28.5616 52.1673 28.7288C52.6315 28.896 53.3243 29.2449 53.8171 29.5357L54.7098 27.4203C54.1599 27.0495 53.56 26.7587 52.9029 26.5552C52.2458 26.3444 51.5959 26.2426 50.9602 26.2426C50.4603 26.2426 49.9818 26.3153 49.5318 26.4534C49.0819 26.5915 48.6891 26.8024 48.3605 27.0859C48.032 27.3694 47.7677 27.7038 47.5749 28.1036C47.3821 28.5034 47.2821 28.9687 47.2821 29.4848V29.5211C47.2821 30.0154 47.3749 30.4371 47.5535 30.7787C47.732 31.1204 47.9677 31.4112 48.2534 31.6438C48.5391 31.8764 48.8605 32.0727 49.2176 32.2181C49.5747 32.3635 49.9246 32.487 50.2746 32.5888C50.546 32.6761 50.8103 32.7633 51.0602 32.836C51.3102 32.9087 51.5316 32.9886 51.7244 33.0759C51.9173 33.1558 52.0744 33.2576 52.1815 33.3739C52.2958 33.4902 52.353 33.6211 52.353 33.7737V33.8101C52.353 34.0427 52.253 34.2244 52.0601 34.3626C51.8673 34.5007 51.5602 34.5734 51.1531 34.5734C50.6746 34.5734 50.1675 34.4716 49.6247 34.2681C49.0962 34.0718 48.4462 33.6865 47.8392 33.2431L46.9321 35.3803C47.5535 35.8455 48.2106 36.2017 48.889 36.4271C49.6318 36.6742 50.3603 36.7978 51.0745 36.7978C51.6245 36.7978 52.1315 36.7324 52.5958 36.5943C53.06 36.4634 53.4671 36.2599 53.8171 35.9909C54.167 35.7219 54.4384 35.3803 54.6313 34.9659C54.8241 34.5516 54.9241 34.0572 54.9241 33.483V33.4757H54.9455ZM59.3307 36.7978L40.4686 41.7628L40.4328 49.8028L20.835 64L16.8283 50.5879L9.30775 56.4689L1.66575 40.5706L12.8788 36.2744C13.3073 36.129 13.693 35.94 14.0215 35.7074C14.45 35.4021 14.7857 35.0168 15.0143 34.5588C15.2428 34.1009 15.3571 33.5629 15.3571 32.9523V32.9159C15.3571 32.4725 15.2999 32.0727 15.1857 31.731C15.0714 31.3894 14.9143 31.0841 14.7 30.8224C14.4857 30.5607 14.2286 30.3353 13.9215 30.1463C13.6144 29.9573 13.2787 29.7828 12.9074 29.6302C13.3787 29.3612 13.7858 29.005 14.1215 28.5543C14.4572 28.1036 14.6214 27.5002 14.6214 26.7515V26.7151C14.6214 25.8137 14.3215 25.0504 13.7215 24.4398C12.9502 23.6474 11.8075 23.2549 10.2934 23.2549H4.21546V32.3707L0.00878906 30.488L7.57223 12.5398L15.3999 17.0977L12.3003 5.8955L33.3908 0L36.7618 22.7242C36.6118 22.6879 36.4476 22.6515 36.2833 22.6297C35.9619 22.5788 35.5834 22.5497 35.1334 22.5497C34.1193 22.5497 33.3479 22.8187 32.8266 23.3494C32.2909 23.8946 32.0195 24.7233 32.0195 25.8283V26.497H30.8339V28.8669H32.0195V36.6161H34.8692V28.8741H37.676L37.3332 26.5043H34.8335V26.1045C34.8335 25.363 35.1763 24.9995 35.8619 24.9995C36.1119 24.9995 36.3333 25.0214 36.5404 25.065C36.7333 25.1086 36.9332 25.174 37.1404 25.2467L64.0088 14.9605L61.5591 26.388H59.2736V23.771H56.4239V26.388H55.2169V28.8669H56.4168V33.7156C56.4168 34.3044 56.4882 34.7915 56.631 35.184C56.7739 35.5766 56.9739 35.8964 57.231 36.1363C57.4881 36.3762 57.7952 36.5434 58.1523 36.6452C58.5094 36.7469 58.8951 36.7978 59.3307 36.7978ZM20.9993 28.5325C20.3994 28.5325 19.9137 28.7288 19.5423 29.1213C19.1709 29.5139 18.9352 30.0445 18.821 30.706H23.1134C23.0276 30.0591 22.7991 29.5284 22.4349 29.1286C22.0849 28.7288 21.5992 28.5325 20.9993 28.5325ZM59.2736 28.8741V33.2285C59.2736 33.7665 59.4807 34.0863 59.8878 34.1881L61.0306 28.8741H59.2736ZM11.7718 27.2531V27.2167C11.7718 26.7733 11.6075 26.4316 11.2861 26.1917C10.9576 25.9591 10.4933 25.8355 9.87912 25.8355H7.02229V28.6633H9.68628C10.3219 28.6633 10.829 28.5543 11.2075 28.3289C11.5861 28.1109 11.7718 27.7474 11.7718 27.2531ZM7.02229 33.6429L7.92219 34.05H10.4505C11.0861 34.05 11.5861 33.9337 11.9503 33.6938C12.3146 33.4612 12.4931 33.0904 12.4931 32.5961V32.5597C12.4931 32.1163 12.3217 31.7601 11.986 31.4984C11.6503 31.2367 11.1076 31.1059 10.3576 31.1059H7.02229V33.6429Z" fill="#C44C93"/>
</svg>
