<svg width="38" height="56" viewBox="0 0 38 56" fill="none" xmlns="http://www.w3.org/2000/svg">
<path d="M38 28C38 23.4595 36.3412 19.2887 33.5895 16.0543C31.9673 14.1475 30.5466 12.0008 30.1258 9.53282L29.165 3.89667C28.785 1.65667 26.79 0 24.4863 0H13.5375C11.21 0 9.215 1.65667 8.835 3.89667L7.89337 9.50256C7.47577 11.9887 6.04364 14.1503 4.40708 16.0679C1.65319 19.2945 0 23.4493 0 28C0 32.5507 1.65319 36.7055 4.40708 39.9321C6.04364 41.8497 7.47577 44.0113 7.89337 46.4974L8.835 52.1033C9.215 54.3433 11.21 56 13.5375 56H24.4863C26.8138 56 28.785 54.3433 29.165 52.1033L30.1258 46.4672C30.5466 43.9992 31.9673 41.8525 33.5895 39.9457C36.3412 36.7113 38 32.5405 38 28ZM4.75 28C4.75 20.2767 11.1388 14 19 14C26.8612 14 33.25 20.2767 33.25 28C33.25 35.7233 26.8612 42 19 42C11.1388 42 4.75 35.7233 4.75 28Z" fill="#00FFB0"/>
</svg>
