<svg width="567" height="176" viewBox="16 58 567 176" fill="none" xmlns="http://www.w3.org/2000/svg">
<path d="M511.575 151.521L519.565 145.78H321.728L313.773 152.805L297.823 138.98C297.869 138.839 298.007 138.741 298.17 138.741H308.265C308.464 138.741 308.627 138.897 308.627 139.088V144.355L314.619 139.088C314.619 135.729 311.771 133 308.265 133H298.17C294.664 133 291.815 135.729 291.815 139.088C291.815 140.625 292.498 142.1 293.686 143.135L294.511 143.847L292.381 145.78H77.5648L85.5552 151.521H286.755C285.94 152.932 285.502 154.538 285.502 156.174C285.502 161.041 289.634 165 294.715 165H304.835C307.393 165 309.839 164.087 311.72 162.422L313.799 160.587L318.88 164.995H327.848L318.237 156.667L324.072 151.517H511.575V151.521ZM307.658 158.205C306.884 158.888 305.88 159.264 304.83 159.264H294.71C292.931 159.264 291.484 157.878 291.484 156.174C291.484 155.114 291.943 154.089 292.748 153.362L294.771 151.526H294.903V151.409L298.965 147.719L309.34 156.725L307.658 158.205Z" fill="white"/>
<path d="M72.4609 105.695C70.7734 106.398 69.0742 107.031 67.3633 107.594C65.6523 108.156 63.8828 108.637 62.0547 109.035C60.2266 109.457 58.293 109.773 56.2539 109.984C54.2383 110.195 52.0703 110.301 49.75 110.301C44.8281 110.301 40.293 109.773 36.1445 108.719C32.0195 107.664 28.457 106.082 25.457 103.973C22.4805 101.84 20.1602 99.1914 18.4961 96.0273C16.832 92.8398 16 89.125 16 84.8828C16 80.6406 16.832 76.9375 18.4961 73.7734C20.1602 70.5859 22.4805 67.9375 25.457 65.8281C28.457 63.6953 32.0195 62.1016 36.1445 61.0469C40.293 59.9922 44.8281 59.4648 49.75 59.4648C52.0703 59.4648 54.2383 59.5703 56.2539 59.7812C58.293 59.9922 60.2266 60.3086 62.0547 60.7305C63.8828 61.1289 65.6523 61.6094 67.3633 62.1719C69.0742 62.7344 70.7734 63.3672 72.4609 64.0703V75.8125C71.125 75.0859 69.7188 74.3711 68.2422 73.668C66.7656 72.9414 65.1367 72.2969 63.3555 71.7344C61.5742 71.1484 59.6172 70.6797 57.4844 70.3281C55.3516 69.9531 52.9492 69.7656 50.2773 69.7656C46.1758 69.7656 42.7656 70.1875 40.0469 71.0312C37.3516 71.875 35.1953 73 33.5781 74.4062C31.9609 75.8125 30.8242 77.4297 30.168 79.2578C29.5117 81.0625 29.1836 82.9375 29.1836 84.8828C29.1836 86.1719 29.3242 87.4492 29.6055 88.7148C29.8867 89.957 30.3555 91.1406 31.0117 92.2656C31.668 93.3672 32.5234 94.3867 33.5781 95.3242C34.6328 96.2617 35.9453 97.0703 37.5156 97.75C39.0859 98.4297 40.9141 98.9688 43 99.3672C45.1094 99.7422 47.5352 99.9297 50.2773 99.9297C52.9492 99.9297 55.3516 99.7656 57.4844 99.4375C59.6172 99.0859 61.5742 98.6289 63.3555 98.0664C65.1367 97.5039 66.7656 96.8711 68.2422 96.168C69.7188 95.4414 71.125 94.7031 72.4609 93.9531V105.695Z" fill="white"/>
<path d="M154.333 84.8828C154.333 89.0312 153.571 92.6992 152.048 95.8867C150.524 99.0508 148.345 101.699 145.509 103.832C142.673 105.965 139.227 107.582 135.173 108.684C131.141 109.762 126.606 110.301 121.567 110.301C116.528 110.301 111.97 109.762 107.891 108.684C103.837 107.582 100.38 105.965 97.5203 103.832C94.6609 101.699 92.4578 99.0508 90.9109 95.8867C89.3641 92.6992 88.5906 89.0312 88.5906 84.8828C88.5906 80.7344 89.3641 77.0781 90.9109 73.9141C92.4578 70.7266 94.6609 68.0664 97.5203 65.9336C100.38 63.8008 103.837 62.1953 107.891 61.1172C111.97 60.0156 116.528 59.4648 121.567 59.4648C126.606 59.4648 131.141 60.0156 135.173 61.1172C139.227 62.1953 142.673 63.8008 145.509 65.9336C148.345 68.0664 150.524 70.7266 152.048 73.9141C153.571 77.0781 154.333 80.7344 154.333 84.8828ZM141.149 84.8828C141.149 83.0781 140.856 81.2852 140.27 79.5039C139.708 77.6992 138.688 76.082 137.212 74.6523C135.759 73.2227 133.766 72.0625 131.235 71.1719C128.704 70.2812 125.481 69.8359 121.567 69.8359C118.942 69.8359 116.634 70.0469 114.641 70.4688C112.649 70.8672 110.927 71.4297 109.473 72.1562C108.02 72.8828 106.802 73.7383 105.817 74.7227C104.833 75.6836 104.048 76.7266 103.462 77.8516C102.876 78.9531 102.454 80.1133 102.196 81.332C101.962 82.5273 101.845 83.7109 101.845 84.8828C101.845 86.0781 101.962 87.2852 102.196 88.5039C102.454 89.7227 102.876 90.8945 103.462 92.0195C104.048 93.1211 104.833 94.1523 105.817 95.1133C106.802 96.0742 108.02 96.918 109.473 97.6445C110.927 98.3477 112.649 98.9102 114.641 99.332C116.634 99.7305 118.942 99.9297 121.567 99.9297C125.481 99.9297 128.704 99.4844 131.235 98.5938C133.766 97.7031 135.759 96.543 137.212 95.1133C138.688 93.6836 139.708 92.0781 140.27 90.2969C140.856 88.4922 141.149 86.6875 141.149 84.8828Z" fill="white"/>
<path d="M234.834 109V75.0742L216.904 109H204.388L186.459 75.0742V109H173.416V60.6953H191.134L210.646 97.2578L230.158 60.6953H247.806V109H234.834Z" fill="white"/>
<path d="M331.541 109V75.0742L313.612 109H301.096L283.166 75.0742V109H270.123V60.6953H287.842L307.354 97.2578L326.866 60.6953H344.514V109H331.541Z" fill="white"/>
<path d="M405.644 99.8594H378.714L374.179 109H359.624L384.902 60.6953H399.456L424.734 109H410.179L405.644 99.8594ZM383.39 90.4375H401.038L392.249 72.6484L383.39 90.4375Z" fill="white"/>
<path d="M485.477 109L452.887 75.8125V109H439.844V60.6953H454.012L486.637 94.0234V60.6953H499.609V109H485.477Z" fill="white"/>
<path d="M581.094 84.8125C581.094 87.9062 580.755 90.6602 580.075 93.0742C579.395 95.4648 578.434 97.5508 577.192 99.332C575.973 101.113 574.497 102.625 572.762 103.867C571.052 105.109 569.141 106.105 567.032 106.855C564.923 107.605 562.649 108.156 560.212 108.508C557.774 108.836 555.231 109 552.583 109H521.927V60.6953H552.512C555.161 60.6953 557.704 60.8711 560.141 61.2227C562.579 61.5508 564.852 62.0898 566.962 62.8398C569.094 63.5898 571.028 64.5859 572.762 65.8281C574.497 67.0469 575.973 68.5586 577.192 70.3633C578.434 72.1445 579.395 74.2305 580.075 76.6211C580.755 79.0117 581.094 81.7422 581.094 84.8125ZM567.946 84.8125C567.946 82.4922 567.641 80.4766 567.032 78.7656C566.446 77.0547 565.485 75.6484 564.149 74.5469C562.837 73.4219 561.114 72.5898 558.981 72.0508C556.848 71.4883 554.247 71.207 551.177 71.207H534.969V98.4883H551.177C554.247 98.4883 556.848 98.2188 558.981 97.6797C561.114 97.1172 562.837 96.2734 564.149 95.1484C565.485 94 566.446 92.5703 567.032 90.8594C567.641 89.1484 567.946 87.1328 567.946 84.8125Z" fill="white"/>
<path d="M73.6225 225.695C71.935 226.398 70.2358 227.031 68.5248 227.594C66.8139 228.156 65.0444 228.637 63.2162 229.035C61.3881 229.457 59.4545 229.773 57.4155 229.984C55.3998 230.195 53.2319 230.301 50.9116 230.301C45.9897 230.301 41.4545 229.773 37.3061 228.719C33.1811 227.664 29.6186 226.082 26.6186 223.973C23.642 221.84 21.3217 219.191 19.6577 216.027C17.9936 212.84 17.1616 209.125 17.1616 204.883C17.1616 200.641 17.9936 196.938 19.6577 193.773C21.3217 190.586 23.642 187.938 26.6186 185.828C29.6186 183.695 33.1811 182.102 37.3061 181.047C41.4545 179.992 45.9897 179.465 50.9116 179.465C53.2319 179.465 55.3998 179.57 57.4155 179.781C59.4545 179.992 61.3881 180.309 63.2162 180.73C65.0444 181.129 66.8139 181.609 68.5248 182.172C70.2358 182.734 71.935 183.367 73.6225 184.07V195.812C72.2866 195.086 70.8803 194.371 69.4037 193.668C67.9272 192.941 66.2983 192.297 64.517 191.734C62.7358 191.148 60.7787 190.68 58.6459 190.328C56.5131 189.953 54.1108 189.766 51.4389 189.766C47.3373 189.766 43.9272 190.188 41.2084 191.031C38.5131 191.875 36.3569 193 34.7397 194.406C33.1225 195.812 31.9858 197.43 31.3295 199.258C30.6733 201.062 30.3452 202.938 30.3452 204.883C30.3452 206.172 30.4858 207.449 30.767 208.715C31.0483 209.957 31.517 211.141 32.1733 212.266C32.8295 213.367 33.685 214.387 34.7397 215.324C35.7944 216.262 37.1069 217.07 38.6772 217.75C40.2475 218.43 42.0756 218.969 44.1616 219.367C46.2709 219.742 48.6967 219.93 51.4389 219.93C54.1108 219.93 56.5131 219.766 58.6459 219.438C60.7787 219.086 62.7358 218.629 64.517 218.066C66.2983 217.504 67.9272 216.871 69.4037 216.168C70.8803 215.441 72.2866 214.703 73.6225 213.953V225.695Z" fill="white"/>
<path d="M161.974 204.883C161.974 209.031 161.213 212.699 159.689 215.887C158.166 219.051 155.986 221.699 153.15 223.832C150.314 225.965 146.869 227.582 142.814 228.684C138.783 229.762 134.248 230.301 129.209 230.301C124.17 230.301 119.611 229.762 115.533 228.684C111.478 227.582 108.021 225.965 105.162 223.832C102.302 221.699 100.099 219.051 98.5525 215.887C97.0056 212.699 96.2322 209.031 96.2322 204.883C96.2322 200.734 97.0056 197.078 98.5525 193.914C100.099 190.727 102.302 188.066 105.162 185.934C108.021 183.801 111.478 182.195 115.533 181.117C119.611 180.016 124.17 179.465 129.209 179.465C134.248 179.465 138.783 180.016 142.814 181.117C146.869 182.195 150.314 183.801 153.15 185.934C155.986 188.066 158.166 190.727 159.689 193.914C161.213 197.078 161.974 200.734 161.974 204.883ZM148.791 204.883C148.791 203.078 148.498 201.285 147.912 199.504C147.349 197.699 146.33 196.082 144.853 194.652C143.4 193.223 141.408 192.062 138.877 191.172C136.345 190.281 133.123 189.836 129.209 189.836C126.584 189.836 124.275 190.047 122.283 190.469C120.291 190.867 118.568 191.43 117.115 192.156C115.662 192.883 114.443 193.738 113.459 194.723C112.474 195.684 111.689 196.727 111.103 197.852C110.517 198.953 110.095 200.113 109.838 201.332C109.603 202.527 109.486 203.711 109.486 204.883C109.486 206.078 109.603 207.285 109.838 208.504C110.095 209.723 110.517 210.895 111.103 212.02C111.689 213.121 112.474 214.152 113.459 215.113C114.443 216.074 115.662 216.918 117.115 217.645C118.568 218.348 120.291 218.91 122.283 219.332C124.275 219.73 126.584 219.93 129.209 219.93C133.123 219.93 136.345 219.484 138.877 218.594C141.408 217.703 143.4 216.543 144.853 215.113C146.33 213.684 147.349 212.078 147.912 210.297C148.498 208.492 148.791 206.688 148.791 204.883Z" fill="white"/>
<path d="M233.17 229L200.58 195.812V229H187.537V180.695H201.705L234.33 214.023V180.695H247.303V229H233.17Z" fill="white"/>
<path d="M338.608 204.883C338.608 207.508 338.291 209.934 337.659 212.16C337.049 214.363 336.159 216.379 334.987 218.207C338.268 219.449 341.221 220.41 343.846 221.09L338.538 230.582C336.639 229.855 334.705 229.094 332.737 228.297C330.768 227.5 328.788 226.656 326.795 225.766C324.077 227.289 320.959 228.426 317.444 229.176C313.928 229.926 310.061 230.301 305.842 230.301C300.803 230.301 296.245 229.762 292.166 228.684C288.112 227.582 284.655 225.965 281.795 223.832C278.936 221.699 276.733 219.051 275.186 215.887C273.639 212.699 272.866 209.031 272.866 204.883C272.866 200.734 273.639 197.078 275.186 193.914C276.733 190.727 278.936 188.066 281.795 185.934C284.655 183.801 288.112 182.195 292.166 181.117C296.245 180.016 300.803 179.465 305.842 179.465C310.881 179.465 315.416 180.016 319.448 181.117C323.502 182.195 326.948 183.801 329.784 185.934C332.62 188.066 334.799 190.727 336.323 193.914C337.846 197.078 338.608 200.734 338.608 204.883ZM325.424 204.883C325.424 203.078 325.131 201.285 324.545 199.504C323.983 197.699 322.963 196.082 321.487 194.652C320.034 193.223 318.041 192.062 315.51 191.172C312.979 190.281 309.756 189.836 305.842 189.836C303.217 189.836 300.909 190.047 298.916 190.469C296.924 190.867 295.202 191.43 293.748 192.156C292.295 192.883 291.077 193.738 290.092 194.723C289.108 195.684 288.323 196.727 287.737 197.852C287.151 198.953 286.729 200.113 286.471 201.332C286.237 202.527 286.12 203.711 286.12 204.883C286.12 206.078 286.237 207.285 286.471 208.504C286.729 209.723 287.151 210.895 287.737 212.02C288.323 213.121 289.108 214.152 290.092 215.113C291.077 216.074 292.295 216.918 293.748 217.645C295.202 218.348 296.924 218.91 298.916 219.332C300.909 219.73 303.217 219.93 305.842 219.93C307.248 219.93 308.561 219.871 309.78 219.754C310.998 219.637 312.159 219.449 313.26 219.191C311.807 218.441 310.401 217.691 309.041 216.941C307.705 216.168 306.44 215.406 305.245 214.656L310.448 206.113C312.112 207.262 314.034 208.434 316.213 209.629C318.393 210.824 320.69 211.996 323.104 213.145C323.995 211.879 324.604 210.555 324.932 209.172C325.26 207.766 325.424 206.336 325.424 204.883Z" fill="white"/>
<path d="M421.194 212.723C421.194 215.137 420.596 217.41 419.401 219.543C418.206 221.676 416.413 223.539 414.022 225.133C411.632 226.727 408.643 227.992 405.057 228.93C401.495 229.844 397.323 230.301 392.542 230.301C387.76 230.301 383.565 229.844 379.956 228.93C376.37 227.992 373.382 226.727 370.991 225.133C368.6 223.539 366.807 221.676 365.612 219.543C364.417 217.41 363.819 215.137 363.819 212.723V180.695H376.827V208.047C376.827 209.664 377.026 211.199 377.425 212.652C377.846 214.082 378.62 215.336 379.745 216.414C380.893 217.492 382.487 218.348 384.526 218.98C386.589 219.613 389.26 219.93 392.542 219.93C395.8 219.93 398.448 219.613 400.487 218.98C402.526 218.348 404.108 217.492 405.233 216.414C406.382 215.336 407.155 214.082 407.553 212.652C407.952 211.199 408.151 209.664 408.151 208.047V180.695H421.194V212.723Z" fill="white"/>
<path d="M449.64 229V180.695H498.542V190.996H463.034V198.977H496.714V209.277H463.034V218.699H499.034V229H449.64Z" fill="white"/>
<path d="M538.378 229H525.335V180.695H558.031C561.546 180.695 564.523 181.059 566.96 181.785C569.421 182.512 571.414 183.543 572.937 184.879C574.484 186.215 575.597 187.832 576.277 189.73C576.98 191.605 577.331 193.703 577.331 196.023C577.331 198.062 577.039 199.844 576.453 201.367C575.89 202.891 575.117 204.203 574.132 205.305C573.171 206.383 572.046 207.297 570.757 208.047C569.468 208.797 568.109 209.418 566.679 209.91L582.499 229H567.242L552.617 211.211H538.378V229ZM564.148 195.953C564.148 195.016 564.019 194.219 563.761 193.562C563.527 192.906 563.105 192.379 562.496 191.98C561.886 191.559 561.066 191.254 560.035 191.066C559.027 190.879 557.761 190.785 556.238 190.785H538.378V201.121H556.238C557.761 201.121 559.027 201.027 560.035 200.84C561.066 200.652 561.886 200.359 562.496 199.961C563.105 199.539 563.527 199 563.761 198.344C564.019 197.688 564.148 196.891 564.148 195.953Z" fill="white"/>
</svg>
