<svg width="60" height="46" viewBox="0 0 60 46" fill="none" xmlns="http://www.w3.org/2000/svg">
<path d="M24.7059 45.75H35.2941C37.2353 45.75 38.8235 44.1663 38.8235 42.2308V28.1538C38.8235 26.2183 37.2353 24.6346 35.2941 24.6346H24.7059C22.7647 24.6346 21.1765 26.2183 21.1765 28.1538V42.2308C21.1765 44.1663 22.7647 45.75 24.7059 45.75ZM3.52941 45.75H14.1176C16.0588 45.75 17.6471 44.1663 17.6471 42.2308V3.51923C17.6471 1.58365 16.0588 0 14.1176 0H3.52941C1.58824 0 0 1.58365 0 3.51923V42.2308C0 44.1663 1.58824 45.75 3.52941 45.75ZM45.8824 45.75H56.4706C58.4118 45.75 60 44.1663 60 42.2308V28.1538C60 26.2183 58.4118 24.6346 56.4706 24.6346H45.8824C43.9412 24.6346 42.3529 26.2183 42.3529 28.1538V42.2308C42.3529 44.1663 43.9412 45.75 45.8824 45.75ZM21.1765 3.51923V17.5962C21.1765 19.5317 22.7647 21.1154 24.7059 21.1154H56.4706C58.4118 21.1154 60 19.5317 60 17.5962V3.51923C60 1.58365 58.4118 0 56.4706 0H24.7059C22.7647 0 21.1765 1.58365 21.1765 3.51923Z" fill="#00FFB0"/>
</svg>
