<svg width="400" height="200" viewBox="0 0 400 200" fill="none" xmlns="http://www.w3.org/2000/svg">
<rect width="400" height="200" fill="white"/>
<g clip-path="url(#clip0)">
<path d="M74.7734 124.274H140.447L159.955 60H94.2825L74.7734 124.274Z" fill="black"/>
<path d="M160.002 124.274H225.675L245.184 60H179.511L160.002 124.274Z" fill="black"/>
<path d="M244.818 124.274H310.491L330 60H264.327L244.818 124.274Z" fill="black"/>
<path d="M129.089 91.2072C131.391 91.2072 136.281 89.7736 137.867 84.5505C139.452 79.3273 137.199 73.1071 128.865 73.1071H106.217L94.6621 111.177H117.755C124.884 111.177 132.339 108.634 134.336 102.052C137.061 93.0771 129.089 91.2072 129.089 91.2072ZM116.584 81.7665H123.341C127.35 81.7665 126.084 88.1406 121.406 88.1406H114.649L116.584 81.7665ZM117.668 102.052H110.426L112.719 94.4984H118.973C123.726 94.4981 122.791 102.052 117.668 102.052V102.052Z" fill="white"/>
<path d="M214.276 91.2072C216.578 91.2072 221.469 89.7736 223.054 84.5505C224.64 79.3273 222.386 73.1071 214.053 73.1071H191.405L179.85 111.177H202.943C210.071 111.177 217.526 108.634 219.524 102.052C222.248 93.0771 214.276 91.2072 214.276 91.2072ZM201.771 81.7665H208.528C212.538 81.7665 211.272 88.1406 206.594 88.1406H199.837L201.771 81.7665ZM202.855 102.052H195.614L197.907 94.4984H204.16C208.914 94.4981 207.979 102.052 202.855 102.052Z" fill="white"/>
<path d="M293.205 95.5469H306.168C303.026 105.9 297.066 113.105 284.288 113.105C269.935 113.105 266.669 101.291 269.632 91.5288C271.84 84.2539 278.412 71.7559 293.103 71.7559C309.091 71.7559 309.396 84.3782 308.094 88.6686H294.884C296.165 85.8706 295.051 82.0156 291.78 82.0156C288.508 82.0156 284.992 85.8706 283.001 92.4306C281.01 98.9906 282.389 102.783 285.97 102.783C289.55 102.783 292.57 97.6378 293.205 95.5469V95.5469Z" fill="white"/>
<path d="M70 140H135.673L137.6 133.652H71.9268L70 140Z" fill="black"/>
<path d="M155.229 140H220.902L222.828 133.652H157.155L155.229 140Z" fill="black"/>
<path d="M240.045 140H305.718L307.644 133.652H241.972L240.045 140Z" fill="black"/>
</g>
<defs>
<clipPath id="clip0">
<rect width="260" height="80" fill="white" transform="translate(70 60)"/>
</clipPath>
</defs>
</svg>
