<svg width="400" height="200" viewBox="0 0 400 200" fill="none" xmlns="http://www.w3.org/2000/svg">
<g clip-path="url(#clip0)">
<rect width="400" height="200" fill="white"/>
<g clip-path="url(#clip1)">
<path d="M237.587 243.76C237.073 243.105 236.413 242.277 236.122 241.919C235.83 241.562 235.592 241.206 235.592 241.128C235.592 241.05 235.152 240.597 234.614 240.12C232.911 238.612 231.598 237.23 229.567 234.807C228.482 233.511 227.215 232.024 226.753 231.502C226.291 230.98 225.5 230.041 224.996 229.414C223.46 227.504 221.092 224.903 218.02 221.749C214.831 218.476 212.981 216.461 212.012 215.208C210.475 213.22 209.415 211.734 209.415 211.568C209.415 211.469 208.924 210.838 208.324 210.166C206.553 208.183 204.869 205.849 202.033 201.447C201.262 200.251 200.282 198.89 199.855 198.424C199.428 197.957 198.424 196.699 197.624 195.627C195.708 193.06 195.459 192.819 194.075 192.192C192.222 191.352 189.648 190.256 188.792 189.942C188.361 189.784 187.286 189.291 186.403 188.848C185.519 188.404 184.563 187.972 184.277 187.888C183.727 187.726 179.55 185.786 178.148 185.041C172.519 182.05 172.394 181.978 169.763 180.213C168.077 179.081 166.929 178.048 164.653 175.617C161.881 172.653 159.582 170.372 159.369 170.372C159.292 170.372 159.075 170.113 158.887 169.796C158.32 168.839 156.079 166.584 155.841 166.731C155.718 166.806 155.452 166.666 155.249 166.42C155.046 166.174 154.459 165.532 153.945 164.995C152.514 163.498 150.681 161.401 150.023 160.507C149.697 160.065 149.134 159.423 148.771 159.082C148.408 158.74 147.595 157.854 146.965 157.113C145.646 155.563 137.342 146.963 133.75 143.427C131.451 141.165 129.983 139.402 128.659 137.312C127.979 136.238 127.599 136.171 126.973 137.015C125.45 139.068 120.698 139.23 118.314 137.309L117.517 136.667L117.859 135.237C118.265 133.536 118.677 130.991 118.563 130.878C118.519 130.834 118.585 130.17 118.711 129.402C118.842 128.601 118.882 127.213 118.805 126.143C118.731 125.117 118.661 123.477 118.649 122.497C118.621 120.199 118.16 119.565 117.217 120.526C116.488 121.268 115.205 122.083 114.219 122.43C113.789 122.581 113.016 122.951 112.501 123.252C111.028 124.113 107.554 124.472 106.199 123.903C105.779 123.727 105.186 123.53 104.882 123.465C104.289 123.339 103.046 121.849 103.046 121.265C103.046 121.078 102.872 120.767 102.658 120.574C102.2 120.161 102.465 118.39 103.472 115.148C103.58 114.798 103.668 114.286 103.668 114.009C103.667 113.566 103.993 111.894 104.676 108.844C104.79 108.332 105.08 107.355 105.32 106.675C105.771 105.396 105.757 104.908 105.269 104.908C104.965 104.908 104.725 104.512 104.139 103.044C103.413 101.222 102.403 99.6943 102.095 99.9498C101.94 100.078 101.693 100.141 101.547 100.09C101.4 100.038 100.918 100.319 100.475 100.714C97.2735 103.569 90.4844 104.115 88.0034 101.717C85.2673 99.0722 84.8013 95.9791 86.7756 93.568C87.2196 93.0258 87.8333 92.2093 88.1394 91.7535C88.4456 91.2977 88.9701 90.5519 89.305 90.0962C89.6399 89.6404 90.7885 87.9546 91.8574 86.3499C93.6641 83.6375 94.602 82.5394 94.8775 82.8141C94.9398 82.8763 94.7795 83.2817 94.5213 83.715C93.536 85.3679 90.271 90.3056 89.0177 92.0377C87.8099 93.7074 87.8974 94.329 89.1803 93.1932C90.9472 91.629 92.788 89.6339 93.5758 88.429C94.0194 87.7506 94.5393 87.0091 94.731 86.7812C94.9227 86.5533 95.373 85.6104 95.7316 84.6858L96.3836 83.0047L94.7661 79.921C93.8765 78.2249 92.755 76.1847 92.2739 75.3871C91.7928 74.5895 91.1634 73.4341 90.8753 72.8195C90.5872 72.2048 90.0524 71.2726 89.6869 70.7478C88.8401 69.532 88.777 67.5223 89.5329 65.846C90.6485 63.3717 90.6939 62.5291 89.7389 62.0196C89.5098 61.8973 89.3805 61.7034 89.4516 61.5887C89.6225 61.313 89.3784 60.3679 89.1362 60.3679C89.0318 60.3679 88.8886 60.5496 88.8179 60.7717C88.2604 62.5233 85.5944 63.0147 85.5944 61.3659C85.5944 61.1921 85.3678 60.8061 85.0908 60.508C84.7452 60.1362 84.5421 59.6064 84.4436 58.8204C84.3266 57.8868 84.2276 57.6747 83.9085 57.6747C83.6931 57.6747 83.3299 57.4883 83.1014 57.2604C82.5327 56.6933 81.5335 56.7303 80.8002 57.3455C77.2682 60.3092 68.8135 55.7189 62.7096 47.5237C62.4126 47.125 61.7301 46.3325 61.193 45.7628C59.9896 44.4862 59.0021 43.1725 59.0021 42.848C59.0021 42.5494 58.1654 40.6235 57.9734 40.4801C57.359 40.0019 55.5911 32.598 56.1067 32.598C56.3734 32.598 56.5222 32.7362 56.5222 32.9836C56.5222 35.033 59.7897 36.7024 63.3097 36.4515C65.8393 36.2712 65.4098 36.2736 67.7405 36.4267C72.0087 36.707 76.6975 37.6614 78.8285 38.6838C79.643 39.0745 80.8236 39.6233 81.452 39.9032C83.3222 40.7363 85.0364 42.1374 85.8323 43.4835C86.2226 44.1434 86.7412 45.0172 86.985 45.4254C87.2287 45.8335 87.5391 46.7035 87.6749 47.3586C87.9467 48.6706 88.0562 48.7563 88.6391 48.1131C90.4331 46.1334 93.8652 46.4571 94.4189 48.6584C94.5653 49.2401 94.9848 49.3247 95.3783 48.8519C95.5983 48.5877 95.5724 48.4357 95.2283 47.9715C93.559 45.7193 92.5251 42.2398 93.0137 40.5184C93.1344 40.0932 93.2701 39.6076 93.3153 39.4394C93.3666 39.2483 93.2221 39.1069 92.93 39.0625C92.1444 38.9429 92.5046 37.9843 93.3352 37.9843C93.5408 37.9843 93.7091 37.8864 93.7091 37.7666C93.7091 37.3983 95.8816 36.6025 97.3448 36.4348C97.6875 36.3956 98.7627 36.1763 99.7339 35.9475C101.59 35.5104 102.184 35.4338 106.382 35.0912C109.875 34.8061 110.932 34.6633 111.058 34.4592C111.117 34.3649 111.795 34.0889 112.565 33.846C113.335 33.603 114.131 33.3137 114.334 33.2031C115.104 32.7832 116.931 32.1271 118.422 31.7348C119.274 31.5106 120.489 31.0803 121.123 30.7785C122.11 30.3084 122.587 30.2228 124.456 30.1805C125.656 30.1534 127.012 30.0804 127.469 30.0183C128.351 29.8984 131.393 30.1661 139.301 31.0595C139.867 31.1235 140.403 31.2203 140.491 31.2746C140.579 31.3289 141.284 31.4091 142.058 31.4527C142.832 31.4963 144.543 31.5933 145.861 31.6682C149.955 31.9012 154.035 31.9237 154.637 31.7168C154.997 31.5929 155.308 31.5917 155.468 31.7134C155.627 31.835 156.542 31.8347 157.904 31.7126C161.323 31.406 166.352 31.4088 166.661 31.7176C166.804 31.86 167.178 31.9766 167.492 31.9766C168.473 31.9766 170.249 32.5295 171.106 33.1017C172.481 34.0194 174.881 36.3072 175.152 36.9573C175.482 37.7536 176.034 37.7837 175.942 37.0004L175.875 36.4307L177.537 36.5068C179.09 36.5779 183.812 37.9707 184.584 38.5849C184.707 38.6833 186.093 39.4317 187.663 40.248C189.233 41.0642 191.197 42.145 192.026 42.6497C192.855 43.1544 194.188 43.9498 194.988 44.4174C195.788 44.8849 197.144 45.7252 198.001 46.2846C198.858 46.844 199.98 47.5148 200.494 47.7753C201.849 48.4617 208.59 52.9192 209.548 53.7619C209.995 54.1561 211.036 54.9153 211.859 55.449C212.683 55.9828 213.664 56.6795 214.041 56.9975C214.417 57.3154 215.122 57.83 215.608 58.1412C216.093 58.4524 216.491 58.7757 216.491 58.8597C216.491 58.9438 216.908 59.2333 217.418 59.503C217.928 59.7728 218.49 60.2135 218.666 60.4824C218.843 60.7513 219.26 61.112 219.594 61.284C219.928 61.4561 220.255 61.7665 220.321 61.9739C220.387 62.1814 220.674 62.4387 220.96 62.5459C221.246 62.6531 222.128 63.2922 222.919 63.9661C224.302 65.1432 232.059 69.0592 233.008 69.0592C233.372 69.0592 237.377 71.1919 237.993 71.7139C238.616 72.2421 240.59 74.5786 240.59 74.7885C240.59 74.8892 240.999 75.5178 241.5 76.1854C242.001 76.853 242.506 77.7368 242.622 78.1494C243.215 80.2477 243.706 82.5651 243.706 83.2661C243.706 83.6985 243.839 84.6176 244.001 85.3085C244.923 89.2331 245.386 91.3843 245.345 91.5529C245.28 91.8181 245.55 93.151 245.992 94.7477C246.197 95.4883 246.473 96.6536 246.605 97.3372C246.737 98.0209 246.943 98.8599 247.064 99.2017C247.185 99.5436 247.359 100.289 247.452 100.859C247.775 102.844 248.878 106.674 250.108 110.078C250.334 110.705 250.655 111.991 250.82 112.936L251.119 114.654L250.513 115.163C249.43 116.071 249.058 115.774 248.814 113.807C248.659 112.564 248.451 111.796 247.814 110.119C247.585 109.515 247.325 108.723 247.237 108.358C247.15 107.994 246.837 106.881 246.542 105.885C246.247 104.89 245.864 103.305 245.69 102.363C245.252 99.9888 244.118 94.1749 243.923 93.2977C243.834 92.8989 243.604 91.8734 243.412 91.0188C242.971 89.0596 242.757 87.9758 242.453 86.1504C241.818 82.3383 241.533 81.2288 240.672 79.2103C240.161 78.0139 239.677 76.9419 239.595 76.8279C239.228 76.3151 237.267 74.8681 236.771 74.744C236.469 74.6683 235.872 74.2162 235.445 73.7392C235.018 73.2623 234.155 72.6116 233.526 72.2932C232.898 71.9749 232.29 71.5967 232.175 71.4528C232.06 71.3089 231.764 71.1271 231.517 71.0489C231.27 70.9706 230.821 70.7138 230.521 70.4781C230.221 70.2424 229.582 69.8424 229.102 69.5892C228.621 69.336 227.779 68.8694 227.231 68.5524C226.096 67.8965 225.744 67.9862 226.463 68.7484C227.455 69.8021 225.925 69.2882 224.593 68.1207C224.307 67.8703 223.466 67.3162 222.723 66.8894C221.98 66.4626 220.625 65.4932 219.711 64.7353C217.493 62.8964 216.698 62.2928 215.035 61.1869C214.264 60.6742 213.131 59.8192 212.517 59.287C210.284 57.3515 209.097 56.4061 208.202 55.8501C207.7 55.538 206.873 54.9307 206.365 54.5004C205.857 54.0702 205.083 53.5354 204.643 53.312C204.204 53.0886 203.722 52.7311 203.572 52.5175C203.421 52.3039 202.737 51.833 202.052 51.471C201.366 51.109 200.397 50.523 199.897 50.1689C199.398 49.8148 198.631 49.3289 198.192 49.0892C197.754 48.8495 195.217 47.2011 192.556 45.426C185.626 40.8038 182.018 38.9115 179.407 38.5287C178.95 38.4618 178.342 38.3563 178.056 38.2943C175.929 37.833 178.504 40.8953 183.238 44.4565C185.353 46.0473 196.05 57.1221 199.179 60.9599C202.237 64.7098 205.723 68.205 207.008 68.8071C207.253 68.922 208.248 69.4195 209.219 69.9126C210.41 70.5172 211.352 70.8447 212.111 70.9182C213.494 71.052 213.66 71.3859 212.562 71.8242C211.684 72.1742 211.146 72.079 209.531 71.2881C209.188 71.1203 208.591 70.8269 208.204 70.6361C207.271 70.1757 207.139 70.3717 207.871 71.1329C209.483 72.8111 206.924 71.1515 203.879 68.544C199.333 64.6517 195.96 61.1996 193.502 57.9246C192.262 56.2733 190.771 54.389 190.187 53.737C189.603 53.0853 189.042 52.4115 188.94 52.2398C188.839 52.0681 188.323 51.601 187.794 51.202C187.265 50.8029 186.143 49.8022 185.301 48.9782C184.459 48.1543 183.112 47.0326 182.309 46.4856C181.506 45.9386 180.711 45.3246 180.543 45.1212C180.375 44.9178 179.866 44.4824 179.413 44.1537C178.959 43.825 176.902 42.0342 174.842 40.1739C166.558 32.712 167.155 33.1122 164.415 33.1747C163.272 33.2008 161.908 33.3859 160.991 33.6393C159.261 34.1173 157.885 34.1684 156.143 33.8195C155.179 33.6263 154.853 33.6329 154.5 33.8526C154.182 34.0506 152.83 34.1475 149.621 34.202C147.025 34.2461 145.01 34.3692 144.767 34.4985C144.193 34.8053 140.099 34.3816 136.502 33.6429C133.817 33.0915 125.67 32.4315 124.245 32.6499C123.731 32.7287 122.609 32.8942 121.752 33.0178C120.895 33.1413 119.399 33.5259 118.428 33.8723C117.457 34.2187 116.241 34.625 115.727 34.7752C115.213 34.9253 114.325 35.2526 113.753 35.5024C113.182 35.7523 112.528 35.9604 112.299 35.9649C111.712 35.9766 110.741 36.3548 110.741 36.5716C110.741 36.6717 110.811 36.7303 110.897 36.7018C111.826 36.393 110.852 37.2685 109.489 37.9668C106.452 39.5236 103.625 40.1514 98.6914 40.365C95.8501 40.4879 94.5349 40.8816 94.5456 41.606C94.5899 44.7039 100.961 50.5172 105.585 51.6794C108.429 52.3941 119.66 52.7821 120.946 52.2101C121.179 52.1065 121.313 52.1806 121.384 52.4514C121.471 52.7815 121.665 52.8361 122.632 52.8023C124.352 52.7423 124.372 52.6479 123.021 50.9871C121.191 48.7369 120.181 46.8076 120.484 46.1433C120.748 45.5652 121.201 45.7371 121.446 46.509C121.65 47.1503 121.997 46.9613 121.923 46.2488C121.816 45.21 122.295 45.3317 122.568 46.4126C123.008 48.1569 126.903 51.701 130.062 53.233C132.605 54.4661 138.078 56.0848 141.593 56.6435C142.278 56.7525 143.343 56.9811 143.958 57.1515C144.573 57.3218 145.415 57.5025 145.828 57.5529C146.781 57.6693 149.994 58.4933 150.474 58.7446C150.968 59.003 150.958 58.512 150.457 57.8606C149.825 57.0391 149.756 56.6562 149.673 53.534C149.549 48.8675 150.227 47.8622 150.74 51.9509C150.866 52.9535 150.97 53.1197 151.473 53.1197C151.695 53.1197 151.876 53.2129 151.876 53.3269C151.876 54.1544 152.296 53.2523 152.479 52.0321C152.953 48.8681 153.167 48.0181 153.691 47.2182C154.312 46.2715 154.573 46.5329 154.037 47.564C152.552 50.422 153.239 58.7571 154.936 58.4593C155.261 58.4022 157.07 61.1547 157.07 61.7063C157.07 61.8518 157.327 62.3055 157.641 62.7144C158.688 64.0764 159.34 65.0201 160.13 66.3179C160.561 67.0253 161.357 68.0756 161.9 68.652C162.443 69.2284 162.887 69.7767 162.887 69.8704C162.887 69.9642 163.103 70.1389 163.367 70.2588C163.652 70.3884 163.95 70.8009 164.101 71.2761C164.894 73.7665 169.319 75.6565 169.329 73.5093C169.331 73.0438 171.086 68.6852 171.395 68.3767C171.825 67.9482 171.793 68.4087 171.29 69.8906C170.406 72.4981 170.591 75.3911 171.703 76.3111C171.907 76.4805 172.028 76.9169 172.028 77.4872C172.028 78.9684 172.544 78.5909 173.711 76.2563C174.496 74.6853 175.006 74.0437 175.47 74.0437C176.509 74.0437 175.237 79.0106 173.874 80.2812C173.236 80.8747 173.229 80.9012 173.597 81.3061C173.942 81.6872 173.946 81.7493 173.641 82.0534C173.122 82.5709 171.982 81.7651 171.305 80.4033C170.241 78.2596 168.581 76.575 167.208 76.2469C166.367 76.0456 163.721 73.8482 160.809 70.9316C158.03 68.1485 157.202 67.0635 155.327 63.7506C153.873 61.1818 154.002 61.2852 152.044 61.1155C151.165 61.0393 149.997 60.8447 149.447 60.6831C148.898 60.5215 147.186 60.2855 145.643 60.1587C142.099 59.8673 140.351 59.5116 137.458 58.4931C133.893 57.2379 132.966 57.446 135.45 58.9437C136.174 59.3806 136.885 59.9036 137.03 60.1061C137.175 60.3085 137.73 60.9263 138.264 61.4789L139.236 62.4836L139.721 62.029C140.075 61.6977 140.338 61.6144 140.691 61.7219C141.606 61.9998 147.882 65.141 148.139 65.449C148.28 65.6183 148.563 65.7568 148.768 65.7568C149.861 65.7568 150.396 66.505 149.919 67.3663C149.747 67.6775 149.472 68.4448 149.309 69.0715C149.146 69.6981 148.803 70.7636 148.546 71.4392L148.079 72.6674L148.5 72.9929C148.732 73.1719 149.189 73.4789 149.516 73.6751C149.843 73.8713 150.624 74.4114 151.253 74.8754C151.881 75.3394 152.769 75.9624 153.226 76.2597C153.683 76.5571 154.758 77.47 155.615 78.2884C157.558 80.1437 159.52 81.1677 162.026 81.6339C163.987 81.9988 163.994 81.9998 167.447 82.3443C171.117 82.7105 175.64 84.4771 176.233 85.7761C176.489 86.3347 177.984 87.2528 179.715 87.9132C180.343 88.1531 181.044 88.4287 181.273 88.5257C181.501 88.6227 182.436 88.9101 183.35 89.1645C184.264 89.4188 185.229 89.7107 185.494 89.8131C186.011 90.0128 187.075 89.299 188.293 87.9351C188.622 87.5677 189.064 87.3021 189.349 87.3021C189.618 87.3021 190.071 87.12 190.354 86.8975C191.03 86.3675 192.12 86.6677 192.993 87.6242C193.328 87.9917 193.783 88.4192 194.003 88.5741C194.961 89.2484 195.357 91.0283 194.863 92.4407C194.441 93.649 196.01 94.9285 198.027 95.0202C199.739 95.098 199.107 96.2421 197.038 96.8119C196.655 96.9174 196.084 97.2052 195.77 97.4516L195.199 97.8995L194.751 97.3386C194.326 96.808 194.295 96.8001 194.171 97.1918C193.961 97.8509 193.254 98.3999 192.974 98.1209C192.799 97.9469 192.827 97.6566 193.083 96.9898C193.659 95.486 193.455 95.3953 192.259 96.6229C191.147 97.7632 191.084 98.1631 191.803 99.5249C192.507 100.859 192.771 101.205 193.322 101.513C193.546 101.637 193.781 101.964 193.846 102.238C193.96 102.716 194.068 102.754 195.068 102.667C195.447 102.634 196.362 101.271 197.178 99.5249C197.775 98.2475 199.031 96.4298 199.552 96.0896C199.964 95.8202 200.034 95.645 199.931 95.1331L199.805 94.5064L200.823 94.6401C201.382 94.7136 202.326 94.8257 202.921 94.8891C203.515 94.9525 204.111 95.1359 204.245 95.2966C204.379 95.4573 204.64 95.5921 204.826 95.5962C205.31 95.6069 206.169 96.3847 206.777 97.362C207.166 97.987 207.517 98.2675 208.142 98.4542C208.634 98.6013 209.034 98.8672 209.107 99.096C209.175 99.3109 209.672 99.6903 210.21 99.9391C211.212 100.402 212.467 101.139 214.305 102.343C214.989 102.791 215.806 103.104 216.694 103.258C218.616 103.591 221.168 104.783 222.408 105.928C222.979 106.455 223.821 107.035 224.278 107.216C226.186 107.972 228.125 108.573 229.783 108.92C230.947 109.164 231.273 109.33 233.357 110.739C234.273 111.359 234.741 111.54 235.425 111.54C236.166 111.54 236.439 111.666 237.101 112.311C237.797 112.989 238.024 113.086 238.98 113.111C240.018 113.138 241.739 113.638 243.656 114.47C244.145 114.682 244.678 114.855 244.841 114.855C245.152 114.855 250.645 117.623 251.182 118.05C251.767 118.516 253.712 119.413 254.139 119.413C255.134 119.413 263.137 123.033 264.159 123.945C264.855 124.566 266.41 125.206 267.93 125.497C269.047 125.711 269.67 125.988 270.778 126.762C272.136 127.711 275.809 129.391 277.378 129.78C278.373 130.027 282.754 131.998 283.279 132.435C284.052 133.078 285.072 133.541 285.481 133.435C285.721 133.372 286.118 133.517 286.453 133.79C286.764 134.043 287.486 134.419 288.057 134.625C288.629 134.831 289.505 135.222 290.005 135.493C290.505 135.764 291.078 135.986 291.278 135.986C291.479 135.986 291.75 136.115 291.881 136.273C292.1 136.535 294.613 137.606 295.848 137.962C296.134 138.045 297.069 138.461 297.926 138.888C300.033 139.937 302.364 140.865 303.722 141.194C304.472 141.376 304.877 141.589 304.941 141.834C305.001 142.061 305.234 142.201 305.553 142.201C305.836 142.201 306.316 142.334 306.619 142.496C306.922 142.658 307.638 142.989 308.209 143.232C308.781 143.474 309.482 143.805 309.767 143.966C310.053 144.128 310.52 144.363 310.806 144.49C311.092 144.616 311.794 144.945 312.368 145.221C312.941 145.497 313.566 145.723 313.758 145.723C313.949 145.723 314.163 145.816 314.234 145.93C314.305 146.044 314.509 146.137 314.688 146.137C315.123 146.137 317.523 147.321 318.747 148.139C319.286 148.499 320.057 148.903 320.461 149.035C320.864 149.168 321.194 149.351 321.194 149.442C321.194 149.661 323.237 150.533 323.447 150.404C323.662 150.271 325.366 150.859 325.764 151.203C325.936 151.351 326.54 151.674 327.107 151.92C327.674 152.166 328.282 152.494 328.457 152.648C328.633 152.802 329.525 153.227 330.439 153.592C331.353 153.956 332.542 154.484 333.082 154.763C333.622 155.043 334.602 155.412 335.261 155.583C335.919 155.754 336.528 156.019 336.614 156.172C336.7 156.324 337.028 156.513 337.344 156.592C337.659 156.67 338.058 156.851 338.229 156.993C338.401 157.136 339.803 157.791 341.346 158.449C342.888 159.107 344.51 159.877 344.95 160.159C345.389 160.441 346.117 160.801 346.567 160.959C347.017 161.117 347.59 161.39 347.839 161.564C348.089 161.739 348.495 161.882 348.742 161.882C348.988 161.882 349.308 162.024 349.453 162.198C349.851 162.677 353.51 164.368 354.148 164.368C354.475 164.368 355.147 164.698 355.766 165.165C356.349 165.603 357.152 166.13 357.551 166.336C358.617 166.885 359.42 167.716 359.42 168.271C359.42 168.539 359.574 169.019 359.763 169.338C360.056 169.831 360.074 170.116 359.889 171.234C359.769 171.958 359.744 172.629 359.833 172.724C359.923 172.819 359.871 173.37 359.718 173.948C359.476 174.861 359.309 175.123 358.796 175.396C358.739 175.426 358.425 175.808 358.097 176.245C356.644 178.184 354.61 178.065 349.759 175.756C349.302 175.539 348.134 175.07 347.162 174.715C346.191 174.36 344.536 173.754 343.484 173.368C342.432 172.982 340.749 172.251 339.745 171.742C336.96 170.334 336.346 170.055 335.181 169.671C334.59 169.476 333.994 169.182 333.857 169.017C333.72 168.853 333.522 168.718 333.418 168.718C333.314 168.718 332.134 168.243 330.795 167.663C329.456 167.082 327.613 166.35 326.699 166.035C325.785 165.72 324.673 165.217 324.229 164.915C323.784 164.614 323.284 164.368 323.118 164.368C322.951 164.368 322.52 164.236 322.16 164.075C321.8 163.914 320.851 163.533 320.051 163.227C319.251 162.921 318.41 162.555 318.181 162.413C317.953 162.271 317.452 162.094 317.068 162.019C316.685 161.944 315.002 161.218 313.329 160.406C309.799 158.692 307.146 157.531 306.757 157.531C306.607 157.531 305.999 157.205 305.404 156.806C304.81 156.407 304.251 156.081 304.162 156.081C304.073 156.081 303.452 155.841 302.781 155.547C302.11 155.253 300.907 154.73 300.107 154.384C299.307 154.038 298.279 153.588 297.821 153.385C297.364 153.181 296.617 152.902 296.16 152.764C295.702 152.626 294.955 152.342 294.497 152.133C294.04 151.924 292.545 151.269 291.173 150.677C289.802 150.086 287.372 148.949 285.772 148.151C283.178 146.857 281.637 146.285 280.084 146.039C279.813 145.996 279.49 145.86 279.368 145.738C279.245 145.616 278.996 145.515 278.814 145.515C278.633 145.515 278.118 145.329 277.669 145.101C277.221 144.873 276.771 144.687 276.669 144.687C276.566 144.687 276.205 144.454 275.866 144.169C275.526 143.884 274.998 143.594 274.693 143.524C271.599 142.818 269.396 141.958 268.191 140.986C267.495 140.425 266.632 139.907 266.273 139.836C265.914 139.765 265.246 139.442 264.789 139.119C264.332 138.795 263.444 138.415 262.815 138.274C260.438 137.741 258.7 137.121 258.141 136.606C257.912 136.396 257.458 136.158 257.132 136.077L256.54 135.93L257.184 136.818C257.567 137.344 257.829 137.96 257.829 138.331C257.829 138.675 257.959 139.104 258.119 139.284C258.482 139.694 260.03 143.321 260.303 144.4C260.415 144.842 260.611 145.623 260.738 146.134C260.865 146.645 261.098 147.204 261.255 147.377C261.801 147.979 262.815 151.402 262.815 152.645C262.815 153.038 262.962 154.042 263.141 154.876C263.32 155.709 263.548 157.09 263.648 157.945C264.043 161.307 264.26 162.223 265.024 163.764C265.614 164.954 265.987 165.441 266.56 165.77C266.976 166.009 267.727 166.704 268.228 167.316C268.73 167.928 269.491 168.677 269.92 168.981C270.348 169.285 270.758 169.77 270.831 170.058C270.903 170.346 271.032 170.582 271.117 170.582C271.415 170.582 277.562 176.905 279.476 179.179C280.147 179.977 280.926 180.88 281.208 181.186C281.49 181.492 281.72 181.833 281.72 181.944C281.72 182.055 282.258 182.804 282.915 183.608C283.572 184.412 284.484 185.545 284.941 186.126C288.189 190.255 289.838 192.09 291.363 193.267C291.806 193.608 292.599 194.347 293.125 194.907C293.651 195.467 294.954 196.772 296.02 197.807C297.737 199.474 300.278 202.017 308.116 209.911C309.322 211.125 310.641 212.538 311.048 213.051C311.768 213.958 313.482 215.913 315.238 217.828C315.714 218.347 316.526 219.233 317.042 219.796C319.686 222.677 320.25 224.248 318.199 223.016C317.846 222.804 317.214 222.522 316.795 222.388C316.373 222.253 315.802 221.843 315.515 221.469C314.303 219.884 309.007 214.776 308.795 214.987C308.719 215.063 308.86 215.34 309.108 215.603C309.356 215.866 309.559 216.192 309.559 216.327C309.559 216.617 309.002 216.661 308.901 216.378C308.814 216.134 303.647 210.477 301.976 208.796C301.29 208.107 299.421 206.15 297.821 204.447C296.221 202.745 294.398 200.826 293.77 200.183C290.213 196.544 289.627 195.877 289.248 195.028C289 194.474 287.894 193.108 286.522 191.663C285.252 190.325 284.213 189.137 284.213 189.023C284.213 188.909 283.816 188.409 283.33 187.912C282.279 186.835 281.81 186.25 280.57 184.462C280.056 183.722 279.053 182.357 278.341 181.429C277.628 180.501 276.746 179.336 276.38 178.839C274.747 176.624 273.852 175.654 272.787 174.946C272.158 174.529 270.953 173.539 270.107 172.747C267.524 170.326 267.338 170.172 267.151 170.288C267.051 170.349 266.97 170.534 266.97 170.698C266.97 171.265 266.6 170.99 265.069 169.287C262.268 166.172 261.018 164.029 261.245 162.73C261.316 162.32 261.413 161.635 261.46 161.207C261.507 160.778 261.592 160.353 261.649 160.262C261.751 160.097 261.321 157.84 260.122 152.248C259.352 148.66 258.867 146.909 257.796 143.858C255.998 138.736 255.544 137.163 255.544 136.057C255.544 135.448 255.474 134.944 255.388 134.936C251.899 134.637 249.735 133.837 247.826 132.14C247.288 131.662 246.713 131.396 245.852 131.228C244.061 130.877 242.71 130.289 241.338 129.264C240.422 128.58 239.851 128.316 239.053 128.206C237.505 127.994 234.889 126.938 233.929 126.137C233.344 125.651 232.804 125.407 232.115 125.319C229.672 125.007 225.795 123.213 225.084 122.065C224.793 121.596 223.197 121.079 222.029 121.074C220.64 121.069 219.477 120.505 218.385 119.308C217.948 118.83 217.531 118.58 217.157 118.573C213.964 118.51 211.708 117.768 210.063 116.241C208.744 115.015 208.045 114.76 206.765 115.033C205.297 115.347 204.509 115.055 202.927 113.61C201.395 112.21 201.409 112.217 201.261 112.783C201.188 113.06 200.978 113.197 200.627 113.197C200.338 113.197 199.844 113.295 199.528 113.415C198.204 113.917 195.462 112.21 195.158 110.694C195.065 110.229 194.923 110.09 194.541 110.09C194.215 110.09 193.63 109.68 192.836 108.896C191.735 107.808 190.137 106.982 189.132 106.982C188.799 106.982 186.986 108.464 186.986 108.735C186.986 110.453 183.108 110.647 182.014 108.983C181.718 108.534 181.286 108.168 180.975 108.104C180.017 107.906 179.885 107.722 179.422 105.943C179.171 104.977 178.818 103.953 178.638 103.668C178.459 103.383 178.149 102.53 177.949 101.772L177.587 100.393L175.804 99.1821C173.328 97.4992 171.794 96.9028 167.596 95.9903C166.587 95.7709 165.652 95.5238 165.519 95.4411C165.385 95.3584 164.575 95.2878 163.718 95.2842C162.316 95.2782 162.046 95.2073 161.019 94.5752C160.139 94.0335 159.463 93.8111 158.063 93.6025C157.064 93.4538 155.183 93.094 153.881 92.8029C152.58 92.5118 151.32 92.2737 151.082 92.2737C150.288 92.2737 146.804 91.1879 145.436 90.514C144.693 90.1481 143.618 89.6864 143.047 89.4881C142.475 89.2897 141.751 88.9909 141.436 88.8241C141.122 88.6573 140.788 88.5682 140.694 88.626C140.484 88.7555 136.877 88.2004 135.879 87.8851C134.583 87.4752 131.51 85.6252 130.22 84.4772C129.528 83.8615 128.914 83.406 128.855 83.4649C128.491 83.8272 128.681 84.7403 129.255 85.3921C129.599 85.7833 130.12 86.606 130.411 87.2204C130.703 87.8349 131.025 88.3375 131.126 88.3375C131.227 88.3375 131.897 88.9202 132.615 89.6323C135.938 92.9301 137.972 94.7103 139.11 95.3155C139.79 95.6771 140.826 96.3293 141.413 96.7647C142.917 97.8802 145.5 99.9535 145.747 100.244C146.202 100.778 147.066 101.151 148.552 101.455C151.154 101.986 151.668 102.046 151.668 101.813C151.668 101.694 151.521 101.596 151.341 101.596C151.142 101.596 151.042 101.455 151.085 101.234C151.16 100.846 152.583 100.698 154.213 100.91C155.295 101.051 155.275 101.596 154.187 101.596C153.173 101.596 152.084 101.808 152.084 102.006C152.084 102.176 154.16 102.377 157.693 102.548C159.007 102.612 160.573 102.747 161.173 102.848C162.009 102.989 162.713 102.94 164.185 102.637C165.242 102.42 166.559 102.245 167.111 102.247C167.663 102.25 168.169 102.199 168.234 102.133C168.43 101.938 168.911 102.446 168.911 102.848C168.911 103.104 168.7 103.261 168.236 103.349C167.38 103.511 166.354 103.742 164.133 104.272C163.162 104.504 161.806 104.749 161.121 104.816C158.539 105.067 158.384 105.246 160.03 106.074C160.63 106.375 161.458 106.924 161.871 107.294C162.347 107.72 163.256 108.174 164.364 108.538C167.001 109.405 169.534 111.088 169.534 111.972C169.534 112.394 169.097 112.308 168.293 111.727C167.088 110.857 166.126 110.46 161.328 108.853C159.043 108.088 156.612 107.269 155.927 107.034C155.241 106.799 153.747 106.346 152.608 106.027C151.037 105.587 150.349 105.28 149.768 104.756C148.279 103.415 148.464 105.047 150.02 106.98C150.586 107.683 150.995 108.344 150.93 108.449C150.294 109.476 147.928 106.096 147.928 104.16C147.928 103.48 147.585 103.374 146.963 103.862C146.663 104.097 146.305 104.289 146.166 104.289C145.808 104.289 139.595 99.5899 136.992 97.3493C136.198 96.6656 134.445 95.1759 133.097 94.0387C131.749 92.9015 130.502 91.6896 130.325 91.3456C130.149 91.0015 129.734 90.3767 129.403 89.9571C128.708 89.0744 127.131 86.3798 126.517 85.0231C126.183 84.2863 125.814 83.9171 124.758 83.2622C123.37 82.4021 123.136 82.1294 123.338 81.6048C123.489 81.213 123.895 81.2105 124.644 81.5965C125.768 82.1764 124.972 78.5806 123.819 77.8696C123.695 77.7932 123.087 77.0474 122.467 76.2125C121.848 75.3776 121.168 74.6395 120.956 74.5724C120.744 74.5052 120.266 74.0282 119.895 73.5124C118.779 71.9628 116.974 70.127 115.316 68.8557C114.456 68.1961 113.239 67.1258 112.61 66.4771C109.053 62.8065 102.851 60.3631 98.2754 60.83C96.1515 61.0468 96.058 61.0988 96.74 61.6838C97.2178 62.0936 97.3985 62.1378 97.8702 61.9602C98.7012 61.6474 99.5088 62.0679 101.023 63.6014C101.74 64.328 102.439 64.9237 102.576 64.9252C103.029 64.93 104.902 66.8244 105.333 67.7128C105.566 68.1916 105.997 68.7926 106.292 69.0483C108.185 70.6896 109.2 76.7917 107.69 77.4529C107.39 77.584 107.157 77.9632 107.005 78.5684C106.713 79.7217 106.185 80.7566 105.36 81.7886C104.997 82.2419 104.716 82.8391 104.716 83.1546C104.716 83.4629 104.531 84.2501 104.306 84.9038C104.08 85.5576 103.877 86.4345 103.855 86.8525C103.805 87.7845 103.325 88.8076 102.99 88.696C102.846 88.6481 102.771 88.3341 102.811 87.9472C102.849 87.5808 102.777 87.1578 102.652 87.0073C102.164 86.4218 103.069 83.5532 104.987 79.6027C107.288 74.863 107.31 74.4936 105.242 75.1874C104.169 75.5475 103.588 75.9133 102.627 76.8336L101.392 78.0167V79.3192C101.392 80.0356 101.532 80.9564 101.703 81.3654C102.092 82.2943 102.095 82.5368 101.715 82.5368C101.24 82.5368 101.12 82.1689 100.836 79.8498L100.569 77.6684L101.24 76.6841C102.179 75.3062 103.877 74.1803 105.218 74.0455C106.755 73.8911 106.017 70.9055 103.972 69.0046C103.228 68.3125 101.604 65.906 101.602 65.4907C101.6 65.2876 101.436 65.0545 101.236 64.9727C101.036 64.8909 100.338 64.4633 99.6846 64.0225C94.0663 60.2306 88.8622 67.2233 93.2261 72.7007C93.682 73.2728 94.1641 73.9444 94.2976 74.1931C94.4311 74.4418 95.0602 75.3721 95.6956 76.2604C96.331 77.1487 97.2415 78.4237 97.719 79.0937C98.1964 79.7638 98.9844 80.8063 99.47 81.4104C99.9556 82.0145 100.353 82.6013 100.353 82.7143C100.353 82.8274 100.726 83.2765 101.183 83.7123C101.994 84.486 102.007 84.5232 101.771 85.2817C101.502 86.1491 101.204 86.2622 100.817 85.6442C99.8428 84.0892 100.08 85.8348 101.072 87.5223C101.451 88.1679 101.828 88.9184 101.91 89.1901C101.991 89.4617 102.19 89.8918 102.35 90.1459C102.762 90.7967 103.623 93.6292 103.784 94.8632C104.086 97.172 104.249 97.1622 105.858 94.7382C108.45 90.8344 108.378 92.2377 105.685 98.1357C105.156 99.2942 105.086 99.6062 105.295 99.8966C105.434 100.091 105.632 100.436 105.735 100.664C107.109 103.704 108.253 105.112 114.132 111.006C115.374 112.251 116.742 113.742 117.173 114.321C117.604 114.899 118.168 115.559 118.427 115.787C119.102 116.381 120.335 118.08 121.136 119.52C121.515 120.201 122.206 121.19 122.671 121.716C123.867 123.069 125.253 125.066 125.513 125.809C125.634 126.155 125.889 126.492 126.079 126.556C126.449 126.68 127.62 128.496 127.884 129.356C127.972 129.641 128.311 130.398 128.637 131.039C128.963 131.68 129.23 132.353 129.23 132.535C129.23 132.849 129.745 134.027 130.376 135.157C130.535 135.442 130.914 136.141 131.219 136.711C132.33 138.79 133.605 140.496 134.87 141.594C135.581 142.213 136.637 143.225 137.215 143.844C139.136 145.899 139.572 146.277 140.554 146.737C141.585 147.22 143.714 149.261 145.547 151.523C146.147 152.264 147.115 153.332 147.699 153.898C148.282 154.463 148.759 155.048 148.759 155.197C148.759 155.346 148.993 155.574 149.278 155.704C149.611 155.855 149.798 156.109 149.798 156.412C149.798 156.671 150.033 157.145 150.32 157.466C151.667 158.97 153.203 160.721 154.961 162.755C156.016 163.976 157.74 165.689 158.792 166.561C159.844 167.434 161.326 168.765 162.086 169.52C164.194 171.614 166.952 174.108 168.063 174.924C168.612 175.327 169.798 176.212 170.7 176.889C174.432 179.693 178.284 182.004 179.638 182.251C180.5 182.409 183.434 183.563 187.427 185.316C189.212 186.099 190.835 186.741 191.032 186.741C194.099 186.741 201.071 193.412 202.363 197.583C202.595 198.332 202.999 199.205 203.26 199.524C203.998 200.424 205.641 202.971 205.869 203.569C205.982 203.865 206.261 204.166 206.489 204.238C206.903 204.37 208.176 206.085 208.176 206.512C208.176 206.637 208.578 207.204 209.069 207.772C209.561 208.339 210.161 209.083 210.403 209.425C210.645 209.767 211.326 210.56 211.915 211.186C212.504 211.813 213.114 212.559 213.27 212.844C213.427 213.128 214.725 214.573 216.155 216.055C219.28 219.29 218.682 218.686 221.056 221.008C222.142 222.069 223.638 223.621 224.38 224.457C225.123 225.292 226.402 226.68 227.222 227.541C228.043 228.402 228.812 229.362 228.931 229.676C229.066 230.03 229.302 230.246 229.555 230.246C229.779 230.246 230.021 230.431 230.093 230.66C230.166 230.888 230.308 231.074 230.409 231.074C230.51 231.074 230.896 231.517 231.266 232.058C231.636 232.599 232.108 233.164 232.315 233.313C232.521 233.462 232.69 233.708 232.69 233.861C232.69 234.013 232.837 234.193 233.015 234.262C233.208 234.335 233.314 234.574 233.275 234.848C233.23 235.169 233.331 235.335 233.607 235.389C234.107 235.488 236.469 237.904 236.36 238.205C236.23 238.565 236.78 239.478 237.354 239.853C237.875 240.193 238.083 240.811 237.676 240.811C237.275 240.811 237.474 241.919 237.999 242.604C238.464 243.212 239.131 244.532 239.131 244.844C239.131 245.289 238.376 244.759 237.594 243.763L237.587 243.76ZM354.722 175.163C354.784 175.063 355.257 174.875 355.774 174.746C357.956 174.198 359.114 170.854 357.721 169.122C356.545 167.658 354.74 166.289 353.518 165.935C352.905 165.757 352.291 165.477 352.153 165.311C352.016 165.146 351.232 164.761 350.412 164.457C349.592 164.152 348.336 163.633 347.622 163.305C346.907 162.976 346.206 162.707 346.064 162.706C345.921 162.706 345.449 162.38 345.014 161.981C344.579 161.583 344.111 161.257 343.974 161.257C343.836 161.257 343.285 161.024 342.748 160.739C342.212 160.455 341.532 160.221 341.239 160.221C340.682 160.221 337.52 158.733 337.29 158.362C337.218 158.245 336.954 158.149 336.703 158.149C336.453 158.148 335.874 157.918 335.417 157.637C334.96 157.357 334.411 157.124 334.197 157.12C333.982 157.117 333.281 156.889 332.638 156.614C331.996 156.339 330.769 155.831 329.912 155.484C328.304 154.834 324.591 152.933 323.685 152.296C323.403 152.097 322.982 151.932 322.75 151.928C322.37 151.921 321.382 151.455 315.889 148.688C314.974 148.227 313.993 147.785 313.707 147.704C313.086 147.53 312.744 147.396 311.11 146.686C310.425 146.388 308.984 145.809 307.909 145.399C306.834 144.99 305.245 144.258 304.377 143.774C301.861 142.368 301.056 141.993 300.669 142.044C299.865 142.149 298.126 141.545 298.126 141.16C298.126 140.732 295.319 139.091 294.587 139.091C294.013 139.091 291.064 137.913 290.609 137.502C290.416 137.328 290.174 137.237 290.073 137.3C289.651 137.559 285.955 136.128 282.733 134.456C280.836 133.473 279.161 132.668 279.009 132.668C278.857 132.668 278.006 132.296 277.119 131.84C276.231 131.384 275.356 131.011 275.174 131.011C274.993 131.011 274.356 130.761 273.76 130.455C271.117 129.099 266.678 129.115 262.185 130.497C260.762 130.934 259.459 131.242 258.653 131.33C257.807 131.423 257.334 131.679 257.666 131.865C257.964 132.031 260.116 131.872 262.549 131.504C263.093 131.422 263.432 131.451 263.432 131.58C263.432 131.895 262.443 132.213 260.99 132.366C258.766 132.599 259.269 132.898 261.65 132.757C263.104 132.672 263.847 132.7 263.847 132.841C263.847 133.185 263.049 133.355 260.835 133.482C258.613 133.609 258.14 133.922 259.318 134.485C260.382 134.993 267.126 135.024 269.511 134.532C271.106 134.202 275.681 133.841 277.87 133.872C278.852 133.886 280.729 134.532 280.985 134.944C281.173 135.248 280.633 135.203 279.767 134.841C278.432 134.285 270.424 134.708 269.794 135.368C269.544 135.63 273.742 135.529 274.91 135.245C275.343 135.14 275.481 135.182 275.481 135.419C275.481 135.93 274.933 136.019 271.119 136.132C267.108 136.251 266.6 136.357 267.433 136.902C267.876 137.191 268.533 137.251 271.307 137.256C274.481 137.261 275.439 137.419 274.394 137.767C274.135 137.853 272.428 137.909 270.599 137.892C267.636 137.864 267.319 137.894 267.679 138.165C267.9 138.332 268.254 138.469 268.465 138.469C268.676 138.469 269.055 138.597 269.308 138.753C269.99 139.174 273.779 139.585 276.658 139.55C279.173 139.52 280.385 139.373 282.96 138.79C284.511 138.438 286.585 138.399 289.377 138.668C292.035 138.925 292.501 139.395 289.92 139.217C286.783 139.001 285.22 139.047 283.376 139.413C280.798 139.923 278.784 140.121 276.24 140.113C274.505 140.108 274.006 140.167 274.074 140.37C274.266 140.945 280.254 141.023 281.852 140.472C282.116 140.381 282.359 140.408 282.439 140.538C282.517 140.664 282.302 140.854 281.937 140.981C280.704 141.409 281.286 141.784 283.185 141.784C284.398 141.784 284.809 142.045 283.999 142.302C283.25 142.539 283.563 142.82 284.57 142.814C285.113 142.811 286.395 142.533 287.419 142.195C288.603 141.804 289.353 141.653 289.479 141.779C289.605 141.905 289.571 142.011 289.383 142.07C289.221 142.121 288.486 142.358 287.75 142.595C287.014 142.832 286.172 143.028 285.88 143.03C285.089 143.035 284.733 143.31 285.111 143.623C285.573 144.005 287.687 143.988 289.193 143.591C291.602 142.955 292.539 142.772 292.677 142.911C292.945 143.177 292.373 143.726 291.569 143.974C291.119 144.113 290.832 144.236 290.932 144.248C291.275 144.289 290.596 144.891 290.206 144.891C289.991 144.891 289.816 144.981 289.816 145.091C289.816 145.398 290.533 145.711 290.977 145.597C291.195 145.541 291.935 145.689 292.621 145.925C293.306 146.161 294.779 146.458 295.893 146.584C297.714 146.791 298.914 147.377 297.516 147.377C295.08 147.377 295.997 148.23 298.774 148.546C302.708 148.993 305.076 149.863 302.359 149.863C301.313 149.863 301.93 150.235 303.164 150.348C305.832 150.592 307.682 150.993 307.682 151.327C307.682 151.571 306.914 151.582 306.765 151.341C306.607 151.087 304.408 151.065 304.253 151.316C304.12 151.531 305.808 152.395 306.54 152.487C306.768 152.515 307.917 152.632 309.092 152.747C311.538 152.985 312.638 153.168 312.755 153.357C312.835 153.487 311.087 153.482 310.279 153.349C309.512 153.224 309.648 153.658 310.52 154.118C311.721 154.751 312.44 154.903 312.806 154.6C313.049 154.399 313.225 154.415 313.669 154.675C313.976 154.855 314.694 155.072 315.265 155.156C315.837 155.24 316.667 155.435 317.109 155.59C317.552 155.744 318.125 155.871 318.382 155.871C318.975 155.871 319.396 156.33 319.087 156.639C318.932 156.793 318.687 156.769 318.261 156.557C317.249 156.053 315.326 155.933 315.5 156.384C315.759 157.056 317.664 157.777 318.221 157.413C318.629 157.147 318.773 157.144 319.265 157.391C319.579 157.549 320.397 157.74 321.083 157.816C323.987 158.136 326.466 159.106 324.043 158.973C323.067 158.92 323.015 158.942 323.229 159.324C323.442 159.702 323.768 159.764 326.348 159.915C328.231 160.025 329.136 160.319 328.307 160.552C327.139 160.879 329.1 162.372 330.633 162.323C331.28 162.302 332.405 163.162 332.405 163.678C332.405 164.085 331.493 164.006 330.91 163.549C330.629 163.328 330.128 163.08 329.798 162.997C329.467 162.914 328.907 162.676 328.552 162.467C328.197 162.258 327.203 161.908 326.343 161.689C325.484 161.469 323.995 160.995 323.035 160.635C322.076 160.275 320.776 159.79 320.148 159.557C319.519 159.324 318.351 158.829 317.551 158.457C315.223 157.375 314.155 156.907 314.018 156.907C313.896 156.907 311.675 155.901 309.864 155.026C309.407 154.805 308.706 154.423 308.306 154.177C307.906 153.931 307.3 153.697 306.96 153.658C306.621 153.618 305.966 153.388 305.506 153.146C305.046 152.905 303.548 152.312 302.177 151.828C300.806 151.345 298.572 150.558 297.213 150.079C294.733 149.205 292.875 148.369 290.979 147.274C290.129 146.782 288.052 146.085 285.921 145.576C285.367 145.444 285.272 145.883 285.817 146.056C286.017 146.119 287.745 146.909 289.656 147.81C291.568 148.711 293.186 149.449 293.253 149.449C293.319 149.449 294.167 149.822 295.138 150.278C296.109 150.733 296.979 151.106 297.071 151.106C297.163 151.106 297.462 151.278 297.734 151.489C298.007 151.699 298.51 151.938 298.853 152.019C299.717 152.223 305.206 154.621 307.737 155.9C307.939 156.002 309.136 156.504 310.397 157.016C311.658 157.528 313.15 158.179 313.711 158.463C314.273 158.746 314.924 158.979 315.159 158.979C315.393 158.979 316.504 159.434 317.628 159.991C318.752 160.548 319.959 161.067 320.31 161.144C320.662 161.221 321.061 161.418 321.197 161.581C321.334 161.745 321.602 161.879 321.793 161.879C321.985 161.879 322.978 162.25 324.001 162.704C325.024 163.158 325.966 163.531 326.095 163.533C326.224 163.535 326.446 163.676 326.588 163.847C326.73 164.018 327.002 164.158 327.193 164.158C327.383 164.158 327.909 164.352 328.362 164.589C329.492 165.181 332.448 166.436 332.712 166.436C332.831 166.436 333.348 166.657 333.861 166.926C334.374 167.195 335.308 167.579 335.937 167.78C336.565 167.981 337.36 168.351 337.703 168.601C338.554 169.224 340.847 170.306 341.858 170.563C343.547 170.993 346.048 171.866 347.259 172.448C350.602 174.056 352.113 174.689 352.919 174.821C353.404 174.901 353.854 175.051 353.918 175.155C354.068 175.396 354.575 175.401 354.723 175.162L354.722 175.163ZM338.128 166.455C337.871 166.041 338.233 165.814 339.154 165.814C339.929 165.814 340.516 166.084 340.266 166.326C340.037 166.547 338.252 166.655 338.128 166.455V166.455ZM335.386 165.185C335.267 165.066 334.711 164.857 334.15 164.718C333.005 164.437 332.797 163.972 333.679 163.663C334.118 163.509 334.342 163.56 334.797 163.917C335.157 164.2 335.662 164.364 336.17 164.364C337.118 164.364 337.24 164.757 336.41 165.141C335.732 165.455 335.66 165.458 335.386 165.185V165.185ZM123.928 136.61C124.613 136.405 125.568 136.131 126.048 136C127.254 135.673 127.277 135.552 126.452 133.853C126.052 133.03 125.338 131.331 124.863 130.077C123.938 127.629 123.975 127.706 122.577 125.312C120.458 121.68 119.546 121.504 119.893 124.794C120.076 126.531 119.953 132.15 119.691 134.013C119.282 136.924 120.459 137.645 123.927 136.61L123.928 136.61ZM256.662 130.831C257.254 130.838 258.109 130.747 258.561 130.629C264.702 129.02 265.366 128.89 267.651 128.849C270.095 128.805 270.228 128.671 268.859 127.629C267.942 126.932 267.754 126.868 266.986 126.99C266.513 127.066 265.693 127.016 265.146 126.878C264.604 126.742 263.607 126.487 262.93 126.313C259.916 125.536 249.526 126.83 249.516 127.984C249.513 128.261 253.12 127.984 254.915 127.57C255.772 127.372 256.801 127.203 257.201 127.194C257.971 127.176 258.385 127.55 257.705 127.65C256.593 127.813 253.54 128.587 253.368 128.751C253.12 128.985 253.309 129.002 255.566 128.944C257.311 128.899 257.887 129.082 257.354 129.513C257.213 129.627 255.367 129.784 253.253 129.862C249.429 130.001 248.572 130.168 249.534 130.584C250.212 130.877 254.253 131.166 254.989 130.973C255.316 130.888 256.068 130.824 256.661 130.831H256.662ZM249.929 129.172C249.929 128.943 248.349 128.76 247.477 128.887C246.25 129.067 246.799 129.352 248.371 129.352C249.228 129.352 249.929 129.271 249.929 129.172V129.172ZM247.333 127.264C248.997 127.048 249.975 126.803 252.784 125.902C253.828 125.568 254.751 125.425 255.797 125.435C256.626 125.444 258.613 125.44 260.213 125.427L263.122 125.404L262.443 124.788C261.92 124.314 261.563 124.171 260.885 124.165C260.319 124.159 259.599 123.938 258.863 123.543C258.234 123.206 257.507 122.93 257.245 122.93C256.984 122.93 256.564 122.799 256.311 122.64C255.603 122.194 252.537 121.928 250.284 122.118C248.163 122.296 247.523 122.433 243.922 123.479C243.714 123.54 243.692 123.63 243.848 123.784C243.992 123.929 244.2 123.936 244.454 123.806C244.666 123.697 245.354 123.548 245.982 123.475C246.611 123.402 247.826 123.169 248.683 122.959C250.354 122.549 251.005 122.578 250.517 123.041C249.863 123.662 244.426 124.701 240.633 124.929C239.001 125.027 238.527 125.222 239.247 125.497C239.708 125.674 242.261 125.634 244.112 125.422C244.969 125.324 246.255 125.176 246.969 125.093C247.759 125.001 248.267 125.02 248.267 125.14C248.267 125.503 245.819 125.988 242.866 126.212C241.938 126.282 241.681 126.569 242.117 127.049C242.676 127.665 243.867 127.714 247.332 127.264L247.333 127.264ZM239.506 123.344C241.068 123.116 243.095 122.7 244.009 122.419C247.802 121.253 249.134 121.035 252.005 121.113C255.054 121.196 254.982 121.213 253.929 120.679C250.892 119.139 243.306 118.141 242.296 119.148C242.044 119.399 241.625 119.644 241.365 119.693C241.105 119.742 240.192 119.927 239.335 120.106C238.478 120.284 237.402 120.491 236.945 120.565C235.847 120.744 233.898 121.238 233.763 121.373C233.452 121.683 234.104 121.734 235.442 121.504C237.704 121.116 238.815 121.106 238.815 121.474C238.815 121.825 236.572 122.496 235.361 122.508C234.178 122.52 233.31 122.749 233.31 123.05C233.31 123.32 234.68 123.705 234.891 123.494C234.95 123.435 235.249 123.463 235.556 123.555C236.367 123.799 236.402 123.797 239.506 123.344L239.506 123.344ZM111.256 122.232C115.211 121.89 117.526 117.377 114.588 115.737C114.428 115.648 114.08 115.277 113.815 114.914C112.717 113.407 110.726 111.101 108.871 109.187C106.704 106.951 106.653 106.945 106.603 108.949C106.579 109.917 105.542 114.746 105.025 116.298C104.829 116.884 104.719 117.412 104.779 117.472C104.839 117.532 104.747 117.969 104.574 118.443C103.806 120.544 104.13 121.874 105.42 121.914C105.773 121.925 106.53 122.059 107.101 122.212C108.036 122.463 108.564 122.465 111.256 122.232L111.256 122.232ZM232.089 119.954C237.602 118.173 240.903 117.625 244.686 117.863C246.176 117.957 246.407 117.665 245.102 117.338C244.616 117.216 243.134 116.746 241.809 116.294C239.586 115.536 239.226 115.472 237.162 115.472C234.756 115.472 234.82 115.436 235.279 116.547C235.394 116.824 235.258 116.941 234.628 117.106C233.16 117.492 229.688 118.144 228.557 118.245C227.306 118.358 227 118.547 227.206 119.082C227.325 119.391 227.491 119.422 228.303 119.287C228.83 119.199 229.559 119.143 229.924 119.163C230.289 119.183 230.645 119.106 230.716 118.993C230.872 118.74 231.858 118.717 231.858 118.966C231.858 119.065 230.968 119.362 229.882 119.627C227.576 120.188 227.55 120.331 229.699 120.62C229.826 120.637 230.901 120.337 232.088 119.954L232.089 119.954ZM224.379 116.798C225.236 116.613 226.264 116.335 226.664 116.18C227.064 116.025 227.999 115.794 228.742 115.667C229.484 115.54 230.218 115.331 230.373 115.203C230.712 114.923 232.33 114.677 234.919 114.51C236.49 114.409 237.544 114.022 236.248 114.022C236.048 114.022 235.282 113.782 234.546 113.489C230.724 111.965 225.727 111.72 225.986 113.068C226.056 113.434 225.922 113.545 225.172 113.742C224.679 113.872 223.341 114.264 222.199 114.614C221.057 114.963 219.562 115.306 218.876 115.376C217.628 115.503 217.361 115.587 217.561 115.786C217.69 115.915 219.503 115.924 220.224 115.8C222.426 115.418 224.009 115.023 224.868 114.64C225.545 114.338 225.946 114.259 226.086 114.399C226.435 114.747 226.085 115.024 224.839 115.386C224.186 115.576 223.464 115.807 223.236 115.9C223.007 115.994 222.4 116.133 221.886 116.209C220.707 116.385 220.56 116.474 220.862 116.837C221.185 117.225 222.465 117.211 224.379 116.798L224.379 116.798ZM214.303 114.003C215.637 113.811 218.134 113.134 220.072 112.438C220.503 112.284 221.122 112.157 221.449 112.157C221.775 112.157 222.391 112.012 222.817 111.835C223.243 111.657 223.792 111.531 224.037 111.555C224.822 111.631 227.079 111.282 227.079 111.084C227.079 110.639 224.067 109.491 222.613 109.382C221.813 109.322 220.504 109.217 219.704 109.149C218.084 109.012 215.828 109.249 215.723 109.568C215.682 109.692 216.272 109.785 217.195 109.8C219.445 109.837 220.867 110.351 219.237 110.538C218.767 110.592 218.654 110.718 218.603 111.246C218.544 111.847 218.462 111.906 217.356 112.149C216.705 112.292 215.901 112.492 215.57 112.594C215.239 112.696 214.709 112.779 214.392 112.779C214.076 112.779 213.272 112.91 212.605 113.071C211.939 113.232 211.137 113.42 210.823 113.489C210.236 113.619 210.049 114.108 210.511 114.305C210.796 114.427 212.06 114.326 214.303 114.003L214.303 114.003ZM208.889 110.597C209.111 110.43 209.454 110.293 209.652 110.293C209.85 110.293 210.311 110.041 210.677 109.734C211.066 109.408 211.743 109.111 212.303 109.019C212.832 108.932 213.731 108.764 214.303 108.645C217.094 108.063 218.144 107.964 219.068 108.196C221.406 108.783 222.304 108.369 220.71 107.439C220.177 107.129 219.291 106.483 218.741 106.004C218.107 105.454 217.452 105.086 216.956 105.002C215.778 104.804 213.865 104.133 212.121 103.306C209.909 102.256 206.088 102.116 207.758 103.146C208.15 103.387 207.973 103.871 207.493 103.871C206.481 103.871 205.473 105.106 205.473 106.346C205.473 107.112 205.578 107.123 206.56 106.458C208.01 105.475 214.032 104.676 214.735 105.373C215.049 105.684 214.567 105.812 212.483 105.967C211.313 106.055 210.332 106.131 210.303 106.138C209.675 106.279 210.613 106.564 211.706 106.564C213.167 106.564 213.517 106.773 212.745 107.185C212.132 107.512 212.239 107.807 212.97 107.807C213.781 107.807 213.682 108.264 212.833 108.44C212.499 108.509 211.926 108.722 211.56 108.912C211.195 109.102 210.761 109.257 210.597 109.257C210.287 109.257 208.416 109.785 207.603 110.102C207.044 110.319 206.995 110.64 207.499 110.771C208.162 110.944 208.482 110.904 208.889 110.597L208.889 110.597ZM208.535 109.05C208.962 108.822 209.473 108.635 209.673 108.635C210.227 108.635 211.706 107.996 211.706 107.757C211.706 107.445 210.224 107.693 209.175 108.181C208.681 108.41 207.972 108.712 207.598 108.851C207.224 108.99 206.868 109.185 206.807 109.284C206.597 109.622 207.758 109.465 208.535 109.05L208.535 109.05ZM197.689 107.786C197.765 107.547 197.725 107.248 197.599 107.123C197.474 106.998 197.371 106.64 197.371 106.327C197.371 106.015 197.281 105.704 197.171 105.636C196.952 105.501 197.244 105.105 198.465 103.883C199.146 103.201 199.207 103.065 198.933 102.838C198.356 102.361 198.56 102.006 199.412 102.006C200.11 102.006 200.272 101.905 200.755 101.17L201.304 100.333L200.803 100.106C199.573 99.5468 200.034 98.6906 201.371 99.0519C202.187 99.2724 202.29 99.2533 202.756 98.7958L203.258 98.3014L202.578 97.6678C201.642 96.796 201.47 96.8424 199.785 98.4195C197.535 100.526 197.008 101.49 196.631 104.181C196.551 104.751 196.353 105.478 196.191 105.797C195.882 106.403 195.96 106.96 196.462 107.755C196.834 108.343 197.507 108.359 197.689 107.786V107.786ZM182.89 105.667C182.289 104.679 181.997 104.467 181.997 105.018C181.997 105.485 182.774 106.925 183.083 107.031C183.56 107.195 183.482 106.638 182.89 105.667H182.89ZM202.693 105.178C203.263 103.84 206.322 100.349 206.924 100.349C207.04 100.349 207.135 100.213 207.135 100.047C207.135 99.5897 205.785 99.404 205.207 99.7821C204.619 100.166 203.188 101.582 203.188 101.779C203.188 101.86 202.951 102.245 202.662 102.635C202.293 103.134 202.172 103.503 202.254 103.876C202.318 104.168 202.228 104.75 202.052 105.168C201.877 105.587 201.733 106.072 201.733 106.246C201.733 106.938 202.131 106.495 202.693 105.178L202.693 105.178ZM186.296 103.944C186.374 103.742 186.287 103.501 186.082 103.352C185.586 102.99 185.653 102.716 186.36 102.213C187.283 101.558 187.117 100.763 186.057 100.763C185.499 100.763 185.223 102.438 185.503 104.13C185.552 104.426 186.166 104.283 186.296 103.944V103.944ZM183.031 101.76C183.547 100.695 183.561 100.349 183.087 100.349C182.751 100.349 182.605 100.624 182.067 102.265C181.817 103.029 182.62 102.608 183.031 101.76H183.031ZM95.5742 101.517C98.8444 100.834 102.285 98.1089 101.566 96.7696C101.446 96.546 101.225 95.5585 101.076 94.5752C100.793 92.7084 100.483 91.7894 98.6966 87.5044C98.1027 86.0801 97.5101 84.6585 97.3797 84.3451C97.0052 83.4452 96.6903 83.661 96.6903 84.8175C96.6903 86.4362 94.8869 89.7402 93.245 91.1297C92.5718 91.6994 91.303 92.8442 90.4255 93.6736C89.5395 94.5111 88.5506 95.2531 88.2016 95.3421C86.6765 95.7314 86.7555 97.7638 88.3619 99.4705C90.5716 101.818 92.0789 102.246 95.5739 101.516L95.5742 101.517ZM187.565 98.7693C187.63 98.0946 187.131 97.3645 186.701 97.5073C186.392 97.6102 186.064 98.7881 186.227 99.2117C186.474 99.8548 187.491 99.5185 187.565 98.7693V98.7693ZM184.774 98.6854C185.425 97.9138 185.711 96.6558 185.295 96.3932C184.537 95.9139 184.112 96.1743 183.777 97.325C183.385 98.6691 183.381 98.7471 183.7 99.0644C184.062 99.4258 184.186 99.382 184.774 98.6854H184.774ZM182.514 95.3816C182.586 95.1562 182.966 94.5881 183.359 94.119C183.752 93.6499 184.074 93.148 184.074 93.0038C184.074 92.8596 184.298 92.4117 184.572 92.0086C184.935 91.475 185.009 91.2135 184.842 91.0474C184.478 90.6845 183.866 90.7753 183.866 91.1922C183.866 92.0497 182.946 92.3563 182.747 91.5651C182.566 90.8482 181.458 90.4802 181.159 91.0377C180.849 91.6154 180.334 91.5483 180.334 90.9302C180.334 90.2252 179.601 89.8376 179.109 90.282C178.698 90.6528 178.256 90.3808 178.256 89.7571C178.256 89.225 177.138 88.3818 177.044 88.8433C176.921 89.453 176.303 89.0825 176.071 88.2598C175.838 87.4302 175.14 86.779 175.14 87.3908C175.14 87.5674 175.003 87.7118 174.836 87.7118C174.463 87.7118 174.063 87.0174 174.212 86.6293C174.346 86.2818 173.385 85.3377 173.086 85.5222C172.946 85.6085 172.938 85.8306 173.063 86.1581C173.183 86.4731 173.18 86.7074 173.055 86.7845C172.708 86.9983 172.455 86.686 172.161 85.6818C171.826 84.534 171.137 84.2895 171.023 85.2777C170.956 85.861 170.362 86.1023 170.362 85.5464C170.362 84.7495 169.881 84.19 169.197 84.19H168.513L168.827 84.9375C169.262 85.9756 169.006 86.0814 168.22 85.1891C167.371 84.2257 165.791 83.8687 165.791 84.6404C165.791 85.1333 166.541 86.0545 166.942 86.0545C167.155 86.0545 170.047 89.7735 170.208 90.2542C170.239 90.3491 170.614 90.5053 171.041 90.6012C172.062 90.8309 172.055 90.5762 170.985 88.644C170.528 87.8183 170.154 87.0844 170.154 87.0129C170.154 86.6883 170.764 86.9276 170.882 87.2985C170.954 87.527 171.239 87.9811 171.515 88.3075C171.79 88.634 172.195 89.318 172.414 89.8275C172.843 90.8255 174.16 92.0622 174.794 92.0622C175.029 92.0622 175.139 91.9588 175.071 91.8032C174.383 90.2378 173.935 89.0518 174.005 88.9817C174.225 88.7629 174.747 89.5285 175.47 91.1296C176.143 92.62 176.346 92.8945 176.857 93.0064C177.65 93.1802 177.697 93.094 177.31 92.1703C177.095 91.6575 177.052 91.3158 177.185 91.1829C177.438 90.931 177.841 91.1567 177.841 91.5501C177.841 91.7108 178.03 92.2035 178.261 92.645C179.018 94.0937 180.366 94.9679 179.744 93.607C179.416 92.8874 179.438 92.0622 179.786 92.0622C179.948 92.0622 180.249 92.6114 180.494 93.357C181.051 95.0521 181.477 95.0832 181.477 93.4288C181.477 91.9489 181.814 91.7215 182.282 92.8864C182.699 93.9262 182.706 94.3548 182.314 94.8711C182.146 95.0923 182.006 95.3898 182.003 95.5322C181.992 95.9438 182.37 95.8323 182.514 95.3815L182.514 95.3816ZM186.97 94.1938C187.671 92.9043 187.639 92.7792 186.56 92.5817C185.715 92.4271 185.354 92.7183 184.834 93.974C184.491 94.8028 184.515 94.8487 185.527 95.2963C186.199 95.5936 186.217 95.5796 186.97 94.1938V94.1938ZM189.401 90.8778C189.753 89.4795 188.293 89.2984 187.243 90.6101L186.776 91.1928L187.658 91.7224L188.54 92.2519L188.906 91.8202C189.108 91.5827 189.33 91.1586 189.401 90.8778V90.8778ZM168.908 89.9131C168.908 89.4836 167.733 87.8929 167.344 87.7955C166.701 87.6346 165.454 86.0177 165.009 84.7691C164.543 83.4615 163.714 83.3035 163.714 84.5223C163.714 85.2579 164.848 86.8224 167.173 89.2949C167.714 89.8703 168.908 90.2958 168.908 89.9133V89.9131ZM161.948 89.2311C162.171 88.9268 162.344 88.9145 163.407 89.1275C166.055 89.6576 166.201 89.3986 164.443 87.2997C164.03 86.8069 163.562 86.0942 163.404 85.7159C163.245 85.3375 162.783 84.7366 162.376 84.3804C161.969 84.0242 161.636 83.597 161.636 83.4312C161.636 83.2654 161.543 83.1873 161.429 83.2577C161.314 83.3282 161.221 83.6078 161.221 83.8793C161.221 84.9335 160.282 84.6017 159.769 83.3661C159.464 82.6328 158.603 82.3068 158.836 83.0128C158.918 83.2615 158.979 83.7016 158.972 83.9908C158.951 84.8442 160.017 86.7688 160.552 86.8458C160.977 86.9068 161.013 86.8288 161.013 85.8445C161.013 84.6878 161.387 84.4852 161.658 85.4952C161.74 85.7995 162.236 86.5376 162.76 87.1355C163.804 88.3253 164.065 89.157 163.261 88.7275C162.66 88.4067 160.656 87.9356 159.854 87.9264C159.502 87.9223 158.754 87.683 158.192 87.3947C157.475 87.0272 156.977 86.9043 156.526 86.9839C156.171 87.0464 155.237 86.999 154.448 86.8786C153.66 86.7583 152.454 86.603 151.768 86.5335C151.083 86.4641 150.239 86.258 149.893 86.0755C149.067 85.64 147.198 85.6221 147.198 86.0497C147.198 86.5004 151.509 87.666 154.157 87.9312C156.497 88.1655 159.686 88.8162 160.702 89.2664C161.537 89.6368 161.653 89.6336 161.948 89.2311L161.948 89.2311ZM191.323 89.1858C191.957 88.6997 191.735 88.3333 190.807 88.3333C189.944 88.3333 189.615 88.8629 190.208 89.2955C190.693 89.6494 190.722 89.6466 191.323 89.1858L191.323 89.1858ZM158.586 84.8584C158.204 83.3999 157.533 82.0589 157.267 82.2228C157.139 82.3015 157.142 82.4868 157.275 82.7344C157.587 83.3165 157.529 83.7258 157.067 84.1856C156.512 84.7394 156.454 84.7141 156.473 83.9267C156.492 83.1281 155.612 80.6253 155.272 80.5146C155.111 80.4618 155.028 80.9346 155.012 82.01C154.991 83.3657 155.036 83.5743 155.331 83.5216C155.557 83.4814 155.74 83.6727 155.868 84.0821C156.283 85.4141 156.237 85.344 156.471 85.0085C156.632 84.7778 156.709 84.7666 156.789 84.9625C156.947 85.3505 157.213 85.2749 157.335 84.8071C157.527 84.0757 157.841 84.3635 157.978 85.3971C158.134 86.5681 158.312 86.8237 158.65 86.3631C158.837 86.1069 158.823 85.7643 158.586 84.8585L158.586 84.8584ZM141.901 80.3178C141.901 80.0282 140.896 79.4658 139.159 78.7832C138.553 78.5453 137.053 77.8849 135.824 77.3156C134.156 76.5425 133.445 76.3125 133.016 76.4066C132.001 76.6288 131.724 76.2076 131.601 74.2569C131.476 72.2853 131.274 71.7558 130.648 71.7558C130.256 71.7558 130.228 71.8334 130.367 72.5327C130.451 72.96 130.582 73.8292 130.658 74.4644C130.814 75.779 131.341 76.7278 131.914 76.7278C132.138 76.7278 132.483 77.0307 132.726 77.4411C133.03 77.9549 133.376 78.2158 133.964 78.3735C134.412 78.4939 135.406 78.9181 136.171 79.316C136.937 79.7139 138.366 80.2717 139.348 80.5555C140.33 80.8392 141.186 81.1248 141.252 81.19C141.403 81.3408 141.901 80.6716 141.901 80.3178H141.901ZM138.785 75.9226C138.785 75.6435 135.055 73.5881 134.68 73.6606C134.051 73.7824 134.152 74.2419 134.808 74.2419C135.154 74.2419 135.497 74.3389 135.57 74.4574C136.039 75.2137 138.785 76.4652 138.785 75.9225L138.785 75.9226ZM127.864 72.647C127.839 70.9188 127.551 70.1857 127.228 71.0265C127.081 71.4088 127.551 74.4491 127.758 74.4491C127.83 74.4491 127.878 73.6381 127.864 72.647H127.864ZM145.135 74.2206C145.213 74.0949 145.089 73.5589 144.86 73.0294C144.631 72.4999 144.363 71.7998 144.263 71.4735C144.146 71.0894 143.79 70.7242 143.252 70.4376C142.795 70.1942 142.346 69.8785 142.254 69.7361C141.691 68.8578 141.519 69.9669 142.005 71.3416C142.405 72.4711 142.412 73.4132 142.022 73.4132C141.746 73.4132 141.646 73.1248 141.085 70.7201C140.816 69.5645 140.072 68.0293 139.715 67.8927C139.478 67.802 139.422 67.6078 139.514 67.1917C139.66 66.5287 139.329 66.2122 138.88 66.5843C138.442 66.9465 138.508 67.7626 139.035 68.5002C139.286 68.8526 139.475 69.3475 139.454 69.6C139.431 69.8833 139.688 70.3243 140.127 70.7521C140.65 71.2623 140.863 71.674 140.934 72.3129C141.092 73.7224 141.896 74.6121 142.311 73.8379C142.524 73.4422 142.55 73.4442 143.617 73.9394C144.862 74.5174 144.942 74.5321 145.135 74.2205L145.135 74.2206ZM137.746 73.854C137.746 73.6166 135.944 71.9631 135.686 71.9631C135.122 71.9631 135.362 72.4285 136.318 73.1877C137.378 74.0288 137.746 74.2008 137.746 73.854V73.854ZM122.58 70.7462C122.58 70.1331 119.365 66.9911 118.738 66.9911C117.656 66.9911 118.173 67.6319 121.646 70.5903C122.394 71.2282 122.581 71.2593 122.581 70.7463L122.58 70.7462ZM121.785 67.9279C121.083 67.1798 120.448 66.3278 120.374 66.0345C120.301 65.7413 120.057 65.3006 119.833 65.0551C119.461 64.6483 117.744 61.8683 117.045 60.5417C116.759 60.0001 116.846 59.3259 117.201 59.3259C117.303 59.3259 117.387 59.4993 117.387 59.7111C117.387 60.3215 119.877 63.0339 120.451 63.0484C120.871 63.059 120.753 62.7584 120.087 62.1227C118.831 60.9225 119.495 60.8508 121.046 62.0191C122.59 63.1809 123.238 62.4911 121.935 61.0735C121.259 60.3383 121.727 60.0014 122.42 60.7243C124.08 62.4563 124.451 62.7308 125.166 62.7555C126.002 62.7845 126.164 62.3913 125.489 61.971C125.261 61.8287 125.074 61.6415 125.074 61.5549C125.074 61.2187 125.675 61.4252 126.424 62.0191C127.35 62.7527 127.442 62.7747 127.299 62.2263C127.126 61.5666 127.796 61.7157 128.695 62.537C129.131 62.9358 129.64 63.2591 129.826 63.2555C130.182 63.2486 130.16 63.2259 128.813 62.2255C128.42 61.9339 128.352 61.7807 128.532 61.5981C128.866 61.2604 129.48 61.5023 130.383 62.3276C130.808 62.7157 131.604 63.3876 132.152 63.8209C132.7 64.2542 133.178 64.7951 133.214 65.023C133.26 65.3119 133.414 65.419 133.722 65.3767C134.048 65.332 134.2 65.4549 134.298 65.8428C134.435 66.3877 134.717 66.5256 134.944 66.159C135.132 65.8562 135.461 66.1194 135.461 66.5721C135.461 66.7839 135.766 67.1453 136.139 67.3751C136.512 67.6049 137.035 68.0423 137.3 68.3471C138.344 69.5438 137.908 66.1702 136.835 64.7461C136.721 64.5938 136.574 64.0811 136.51 63.6067C136.403 62.8127 136.344 62.7442 135.772 62.7442C135.212 62.7442 135.143 62.671 135.081 62.02C134.992 61.0886 134.679 60.6848 134.293 61.0041C133.994 61.2516 133.891 61.1068 133.759 60.2583C133.713 59.9607 133.058 59.5304 131.433 58.7314C129 57.5351 128.686 57.4671 123.723 57.0644C122.243 56.9443 120.732 56.6893 120.003 56.4368C118.422 55.8889 117.883 55.9046 116.867 56.5284C116.41 56.809 115.744 57.177 115.386 57.3461C113.84 58.0771 114.683 61.7117 117.069 64.6007C118.265 66.0483 117.811 64.5841 116.526 62.8479C115.802 61.8696 115.259 60.6109 115.437 60.3238C115.661 59.962 116.102 60.182 116.238 60.7235C116.373 61.2586 118.555 64.7083 120.545 67.5325C121.489 68.8711 122.557 69.7577 122.872 69.4636C122.981 69.3623 122.521 68.7128 121.785 67.9278L121.785 67.9279ZM147.303 68.2345C146.694 67.7597 142.264 65.541 141.925 65.541C141.47 65.541 141.719 65.858 142.479 66.2472C147.247 68.6889 148.603 69.2476 147.303 68.2344L147.303 68.2345ZM148.705 67.1559C148.571 66.8072 146.115 65.3558 144.602 64.7313C143.973 64.4719 142.872 63.942 142.154 63.5537C140.688 62.7614 140.238 62.6807 140.24 63.2104C140.242 63.6441 141.26 64.3716 142.453 64.7909C142.928 64.9579 144.057 65.4747 144.962 65.9393C145.867 66.4039 146.675 66.784 146.758 66.784C146.841 66.784 147.251 67.0158 147.669 67.2992C148.421 67.8084 148.929 67.738 148.705 67.1559L148.705 67.1559ZM116.348 65.83C116.348 65.761 116.066 65.2885 115.722 64.7799C115 63.7138 114.256 61.7117 114.079 60.362C113.978 59.5945 113.887 59.4417 113.564 59.4974C113.348 59.5347 113.096 59.4422 113.002 59.292C112.866 59.0713 112.783 59.0694 112.57 59.2818C112.364 59.4868 112.36 59.6233 112.553 59.9016C112.689 60.0978 113.222 61.0974 113.737 62.1229C114.646 63.9342 114.785 64.1796 115.583 65.3848C115.925 65.9012 116.348 66.1475 116.348 65.8301L116.348 65.83ZM105.985 59.1768C106.197 58.9652 105.924 58.006 105.594 57.8023C105.492 57.7398 105.105 58.0104 104.733 58.4037C104.324 58.836 103.858 59.1187 103.554 59.1187C103.278 59.1187 103.052 59.2083 103.052 59.3179C103.052 59.5724 105.717 59.4441 105.985 59.1767V59.1768ZM99.0509 58.3787C99.1002 57.5792 99.0952 57.5731 98.7658 58.0311C98.5575 58.3208 98.2139 58.4972 97.8581 58.4972C97.3098 58.4972 96.703 58.9337 96.9328 59.1629C96.9933 59.2232 97.4833 59.2546 98.0217 59.2325L99.0006 59.1925L99.0508 58.3787L99.0509 58.3787ZM102.19 59.1419C102.406 59.0055 102.418 58.8651 102.242 58.5372C101.872 57.8477 101.958 57.6097 102.524 57.7515C103.088 57.8928 103.567 57.3364 103.28 56.8732C102.733 55.9908 101.526 56.3688 100.562 57.724C99.8237 58.7625 99.8591 59.0142 100.767 59.1765C101.641 59.3329 101.898 59.3266 102.19 59.1419H102.19ZM94.8457 57.2C96.017 56.6201 98.2069 55.9456 98.444 56.0918C98.8334 56.3318 100.673 55.0472 101.134 54.2136L101.612 53.3482L101.072 52.9706C100.776 52.7629 100.254 52.3716 99.9138 52.1011C99.5733 51.8305 99.2493 51.6545 99.1938 51.7098C99.0052 51.8979 99.4866 52.8466 99.8392 52.9815C100.801 53.3497 96.4411 55.7967 94.7551 55.8345C93.497 55.8628 92.7612 56.3418 92.5579 57.2652C92.3534 58.1934 92.7869 58.6455 93.3705 58.1126C93.6105 57.8935 94.2742 57.4828 94.8455 57.1999L94.8457 57.2ZM87.0477 57.8893C87.4236 57.1889 87.269 55.5969 86.825 55.5969C86.723 55.5969 86.6395 55.8239 86.6395 56.1013C86.6395 56.3787 86.5422 56.8609 86.4233 57.1729C86.0579 58.1311 86.5902 58.7418 87.0477 57.8894L87.0477 57.8893ZM88.3765 54.0159C88.5638 53.6243 88.717 53.0897 88.717 52.8278C88.717 52.5201 89.0155 52.1123 89.5603 51.6758C90.1492 51.2039 90.3862 50.8653 90.3458 50.5535C90.2654 49.9326 90.5277 49.5891 91.0822 49.5891C91.5762 49.5891 92.6124 48.6708 92.3163 48.4954C91.9654 48.2876 90.475 48.1401 90.2614 48.2921C89.4321 48.8821 87.055 53.5478 87.055 54.5857C87.055 55.3937 87.8898 55.034 88.3765 54.0161L88.3765 54.0159ZM76.7881 54.6956C76.9538 54.2649 75.8111 48.9041 75.089 46.7253C74.7754 45.7791 74.8381 45.4458 75.3293 45.4458C75.5158 45.4458 75.6311 45.6607 75.6353 46.0155C75.6389 46.3289 75.7791 46.7662 75.9469 46.9874C76.1146 47.2086 76.2532 47.6281 76.2547 47.9196C76.2562 48.2112 76.5354 49.2422 76.8751 50.2106C77.2149 51.1791 77.4941 52.097 77.4956 52.2504C77.5029 52.9859 78.1771 54.7682 78.448 54.7682C78.8458 54.7682 78.8329 53.7979 78.4127 52.1273C78.1025 50.8937 78.1042 50.7804 78.4383 50.4122C78.8478 49.961 78.8068 49.6772 78.0381 47.6424C77.4703 46.1393 77.3638 45.4458 77.7008 45.4458C78.1707 45.4458 79.2502 48.7484 80.0878 52.7485C80.2594 53.5684 80.7452 53.4584 80.8903 52.5669C81.0343 51.6818 80.5475 47.9595 80.204 47.3195C79.9227 46.7954 79.9969 45.8207 80.3263 45.7131C80.4638 45.6681 80.816 46.5722 81.1959 47.9454C81.9417 50.6408 81.9316 50.6248 82.4826 49.9811C82.9346 49.4529 82.9357 49.1868 82.4943 47.0253C82.3309 46.2246 82.316 45.738 82.4508 45.6036C82.7421 45.3132 83.1076 45.5988 83.1076 46.1167C83.1076 47.236 83.8023 48.32 84.0714 47.6206C85.4973 43.9153 77.9553 39.4138 69.4999 38.9234C66.9271 38.7742 63.4268 38.6067 62.9556 38.6103C62.7842 38.6115 61.9194 38.6077 61.0339 38.6013C58.8792 38.586 58.8516 39.3715 60.9819 40.0766C61.439 40.2279 61.9999 40.5039 62.2284 40.69C62.457 40.8762 62.9945 41.2376 63.423 41.4932C63.8515 41.7488 64.2021 42.0715 64.2021 42.2103C64.2021 42.6804 64.6536 42.9553 65.0649 42.7358C65.6706 42.4125 66.2796 42.8514 66.2796 43.6112C66.2796 44.2764 67.0969 46.2746 67.3691 46.2746C67.5981 46.2746 67.5612 45.9106 67.288 45.4744C66.9436 44.9245 67.2281 43.9958 67.7409 43.9958C68.2555 43.9958 68.9785 45.1247 68.9796 45.9299C68.98 46.2531 69.1763 47.232 69.4157 48.1052C69.6551 48.9784 69.9581 50.0963 70.0891 50.5894C70.22 51.0825 70.4449 51.5833 70.5887 51.7024C71.0095 52.0506 70.9134 51.426 70.2269 49.3486C69.5622 47.3373 69.4501 46.3034 69.853 45.9017C70.4882 45.2682 71.4734 46.019 71.4734 47.1365C71.4734 47.6455 71.8481 49.0161 72.8797 52.2812C73.1125 53.0181 73.3675 53.4434 73.6029 53.4876C74.1163 53.584 74.0884 53.404 73.0034 49.6214C72.2339 46.9384 72.0889 46.2003 72.3053 46.067C72.7764 45.7766 73.1235 46.0793 73.3399 46.9692C73.4548 47.4418 73.7037 48.2479 73.8929 48.7606C74.0822 49.2734 74.4209 50.2522 74.6456 50.9359C75.8401 54.5694 76.4349 55.6133 76.7879 54.6959L76.7881 54.6956ZM95.7288 54.6376C96.4057 54.4567 96.3059 54.0002 95.3896 53.0865C94.2106 51.9108 92.9167 52.0836 93.8888 53.2869C94.1327 53.5889 94.4395 54.0457 94.5705 54.3021C94.822 54.7943 94.9757 54.8389 95.7288 54.6376L95.7288 54.6376ZM98.2641 53.5355C98.8613 53.1588 98.0085 52.1706 96.0548 50.9754C95.4397 50.5991 95.6573 51.315 96.5085 52.468C97.4434 53.7344 97.7008 53.8909 98.2642 53.5355L98.2641 53.5355ZM86.8546 51.3371C87.7427 49.7328 87.8015 49.3964 87.1274 49.7771C86.9163 49.8963 86.3642 50.088 85.9004 50.2031C85.237 50.3677 84.9602 50.5846 84.602 51.2201C84.0445 52.2092 84.0147 52.5879 84.5103 52.3845C85.4248 52.009 85.601 52.022 85.601 52.4652C85.601 53.2616 85.9761 52.924 86.8546 51.3371L86.8546 51.3371ZM97.962 39.2277C103.562 38.4403 109.908 36.777 109.908 36.0963C109.908 35.6756 105.678 36.1244 102.844 36.8457C101.759 37.122 100.123 37.45 99.2086 37.5746C94.7489 38.1824 93.0538 38.8915 94.5863 39.508C94.9608 39.6587 94.8025 39.6719 97.9623 39.2276L97.962 39.2277ZM202.359 181.962C202.359 181.24 204.79 180.096 207.647 179.472C209.81 179 209.631 179.022 209.631 179.232C209.631 179.464 207.774 180.104 207.104 180.103C206.494 180.102 204.475 180.995 203.463 181.713C202.765 182.209 202.359 182.3 202.359 181.962L202.359 181.962ZM193.46 180.591C193.519 180.284 193.788 180.18 194.779 180.08C196.121 179.945 196.969 179.706 200.171 178.559C201.988 177.908 203.052 177.373 205.839 175.707C206.336 175.41 206.514 175.376 206.512 175.579C206.51 175.731 205.926 176.171 205.214 176.557C204.501 176.944 203.544 177.507 203.087 177.81C202.63 178.112 201.554 178.581 200.697 178.851C199.84 179.121 198.888 179.515 198.582 179.726C197.2 180.679 193.318 181.334 193.461 180.591L193.46 180.591ZM183.909 178.424C183.962 178.264 184.533 177.945 185.179 177.714C185.824 177.483 186.467 177.18 186.607 177.041C186.926 176.722 187.462 176.708 187.357 177.022C187.198 177.499 185.607 178.436 184.725 178.572C183.995 178.686 183.833 178.656 183.909 178.424V178.424ZM188.017 178.332C187.552 177.773 188.12 177.516 189.934 177.464C191.679 177.414 194.098 176.825 196.23 175.929C197.394 175.441 200.759 174.301 201.036 174.301C201.586 174.301 201.213 174.814 200.577 174.932C200.243 174.995 199.632 175.2 199.22 175.389C198.807 175.578 198.215 175.779 197.903 175.835C197.592 175.892 197.228 176.02 197.095 176.12C196.767 176.369 193.556 177.616 193.245 177.616C193.108 177.616 192.788 177.75 192.535 177.915C191.569 178.543 188.433 178.832 188.017 178.332L188.017 178.332ZM138.579 137.681C137.4 137.592 136.064 137.178 136.156 136.93C136.203 136.803 136.37 136.734 136.527 136.775C138.051 137.178 141.718 137.134 142.786 136.699C143.163 136.546 143.256 136.742 142.991 137.131C142.821 137.379 139.718 137.766 138.579 137.681L138.579 137.681ZM137.027 133.706C136.887 133.479 138.163 133.27 139.462 133.306C140.32 133.33 140.904 133.66 140.189 133.716C138.417 133.856 137.118 133.852 137.027 133.706V133.706ZM139.202 130.46C139.202 130.303 139.381 130.174 139.6 130.174C139.819 130.174 140.033 130.072 140.074 129.947C140.116 129.823 140.474 129.696 140.871 129.665C141.267 129.634 141.895 129.538 142.267 129.451C143.757 129.103 142.819 129.691 141.072 130.201C139.607 130.628 139.202 130.684 139.202 130.46L139.202 130.46ZM109.494 103.416C109.494 102.915 109.747 101.979 110.095 101.189C110.425 100.439 110.8 99.4393 110.928 98.9671C111.175 98.0517 113.661 95.4918 116.084 93.6564C116.719 93.1755 117.46 92.6111 117.729 92.4022C117.999 92.1933 118.318 92.0553 118.439 92.0955C118.862 92.2359 117.443 93.8255 116.071 94.7484C115.31 95.2602 114.688 95.7469 114.688 95.8299C114.688 95.913 114.274 96.4232 113.77 96.9638C113.265 97.5043 112.6 98.5093 112.293 99.1969C111.986 99.8845 111.441 101.039 111.082 101.763C109.633 104.683 109.494 104.828 109.494 103.416L109.494 103.416ZM236.847 97.4867C236.847 97.1689 236.99 96.3605 237.165 95.6904C237.482 94.4773 237.397 94.1427 236.768 94.1318C236.281 94.1233 237.951 87.0545 238.594 86.405C238.731 86.2662 238.906 85.9895 238.982 85.7901C239.057 85.5907 239.272 85.4275 239.46 85.4275C239.703 85.4275 239.757 85.5306 239.648 85.7901C239.564 85.9895 239.421 86.4789 239.331 86.8777C239.24 87.2765 238.977 88.1737 238.747 88.8716C238.051 90.9834 237.62 94.1322 238.245 92.5366C238.509 91.8617 240.054 89.5746 240.246 89.5726C240.466 89.5704 240.213 91.0484 239.947 91.3214C239.842 91.4296 239.756 91.6889 239.756 91.8976C239.756 92.1063 239.626 92.3267 239.467 92.3874C239.127 92.5175 238.678 93.6761 238.196 95.6655C237.618 98.0532 236.847 99.0936 236.847 97.4867L236.847 97.4867ZM213.238 92.1249C213.161 91.8201 213.1 91.2841 213.101 90.9337C213.103 90.5834 213.025 89.4577 212.928 88.4322C212.531 84.2322 212.489 80.1455 212.835 79.3202C213.015 78.8918 213.161 78.3662 213.161 78.1523C213.161 77.4035 213.844 77.8782 215.135 79.5241C215.582 80.0938 216.522 81.2125 217.224 82.0101C218.57 83.5399 219.602 85.1376 219.602 85.6933C219.602 86.3055 219.145 86.3153 218.651 85.7137C218.381 85.3838 218.159 85.2445 218.155 85.4017C218.145 85.7654 216.121 89.2717 215.737 89.5892C215.262 89.9823 215.397 89.5687 216.382 87.6126C216.896 86.5923 217.316 85.5871 217.316 85.3791C217.316 85.1711 217.457 84.9472 217.628 84.8816C218.088 84.7056 218.008 84.4144 217.426 84.1503C217.035 83.9724 216.839 83.9789 216.598 84.1779C216.425 84.3214 216.126 84.3785 215.933 84.3049C215.492 84.136 215.246 84.5136 215.242 85.3667C215.238 86.2378 214.855 87.0475 214.376 87.1991C214.165 87.2659 213.985 87.4775 213.975 87.6692C213.965 87.8609 213.914 88.4839 213.861 89.0536C213.808 89.6233 213.866 90.4943 213.99 90.9891C214.114 91.484 214.159 92.0667 214.09 92.2839C213.907 92.8611 213.399 92.7664 213.238 92.1248L213.238 92.1249ZM214.493 83.7673C214.834 82.7282 214.665 81.7235 214.198 82.0116C214.032 82.1137 213.929 84.8067 214.09 84.8067C214.125 84.8067 214.306 84.3389 214.493 83.7673V83.7673ZM108.245 91.6338C108.245 91.2325 110.681 89.2376 110.901 89.4579C110.983 89.539 110.769 89.8043 110.426 90.0474C110.084 90.2906 109.49 90.7957 109.108 91.17C108.355 91.9061 108.245 91.9649 108.245 91.6339V91.6338ZM237.039 87.2178C237.252 86.7208 237.527 86.1382 237.649 85.923C238.738 84.0059 238.742 82.4271 237.665 79.4566C237.486 78.9643 237.479 78.7039 237.639 78.5444C237.791 78.3928 237.796 78.1976 237.656 77.9356C237.5 77.6462 237.526 77.5202 237.759 77.431C238.192 77.2654 238.537 77.5231 238.463 77.9569C238.429 78.1572 238.525 78.47 238.677 78.6521C239.971 80.2071 239.699 83.8593 238.111 86.2393C237.699 86.8562 237.27 87.5321 237.157 87.7413C236.75 88.4975 236.659 88.1001 237.039 87.218L237.039 87.2178Z" fill="black"/>
</g>
</g>
<defs>
<clipPath id="clip0">
<rect width="400" height="200" fill="white"/>
</clipPath>
<clipPath id="clip1">
<rect width="304" height="215" fill="white" transform="translate(56 30)"/>
</clipPath>
</defs>
</svg>
