<svg width="24" height="24" viewBox="0 0 24 24" fill="none" xmlns="http://www.w3.org/2000/svg">
<path fill-rule="evenodd" clip-rule="evenodd" d="M24 0H0V24H24V0ZM4.51197 9.14735H7.724C7.86655 9.14735 7.98206 9.26292 7.98206 9.40542V19.7243C7.98206 19.8668 7.86655 19.9823 7.724 19.9823H4.51197C4.36942 19.9823 4.25391 19.8668 4.25391 19.7243V9.40542C4.25391 9.26292 4.36942 9.14735 4.51197 9.14735ZM6.11954 4.0176C4.95081 4.0176 4 4.96738 4 6.13481C4 7.30276 4.95081 8.2529 6.11954 8.2529C7.28733 8.2529 8.23737 7.30271 8.23737 6.13481C8.23742 4.96738 7.28733 4.0176 6.11954 4.0176ZM13.0727 10.0756C13.6511 9.44547 14.6048 8.89089 15.8948 8.89089C19.5126 8.89089 20.0004 11.5061 20.0004 14.0643V19.7243C20.0004 19.8669 19.8849 19.9824 19.7424 19.9824H16.5362C16.3936 19.9824 16.2781 19.8669 16.2781 19.7243V14.7074C16.2781 13.3027 16.1743 12.2282 14.8682 12.2282C13.6689 12.2282 13.2016 12.8984 13.2016 14.6188V19.7243C13.2016 19.8668 13.0861 19.9823 12.9435 19.9823H9.73853C9.59598 19.9823 9.48047 19.8668 9.48047 19.7243V9.40542C9.48047 9.26292 9.59598 9.14736 9.73853 9.14736H12.8146C12.9572 9.14736 13.0727 9.26292 13.0727 9.40542V10.0756Z" fill="#FF5100"/>
</svg>
