<svg width="400" height="200" viewBox="0 0 400 200" fill="none" xmlns="http://www.w3.org/2000/svg">
<g clip-path="url(#clip0)">
<rect width="400" height="200" fill="white"/>
<path fill-rule="evenodd" clip-rule="evenodd" d="M236.72 26.08C237.441 26.159 237.952 26.447 238.159 27.04C237.239 27.159 236.889 26.71 236.719 26.08H236.72Z" fill="black"/>
<path fill-rule="evenodd" clip-rule="evenodd" d="M241.52 29.92C241.172 31.333 240.209 32.129 238.16 31.84C238.139 30.944 237.891 31.156 238.16 30.4C239.88 30.707 240.16 28.572 241.52 29.92Z" fill="black"/>
<path fill-rule="evenodd" clip-rule="evenodd" d="M240.079 32.56C239.953 33.756 238.014 34.143 237.199 33.28C236.929 31.944 239.599 31.625 240.079 32.56Z" fill="black"/>
<path fill-rule="evenodd" clip-rule="evenodd" d="M242.239 37.36C241.986 36.358 242.745 35.734 242.239 35.2C241.777 35.297 242.05 36.13 241.279 35.92C240.878 35.522 241.089 34.511 241.039 33.76C241.911 33.198 243.355 32.302 244.399 33.28C244.749 34.878 243.579 36.688 242.239 37.36V37.36Z" fill="black"/>
<path fill-rule="evenodd" clip-rule="evenodd" d="M245.359 35.92C245.197 38.124 245.838 39.649 245.119 41.2C243.717 41.811 242.461 42.567 240.8 41.68C240.762 40.522 242.042 40.682 242.72 40.24C241.907 38.249 244.266 37.724 244.4 35.92H245.36H245.359Z" fill="black"/>
<path fill-rule="evenodd" clip-rule="evenodd" d="M253.28 38.32V39.76C251.76 40.321 250.785 41.426 250.4 43.12C249.95 41.877 249.93 37.318 253.28 38.32V38.32Z" fill="black"/>
<path fill-rule="evenodd" clip-rule="evenodd" d="M252.799 41.2H253.278V41.68H252.799V41.2Z" fill="black"/>
<path fill-rule="evenodd" clip-rule="evenodd" d="M251.84 42.16H252.8C252.919 43.079 252.47 43.43 251.84 43.6V42.16Z" fill="black"/>
<path fill-rule="evenodd" clip-rule="evenodd" d="M251.839 46.48C252.44 46.438 252.421 47.018 252.799 47.2C251.59 48.48 253.181 49.631 252.799 51.52C251.695 51.619 250.325 51.487 249.439 51.04C249.883 50.604 250.543 50.384 250.879 49.84C249.639 48.532 251.639 47.788 251.839 46.48Z" fill="black"/>
<path fill-rule="evenodd" clip-rule="evenodd" d="M268.16 51.04C269.087 50.522 270.253 51.821 270.801 52.48C271.85 51.841 273.54 51.934 274.16 52.96C273.735 54.486 272.051 53.513 270.801 53.92C269.931 52.952 268.561 52.475 268.161 51.04H268.16Z" fill="black"/>
<path fill-rule="evenodd" clip-rule="evenodd" d="M250.159 53.44C250.712 52.673 251.167 54.013 251.359 54.4C250.922 55.244 250.037 55.637 250.399 57.28C249.34 57.181 249.821 58.622 248.96 58.72C249.106 58.146 248.658 56.978 249.199 56.8C249.027 55.933 247.892 56.028 247.999 54.88C249.239 55.366 250.979 54.789 250.159 53.44Z" fill="black"/>
<path fill-rule="evenodd" clip-rule="evenodd" d="M278.239 53.68C278.123 54.836 276.852 55.872 275.84 55.36C275.94 54.095 277.2 53.999 278.24 53.68H278.239Z" fill="black"/>
<path fill-rule="evenodd" clip-rule="evenodd" d="M252.799 59.2H253.278V60.16H252.799V59.2Z" fill="black"/>
<path fill-rule="evenodd" clip-rule="evenodd" d="M253.279 60.64C254.359 60.68 255.041 61.118 255.199 62.08C254.009 62.149 253.699 61.344 253.279 60.64Z" fill="black"/>
<path fill-rule="evenodd" clip-rule="evenodd" d="M206 71.68C205.655 72.215 205.14 72.579 204.08 72.4C204.284 71.556 205.263 71.344 206 71.68Z" fill="black"/>
<path fill-rule="evenodd" clip-rule="evenodd" d="M250.879 72.4C251.011 73.652 250.689 74.45 249.439 74.32C249.319 73.082 249.769 72.41 250.879 72.4V72.4Z" fill="black"/>
<path fill-rule="evenodd" clip-rule="evenodd" d="M248 72.88C248.297 73.657 247.224 73.064 247.521 73.84C246.941 73.689 247.391 72.627 248.001 72.88H248Z" fill="black"/>
<path fill-rule="evenodd" clip-rule="evenodd" d="M207.92 73.12H209.119C208.848 73.489 208.43 73.71 208.159 74.08C207.834 74.006 207.96 73.479 207.92 73.12Z" fill="black"/>
<path fill-rule="evenodd" clip-rule="evenodd" d="M258.08 73.84C258.05 74.271 258.374 74.346 258.32 74.8C257.798 75.237 257.217 75.618 256.4 75.76C255.63 74.628 256.95 73.836 258.08 73.84V73.84Z" fill="black"/>
<path fill-rule="evenodd" clip-rule="evenodd" d="M207.919 75.28C208.695 74.984 208.102 76.057 208.879 75.76C209.175 76.937 207.699 76.341 207.679 77.2C207.323 76.996 207.162 76.596 207.199 76C207.423 75.744 208.084 75.925 207.919 75.28V75.28Z" fill="black"/>
<path fill-rule="evenodd" clip-rule="evenodd" d="M162.318 78.16H162.798V78.64H162.318V78.16Z" fill="black"/>
<path fill-rule="evenodd" clip-rule="evenodd" d="M207.199 78.64C208.004 78.475 208.077 79.042 208.159 79.6C207.571 79.812 207.279 80.319 206.239 80.08C206.211 79.252 207.226 79.467 207.199 78.64V78.64Z" fill="black"/>
<path fill-rule="evenodd" clip-rule="evenodd" d="M156.318 79.12C156.8 79.038 157.069 79.169 157.038 79.6H156.318V79.12Z" fill="black"/>
<path fill-rule="evenodd" clip-rule="evenodd" d="M159.68 79.6C160.161 79.518 160.431 79.649 160.4 80.08H159.68V79.6Z" fill="black"/>
<path fill-rule="evenodd" clip-rule="evenodd" d="M162.319 80.56H163.759C163.643 80.992 162.141 81.984 162.319 80.56Z" fill="black"/>
<path fill-rule="evenodd" clip-rule="evenodd" d="M212.96 81.76C213.013 81.66 213.653 81.298 213.92 81.52C214.289 81.829 212.548 82.53 212.96 81.76Z" fill="black"/>
<path fill-rule="evenodd" clip-rule="evenodd" d="M159.92 89.44C159.994 89.114 160.521 89.241 160.88 89.2C160.806 89.526 160.279 89.399 159.92 89.44Z" fill="black"/>
<path fill-rule="evenodd" clip-rule="evenodd" d="M271.76 99.52H272.239V100H271.76V99.52Z" fill="black"/>
<path fill-rule="evenodd" clip-rule="evenodd" d="M270.32 100C270.446 101.101 269.511 100.968 268.881 100.72C269.281 100.401 269.391 99.792 270.321 100H270.32Z" fill="black"/>
<path fill-rule="evenodd" clip-rule="evenodd" d="M196.399 101.2C196.738 101.966 194.963 101.806 194.959 101.44C194.621 100.674 196.395 100.833 196.399 101.2Z" fill="black"/>
<path fill-rule="evenodd" clip-rule="evenodd" d="M192.8 102.16C192.836 102.094 193.317 101.716 193.52 101.92C193.686 102.086 192.573 102.581 192.8 102.16Z" fill="black"/>
<path fill-rule="evenodd" clip-rule="evenodd" d="M199.278 102.16C199.202 101.736 200.623 101.731 200.238 102.4C199.808 102.431 199.732 102.106 199.278 102.16Z" fill="black"/>
<path fill-rule="evenodd" clip-rule="evenodd" d="M191.359 102.4C190.832 103.133 189.822 102.123 191.359 102.4V102.4Z" fill="black"/>
<path fill-rule="evenodd" clip-rule="evenodd" d="M195.439 103.6C195.513 103.274 196.04 103.401 196.399 103.36C196.325 103.686 195.798 103.559 195.439 103.6Z" fill="black"/>
<path fill-rule="evenodd" clip-rule="evenodd" d="M194.959 103.84C194.65 104.571 193.702 104.663 192.559 104.56C192.896 103.857 193.901 103.822 194.959 103.84Z" fill="black"/>
<path fill-rule="evenodd" clip-rule="evenodd" d="M189.68 105.28C189.328 106.188 188.318 105.178 189.68 105.28V105.28Z" fill="black"/>
<path fill-rule="evenodd" clip-rule="evenodd" d="M192.558 106.72C192.938 106.74 193.474 106.604 193.518 106.96C193.78 107.803 192.045 107.603 192.558 106.72Z" fill="black"/>
<path fill-rule="evenodd" clip-rule="evenodd" d="M202.16 108.4H203.12C203.362 109.122 202.586 108.825 202.16 108.88V108.4Z" fill="black"/>
<path fill-rule="evenodd" clip-rule="evenodd" d="M192.799 114.16C193.567 114.112 193.837 114.562 193.999 115.12H192.559C192.528 114.69 192.853 114.61 192.799 114.16Z" fill="black"/>
<path fill-rule="evenodd" clip-rule="evenodd" d="M178.398 117.04C178.24 117.362 177.885 117.487 177.438 117.52C177.196 116.8 177.973 117.1 178.398 117.04Z" fill="black"/>
<path fill-rule="evenodd" clip-rule="evenodd" d="M174.799 117.52H176.959C176.874 117.99 174.77 118.47 174.799 117.52Z" fill="black"/>
<path fill-rule="evenodd" clip-rule="evenodd" d="M178.4 119.44C177.873 120.17 176.863 119.16 178.4 119.44V119.44Z" fill="black"/>
<path fill-rule="evenodd" clip-rule="evenodd" d="M174.799 119.92H176.479C176.671 120.833 175.344 120.225 174.799 120.4V119.92Z" fill="black"/>
<path fill-rule="evenodd" clip-rule="evenodd" d="M171.92 121.12C171.95 120.59 172.938 121.018 173.36 120.88C173.33 121.41 172.342 120.98 171.92 121.12Z" fill="black"/>
<path fill-rule="evenodd" clip-rule="evenodd" d="M176.48 122.32C175.953 123.05 174.943 122.04 176.48 122.32V122.32Z" fill="black"/>
<path fill-rule="evenodd" clip-rule="evenodd" d="M213.439 124.48C213.513 124.154 214.04 124.281 214.399 124.24C214.325 124.57 213.798 124.44 213.439 124.48Z" fill="black"/>
<path fill-rule="evenodd" clip-rule="evenodd" d="M171.92 125.92C172.402 125.838 172.671 125.969 172.64 126.4H171.92V125.92Z" fill="black"/>
<path fill-rule="evenodd" clip-rule="evenodd" d="M172.399 136.48C172.147 137.108 171.424 137.265 170.479 137.201C170.496 136.341 171.48 136.441 172.399 136.481V136.48Z" fill="black"/>
<path fill-rule="evenodd" clip-rule="evenodd" d="M192.56 136.48C192.033 137.21 191.023 136.2 192.56 136.48V136.48Z" fill="black"/>
<path fill-rule="evenodd" clip-rule="evenodd" d="M215.838 137.92C216.002 138.663 214.464 138.919 214.158 138.4C213.966 137.49 215.292 138.1 215.838 137.92Z" fill="black"/>
<path fill-rule="evenodd" clip-rule="evenodd" d="M192.559 139.12C193.614 138.24 193.471 139.78 192.559 139.12V139.12Z" fill="black"/>
<path fill-rule="evenodd" clip-rule="evenodd" d="M209.6 139.12C210.003 140.034 210.33 141.629 211.52 141.04C211.386 141.627 210.957 141.917 210.56 142.24C211.463 143.17 210.783 144.475 210.32 145.36C209.391 145.509 209.332 145.558 208.64 145.12C208.578 144.338 208.925 143.965 209.6 143.92C209.825 141.936 209.188 140.813 208.16 140.08C208.392 139.51 208.581 138.9 209.6 139.12V139.12Z" fill="black"/>
<path fill-rule="evenodd" clip-rule="evenodd" d="M160.399 139.84C159.99 140.181 158.715 140.288 158.479 140.08C158.705 139.14 159.69 139.88 160.399 139.84Z" fill="black"/>
<path fill-rule="evenodd" clip-rule="evenodd" d="M162.319 142C162.084 143.045 159.973 142.214 158.959 142.479C158.268 142.078 160.186 142.289 160.639 142.24C160.687 141.78 162.039 141.43 162.319 142Z" fill="black"/>
<path fill-rule="evenodd" clip-rule="evenodd" d="M161.84 145.12C161.222 145.941 159.379 145.538 158.72 146.32C158.065 146.495 158.237 145.842 157.76 145.84C159.203 145.7 160.346 144.46 161.84 145.12Z" fill="black"/>
<path fill-rule="evenodd" clip-rule="evenodd" d="M215.359 146.32C214.99 147.773 213.241 146.592 212.479 146.32C212.698 145.5 215.094 145.7 215.359 146.32Z" fill="black"/>
<path fill-rule="evenodd" clip-rule="evenodd" d="M161.359 150.16H162.799C163.027 151.027 161.854 150.495 161.359 150.639V150.159V150.16Z" fill="black"/>
<path fill-rule="evenodd" clip-rule="evenodd" d="M159.439 151.12C159.532 152.093 157.943 151.385 157.279 151.599C157.186 150.629 158.775 151.339 159.439 151.119V151.12Z" fill="black"/>
<path fill-rule="evenodd" clip-rule="evenodd" d="M154.879 151.6C155.361 151.519 155.63 151.65 155.599 152.08H154.879V151.6Z" fill="black"/>
<path fill-rule="evenodd" clip-rule="evenodd" d="M163.279 152.56C163.121 152.882 162.766 153.007 162.319 153.04C162.077 152.32 162.853 152.61 163.279 152.56Z" fill="black"/>
<path fill-rule="evenodd" clip-rule="evenodd" d="M160.879 153.04C160.893 153.934 159.811 153.732 158.959 153.76C159.648 153.57 159.902 152.94 160.879 153.04Z" fill="black"/>
<path fill-rule="evenodd" clip-rule="evenodd" d="M158.48 154.48C156.472 154.197 155.034 155.614 153.68 155.201C153.722 154.043 155.489 154.609 156.56 154.48C156.558 153.98 158.568 153.54 158.48 154.48V154.48Z" fill="black"/>
<path fill-rule="evenodd" clip-rule="evenodd" d="M206.959 154.96H207.679V155.92C207.248 155.95 207.172 155.626 206.719 155.68C206.846 155.49 206.969 155.29 206.959 154.96Z" fill="black"/>
<path fill-rule="evenodd" clip-rule="evenodd" d="M208.878 155.2C208.837 154.679 209.729 155.091 210.077 154.96C210.119 155.48 209.227 155.07 208.878 155.2Z" fill="black"/>
<path fill-rule="evenodd" clip-rule="evenodd" d="M149.359 155.92C149.072 156.728 148.132 157.146 147.199 156.64C147.521 156 148.256 155.78 149.359 155.92Z" fill="black"/>
<path fill-rule="evenodd" clip-rule="evenodd" d="M146.719 156.4C146.561 156.721 146.206 156.846 145.759 156.879C145.517 156.159 146.294 156.459 146.719 156.399V156.4Z" fill="black"/>
<path fill-rule="evenodd" clip-rule="evenodd" d="M158.478 156.88C157.146 157.149 155.787 157.389 154.398 157.6C155.657 156.85 156.907 156.08 158.478 156.88Z" fill="black"/>
<path fill-rule="evenodd" clip-rule="evenodd" d="M147.198 158.32C148.429 158.472 147.597 159.948 146.718 159.28C146.421 158.5 147.495 159.1 147.198 158.32Z" fill="black"/>
<path fill-rule="evenodd" clip-rule="evenodd" d="M164.238 159.52C164.417 158.978 165.584 159.425 166.158 159.28C165.886 160.26 165.094 159.34 164.238 159.52Z" fill="black"/>
<path fill-rule="evenodd" clip-rule="evenodd" d="M175.999 159.28C175.472 160.01 174.462 159 175.999 159.28V159.28Z" fill="black"/>
<path fill-rule="evenodd" clip-rule="evenodd" d="M162.319 159.76H163.759C163.643 160.19 162.141 161.18 162.319 159.76Z" fill="black"/>
<path fill-rule="evenodd" clip-rule="evenodd" d="M161.839 160.24C161.175 160.536 160.554 160.875 159.679 160.96C159.555 159.74 161.147 159.98 161.839 160.24Z" fill="black"/>
<path fill-rule="evenodd" clip-rule="evenodd" d="M216.799 160.72C216.821 161.462 216.074 161.436 215.359 161.441C215.76 161.121 215.871 160.511 216.799 160.721V160.72Z" fill="black"/>
<path fill-rule="evenodd" clip-rule="evenodd" d="M161.36 162.64C161.257 163.177 160.177 162.738 159.68 162.88C160 162.25 160.745 162.42 161.36 162.64Z" fill="black"/>
<path fill-rule="evenodd" clip-rule="evenodd" d="M168.56 163.6C168.251 164.331 167.303 164.423 166.16 164.321C166.323 163.341 167.614 163.121 168.56 163.601V163.6Z" fill="black"/>
<path fill-rule="evenodd" clip-rule="evenodd" d="M143.839 165.04C143.53 165.771 142.582 165.863 141.439 165.76C142.103 165.28 142.905 164.57 143.839 165.04Z" fill="black"/>
<path fill-rule="evenodd" clip-rule="evenodd" d="M166.16 166.24C166.641 166.158 166.911 166.289 166.88 166.719H166.16V166.239V166.24Z" fill="black"/>
<path fill-rule="evenodd" clip-rule="evenodd" d="M204.08 167.68H204.56V168.16H204.08V167.68Z" fill="black"/>
<path fill-rule="evenodd" clip-rule="evenodd" d="M169.039 168.64C168.449 169.411 167.361 169.682 165.919 169.6C165.762 168.08 167.84 168.8 169.039 168.64Z" fill="black"/>
<path fill-rule="evenodd" clip-rule="evenodd" d="M186.08 170.08C185.553 170.81 184.543 169.8 186.08 170.08V170.08Z" fill="black"/>
<path fill-rule="evenodd" clip-rule="evenodd" d="M202.16 170.8C202.807 170.247 204.475 170.715 205.52 170.56C205.122 171.29 202.886 171.16 202.16 170.8Z" fill="black"/>
<path fill-rule="evenodd" clip-rule="evenodd" d="M210.8 170.8C210.759 170.279 211.651 170.692 211.999 170.56C211.782 170.98 211.159 171.18 210.8 170.8Z" fill="black"/>
<path fill-rule="evenodd" clip-rule="evenodd" d="M139.999 171.52C139.754 172.076 138.895 172.017 138.079 172C137.933 171.05 139.396 171.72 139.999 171.52Z" fill="black"/>
<path fill-rule="evenodd" clip-rule="evenodd" d="M135.919 172.24C135.878 171.719 136.771 172.131 137.119 172C137.16 172.52 136.268 172.11 135.919 172.24Z" fill="black"/>
<path fill-rule="evenodd" clip-rule="evenodd" d="M150.799 173.92C150.049 174.53 148.92 174.761 147.439 174.64C146.706 174.269 148.48 174.429 148.879 174.401C149.075 173.801 149.974 173.901 150.799 173.921V173.92Z" fill="black"/>
<path fill-rule="evenodd" clip-rule="evenodd" d="M143.84 174.64C144.657 174.623 145.515 174.566 145.76 175.12C145.386 175.786 145.153 176.593 144.32 176.8C144.554 177.046 144.795 177.285 145.04 177.52C146.261 176.742 148.208 176.689 150.08 176.56C149.558 178.039 147.334 177.815 145.52 178C144.951 178.704 143.395 179.454 142.4 178.96C142.192 178.031 142.802 177.922 143.12 177.52C143.121 176.879 142.361 176.999 142.4 176.321C142.935 175.821 143.86 175.701 143.84 174.641V174.64Z" fill="black"/>
<path fill-rule="evenodd" clip-rule="evenodd" d="M152.719 175.84C152.308 176.23 151.845 176.567 151.039 176.56C151.562 176.08 151.874 175.38 152.719 175.84Z" fill="black"/>
<path fill-rule="evenodd" clip-rule="evenodd" d="M140.96 177.52C138.929 177.169 138.318 178.238 136.4 178C135.971 178.067 135.908 177.773 136.16 177.76H136.88C137.719 177.32 139.282 177.602 139.76 176.8C139.924 177.28 141.19 176.65 140.96 177.52V177.52Z" fill="black"/>
<path fill-rule="evenodd" clip-rule="evenodd" d="M190.4 177.28C190.472 177.912 190.068 178.067 189.44 178C189.368 177.37 189.772 177.21 190.4 177.28Z" fill="black"/>
<path fill-rule="evenodd" clip-rule="evenodd" d="M154.64 178.24C152.875 178.395 152.335 179.775 150.08 179.44C151.33 178.65 152.966 177.93 154.64 178.24Z" fill="black"/>
<path fill-rule="evenodd" clip-rule="evenodd" d="M140.48 179.2C140.056 179.974 138.9 180.477 137.84 179.92C138.419 179.38 139.573 179.41 140.48 179.2Z" fill="black"/>
<path fill-rule="evenodd" clip-rule="evenodd" d="M157.039 179.68C156.325 180.567 154.786 180.626 153.439 180.88C153.922 179.78 155.852 179.33 157.039 179.68Z" fill="black"/>
<path fill-rule="evenodd" clip-rule="evenodd" d="M147.92 179.68C147.768 180.568 146.572 180.412 145.52 180.401C144.853 180.853 144.326 181.447 143.12 181.361C142.542 182.303 141.147 182.428 139.52 182.321C139.973 181.494 141.266 181.507 141.44 180.401C143.583 180.701 145.502 179.781 147.92 179.681V179.68Z" fill="black"/>
<path fill-rule="evenodd" clip-rule="evenodd" d="M131.599 180.88C131.962 180.033 132.054 181.322 131.839 181.36C131.697 181.38 131.538 181.02 131.599 180.88Z" fill="black"/>
<path fill-rule="evenodd" clip-rule="evenodd" d="M152.959 181.12C153.106 181.923 151.439 182.139 151.039 181.599C150.893 180.649 152.357 181.319 152.959 181.119V181.12Z" fill="black"/>
<path fill-rule="evenodd" clip-rule="evenodd" d="M185.839 181.84C185.798 181.319 186.691 181.732 187.039 181.6C187.08 182.12 186.188 181.71 185.839 181.84Z" fill="black"/>
<path fill-rule="evenodd" clip-rule="evenodd" d="M183.919 182.08C183.775 182.575 183.548 182.989 182.719 182.8V182.08C183.316 182.05 183.462 181.63 183.919 182.08Z" fill="black"/>
<path fill-rule="evenodd" clip-rule="evenodd" d="M192.319 182.32C192.645 182.394 192.518 182.921 192.559 183.28H190.879C191.141 182.74 192.057 182.86 192.319 182.32V182.32Z" fill="black"/>
<path fill-rule="evenodd" clip-rule="evenodd" d="M230.478 182.56V183.281C230.052 183.226 229.276 183.522 229.518 182.801C229.948 182.831 230.028 182.511 230.478 182.561V182.56Z" fill="black"/>
<path fill-rule="evenodd" clip-rule="evenodd" d="M155.6 183.04C155.019 183.83 154.453 182.37 155.6 183.04V183.04Z" fill="black"/>
<path fill-rule="evenodd" clip-rule="evenodd" d="M147.199 183.28C145.918 184.879 142.378 184.218 140.959 185.679C140.917 186.281 141.497 186.262 141.679 186.639C143.427 186.148 145.313 185.793 147.439 185.679C147.001 187.481 143.635 186.356 142.639 187.599C142.157 187.681 141.888 187.55 141.919 187.12C141.567 187.567 140.956 187.757 140.959 188.559C139.897 188.101 138.508 187.971 136.879 188.08C136.906 186.587 139.354 187.515 139.999 186.64C140.238 185.601 139.731 185.308 139.519 184.72C140 184.802 140.27 184.671 140.239 184.241C140.734 184.387 141.906 183.853 141.679 184.72C142.683 183.4 145.151 183.55 147.199 183.28V183.28Z" fill="black"/>
<path fill-rule="evenodd" clip-rule="evenodd" d="M152.479 183.76C152.805 183.834 152.678 184.362 152.719 184.72C151.776 184.497 152.114 185.555 151.039 185.2V184.24C151.534 184.1 152.707 184.63 152.479 183.76Z" fill="black"/>
<path fill-rule="evenodd" clip-rule="evenodd" d="M160.879 183.76H161.359V184.24H160.879V183.76Z" fill="black"/>
<path fill-rule="evenodd" clip-rule="evenodd" d="M159.439 184.24C158.999 185.08 158.538 185.898 157.039 185.679C156.986 184.349 158.211 184.289 159.439 184.239V184.24Z" fill="black"/>
<path fill-rule="evenodd" clip-rule="evenodd" d="M134.479 186.16C132.854 185.815 132.451 186.692 131.119 186.639C130.96 185.449 134.089 185.229 134.479 186.159V186.16Z" fill="black"/>
<path fill-rule="evenodd" clip-rule="evenodd" d="M191.6 185.68H193.04C193.082 186.282 192.502 186.263 192.32 186.64C191.687 186.71 191.701 186.14 191.6 185.68Z" fill="black"/>
<path fill-rule="evenodd" clip-rule="evenodd" d="M207.199 185.68C206.761 186.442 206.402 187.283 205.039 187.12C205.477 186.36 205.836 185.52 207.199 185.68Z" fill="black"/>
<path fill-rule="evenodd" clip-rule="evenodd" d="M154.879 186.16C154.91 186.591 154.586 186.666 154.639 187.12C154.144 186.974 152.972 187.507 153.199 186.64C154.208 186.93 154.251 186.25 154.879 186.16V186.16Z" fill="black"/>
<path fill-rule="evenodd" clip-rule="evenodd" d="M188.959 186.64H189.439V187.12H188.959V186.64Z" fill="black"/>
<path fill-rule="evenodd" clip-rule="evenodd" d="M204.079 187.12V188.08C202.851 187.892 202.336 188.417 201.199 188.32C202.008 187.77 202.872 187.27 204.079 187.12V187.12Z" fill="black"/>
<path fill-rule="evenodd" clip-rule="evenodd" d="M135.919 188.08C133.999 187.655 132.89 189.135 131.359 188.32C131.854 187.48 135.195 187.11 135.919 188.08Z" fill="black"/>
<path fill-rule="evenodd" clip-rule="evenodd" d="M130.879 188.56C130.692 188.774 130.621 189.102 130.639 189.52H129.439C129.646 188.93 130.158 188.64 130.879 188.56Z" fill="black"/>
<path fill-rule="evenodd" clip-rule="evenodd" d="M147.92 188.56C147.362 189.557 145.804 189.784 144.56 190C141.906 190.463 138.45 190.71 135.68 190.24C137.237 189.797 139.367 189.927 140.48 189.04C142.74 189.89 144.417 188.57 147.92 188.56V188.56Z" fill="black"/>
<path fill-rule="evenodd" clip-rule="evenodd" d="M192.56 188.56V189.52C192.101 189.419 191.527 189.433 191.6 188.8C191.813 188.61 192.142 188.54 192.56 188.56Z" fill="black"/>
<path fill-rule="evenodd" clip-rule="evenodd" d="M168.8 189.28C168.724 188.856 170.145 188.851 169.76 189.519C169.258 189.619 169.125 189.359 168.8 189.279V189.28Z" fill="black"/>
<path fill-rule="evenodd" clip-rule="evenodd" d="M199.279 189.28C199.353 188.954 199.88 189.081 200.239 189.04C200.165 189.36 199.638 189.24 199.279 189.28Z" fill="black"/>
<path fill-rule="evenodd" clip-rule="evenodd" d="M160.399 189.52C159.845 189.846 159.329 190.21 158.479 190.241C158.643 189.521 159.435 189.441 160.399 189.521V189.52Z" fill="black"/>
<path fill-rule="evenodd" clip-rule="evenodd" d="M172.639 189.52H173.839C173.87 189.951 173.546 190.027 173.599 190.48C173.243 190.2 172.527 190.27 172.639 189.52Z" fill="black"/>
<path fill-rule="evenodd" clip-rule="evenodd" d="M165.199 190.48C165.104 191.266 164.023 191.064 163.279 191.201C163.624 190.661 164.14 190.301 165.199 190.481V190.48Z" fill="black"/>
<path fill-rule="evenodd" clip-rule="evenodd" d="M161.839 190.96H162.319V191.68H160.879C160.918 191.399 161.317 191.478 161.599 191.441C161.832 191.431 161.785 191.151 161.839 190.961V190.96Z" fill="black"/>
<path fill-rule="evenodd" clip-rule="evenodd" d="M192.558 190.96H193.998C193.632 191.33 192.507 192.17 192.558 190.96Z" fill="black"/>
<path fill-rule="evenodd" clip-rule="evenodd" d="M153.919 191.92C152.985 192.506 152.133 193.174 150.559 193.12C151.503 192.54 152.371 191.89 153.919 191.92Z" fill="black"/>
<path fill-rule="evenodd" clip-rule="evenodd" d="M168.56 191.92C168.033 192.65 167.023 191.64 168.56 191.92V191.92Z" fill="black"/>
<path fill-rule="evenodd" clip-rule="evenodd" d="M164.718 192.88C164.781 194.394 163.301 193.588 162.318 193.6C162.908 193.15 163.962 193.16 164.718 192.88Z" fill="black"/>
<path fill-rule="evenodd" clip-rule="evenodd" d="M230.479 192.88C229.791 193.872 228.218 193.98 226.639 194.08C226.999 192.76 229.619 193.7 230.479 192.88Z" fill="black"/>
<path fill-rule="evenodd" clip-rule="evenodd" d="M150.08 193.36C150.018 193.798 148.092 194.319 148.16 193.36C148.709 193.21 149.608 192.88 150.08 193.36Z" fill="black"/>
<path fill-rule="evenodd" clip-rule="evenodd" d="M147.199 194.08C146.71 194.951 145.164 194.766 144.799 195.76C144.846 196.753 146.214 196.426 146.719 196.96C145.676 198.478 142.962 198.323 140.479 198.4C140.711 197.112 142.979 197.86 143.839 197.2V196C141.349 194.871 137.42 195.896 135.439 195.76C135.189 194.929 137.722 195.24 139.039 195.04C141.492 194.668 144.319 194.106 146.239 193.6C146.686 193.63 147.041 193.76 147.199 194.08Z" fill="black"/>
<path fill-rule="evenodd" clip-rule="evenodd" d="M199.76 193.84C200.46 193.487 200.46 194.913 199.76 194.56V193.84Z" fill="black"/>
<path fill-rule="evenodd" clip-rule="evenodd" d="M161.36 194.32C161.504 195.228 159.226 195.438 159.44 194.32C160.112 194.04 160.688 194.04 161.36 194.32Z" fill="black"/>
<path fill-rule="evenodd" clip-rule="evenodd" d="M169.519 194.32C169.042 195.1 167.665 195.516 166.639 195.04C167.158 194.36 168.232 194.23 169.519 194.32Z" fill="black"/>
<path fill-rule="evenodd" clip-rule="evenodd" d="M165.439 195.76C163.172 196.773 161.248 198.129 158.239 198.401C158.136 197.186 159.255 197.705 159.919 197.441C160.989 197.015 162.309 196.271 163.519 196.241C163.804 195.721 164.792 195.181 165.439 195.761V195.76Z" fill="black"/>
<path fill-rule="evenodd" clip-rule="evenodd" d="M179.84 196C179.844 195.634 181.619 195.474 181.28 196.24C180.715 196.24 180.573 195.83 179.84 196Z" fill="black"/>
<path fill-rule="evenodd" clip-rule="evenodd" d="M132.08 196C132.51 195.97 132.586 196.294 133.04 196.24C133.117 196.66 131.695 196.67 132.08 196Z" fill="black"/>
<path fill-rule="evenodd" clip-rule="evenodd" d="M192.318 197.44C193.211 196.6 193.536 198.1 192.318 197.44V197.44Z" fill="black"/>
<path fill-rule="evenodd" clip-rule="evenodd" d="M139.52 198.16C138.942 199.102 137.105 198.785 135.68 198.88C136.511 198.35 138.594 197.8 139.52 198.16Z" fill="black"/>
<path fill-rule="evenodd" clip-rule="evenodd" d="M183.199 198.64C182.237 199.191 180.776 200.003 179.359 199.361C180.381 198.871 181.863 198.081 183.199 198.641V198.64Z" fill="black"/>
<path fill-rule="evenodd" clip-rule="evenodd" d="M148.16 198.88V200.8C145.828 199.843 143.09 201.302 139.76 200.8C141.615 199.855 145.118 200.559 146.24 198.88H148.16Z" fill="black"/>
<path fill-rule="evenodd" clip-rule="evenodd" d="M166.159 199.36H164.719C164.767 199 166.289 198.4 166.159 199.36Z" fill="black"/>
<path fill-rule="evenodd" clip-rule="evenodd" d="M163.759 200.32C162.316 199.997 162.322 201.123 160.879 200.799C161.359 200.389 163.213 199.099 163.759 200.319V200.32Z" fill="black"/>
<path fill-rule="evenodd" clip-rule="evenodd" d="M177.439 199.84H178.639C178.885 200.647 177.892 200.214 177.439 200.32V199.84Z" fill="black"/>
<path fill-rule="evenodd" clip-rule="evenodd" d="M257.119 57.76C257.096 56.356 257.908 55.124 257.359 53.92C256.814 54.175 257.268 55.429 257.119 56.08C256.554 56.075 256.413 56.493 255.68 56.32C255.472 54.322 257.723 51.415 255.68 50.56C256.748 49.273 257.141 51.688 257.119 52.96C257.792 52.592 257.424 51.185 258.559 51.28C259.445 52.155 258.816 54.544 259.279 55.84C258.842 56.363 258.193 56.674 258.079 57.52C258.603 57.95 259.68 56.89 260.479 56.8C261.918 56.586 263.252 57.897 264.319 58.24C264.68 58.356 265.31 58.034 265.759 58.24C266.048 58.372 266.241 59.062 266.479 59.2C266.701 59.328 267.237 59.45 267.679 59.68C268.822 60.276 269.354 60.125 270.799 59.68C270.666 58.587 270.93 57.891 271.759 57.76C272.481 57.518 272.184 58.295 272.238 58.72C272.471 58.313 272.902 58.103 273.678 58.24C273.589 58.648 273.866 58.693 274.157 58.72C274.212 59.894 273.42 60.221 273.197 61.12C272.432 61.325 272.286 60.911 271.997 60.64C271.245 61.567 270.234 62.237 269.357 63.04C269.129 63.907 270.302 63.375 270.797 63.52C270.632 64.325 271.199 64.397 271.757 64.48C272.612 64.536 272.002 63.126 272.957 63.28C272.293 62.94 271.622 63.338 270.797 62.8C271.531 62.094 272.319 61.443 273.917 61.6C275.27 60.473 273.895 56.618 276.557 56.8C276.695 57.222 276.267 58.21 276.797 58.24C279.217 57.075 282.324 53.479 279.677 50.8C277.99 50.714 278.264 52.588 276.557 52.48C276.863 50.466 278.499 49.782 280.157 49.12C279.811 48.586 279.554 47.963 279.678 46.96H278.718C278.152 48.314 277.87 49.953 276.077 50.08C275.181 47.599 276.418 46.844 277.758 45.52C277.501 43.583 278.55 42.953 278.237 40.96C277.864 40.613 277.594 40.163 277.037 40C277.7 38.041 276.468 38.05 276.558 36.16C276.223 35.774 275.373 35.904 275.118 35.44C274.847 34.398 275.078 34.101 274.879 33.28C274.087 31.672 272.774 30.586 272.238 28.72C271.832 28.064 271.01 28.137 270.318 27.52C270.152 27.372 270.089 26.747 269.839 26.56C269.63 26.405 269.104 26.696 268.879 26.56C268.714 26.46 268.563 25.735 268.399 25.6C268.272 25.495 267.786 25.722 267.679 25.6C267.617 25.529 267.754 25.168 267.679 25.12C267.545 25.034 267.06 25.235 266.959 25.12C266.586 24.696 266.865 24.891 266.238 24.64C265.883 24.497 265.959 24.432 265.278 24.16C264.848 23.988 264.861 23.862 263.839 23.68C262.808 23.496 260.677 22.415 259.278 22.24C258.242 22.11 256.548 22.13 255.198 22.24C253.892 22.346 252.078 22.495 250.879 22.72C250.373 22.815 250.534 23.05 250.158 23.2C249.882 23.31 249.479 23.098 249.198 23.2C248.942 23.293 249.015 23.593 248.719 23.68C248.352 23.787 247.896 23.608 247.519 23.68C245.953 23.979 244.487 25.064 242.959 25.12C242.64 25.521 242.03 25.632 242.238 26.56C240.698 26.671 240.419 26.671 238.879 26.56C238.533 25.706 238.135 24.903 237.679 24.16C236.62 24.061 237.1 25.501 236.239 25.6C236.153 23.594 236.821 22.341 237.679 21.28C238.2 21.879 239.449 21.75 239.599 22.72C241.745 22.305 244.745 22.746 245.839 21.28C249.46 21.701 251.508 20.549 253.519 19.36C256.552 19.936 260.583 19.108 263.359 20.32C264.325 20.742 264.837 21.277 265.759 21.76C266.645 22.225 267.391 22.249 268.399 22.72C268.501 22.767 268.426 23.115 268.639 23.2C268.829 23.276 269.184 23.096 269.359 23.2C269.514 23.292 269.629 24.062 269.839 24.16C270.068 24.266 270.603 24.008 270.799 24.16C271.384 24.615 272.108 25.731 272.238 26.32C272.312 26.646 272.84 26.519 273.198 26.56C273.34 27.634 274.905 28.063 275.598 28.96C275.851 29.288 275.815 29.83 276.077 30.16C276.823 31.096 277.954 31.896 278.477 33.04C278.899 33.961 278.771 34.906 279.197 35.68C279.884 36.927 280.966 37.743 281.357 39.76C281.727 41.666 281.859 45.09 281.117 46.72C281.611 47.991 282.354 48.733 281.597 50.08C282.469 51.835 283.441 53.581 282.557 55.84C280.893 56.416 280.118 59.048 281.117 60.88C281.524 61.513 282.377 61.701 283.037 62.08C282.964 62.807 282.295 62.937 282.558 64C282.051 63.707 281.884 63.074 281.598 62.56C278.905 62.026 278.578 63.861 277.037 64.48C277.196 66.087 276.364 67.342 277.517 68.08C280.291 67.975 281.088 65.891 282.557 64.48C282.469 64.888 282.745 64.933 283.036 64.96C282.685 68.209 280.293 69.417 277.036 69.76C276.943 72.13 275.912 75.084 277.036 77.2C278.375 77.302 279.697 77.419 279.917 78.64C279.721 79.244 278.821 79.145 277.996 79.12C278.808 80.175 281.469 80.302 280.396 82.48C279.275 82.641 279.017 81.939 278.476 81.52C278.01 82.206 279.524 84.368 277.996 84.88C277.079 85.077 277.714 83.723 276.797 83.92C276.287 84.371 276.792 85.835 276.076 86.08C276.625 86.731 277.987 86.569 278.476 87.28C278.987 88.827 277.974 89.031 277.516 90.16C277.386 91.01 278.366 90.75 278.236 91.6C278.399 93.843 276.426 93.95 276.076 95.68C276.946 97.323 279.719 98.284 279.917 100.96C280.071 103.051 278.24 105.476 277.996 108.16C277.734 111.049 278.409 114.032 276.797 116.08C276.949 115.885 276.107 116.563 275.837 116.8C275.302 117.269 275.183 117.314 274.397 117.52C273.871 117.658 273.581 118.408 273.437 118.48C272.746 118.827 271.63 118.619 271.277 119.44C270.067 119.646 269.935 119.505 268.637 119.44C268.376 119.5 268.474 119.917 268.157 119.92C267.415 120.938 267.086 122.368 265.997 123.04C264.193 123.304 262.48 123.367 261.197 124C259.715 124.732 259.128 126.233 258.077 127.36C257.382 132.105 255.017 135.18 254.237 139.84C253.461 139.543 254.053 140.616 253.277 140.32C253.412 142.535 251.864 143.066 251.838 145.12C250.925 144.767 251.79 146.192 250.878 145.84C250.72 146.571 250.6 147.277 250.157 148.24C250.025 148.529 249.561 148.524 249.437 148.719C249.128 149.205 249.336 149.628 248.958 150.159C248.221 151.19 246.57 153.34 246.558 154.959C246.789 155.447 247.48 155.478 248.238 155.439C249.345 157.753 249.167 161.177 246.078 161.199C244.004 163.444 243.994 167.755 241.998 170.079C242.254 170.864 243.06 171.097 243.679 171.518C243.233 173.953 242.248 175.848 240.559 177.039C240.797 178.896 239.536 180.415 239.119 182.079C238.864 183.099 239.021 184.199 238.64 185.199C237.952 186.998 237.559 190.434 236.72 192.879C236.158 194.516 235.401 197.231 235.28 199.359C233.738 200.377 234.273 203.471 232.4 204.159C232.316 206.955 230.449 207.968 230.48 210.879C228.678 213.317 227.09 215.97 224.72 217.839H222.56C223.183 224.029 225.656 231.692 225.2 238.959C225.271 239.447 225.681 239.599 225.921 239.919C225.559 243.236 225.827 246.107 225.921 249.519C225.248 249.807 224.265 249.784 223.28 249.759C222.054 247.448 221.777 244.994 222.08 241.599C222.213 241.067 221.622 241.258 221.601 240.879C220.765 235.467 219.984 230.281 218.721 225.519C218.598 225.055 218.455 225.126 218.241 224.799C218.671 221.97 217.001 221.24 217.281 218.559C216.591 218.531 217.157 217.244 216.321 217.36C216.46 216.452 216.239 216.111 215.842 215.44C215.535 214.922 215.733 214.804 215.362 214C214.921 213.043 214.415 211.152 213.682 209.92C213.332 209.332 213.291 209.544 212.962 208.72C212.819 208.365 212.754 208.441 212.482 207.76C212.008 206.577 211.108 205.028 212.482 203.68C214.082 203.601 215.653 203.549 216.082 204.64C216.328 204.406 216.568 204.166 216.803 203.92C216.378 202.585 215.308 201.895 214.403 201.04C211.688 201.687 207.72 200.3 205.763 201.04C207.636 201.359 209.545 202.997 211.523 201.76V202.72C211.765 203.442 210.988 203.146 210.563 203.2C209.416 205.969 207.426 207.175 207.923 211.12C204.883 215.2 200.266 217.703 196.163 220.72C195.741 220.738 196.091 221.397 195.923 221.68C195.8 221.887 194.816 222.055 194.723 222.16C192.862 224.261 192.209 227.216 190.403 229.36C189.631 229.307 189.387 229.784 188.483 229.599C187.944 229.178 188.01 228.152 187.763 227.44C186.151 227.188 185.659 228.055 184.643 228.4C184.373 230.03 186.105 229.658 187.043 230.08C187.921 230.594 188.259 231.49 188.963 232.24C190.461 233.837 192.612 235.278 193.763 237.28C194.361 238.32 194.499 239.704 194.963 240.88C195.054 241.111 195.377 240.98 195.443 241.12C196.154 242.634 195.798 244.837 197.363 245.92C197.151 246.508 196.644 246.801 196.883 247.84C194.749 248.272 193.74 248.272 192.083 247.361C190.479 242.884 187.138 240.145 184.883 236.321C184.448 240.575 188.619 243.383 187.283 248.56C185.696 249.773 182.082 248.958 179.843 249.52C177.977 247.626 178.662 243.181 176.723 241.361C176.716 240.088 175.428 240.095 175.523 238.72C173.675 238.088 171.054 238.23 168.563 238.241C169.217 239.906 169.779 241.665 170.003 243.761C170.773 245.073 172.091 247.57 170.963 249.282H169.523C168.026 246.619 168.801 241.683 167.603 238.721C166.075 239.113 164.072 239.03 162.803 239.681C161.123 238.961 158.67 239.014 157.523 237.761C153.307 237.738 151.185 235.619 149.123 233.442C147.287 233.284 146.509 231.367 145.283 230.322C144.537 229.686 143.625 229.879 143.363 228.882C141.091 228.434 139.398 227.407 138.083 226.002C137.166 226.207 137.904 227.397 138.323 227.682C138.098 228.912 139.324 229.982 139.523 231.042C139.738 232.188 139.42 233.616 139.523 234.882C139.664 236.617 140.28 238.296 140.483 239.922C140.901 243.27 141.649 246.285 142.163 249.282C140.644 250.498 139.143 248.782 137.843 248.322C137.045 246.419 137.434 244.434 137.123 242.561C136.869 241.034 136.253 239.716 136.163 238.001C135.991 234.715 136.246 229.751 134.723 227.201C133.696 225.482 132.169 225.234 132.323 222.64C132.374 221.791 133.326 221.036 133.043 220.241C132.267 219.177 131.608 217.995 129.923 217.841C129.189 216.575 128.545 215.219 127.283 214.481C127.305 213.419 126.978 212.707 126.323 212.322C125.736 210.864 126.997 209.646 125.363 208.721C126.49 206.843 125.504 204.501 125.843 202.242C125.905 201.835 126.169 201.026 126.323 200.561C126.646 199.593 127.041 196.862 126.803 194.801C126.742 194.275 126.419 194.473 126.323 194.081C126.148 193.363 126.71 192.125 125.843 191.681C126.133 188.112 125.449 184.681 125.843 181.601C125.91 181.078 126.212 181.271 126.323 180.881C126.456 180.416 126.24 179.872 126.323 179.442C126.582 178.096 127.679 176.972 127.283 175.601C128.594 175.072 127.892 172.531 129.203 172.001V169.601C131.484 166.522 132.582 162.261 134.723 159.041C135.34 155.259 137.853 153.371 138.563 149.681C139.339 149.978 138.747 148.905 139.523 149.202C139.752 147.991 139.95 146.749 140.963 146.322C140.707 145.148 141.49 144.768 141.923 143.922C142.357 143.075 142.425 142.448 142.883 141.762C143.219 141.258 142.933 140.906 143.363 140.082C143.471 139.875 144.205 139.663 144.323 139.362C144.422 139.11 144.181 138.628 144.323 138.402C144.478 138.156 145.131 138.124 145.283 137.922C145.43 137.727 145.192 137.194 145.283 136.962C145.407 136.647 146.215 136.311 146.243 136.242C146.385 135.901 146.135 135.397 146.243 135.042C148.21 133.329 148.825 130.264 151.043 128.802C150.94 127.813 151.679 127.568 151.763 126.642C151.893 125.2 150.901 123.544 151.043 122.082C151.228 120.172 152.273 119.371 152.003 117.522C151.834 116.361 151.411 114.289 151.523 112.482C149.88 111.825 149.377 111.108 147.683 109.842C146.883 109.244 145.947 108.924 145.283 108.402C145.028 108.201 145.061 107.635 144.803 107.442C144.386 107.129 143.791 107.196 143.363 106.722C143.253 106.599 143.486 106.109 143.363 106.002C143.188 105.848 142.627 105.667 142.403 105.282C141.928 104.466 141.973 103.449 141.443 102.642C141.255 102.355 140.848 101.808 140.483 101.442C139.499 100.455 137.551 99.488 136.163 98.562C134.989 97.779 134.246 97.104 133.043 96.162C131.055 90.149 125.342 87.863 122.483 82.722C122.745 79.746 122.126 76.823 122.483 74.322C122.838 71.833 124.441 70.678 125.363 69.042C126.204 68.683 127.139 68.418 127.283 67.362C130.237 65.414 133.847 64.151 136.403 61.602C136.676 61.33 136.912 61.099 136.883 60.642C137.802 60.761 138.153 60.311 138.323 59.682C139.529 59.768 140.056 59.175 140.723 58.722C148.047 57.721 153.029 62.241 158.963 59.682H161.843C162.316 59.115 163.644 59.402 164.003 58.722C168.67 58.122 174.677 59.525 178.883 58.722C179.372 58.628 179.258 58.434 179.603 58.242C181.538 58.577 181.928 57.367 183.443 57.282C186.421 55.004 190.539 53.513 194.963 53.922C195.355 53.958 195.507 54.304 195.923 54.402C196.784 54.604 197.953 54.262 198.803 54.402C199.317 54.487 199.138 54.762 199.523 54.882C199.887 54.995 200.349 54.801 200.723 54.882C201.237 54.993 200.944 55.243 201.202 55.362C201.533 55.515 202.431 55.284 202.642 55.362C202.694 55.382 202.589 55.822 202.642 55.842C203.457 56.151 204.215 56.166 205.282 56.322C205.679 56.38 205.918 56.728 206.242 56.802C206.831 56.936 207.691 56.275 207.923 57.282C210.504 55.927 214.836 57.274 217.042 55.362C217.686 54.804 218.505 54.716 220.162 54.402C220.883 54.265 221.415 53.637 222.803 53.922C223.447 53.607 224.078 53.278 224.723 52.962C226.825 53.144 228.042 52.442 229.283 51.762C229.308 47.867 230.081 44.72 232.403 43.122C232.174 42.232 231.822 41.463 231.443 40.722C230.362 41.691 229.975 39.189 229.043 38.562C229.341 37.21 229.981 35.427 230.964 34.242C231.4 33.717 232.15 33.057 232.403 32.322C232.618 31.701 231.819 30.917 232.883 30.642C232.505 30.459 232.524 29.88 231.923 29.922C231.966 26.766 231.522 23.121 234.803 23.202C235.345 25.989 233.177 28.34 234.323 30.162C234.501 30.979 233.439 30.558 233.363 31.122C233.55 31.735 233.959 32.126 234.323 32.562C233.806 33.485 233.763 34.882 233.844 36.402C233.153 36.431 232.273 36.271 231.924 36.642C232.108 37.82 232.484 37.556 231.924 38.562C232.351 39.01 232.533 38.367 233.363 38.562V39.762C235.132 39.712 236.684 38.764 238.163 39.762V41.442C239.625 42.221 240.732 43.354 243.203 43.122C243.349 44.068 241.886 43.404 241.283 43.602C241.161 44.684 242.179 44.627 243.203 44.562C243.546 45.624 242.391 45.19 242.483 46.002C242.762 45.963 242.91 46.055 242.963 46.242C243.271 46.689 243.676 45.211 244.643 45.522C244.932 47.153 245.135 48.869 245.122 50.802C243.475 50.755 242.954 51.834 242.242 52.722C240.885 52.959 240.994 51.729 240.082 51.522C238.915 51.555 238.912 52.751 238.162 53.202C237.852 54.392 238.743 54.381 238.642 55.362C238.129 55.25 238.185 55.705 238.162 56.082C236.994 56.522 236.817 55.615 235.282 55.842C234.611 53.873 233.357 52.487 233.843 49.362C234.591 48.831 235.09 48.049 236.242 47.922C236.417 47.377 235.81 46.05 236.722 46.242C236.344 46.059 236.364 45.48 235.762 45.522C234.653 46.493 234.235 48.154 232.882 48.882V52.722C232.793 53.13 233.069 53.175 233.361 53.202C232.83 53.55 233.185 54.786 232.401 54.882C232.317 52.695 231.395 49.743 231.922 47.442C232.257 45.974 233.384 45.606 233.842 44.562C234.944 44.704 235.687 44.487 236.241 44.082C237.632 44.532 239.111 44.892 239.121 46.722C239.893 45.991 239.543 44.368 239.361 43.122C238.454 42.774 238.901 43.781 238.161 43.602C237.717 42.804 236.056 42.992 235.281 43.122C234.738 43.213 235.072 43.477 234.802 43.602C234.474 43.752 233.925 43.442 233.602 43.602C232.633 44.08 232.335 45.455 231.442 45.522C230.226 48.664 231.63 52.386 231.922 55.362C232.131 57.493 232.087 59.579 233.361 60.642H235.041C235.749 59.51 236.162 58.082 238.161 58.242C238.928 59.555 238.513 62.051 240.081 62.562C240.567 66.088 238.175 66.735 237.682 69.282C238.011 69.753 239.153 69.412 239.602 69.762C238.959 73.223 242.226 73.722 241.041 76.962C241.313 77.73 242.196 77.887 242.481 78.642C243.267 78.148 243.12 76.72 243.441 75.762C245.287 78.073 243.643 82.094 242.001 83.202C241.759 84.101 242.997 84.745 242.481 85.122C241.249 85.534 240.864 82.588 241.281 81.282C240.853 80.479 240.232 81.261 239.121 81.042C239.282 80.001 239.131 79.272 237.922 79.602C237.861 78.902 238.373 78.774 238.642 78.402C238.108 78.056 237.945 77.339 237.202 77.202V76.242C235.444 74.88 234.922 72.283 233.843 70.242C233.754 69.37 234.282 67.882 232.883 68.322C234.173 70.712 232.527 76.038 233.843 78.402C233.476 80.209 234.557 80.568 234.322 82.242C235.013 82.271 234.446 83.558 235.282 83.442C235.748 87.376 237.927 89.598 238.642 93.282C239.05 93.194 239.095 93.47 239.121 93.762C240 93.733 241.622 93.983 242.241 93.282C243.711 91.62 245.794 87.961 245.601 86.802C245.417 85.695 244.168 85.467 243.681 84.642C243.551 82.912 243.491 81.284 244.881 80.562C246.212 81.63 246.232 84.011 247.761 84.882C248.486 83.116 247.28 80.892 248.481 79.602C248.934 79.869 249.584 79.939 249.681 80.562C250.601 80.602 250.044 79.165 251.361 79.602C250.927 80.288 250.689 81.17 249.922 81.522C250.4 82.084 250.475 83.049 250.401 84.162C250.932 85.071 251.93 85.512 251.841 87.042C253.468 88.375 254.391 90.411 254.721 93.042C255.097 92.969 256.045 92.737 256.401 93.762C258.261 92.182 260.416 90.897 262.881 89.922C264.038 90.596 263.087 91.608 262.881 92.802C261.632 92.948 261.131 93.436 260.24 92.802C259.78 93.382 260.089 94.731 260 95.682C261.896 95.258 262.012 93.053 264.08 92.802C264.398 91.12 264.712 89.434 266.721 89.442C266.867 91.216 268.658 91.345 269.361 92.562C271.445 91.846 273.77 94.461 276.081 92.802C275.984 91.38 274.302 91.541 273.682 90.642C273.345 89.346 274.329 89.37 274.402 88.482C274.16 87.951 273.576 89.073 272.722 88.722C272.629 88.094 271.952 88.052 272.242 87.042C270.983 87.063 271.768 89.128 270.803 89.442C271.092 87.633 269.971 87.234 270.323 85.362C268.075 85.754 267.086 87.405 265.523 88.482C264.782 87.284 266.215 85.407 264.323 84.882C262.06 84.255 258.094 88.972 256.163 85.602C256.011 84.49 257.475 84.994 258.323 84.882C259.967 83.326 261.657 81.816 262.643 79.602H263.603C263.232 77.951 265.069 78.508 264.563 76.722C265.307 76.778 265.312 77.573 265.523 78.162C266.657 78.068 267.004 78.76 267.203 79.602C267.777 79.296 266.964 77.602 268.403 78.162C268.645 76.799 267.874 76.451 267.443 75.762C268.516 74.296 266.973 72.778 265.763 72.162C262.623 74.543 262.041 79.48 259.042 82.002C258.869 82.735 259.288 82.877 259.282 83.442C258.5 84.02 257.08 83.96 255.682 83.922C255.718 82.678 255.783 81.463 257.121 81.522C257.287 80.556 256.11 80.933 256.161 80.082C256.587 80.137 257.363 79.84 257.121 80.562C258.55 79.781 258.12 78.078 258.561 76.722C259.267 74.554 260.67 73.397 262.401 72.402C261.734 71.131 260.861 72.854 259.521 72.402C259.685 71.046 260.502 70.344 261.441 69.762C261.411 69.073 261.141 68.622 260.241 68.802C259.659 68.025 259.012 67.312 258.081 66.882C258.024 65.9 257.267 65.617 257.121 64.722C256.167 64.317 255.346 63.778 255.201 62.562H256.882C257.812 60.532 261.715 61.476 263.121 59.922C262.124 59.631 259.475 59.513 258.081 59.682C257.616 59.738 257.317 59.626 257.361 60.162C256.397 59.182 257.897 58.63 258.081 58.002C258.001 57.676 257.481 57.803 257.121 57.762L257.119 57.76ZM242.719 47.68C243.299 48.915 243.339 46.854 242.719 47.68V47.68ZM192.559 56.56C190.828 56.619 189.374 57.562 188.719 58.24C191.251 58.372 192.012 56.733 194.959 57.28C194.684 56.596 193.271 56.536 192.559 56.56V56.56ZM197.359 57.76C197.132 58.628 198.304 58.095 198.799 58.24C198.743 57.348 197.948 57.567 197.359 57.76ZM150.799 95.68C148.5 95.861 147.274 97.115 144.799 97.12C144.918 96.201 144.469 95.85 143.839 95.68C143.251 95.892 142.959 96.399 141.919 96.16C141.932 95.427 141.055 95.584 141.199 94.72C140.13 94.531 139.603 94.884 139.039 95.2C139.159 93.88 137.9 93.939 137.599 93.04C140.059 90.637 143.404 93.952 146.719 92.08C145.997 92.322 146.294 91.545 146.239 91.12C147.92 90.558 150.246 89.37 151.759 89.44C151.382 89.463 150.926 89.408 151.039 89.92C151.464 89.975 152.241 89.678 151.999 90.4C152.786 90.387 152.916 89.717 153.919 89.92C153.623 90.697 154.696 90.104 154.399 90.88H157.039C157.932 92.976 161.099 90.756 162.319 91.84H160.879C161.648 94.189 164.508 92.08 165.919 92.56C165.859 92.072 166.797 91.395 167.119 92.08C166.878 92.559 166.057 92.459 166.159 93.28C171.587 93.927 173.32 89.345 178.159 90.88C178.58 90.421 179.057 90.019 179.839 89.92C180.019 89.181 179.012 89.628 179.359 88.72C182.143 87.743 184.427 86.268 186.559 84.64C186.916 83.477 186.57 81.611 187.999 81.52C188.699 82.1 188.578 83.501 189.679 83.68C188.907 84.701 187.24 85.723 187.999 87.52C187.699 88.5 185.767 87.848 186.079 89.44C189.236 88.017 191.672 88.992 195.439 89.2C195.471 90.128 196.413 90.146 196.639 90.88C195.896 92.057 193.83 91.911 192.799 92.8C195.852 92.733 197.599 91.36 200.239 90.88C201.007 89.087 202.027 87.548 204.079 87.04C204.38 86.14 204.372 84.932 205.519 84.88C205.394 83.363 206.014 82.296 207.679 82C208.825 84.042 207.259 86.093 208.639 87.52C206.523 88.176 208.142 91.169 206.239 91.84C207.252 95.128 203.258 94.96 203.359 98.08C201.344 98.785 200.118 100.279 197.599 100.48C195.916 99.152 193.181 101.41 191.359 100C190.041 100.761 187.821 100.622 186.559 101.44V102.88C187.197 103.042 187.781 103.258 188.239 103.6C187.292 103.292 187.658 104.299 187.039 104.32C186.962 105.277 187.026 106.093 187.519 106.48C184.824 107.395 182.017 109.492 179.119 110.32C177.797 110.698 176.416 110.783 176.479 112.24C177.878 111.879 178.928 111.168 180.319 110.8C180.527 111.729 179.918 111.839 179.599 112.24C177.412 112.453 176.299 113.74 173.839 113.68C173.849 114.697 172.727 114.582 173.359 115.6C174.616 114.705 176.885 114.451 178.639 114.16C178.885 114.119 180.653 112.841 180.799 114.16H178.879C178.921 114.761 178.342 114.743 178.159 115.12C175.612 115.933 172.27 115.951 170.959 118C171.632 118.879 172.253 118.187 173.119 118C172.839 119.48 170.856 119.257 169.999 120.16C170.709 122.009 167.936 123.57 169.759 124.96C168.844 125.005 168.179 125.301 168.079 126.16C168.254 126.705 168.801 126.878 169.279 127.12C169.156 126.293 170.846 126.054 170.959 126.88C169.956 127.557 167.888 127.17 168.079 129.04C169.753 128.914 171.624 127.841 172.879 128.08C172.439 129.32 170.087 128.648 169.519 129.76H168.079C167.543 130.845 167.839 132.343 169.039 132.401C168.523 132.925 167.808 133.25 168.079 134.56C168.805 135.051 169.464 134.119 169.519 135.281C169.051 135.532 168.561 135.762 168.079 136.001C167.822 136.897 168.675 136.685 168.559 137.441C169.408 137.652 169.795 136.824 169.999 137.68C169.277 137.998 168.302 138.064 168.559 139.361C168.946 139.933 170.673 139.166 170.719 140.081C169.089 139.885 168.105 141.129 168.559 142.48C168.646 142.74 169.003 142.73 169.039 142.96C169.368 145.079 169.362 145.59 169.039 147.04C169.065 147.493 169.832 147.206 169.759 147.76C169.087 150.486 170.262 152.298 169.519 154.72C169.54 155.099 170.131 154.908 169.999 155.441C169.425 156.947 169.619 159.22 168.559 160.241C168.58 160.619 169.171 160.429 169.039 160.961C168.806 161.848 168.365 162.527 167.119 162.401C167.191 161.928 166.795 161.924 166.639 161.68C167.806 159.955 167.054 157.433 167.119 154.72C166.359 154.106 165.43 155.144 165.199 154C166.262 154.023 166.994 153.716 167.119 152.8C167.118 151.842 165.659 152.34 165.199 151.84C165.732 151.653 165.842 151.043 166.639 151.12C166.812 150.387 166.393 150.245 166.399 149.68C165.902 149.537 164.822 149.977 164.719 149.441C164.974 148.976 166.101 149.383 166.159 148.72C166.305 147.135 164.276 147.723 163.759 146.8C164.213 146.746 164.288 147.071 164.719 147.04C164.371 146.133 165.378 146.579 165.199 145.84C164.786 144.672 163.282 145.069 162.799 145.12C162.572 144.253 163.744 144.785 164.239 144.64C164.754 142.677 162.193 141.801 163.76 140.321C163.032 140.088 162.961 139.199 162.32 138.881C163.481 138.531 162.616 136.454 161.84 136.481H162.8V135.042C161.017 134.524 159.288 136.126 158.48 135.042C160.426 135.388 160.582 133.943 162.32 134.082V132.642H160.4C160.149 133.911 158.274 133.556 157.52 134.323C157.405 135.078 157.862 135.261 158 135.762C157.515 136.477 156.376 136.538 156.56 137.922C157.966 138.049 157.89 136.692 159.44 136.962C159.368 137.434 159.764 137.438 159.92 137.682C158.587 138.428 155.923 137.845 156.08 140.082C156.652 140.888 157.819 139.606 158 140.082C158.003 140.399 158.42 140.302 158.48 140.561H156.32C155.958 141.16 155.578 141.739 155.36 142.481C155.659 143.191 156.7 143.157 157.04 143.202C155.278 143.263 153.931 145.258 155.12 146.802C154.182 146.744 154.251 147.694 153.92 148.242C154.147 148.655 154.807 148.635 154.64 149.442C153.555 149.933 153.939 151.685 154.4 152.561C152.686 152.768 153.531 155.533 151.52 155.442C151.541 154.545 151.789 154.757 151.52 154.002C150.999 153.563 150.034 153.567 149.6 153.042C150.118 152.811 151.058 152.369 150.56 151.842C149.95 151.332 148.94 151.222 148.16 150.882C148.676 150.679 148.716 149.998 148.64 149.202C147.112 149.273 146.531 150.293 146.72 152.082C145.504 152.146 144.865 152.786 144.8 154.002C146.159 154.774 147.657 152.835 149.12 153.762C148.771 154.133 147.891 153.974 147.2 154.002C146.65 155.531 144.001 154.963 143.36 156.402C143.163 157.319 144.517 156.684 144.32 157.601C143.216 157.938 142.24 158.402 141.92 159.522C142.341 159.741 143.118 159.604 143.36 160.001C140.097 160.657 139.431 163.912 136.88 165.281C136.71 166.171 137.29 166.31 137.12 167.201C135.966 167.304 135.585 168.717 135.92 169.6C137.76 169.772 140.102 167.932 140.96 169.121C138.744 169.385 137.119 170.24 134.96 170.56C134.886 171.29 134.066 171.996 134.72 172.72C134.282 173.323 133.63 173.711 133.04 174.16V176.08C131.882 176.282 131.676 177.436 130.64 177.76C131.02 179.341 130.01 179.531 129.68 180.401C129.629 181.252 130.805 180.875 130.64 181.84C130.101 182.422 128.845 182.284 129.2 183.76C132.17 183.887 135.658 182.117 138.08 183.281C135.057 183.857 131.186 183.587 129.2 185.201C128.96 186.24 129.468 186.533 129.68 187.121C127.938 188.024 129.782 189.576 128.72 190.961C129.874 191.857 128.896 193.409 130.16 194.081V196.48C130.587 196.613 131.157 196.604 131.36 196.96C130.354 196.834 130.409 197.769 130.16 198.4C130.518 198.681 130.443 199.397 131.12 199.36C131.629 198.835 133.707 197.983 134 199.36C132.353 198.993 132.138 200.057 130.64 199.839C130.3 201.435 130.624 201.995 131.12 203.199C130.28 203.638 129.461 204.1 129.68 205.598C130.657 205.996 130.911 204.455 131.6 205.359C131.293 206.333 129.881 206.2 129.2 206.798V207.998C129.645 208.433 130.92 208.038 131.12 208.718C130.525 209.004 129.769 209.128 129.68 209.918C130.207 210.831 131.008 211.47 130.64 213.278C131.455 214.038 132.424 213.198 133.04 213.998C132.079 213.917 131.966 214.685 132.08 215.678C133.067 215.571 132.825 216.694 134 216.399C133.827 217.132 134.246 217.273 134.24 217.838C135.1 218.258 135.796 219.326 136.88 218.798C138.597 217.962 141.652 216.103 142.4 218.319C140.181 218.42 137.823 218.382 136.88 219.758C136.97 220.788 138.085 220.793 139.28 220.718C139.489 222.35 140.818 222.861 142.88 222.638V224.078C143.926 224.782 145.168 224.597 146.24 224.798C145.922 225.36 145.05 225.368 145.28 226.478C146.338 226.837 146.933 226.233 147.68 226.718C146.767 226.526 147.375 227.853 147.2 228.399C148.039 228.92 149.627 228.691 150.56 229.119C149.924 229.123 149.147 228.986 149.12 229.598C149.396 230.202 150.124 230.354 150.56 230.798C151.39 230.508 152.15 230.149 153.44 230.319C153.622 229.214 155 229.61 155.84 229.359C157.246 228.938 158.682 228.134 160.4 228.399C161.802 227.797 163.825 226.547 165.68 227.199C164.235 227.994 162.744 228.743 160.4 228.638C158.134 230.292 153.441 229.519 151.52 231.518C151.942 231.577 152.067 231.931 152 232.478C152.673 232.766 153.656 232.743 154.64 232.718C154.438 232.997 154.323 233.362 154.4 233.918C155.462 234.808 156.998 233.983 158.24 234.398C159.055 233.373 160.696 233.173 162.56 233.198C163.044 232.562 164.05 232.448 165.2 232.477C168.346 229.864 172.986 228.744 177.44 227.438C177.422 227.019 177.494 226.691 177.68 226.477C175.549 226.202 173.513 227.566 171.44 227.917C171.065 227.98 170.602 227.807 170.24 227.917C168.508 228.444 166.849 229.922 164.96 230.317C162.862 230.755 161.743 231.766 159.92 231.277C162.9 230.497 164.953 228.79 168.32 228.397C168.484 227.92 169.051 227.847 169.28 227.437C172.365 226.522 175.374 225.531 178.88 225.037C179.611 224.488 179.993 223.59 181.28 223.597C181.681 221.759 182.165 220.002 184.16 219.757C184.492 218.317 184.408 218.882 184.16 217.358C185.613 216.63 188.088 215.368 186.56 213.757C187.964 213.561 188.393 212.391 189.44 211.837C189.754 208.711 192.958 208.476 193.04 205.117C194.046 204.401 195.72 203.486 194.96 201.757C196.409 201.111 199.078 199.445 197.84 197.677C198.911 197.707 199.117 196.874 200.24 196.957C200.174 195.47 202.064 194.864 201.2 193.357C202.629 193.345 202.777 192.053 204.08 191.917C204.274 188.19 208.226 188.223 209.12 185.197C207.809 184.636 208.232 185.333 207.2 185.197C206.622 185.121 206.086 184.107 205.28 184.237C204.911 184.508 204.689 184.926 204.32 185.197C202.668 184.989 201.892 186.923 200.24 185.917C200.495 185.452 201.623 185.859 201.68 185.197C201.64 183.877 200.207 183.95 199.28 183.516C199.207 182.883 199.781 182.898 200.24 182.796C200.382 181.694 200.166 180.95 199.761 180.397C200.39 180.226 200.84 179.876 200.721 178.957C198.124 176.345 194.677 180.706 192.321 179.677C192.53 179.006 192.944 178.54 193.521 178.238C192.577 178.622 193.438 177.201 192.801 177.278C192.619 177.674 190.823 177.674 190.641 177.278C190.775 175.229 190.808 174.299 191.361 172.477C190.59 171.715 189.682 172.57 189.201 171.517C189.572 170.547 187.603 168.232 189.201 167.677C189.483 167.579 189.447 168.175 189.681 168.157C189.9 167.736 189.764 166.96 190.161 166.717C191.179 166.3 191.68 167.111 192.561 167.197C194.671 167.404 196.631 166.139 198.801 166.957C197.562 167.748 198.908 168.944 199.281 169.597C197.591 169.973 198.76 171.453 198.801 172.717C200.051 172.827 200.626 173.613 202.161 173.438C202.504 174.376 202.751 175.408 203.842 175.597C204.887 173.085 210.45 173.306 209.362 177.517C212.1 177.696 212.709 175.745 213.442 173.917C213.02 173.779 212.032 174.207 212.002 173.677C213.5 173.154 215.631 172.526 215.362 169.597C214.738 170.04 213.043 171.333 212.242 170.077C213.861 169.216 216.585 169.46 216.322 166.717C215.354 166.252 215.215 167.819 214.642 166.957C215.413 166.128 217.24 166.355 216.802 164.317C216.112 163.981 215.582 164.97 215.362 164.317C215.442 162.796 217.613 163.368 217.762 161.917C216.922 160.685 217.711 159.891 218.241 158.797C216.797 159.41 214.14 159.519 214.401 157.117C214.023 156.695 213.116 156.803 212.721 156.397C213.234 155.253 213.265 154.347 212.481 153.517C213.058 152.973 214.391 153.187 214.401 152.077C212.783 151.744 211.154 152.662 210.081 152.077C209.785 151.301 210.858 151.893 210.561 151.117C208.707 149.952 206.459 151.123 204.801 151.596C203.919 150.638 202.401 150.317 201.681 149.197C201.851 148.567 202.202 148.118 203.12 148.237C203.49 147.226 201.879 148.199 201.921 147.517C202.363 146.919 202.499 146.015 202.881 145.357C203.568 145.309 204.191 145.327 204.08 146.077C203.839 146.556 203.019 146.456 203.12 147.277C204.5 146.744 204.613 145.682 206 145.837C207.194 145.97 207.454 147.714 208.641 147.997C209.103 147.714 208.119 146.477 209.12 146.317C211.111 146.406 211.67 147.927 213.921 147.756C214.411 148.406 215.572 149.765 214.4 150.636C212.184 150.853 211.281 149.755 209.84 149.197C210.006 151.431 212.441 151.396 214.64 151.596C215.036 152.56 216.703 152.253 217.28 153.036C218.021 152.292 218.79 152.898 219.68 152.556C219.811 151.465 219.025 151.291 218.72 150.636C218.948 151.503 217.775 150.971 217.28 151.116C217.032 149.68 215.19 148.571 215.6 147.276C215.889 147.547 216.035 147.961 216.8 147.755C216.841 147.397 216.714 146.869 217.039 146.795H219.199C219.331 147.144 218.919 148.035 219.439 147.995C220.265 145.98 217.568 146.344 216.319 146.075C216.118 144.994 217.293 145.289 217.279 144.395C217.176 144.018 216.524 144.19 216.8 143.435C216.305 143.289 215.132 143.822 215.36 142.955C215.697 142.466 216.187 143.191 216.8 142.715V140.075C218.371 139.107 215.825 136.975 217.279 135.995C216.255 135.899 217.05 133.984 216.8 133.115C215.828 132.783 216.04 133.636 215.36 133.594C215.062 132.337 216.334 132.648 216.8 132.155V129.755C215.76 129.516 215.468 130.024 214.88 130.235C214.416 129.268 215.453 128.647 216.8 128.795V127.115C216.233 126.642 214.653 127.182 214.159 126.635C215.194 126.71 215.17 125.726 216.319 125.915C216.088 123.09 216.196 122.128 215.84 118.955C215.096 118.979 214.508 118.846 214.159 118.475C215.169 118.765 215.212 118.087 215.84 117.995C216.103 115.812 214.997 114.998 215.36 112.715C215.001 112.674 214.474 112.8 214.4 112.475C214.459 111.733 215.594 112.07 215.36 111.035C215.133 110.542 214.416 110.539 214.4 109.835C214.317 108.872 214.996 108.671 215.36 108.155C213.333 107.547 215.722 105.388 214.16 104.315C214.343 103.938 214.922 103.957 214.881 103.355C214.651 101.301 214.851 100.815 215.36 99.275C215.089 98.906 214.671 98.685 214.4 98.315C215.091 98.286 214.524 96.999 215.36 97.115C214.552 96.342 214.926 94.86 215.36 93.995C214.9 93.655 214.145 93.61 213.921 93.035C214.428 92.822 214.63 92.305 215.36 92.315C215.268 90.463 215.343 88.778 215.84 87.515C215.774 87.021 214.945 87.289 214.88 86.795C216.952 86.253 214.633 83.777 215.84 82.955C215.164 82.591 214.472 82.243 214.4 81.275C214.801 80.957 214.912 80.347 215.84 80.555V79.115C215.359 79.061 214.868 80.186 214.4 79.355C215.611 78.965 215.863 77.618 216.32 76.475C216.492 75.823 215.188 76.647 215.36 75.995C216.045 75.399 216.589 74.664 216.8 73.595C216.529 73.225 216.111 73.004 215.84 72.635C216.672 72.588 216.339 71.374 217.279 71.435C216.91 68.986 217.872 67.868 218.239 66.155C217.289 65.783 216.772 67.063 216.319 66.395C216.421 65.857 216.835 65.63 217.039 65.195H218.239C218.426 64.101 219.346 63.742 219.439 62.555C219.062 62.532 218.607 62.587 218.719 62.075C218.877 61.113 219.559 60.675 220.639 60.635C220.656 59.818 220.713 58.96 220.159 58.715C220.069 59.745 218.955 59.75 217.76 59.675C217.656 60.211 217.335 60.53 216.8 60.635V59.675C213.909 59.904 212.231 61.346 209.36 61.595C209.414 61.141 209.089 61.065 209.12 60.635C207.697 60.491 206.636 60.71 205.761 61.115C205.245 59.71 203.541 59.494 201.441 59.675C201.586 58.81 200.709 58.967 200.721 58.235C200.091 58.405 199.642 58.756 199.761 59.675C200.183 59.813 201.171 59.385 201.2 59.915C200.439 60.911 202.059 61.185 202.16 62.075C202.9 62.254 202.453 61.247 203.36 61.595C202.092 63.408 204.467 63.847 204.08 66.155C205.289 66.786 205.203 68.712 205.52 70.235C204.67 70.315 204.93 70.895 204.08 70.475C204.062 66.732 202.294 64.741 200.721 62.555V61.595C199.55 61.326 198.264 61.172 198.321 59.675C197.087 59.949 196.607 59.469 196.881 58.235C196.094 58.221 195.964 57.552 194.961 57.755C193.606 59.04 191.088 59.163 189.921 60.635C190.149 59.767 188.976 60.3 188.481 60.155C188.512 60.586 188.243 60.717 187.761 60.635C187.963 62.116 187.056 62.49 186.561 63.275C186.357 64.279 187.211 64.225 187.521 64.715C187.704 67.693 187.494 69.86 184.401 69.995C184.402 69.754 184.207 69.709 184.161 69.515C184.527 67.996 184.085 66.996 184.641 65.915C183.58 64.76 181.943 65.932 180.801 66.155C180.873 65.683 180.477 65.679 180.321 65.435C179.989 64.463 180.842 64.676 180.801 63.995C179.831 63.845 179.834 62.722 179.361 62.075C177.415 61.729 177.259 63.174 175.521 63.035C174.303 61.283 172.033 62.675 170.001 62.795C169.978 62.418 170.033 61.963 169.521 62.075C168.607 62.761 166.841 62.595 165.681 63.035C164.258 61.513 162.672 63.822 160.881 63.515C160.613 65.007 158.183 64.337 158.001 65.915C160.528 65.378 162.17 65.158 165.201 65.435C165.164 64.679 166.174 64.968 166.401 64.475C166.908 64.688 167.11 65.205 167.841 65.195C169.272 65.111 170.734 64.609 171.441 64.475C172.772 64.223 173.138 64.933 173.841 64.955C175.783 65.015 177.777 63.726 179.361 64.715C179.528 65.522 178.868 65.502 178.641 65.915C176.589 65.522 174.772 66.705 173.361 66.875C171.995 67.04 171.582 66.326 170.721 66.395C169.109 66.524 168.188 67.938 166.641 68.075C167.091 67.618 166.667 67.472 166.641 66.875C164.535 66.769 163.068 67.302 162.081 68.315C161.524 68.152 161.254 67.702 160.881 67.355C159.186 67.34 158.187 68.021 156.801 68.315C156.295 68.102 156.092 67.585 155.361 67.595C154.607 67.721 154.022 68.016 153.441 68.315C151.502 66.593 148.411 68.51 146.961 69.515C146.404 69.352 146.134 68.902 145.761 68.555C143.33 68.52 140.854 70.196 139.041 69.275C136.387 70.941 131.722 70.596 129.681 72.875C129.116 72.87 128.974 73.289 128.241 73.115C128.065 73.819 127.337 73.971 126.801 74.315C127.423 75.299 126.786 78.202 126.321 79.595C127.564 80.104 127.968 78.54 128.721 79.355C128.134 80.128 127.185 80.539 126.801 81.515C128.044 82.024 128.448 80.46 129.201 81.275C128.883 81.837 128.011 81.845 128.241 82.955C128.892 83.103 130.145 82.65 130.401 83.195C129.988 83.182 129.786 83.38 129.681 83.675C130.32 84.476 131.911 84.324 132.081 85.595C136.803 86.553 134.116 92.413 137.121 95.195H138.321C138.177 96.059 139.054 95.902 139.041 96.635C140.259 95.489 141.384 97.105 142.401 97.595C143.379 97.993 143.632 96.451 144.321 97.355C144.003 97.917 143.132 97.925 143.361 99.035C145.166 99.08 145.594 97.747 147.681 98.075C148.571 96.485 151.444 96.878 151.761 94.715C150.673 94.268 151.343 95.578 150.8 95.675L150.799 95.68ZM169.519 231.28C166.741 231.542 165.553 233.394 162.559 233.44C162.223 233.904 161.67 234.151 161.119 234.4C160.287 234.528 158.843 234.044 158.719 234.879C162.411 235.455 164.087 233.978 166.399 233.44C168.096 233.044 168.753 233.068 169.759 232.479C171.319 231.567 172.325 230.63 173.599 229.839C171.749 229.829 170.5 230.419 169.519 231.279V231.28ZM226.879 59.2C226.567 59.896 226.567 60.903 226.879 61.6C228.347 61.332 227.746 63.132 229.519 62.56C229.758 61.52 229.25 61.228 229.039 60.64C230.124 60.524 229.63 58.83 229.999 58C228.399 56.97 228.239 59.21 226.879 59.2V59.2ZM184.159 60.16C185.244 60.126 186.727 60.488 186.559 59.2H184.159V60.16ZM182.239 63.28C183.016 62.984 182.423 64.057 183.199 63.76C183.933 62.791 182.215 62.616 182.719 61.12H180.799C180.779 62.274 183.649 62.234 182.239 63.28V63.28ZM224.959 61.6C224.16 63.226 221.392 64.079 222.318 66.64C221.494 67.604 220.353 69.817 220.158 71.68C220.08 72.428 219.796 73.815 220.638 74.32C221.773 73.775 221.78 72.102 223.037 71.68C223.081 70.364 224.108 70.031 223.758 68.32C223.61 67.748 222.712 67.926 223.037 66.88C223.926 66.952 223.901 67.937 225.197 67.6C226.399 66.642 227.541 65.623 228.557 64.48C228.177 62.94 226.65 62.547 225.677 61.6H224.957H224.959ZM138.079 63.76V64.96C136.162 66.403 134.083 67.685 132.079 69.04C134.582 69.33 136.966 68.831 138.799 67.6C138.913 67.524 139.456 67.372 139.519 67.36C142.542 66.758 145.445 67.782 147.679 65.92C148.935 66.737 151.977 66.581 152.719 65.44C151.993 64.485 149.304 65.495 149.119 64C147.409 63.541 146.255 65.194 145.279 64C145.704 63.945 146.481 64.242 146.239 63.52C145.518 62.44 144.78 63.899 143.359 63.52V62.56C141.284 63.668 139.311 61.962 138.079 63.76V63.76ZM263.359 64C263.189 63.37 262.838 62.921 261.92 63.04C261.95 63.808 262.46 64.096 263.36 64H263.359ZM234.799 64C234.724 65.195 234.729 66.311 235.759 66.4C235.797 65.158 237.08 65.161 236.719 63.52C236.532 63.466 236.245 63.513 236.239 63.28C235.379 63.136 235.529 64.013 234.799 64V64ZM157.519 64.48C158.014 64.335 159.186 64.867 158.959 64H157.519V64.48ZM259.999 66.4C260.572 65.965 260.135 64.521 259.999 64H257.6C258.46 64.745 258.74 66.055 260 66.4H259.999ZM267.199 65.44C268.709 65.451 268.828 66.851 270.319 66.88C270.367 65.552 269.669 64.971 269.359 64C268.049 63.894 266.939 63.982 267.199 65.44V65.44ZM272.959 64.72C273.769 65.449 273.689 63.833 272.959 64.72V64.72ZM153.919 65.44C153.852 66.714 156.233 66.176 156.319 65.44C155.774 64.965 154.978 65.695 153.919 65.44ZM226.399 69.28C226.904 70.135 227.871 70.529 228.559 71.2C230.168 70.361 229.43 68.532 229.519 66.4C227.929 66.812 227.129 68.012 226.399 69.28V69.28ZM264.559 70C264.675 68.756 265.454 68.175 265.519 66.88C262.669 66.041 261.419 70.077 264.559 70ZM272.239 67.84C271.902 69.583 270.677 70.438 268.88 70.72C268.687 72.046 270.764 72.8 269.359 73.84C269.985 74.494 271.69 74.069 271.759 75.28C275.578 74.913 275.432 69.93 274.158 66.88C273.678 67.532 273.238 69.074 272.238 67.84H272.239ZM266.959 70C268.43 69.951 269.064 69.066 269.358 67.84C267.488 67.346 266.188 68.108 266.958 70H266.959ZM225.439 70.72C223.9 71.901 222.534 73.255 222.319 75.76C223.701 76.219 224.681 77.078 225.439 78.16C226.236 78.236 226.916 78.196 227.119 77.68C226.992 80.287 228.363 81.396 230.239 82C230.618 81.979 230.427 81.388 230.96 81.52C230.768 78.592 230.278 75.961 228.56 74.56C228.892 74.172 229.702 74.262 229.52 73.36C228.33 72.31 226.99 71.409 225.44 70.72H225.439ZM274.159 77.2C274.26 78.619 274.68 79.72 276.319 79.6C276.373 79.413 276.326 79.126 276.559 79.12C275.938 78.301 275.732 77.067 274.639 76.72C274.609 77.013 274.569 77.288 274.159 77.2V77.2ZM220.639 77.2C220.784 78.304 219.982 78.463 219.199 78.64C219.399 81.399 218.334 85.425 221.119 85.6C223.151 84.351 224.422 82.342 225.199 79.84C223.789 78.846 223.539 76.702 220.639 77.2V77.2ZM272.719 78.16C272.686 77.713 272.561 77.358 272.239 77.2C272.289 77.625 271.999 78.402 272.719 78.16ZM264.079 81.52C265.579 81.366 266.101 83.247 267.439 82.48C266.875 81.364 265.232 81.327 264.319 80.56C264.239 80.884 263.979 81.019 264.079 81.52V81.52ZM268.879 81.76C269.332 81.706 269.408 82.031 269.839 82C269.784 81.575 270.08 80.798 269.359 81.04C269.429 81.512 269.039 81.516 268.879 81.76V81.76ZM222.799 88.24C222.345 88.213 222.632 87.446 222.078 87.52C220.676 87.743 220.686 89.727 220.158 90.88C220.134 90.935 219.698 90.825 219.679 90.88C219.181 92.268 219.929 93.425 220.158 94C220.582 95.059 220.91 94.996 221.598 95.68C222.17 96.248 222.251 96.839 222.798 97.12C224.358 95.4 225.561 93.323 226.638 91.12C225.771 90.288 222.711 89.682 223.278 88.24C224.496 88.863 225.731 89.467 227.118 89.92C228.111 89.313 228.443 88.045 228.799 86.8C229.462 86.103 230.314 85.595 230.479 84.4C229.212 84.147 229.11 82.729 227.839 82.48C227.893 82.026 227.568 81.951 227.599 81.52C227.042 81.597 226.677 81.481 226.399 81.28C224.69 83.011 223.097 84.858 222.079 87.28C222.438 87.321 222.965 87.195 223.039 87.52C222.999 87.802 223.079 88.201 222.799 88.24V88.24ZM219.439 88.48C219.602 88.003 220.169 87.931 220.399 87.52C220.323 86.556 219.965 85.874 219.199 85.6C219.349 86.487 218.889 87.991 219.439 88.48V88.48ZM228.319 90.88C229.735 91.304 229.882 92.997 231.92 92.8C232.219 90.689 231.563 89.551 231.199 88.48C231.007 87.911 231.254 86.93 230.479 86.8C229.199 87.595 228.739 89.216 228.319 90.88ZM251.839 89.44C251.911 88.807 251.338 88.821 250.879 88.72C250.639 89.521 251.209 89.507 251.839 89.44ZM247.519 91.84C248.498 91.299 249.755 91.037 250.399 90.16C250.056 90.102 249.995 89.764 249.679 89.68C248.889 90.328 247.599 90.479 247.519 91.84V91.84ZM227.599 92.08C227.001 94.683 224.696 95.577 224.479 98.56C226.376 99.302 227.106 101.213 229.279 101.68C230.263 99.864 231.433 98.234 232.399 96.4C230.999 94.903 229.369 92.417 227.599 92.08ZM232.879 94.72H233.358V94.24H232.879V94.72ZM157.039 96.16H159.919C159.7 94.939 158.377 94.822 157.039 94.72V96.16ZM164.239 99.76C164.227 98.449 165.26 97.627 164.239 96.64H162.319C162.223 98.416 163.305 99.014 164.239 99.76ZM272.239 108.88C272.221 109.298 272.293 109.627 272.479 109.84C271.921 109.261 271.652 110.03 271.279 110.32C271.572 110.347 271.847 110.392 271.759 110.8C272.535 111.097 271.943 110.024 272.719 110.32C272.718 110.561 272.913 110.606 272.959 110.8C272.577 111.459 271.576 111.498 271.759 112.72C272.24 112.774 272.731 111.649 273.198 112.48C272.508 114.75 268.111 113.313 267.919 116.08C270.302 115.343 272.23 114.151 274.879 113.68C274.873 113.115 275.292 112.973 275.118 112.24C274.696 112.102 273.708 112.53 273.679 112C274.377 111.339 275.628 111.23 275.839 110.08C275.515 109.455 274.163 110.232 274.158 109.84C274.368 109.25 275.22 109.303 275.118 108.4C273.938 108.34 272.808 108.332 272.238 108.88H272.239ZM275.119 106.24C274.286 105.488 273.849 106.98 273.199 106.24C274.011 105.612 275.11 105.271 275.119 103.84C274.953 103.367 273.78 103.899 273.68 103.36C275.159 103.24 275.819 102.299 276.079 100.96C275.249 100.574 274.802 101.293 274.159 100.72C274.477 100.158 275.349 100.15 275.119 99.04C274.343 98.936 273.044 99.356 272.96 98.56C273.337 98.537 273.792 98.592 273.68 98.08C273.213 97.586 271.942 97.897 272.24 96.64H270.32C270.558 98.878 268.493 98.813 267.44 99.76C267.991 101.06 267.28 101.607 266.48 102.16C266.842 102.678 267.363 103.036 267.92 103.36C268.151 102.068 271.061 102.188 271.76 102.16C270.628 103.386 265.913 102.915 267.44 105.28C268.258 105.176 269.419 104.712 269.84 105.52C267.846 106.136 266.641 106.798 264.8 107.92C267.799 108.021 270.677 106.781 272.72 106.72C272.172 107.693 271.017 108.057 269.36 107.92V108.88C272.01 108.727 274.31 108.229 275.12 106.24H275.119ZM150.079 98.08C150.884 98.245 150.956 97.677 151.039 97.12H150.319C150.373 97.574 150.048 97.649 150.079 98.08ZM220.159 100.96C221.195 100.396 221.396 98.997 222.079 98.08C220.812 98.387 221.076 97.163 220.159 97.12V100.96V100.96ZM152.239 98.08C152.34 98.539 152.326 99.113 152.959 99.04C153.277 98.639 153.887 98.528 153.679 97.6C152.707 97.269 152.92 98.121 152.239 98.08ZM153.919 100.96C154.372 101.547 155.346 101.613 156.079 101.92C156.13 101.651 156.345 101.546 156.559 101.44C155.913 100.326 156.22 98.259 155.119 97.6C155.645 98.9 154.081 99.609 153.919 100.96V100.96ZM158.239 101.2C159.723 101.742 160.807 100.832 162.319 100.72C162.435 99.084 161.341 98.658 160.879 97.6H157.519C157.419 99.14 157.712 100.287 158.239 101.2V101.2ZM236.719 105.04C239.519 104.181 237.988 101.188 238.158 98.56C236.891 98.867 237.155 97.643 236.238 97.6C236.318 100.156 237.018 102.099 236.718 105.04H236.719ZM184.639 100.96C186.546 101.187 187.727 100.689 188.239 99.52C186.53 99.491 184.857 99.498 184.639 100.96ZM221.119 105.52C222.708 106.492 223.39 108.369 225.439 108.88C226.53 107.12 228.59 105.22 227.839 102.4C225.62 102.059 225.116 100.002 223.038 99.52C222.108 101.248 220.528 103.002 221.118 105.52H221.119ZM230.479 102.64C231.11 103.129 231.414 103.946 232.399 104.08C232.112 102.687 232.994 100.125 231.92 99.52C231.51 100.629 230.49 101.126 230.48 102.64H230.479ZM240.319 104.8C240.36 104.521 240.699 104.54 241.039 104.56C240.755 103.57 241.121 101.734 240.079 100.96C240.239 102.164 239.759 103.995 240.319 104.8V104.8ZM159.199 102.4C158.564 106.284 164.422 105.905 163.759 102.16C162.16 101.398 160.804 102.424 159.199 102.4ZM154.159 105.52C154.95 105.755 156.953 106.367 158.479 105.76C158.73 104.229 157.951 103.728 157.519 102.88C155.761 103.118 155.022 102.338 153.439 102.4C153.358 103.761 154.111 104.288 154.159 105.52ZM252.799 106C254.699 106.131 256.651 104.055 255.679 102.88C254.999 104.205 253.589 104.789 252.799 106ZM148.639 103.84V104.8C149.811 105.665 150.986 106.612 152.479 106C152.9 105.029 151.812 104.323 151.759 103.12C150.383 103.023 149.667 103.588 148.639 103.84V103.84ZM226.639 110.08C227.922 111.356 229.319 112.52 230.719 113.68C231.595 112.716 232.078 111.359 233.359 110.8C233.502 109.356 232.923 108.381 232.399 107.92C232.288 107.822 232.475 107.334 232.399 107.2C231.839 106.222 231.432 106.252 230.96 105.52C230.54 104.87 230.604 104.208 229.76 104.08C228.76 106.124 227.88 108.286 226.64 110.08H226.639ZM254.239 107.44C254.831 108.369 255.178 109.541 255.92 110.32C256.468 108.949 257.578 108.139 257.359 106C256.459 105.741 254.529 106.312 254.239 107.44V107.44ZM150.799 106.96C151.486 107.714 152.454 108.186 153.199 108.88C154.183 107.441 151.821 105.594 150.799 106.96ZM155.599 107.68C155.655 109.11 155.62 109.307 155.839 110.32C157.841 110.43 157.963 110.129 159.439 109.84V107.44C158.388 106.427 156.507 106.761 155.599 107.68V107.68ZM220.879 115.12C221.786 115.467 221.339 114.46 222.078 114.64C221.864 112.266 224.327 112.569 224.238 110.32C223.106 109.212 222.181 107.897 220.638 107.2C219.828 110.22 221.248 112.19 220.878 115.12H220.879ZM251.839 107.68C249.328 108.972 246.397 112.743 248.959 115.6C251.475 115.476 252.773 114.134 254.959 113.68C255.208 111.03 253.358 110.48 253.278 108.16C252.578 108.223 252.538 107.617 251.838 107.68H251.839ZM225.439 111.28C224.098 113.139 222.517 114.759 222.559 118C223.815 119.384 225.035 120.804 226.879 121.6C227.654 118.97 230.27 116.872 229.038 113.68C227.268 113.45 227.198 111.52 225.438 111.28H225.439ZM265.039 112.24C265.462 112.102 266.449 112.53 266.479 112C265.869 111.82 265.379 111.65 265.039 112.24ZM267.679 113.68C268.433 113.473 270.16 114.241 269.839 112.96C269.309 112.44 267.359 112.55 267.679 113.68ZM237.199 115.6C237.484 116.435 237.638 117.4 238.639 117.52C238.341 116.367 237.881 113.792 237.679 113.44C237.459 114.1 238.169 115.69 237.199 115.6ZM158.719 116.08H160.879V114.16H158.959C159.064 114.98 158.864 115.5 158.719 116.08V116.08ZM232.399 115.12V114.16H231.439C231.249 114.99 231.569 115.31 232.399 115.12ZM247.039 117.04C246.999 116.359 247.851 116.572 247.519 115.6H246.559C246.559 116.24 246.429 117.01 247.039 117.04V117.04ZM249.679 117.28C250.86 118.18 251.279 119.841 252.799 120.4C253.727 118.928 254.374 117.176 255.198 115.6C252.728 115.53 251.618 116.82 249.678 117.28H249.679ZM155.599 118C155.754 117.045 154.964 117.035 155.119 116.08H154.399C154.146 117.37 155.196 117.36 155.599 118V118ZM263.599 116.8C263.588 116.47 263.712 116.273 263.839 116.08H263.118C263.108 116.49 263.298 116.7 263.598 116.8H263.599ZM157.999 120.16C159.507 120.308 159.654 119.095 160.879 118.96C160.729 118.231 161.186 116.893 160.639 116.56C160.387 118.39 157.787 117.87 157.999 120.16V120.16ZM227.839 122.32C228.505 123.174 229.162 124.036 230.479 124.24C229.961 121.24 231.467 118.99 230.719 116.56C229.799 118.52 228.339 119.94 227.839 122.32V122.32ZM243.199 118.48C243.181 118.062 243.253 117.733 243.439 117.52H242.719C242.649 118.07 242.779 118.42 243.199 118.48ZM249.919 119.2C249.467 118.458 249.385 117.57 248.238 117.76C246.58 119.08 245.651 121.177 246.799 123.52C249.115 123.517 250.284 122.365 251.839 121.6C251.729 120.63 250.439 120.06 249.919 119.2ZM154.879 120.16C154.129 119.906 154.204 123.912 154.399 124C154.222 123.92 155.149 120.569 155.119 120.88C155.159 120.471 155.28 118.824 154.879 119.2V120.16V120.16ZM222.079 119.92C221.034 120.773 221.905 122.558 222.079 123.28C222.469 124.894 222.101 127.385 223.279 127.84C224.41 126.411 225.584 125.025 226.159 123.04C224.789 122.01 223.779 120.62 222.079 119.92ZM242.239 120.88C242.31 120.391 242.888 120.409 242.96 119.92H241.76C241.69 120.47 241.82 120.82 242.24 120.88H242.239ZM241.039 122.56C241.493 122.586 241.206 123.353 241.76 123.28C242.06 122.876 243.062 121.949 241.999 121.6C241.779 122.02 241.119 122 241.039 122.56V122.56ZM158.239 124C159.359 124.16 159.294 123.134 159.919 122.8C158.864 122.7 158.294 123.1 158.239 124ZM247.519 125.2C248.125 127.393 249.033 129.286 250.879 130.24C250.981 128.022 252.165 126.886 253.278 125.68C253.037 124.882 253.809 123.069 252.799 123.04C250.739 123.46 249.309 124.51 247.519 125.2ZM240.079 124.96C240.584 125.693 241.795 125.348 241.76 124.24C240.76 124.04 240.45 124.53 240.08 124.96H240.079ZM158.959 127.6C160.39 127.35 160.744 126.025 160.879 124.48C159.683 124.86 158.179 126.03 158.959 127.6ZM227.119 124.48C226.933 126.239 224.393 127.976 224.479 129.76C224.539 130.988 225.641 131.63 226.639 132.64C227.719 130.535 230.072 127.636 228.559 124.48H227.119ZM239.119 128.32C240.335 128.256 240.974 127.615 241.039 126.4C239.639 126.28 238.879 126.8 239.119 128.32ZM245.839 131.68C247.324 131.806 247.93 131.052 248.959 130.721C247.952 129.487 247.715 127.484 246.078 126.881C246.258 128.741 245.708 129.871 245.838 131.681L245.839 131.68ZM237.199 130.72C238.233 130.553 239.236 130.356 239.359 129.28C238.149 129.27 237.369 129.69 237.199 130.72ZM224.239 140.32C225.42 138.78 226.036 136.675 227.119 135.04C226.19 134.129 224.971 133.509 224.479 132.16H223.279C223.919 134.06 222.829 138.54 224.239 140.32V140.32ZM234.319 133.12C235.215 133.056 235.911 132.791 236.239 132.16C235.339 132.22 234.649 132.49 234.319 133.12ZM247.039 133.12C247.089 134.991 247.525 136.474 248.72 137.2C249.797 136.117 250.219 134.379 250.88 132.88C250.08 131.39 248.04 132.66 247.04 133.12H247.039ZM244.879 140.08C246.111 139.953 246.999 139.48 247.519 138.64C246.853 137.306 246.287 135.872 245.359 134.8C245.319 136.44 244.829 137.81 244.879 140.08ZM231.919 143.92C233.578 144.06 233.335 142.296 234.799 142.24C234.624 141.694 235.231 140.367 234.319 140.559C233.619 141.779 232.359 142.439 231.919 143.919V143.92ZM245.359 142C245.373 142.786 246.042 142.917 245.839 143.92H247.038C246.648 142.17 248.389 142.55 247.998 140.8C246.638 140.72 245.998 141.35 245.358 142H245.359ZM226.639 142.72C225.917 142.962 226.213 142.186 226.159 141.76H225.439C225.219 142.56 226.209 143.37 226.639 142.72ZM224.239 146.8C224.239 145.521 225.399 145.401 225.199 143.92H224.239C223.919 144.41 223.779 146.33 224.239 146.8ZM244.159 148.24C244.46 147.5 245.556 147.557 245.84 146.8C245.48 145.801 245.158 144.761 244.4 144.16C244.22 145.26 243.7 147.29 244.16 148.24H244.159ZM209.599 149.2V148.24H208.399C208.429 148.93 208.7 149.38 209.599 149.2ZM204.319 150.16C204.612 149.493 205.935 149.856 205.759 148.72C204.686 149.201 204.432 149.201 203.359 148.72C203.57 149.31 203.575 150.1 204.319 150.16V150.16ZM207.919 150.16C207.886 149.713 207.761 149.357 207.439 149.2C207.494 149.62 207.197 150.4 207.919 150.16ZM219.439 150.16C219.328 149.701 220.179 149.127 219.199 149.2C219.239 149.56 219.119 150.09 219.439 150.16ZM243.919 151.12C244.662 151.064 244.667 150.268 244.879 149.68H244.158C244.168 150.24 243.748 150.39 243.918 151.12H243.919ZM140.959 150.64H141.439V150.161H140.959V150.641V150.64ZM223.759 152.08C224.564 152.245 224.636 151.678 224.719 151.12C224.247 151.191 224.242 150.796 223.998 150.64C223.998 151.2 223.588 151.35 223.758 152.08H223.759ZM224.479 154C225.752 154.153 225.773 153.054 226.399 152.56C225.319 152.6 224.639 153.04 224.479 154ZM243.199 154.96C243.238 154.793 243.116 153.564 242.96 154.24C242.75 155.15 243.09 155.44 243.2 154.96H243.199ZM223.519 157.36C225.077 157.397 224.84 155.641 225.679 154.96C225.225 155.014 225.15 154.689 224.719 154.72C224.409 155.69 223.239 155.8 223.519 157.36V157.36ZM216.319 155.92C215.245 156.274 215.582 155.217 214.639 155.441C214.614 156.391 215.972 156.651 216.319 155.921V155.92ZM244.159 159.04C245.179 159.18 245.272 158.394 245.599 157.84C244.769 157.89 244.039 158.04 244.159 159.04ZM222.559 160C222.889 159.989 223.086 160.113 223.279 160.24C223.644 159.52 224.79 158.741 223.519 158.32C223.159 158.84 222.479 159.04 222.559 160V160ZM241.759 160.24C241.812 160.052 241.96 159.961 242.238 160C242.197 159.641 242.324 159.114 241.998 159.04C242.258 159.65 240.968 159.88 241.758 160.24H241.759ZM221.119 163.6H221.599C221.613 163.746 221.635 163.884 221.839 163.84C221.771 162.572 223.377 162.979 223.038 161.441C221.478 161.241 221.628 162.751 221.118 163.601L221.119 163.6ZM220.159 166.24C221.471 166.351 221.724 165.405 221.84 164.32H221.119C220.919 165.08 220.279 165.4 220.159 166.24ZM218.719 170.56C219.817 170.37 221.367 167.569 220.158 166.72C219.448 167.77 218.708 168.79 218.718 170.56H218.719ZM238.399 169.6C238.288 169.141 239.139 168.568 238.159 168.64C238.199 169 238.079 169.52 238.399 169.6ZM216.319 174.88C216.773 174.826 216.848 175.151 217.279 175.12C217.789 173.789 218.667 172.827 219.199 171.519C218.882 171.517 218.98 171.099 218.72 171.04C217.99 172.39 216.61 173.09 216.32 174.88H216.319ZM239.599 173.92C240.686 174.047 241.165 173.567 241.038 172.48C239.948 172.35 239.468 172.83 239.598 173.92H239.599ZM196.879 174.4V172.96H195.919C195.815 173.86 196.426 174.05 196.879 174.4ZM237.679 174.88C238.495 174.897 239.354 174.955 239.599 174.401C238.482 174.717 238.795 173.604 237.679 173.921V174.881V174.88ZM201.919 175.84C201.874 175.165 201.501 174.818 200.719 174.88C200.764 175.56 201.136 175.9 201.919 175.84ZM192.799 176.08C193.487 176.127 194.109 176.109 193.999 175.36C193.396 175.15 192.713 175.05 192.799 176.08ZM194.479 178C195.527 178.168 195.831 177.592 196.879 177.76C196.946 176.493 196.343 175.896 195.679 175.361C195.249 176.381 195.092 176.841 194.479 178.001V178ZM230.959 177.04C230.843 177.796 231.695 177.583 231.438 178.479C230.317 178.958 228.668 178.91 228.558 180.4C230.259 180.875 231.351 179.381 233.358 179.44V178C232.936 177.862 231.948 178.29 231.919 177.76C232.648 176.889 234.344 176.985 234.318 175.361C232.648 175.371 231.938 176.341 230.958 177.041L230.959 177.04ZM202.639 179.44C204.332 179.026 204.16 180.478 205.519 180.4C205.464 179.094 204.166 179.032 204.559 177.28C203.419 177.059 202.556 176.562 201.679 176.08C201.039 177.62 202.213 178.3 202.639 179.44V179.44ZM199.279 176.32C197.742 176.04 198.752 177.05 199.279 176.32V176.32ZM206.719 176.8C206.531 176.747 206.44 176.599 206.479 176.321C205.061 176.311 206.236 177.961 206.719 176.801V176.8ZM211.039 178.96C211.112 178.327 210.538 178.341 210.079 178.24C209.8 178.599 209.387 178.827 209.359 179.44C209.725 180.034 210.332 180.387 211.039 180.639C211.265 180.362 212.019 179.41 212.479 180.16C212.045 180.606 211.598 181.039 210.559 180.88C210.655 181.811 209.339 182.944 210.559 183.52C211.973 183.174 212.147 181.588 213.199 180.88C213.236 180.283 212.822 180.137 212.72 179.68C214.782 179.422 215.532 177.853 216.32 176.321C214 176.641 213.335 178.621 211.04 178.961L211.039 178.96ZM225.919 193.12C226.986 194.738 225.752 197.165 226.639 198.4C226.634 197.691 228.564 197.691 228.559 198.4C228.082 198.883 227.056 198.817 226.399 199.12V200.08C226.853 200.506 227.984 200.255 228.799 200.32C229.436 199.704 229.781 198.652 229.038 197.92C229.522 197.443 230.473 197.435 230.478 196.48C229.613 195.71 227.628 197.135 226.638 196.241C227.9 195.503 230.023 195.626 230.958 194.56C230.497 192.58 231.748 192.311 231.918 190.96C231.138 190.683 230.441 191.693 229.997 190.96C230.942 191.345 230.081 189.924 230.718 190H231.918C231.991 189.273 232.66 189.143 232.397 188.08C231.9 187.937 230.821 188.377 230.717 187.84C230.803 187.206 231.293 186.977 232.156 187.12C232.258 186.661 232.243 186.087 232.877 186.16C231.715 184.99 233.217 184.071 232.877 182.32C231.712 181.959 231.716 183.489 230.957 182.799C231.395 181.638 233.662 182.305 233.356 180.4C231.655 180.058 231.322 181.086 230.236 181.36C228.887 181.131 228.322 181.685 227.596 182.08C227.598 182.718 227.505 183.45 227.836 183.76C227.157 183.962 226.744 184.428 226.636 185.2C226.823 185.253 226.915 185.401 226.876 185.679C227.527 185.828 228.78 185.374 229.035 185.919C228.196 186.12 227.601 186.565 226.636 186.639C226.195 187.538 226.021 188.617 226.876 189.28C226.228 189.351 226.445 190.29 225.916 190.479C226.366 191.419 226.536 192.249 225.916 193.119L225.919 193.12ZM208.879 182.56C208.247 182.809 207.405 182.848 206.479 182.8C206.524 183.476 206.897 183.822 207.679 183.76C208.138 183.25 209.798 182.692 208.879 181.6V182.56V182.56ZM204.559 182.32C204.918 182.279 205.445 182.405 205.519 182.08C205.2 181.77 204.625 181.76 204.559 182.32ZM202.879 183.28C203.141 182.137 202.098 182.301 201.198 182.32C201.436 182.96 202.203 183.08 202.879 183.28ZM203.119 184.24H204.8C204.77 183.84 205.577 182.713 204.56 182.8C204.658 183.86 203.217 183.38 203.119 184.24ZM215.359 198.88C216.141 198.264 214.989 197.349 214.159 196.72C212.966 195.817 212.805 195.639 211.039 195.76C211.219 196.499 210.212 196.053 210.56 196.96C212.796 196.96 214.541 197.46 215.359 198.88V198.88ZM226.879 201.28C227.141 203.171 227.141 202.749 226.879 204.639C228.204 204.925 228.103 203.784 228.078 202.719C228.71 202.391 228.974 201.695 229.038 200.799C227.908 200.549 228.118 201.639 226.878 201.279L226.879 201.28ZM228.799 205.6C228.149 206.82 229.639 206.49 228.799 205.6V205.6ZM226.639 207.28C226.981 207.251 227.627 205.964 226.639 206.08C226.779 206.51 225.939 207.08 226.639 207.28ZM224.479 213.52C224.879 213.521 225.279 213.52 225.679 213.52C225.668 213.19 225.792 212.994 225.919 212.8C225.299 212.21 224.769 213.06 224.479 213.52Z" fill="black"/>
<path fill-rule="evenodd" clip-rule="evenodd" d="M264.56 46C264.712 45.277 267.032 45.343 267.92 45.52C270.024 45.939 271.049 48.203 272.239 49.12C273.546 48.854 273.915 49.525 274.639 49.84C274.119 50.521 273.046 50.647 271.759 50.56C270.332 49.347 268.774 48.266 268.399 46C267.199 45.401 266.079 46.208 264.559 46H264.56Z" fill="black"/>
<path fill-rule="evenodd" clip-rule="evenodd" d="M268.4 54.4H265.52C266.517 52.87 269.56 54.595 270.56 55.36C272.083 55.66 273.749 53.867 274.16 55.84C273.356 56.636 271.346 56.226 269.841 56.32C269.941 55.099 268.021 55.897 268.401 54.4H268.4Z" fill="black"/>
<path fill-rule="evenodd" clip-rule="evenodd" d="M166.16 86.56C166.661 86.458 166.795 86.725 167.12 86.8C166.827 87.147 166.204 87.164 165.92 87.52C165.21 87.311 166.646 87.33 166.16 86.56Z" fill="black"/>
<path fill-rule="evenodd" clip-rule="evenodd" d="M208.4 143.44C209.278 143.817 207.842 143.798 208.16 144.4C207.127 144.472 206.223 144.417 206.24 143.44C205.301 143.202 204.846 143.97 204.32 143.44C203.622 143.648 204.05 143.799 204.08 144.4C202.638 144.077 202.643 145.203 201.2 144.879C201.193 143.063 200.07 143.499 200.24 141.279C200.798 141.361 201.365 141.434 201.2 142.239C202.091 142.249 202.06 141.339 202.64 141.039C203.53 141.029 203.499 141.939 204.079 142.239C204.808 141.943 203.819 141.414 204.079 140.799C203.314 141.004 203.169 140.59 202.88 140.32C201.879 140.199 201.821 141.021 200.72 140.799C200.801 140.318 200.671 140.048 200.24 140.079C200.913 139.231 202.202 139.001 203.841 139.119C204.116 140.283 206.064 139.776 206.961 140.319C206.938 140.935 206.023 140.662 206 141.279C206.333 142.279 207.816 144.239 208.4 143.439V143.44Z" fill="black"/>
<path fill-rule="evenodd" clip-rule="evenodd" d="M162.799 147.76C160.365 147.567 159.216 148.656 157.039 148.72C156.716 147.952 157.853 148.364 158.239 148.241C158.942 148.021 161.567 146.391 162.799 147.761V147.76Z" fill="black"/>
<path fill-rule="evenodd" clip-rule="evenodd" d="M158.719 158.32C157.891 159.172 156.188 159.148 154.879 159.52C154.961 161.518 157.557 161.002 157.759 162.879H159.439C159.571 163.411 158.981 163.221 158.959 163.599C159.337 164.982 161.381 164.697 161.359 166.479C162.048 166.67 162.302 167.296 163.279 167.2C162.998 169.081 164.353 169.326 165.679 169.599C165.018 171.23 167.028 171.809 168.559 171.999C168.099 174.539 170.94 173.778 172.879 173.919C173.585 174.41 171.287 173.908 171.199 174.399C171.579 175.459 172.609 175.869 173.839 176.079C174.232 177.492 175.99 177.229 176.959 177.999C177.17 178.167 177.253 179.134 177.679 179.439C177.959 179.639 178.582 179.274 178.399 179.918C179.413 179.864 179.949 180.288 180.799 180.398C180.506 182.211 181.823 182.414 182.719 183.038C182.041 183.212 182.041 184.784 182.719 184.958C182.542 186.039 182.073 185.744 182.719 186.638C182.37 187.65 181.218 187.858 180.319 188.319C180.401 188.8 180.27 189.07 179.839 189.039C181.217 190.572 178.758 191.143 178.399 192.399C177.114 192.115 176.467 192.334 175.999 193.359C176.084 193.994 177.222 193.576 177.439 194.079C176.54 195.433 172.307 196.161 174.559 198.399C173.833 198.953 172.993 199.393 172.639 200.319C171.9 200.498 172.178 199.66 171.439 199.839C171.567 198.218 173.216 197.625 172.399 195.759C173.119 195.28 173.898 194.858 174.319 194.079C174.331 193.348 174.101 192.857 173.599 192.639C175.461 192.282 177.295 189.521 174.079 189.28C174.235 189.036 174.631 189.032 174.559 188.559C173.558 187.88 172.115 187.643 171.919 186.16C169.774 186.081 169.98 186.598 168.319 186.16C167.946 185.306 169.134 186.014 169.039 185.44C167.647 183.67 165.321 185.846 163.279 185.679C163.697 184.738 165.243 184.923 165.679 183.999C165.692 183.105 164.611 183.307 163.759 183.279C163.682 182.482 164.292 182.372 164.479 181.839C165.345 181.836 165.966 182.872 166.639 182.319C166.221 181.057 165.623 179.975 163.519 180.399C163.193 180.473 163.32 181 163.279 181.359C162.265 181.353 161.729 181.823 160.879 181.359C160.95 179.044 158.448 179.86 157.519 179.678C157.337 178.777 158.147 178.866 158.479 178.478C157.891 178.027 157.305 177.573 156.319 177.518C155.859 176.219 154.791 175.527 153.679 174.878C153.776 173.74 153.16 173.317 151.999 173.439C152.33 171.428 151.134 170.943 149.599 170.798C149.816 170.375 150.482 170.402 150.559 169.838C149.476 169.642 149.767 168.07 148.879 167.678C148.338 167.857 148.785 169.025 148.639 169.598C147.667 169.267 147.88 170.119 147.199 170.078C147.055 170.941 147.285 171.432 147.919 171.517C147.32 171.718 147.414 172.613 146.479 172.477C146.359 173.357 144.84 173.856 144.319 172.957C144.53 172.128 145.342 171.9 145.759 171.277C145.924 170.472 145.357 170.399 144.799 170.317C144.978 169.775 146.145 170.223 146.719 170.077V167.677C145.8 167.558 145.449 168.007 145.279 168.637H143.359C144.358 167.556 146.019 167.137 147.679 166.717C147.297 166.139 147.504 164.973 146.719 164.797C147.325 164.203 147.604 163.282 148.159 162.637C148.411 161.744 147.349 162.166 147.199 161.677C147.729 160.927 148.649 160.568 149.119 159.757C149.394 159.002 148.742 159.174 148.639 158.797C149.073 157.151 151.436 157.435 153.199 157.117C153.144 158.612 154.036 159.159 155.359 159.277C155.966 158.537 157.606 157.777 158.719 158.317V158.32ZM151.039 160.96C149.133 161.704 149.523 163.394 149.119 165.76C150.406 165.765 150.65 166.174 151.519 165.76C151.886 163.63 150.888 162.87 151.039 160.96ZM152.719 166C153.436 166.482 154.983 166.136 156.079 166.24C155.66 164.766 155.121 163.223 154.399 161.92C153.784 160.809 152.868 159.199 151.519 158.8C150.986 162.13 152.581 164.07 152.719 166ZM152.959 167.2C151.521 171.195 154.961 173.44 158.479 172.479C157.812 170.506 157.128 168.55 156.319 166.719C154.987 166.669 154.584 167.539 152.959 167.199V167.2ZM159.679 172.96C160.867 172.948 161.796 172.677 162.799 172.48C161.829 170.811 159.917 170.083 158.719 168.64C158.301 170.03 159.338 171.58 159.679 172.96ZM163.759 173.44C162.913 174.354 160.317 173.517 159.439 174.4C159.292 178.355 161.52 180.027 165.199 178.96C165.161 176.68 165.222 174.3 163.759 173.44ZM158.719 176.56C158.431 175.887 158.455 174.905 158.479 173.92H155.599C156.169 175.15 157.704 176.56 158.719 176.56V176.56ZM166.639 178.48C167.52 178.761 169.197 178.516 169.999 178.001C169.542 176.138 167.456 175.904 166.159 174.881C165.925 176.481 166.408 177.351 166.639 178.481V178.48ZM171.679 178.72C171.372 178.707 171.346 178.412 170.959 178.48C170.242 179.284 168.74 179.301 167.599 179.68C166.776 181.075 168.321 181.874 167.839 182.8C169.591 183.775 170.526 183.667 172.879 183.28C173.013 182.693 173.442 182.403 173.839 182.08C174.558 182.671 177.211 182.665 177.439 181.36C176.364 180.515 175.151 179.807 173.599 179.44C172.854 179.912 174.14 180.923 173.359 181.36C172.209 181.07 172.166 179.67 171.679 178.72V178.72ZM175.039 184.72C174.706 187.318 177.844 188.379 179.839 187.12C179.322 185.877 178.678 184.761 178.879 182.8C178.113 183.006 178.137 182.422 177.679 182.321C177.291 183.611 175.88 183.881 175.039 184.721V184.72ZM171.679 185.2C172.832 184.846 172.68 185.798 173.599 185.679C173.686 184.472 172.804 184.234 171.679 184.24V185.2V185.2ZM181.279 185.68V184.241H180.319C180.728 184.631 180.572 185.591 181.279 185.681V185.68Z" fill="black"/>
<path fill-rule="evenodd" clip-rule="evenodd" d="M140.478 166C140.568 166.106 139.229 166.819 138.318 166.72C138.461 165.9 139.718 166.2 140.478 166Z" fill="black"/>
<path fill-rule="evenodd" clip-rule="evenodd" d="M144.318 170.56C143.724 171.461 141.279 171.605 140.238 171.281C141.826 170.731 142.919 171.131 144.318 170.561V170.56Z" fill="black"/>
<path fill-rule="evenodd" clip-rule="evenodd" d="M173.599 170.56C174.024 170.615 174.801 170.319 174.559 171.04C173.826 170.866 173.684 171.285 173.119 171.28C172.236 170.9 174.09 171.34 173.599 170.56Z" fill="black"/>
<path fill-rule="evenodd" clip-rule="evenodd" d="M141.439 173.92C141.003 174.364 139.991 174.232 139.519 174.64C138.868 174.492 137.614 174.945 137.359 174.401H139.519C139.752 174.394 139.705 174.107 139.759 173.921H141.439V173.92Z" fill="black"/>
<path fill-rule="evenodd" clip-rule="evenodd" d="M166.88 186.64C166.206 187.486 165.454 188.253 163.76 188.08C164.299 187.1 165.864 187.14 166.88 186.64Z" fill="black"/>
<path fill-rule="evenodd" clip-rule="evenodd" d="M201.68 190.48H203.119C202.923 191.084 201.854 190.815 201.439 191.201C200.623 190.941 202.108 191.121 201.68 190.481V190.48Z" fill="black"/>
<path fill-rule="evenodd" clip-rule="evenodd" d="M141.44 190.96C143.408 192.22 145.74 190.734 148.16 190.96C147.181 192.701 143.327 191.567 142.4 193.36C140.562 192.047 137.956 192.972 135.68 192.639C137.786 192.269 140.508 192.509 141.44 190.959V190.96Z" fill="black"/>
<path fill-rule="evenodd" clip-rule="evenodd" d="M178.4 192.64C178.998 192.842 179.686 192.954 180.56 192.88C180.738 193.231 178.534 193.244 177.92 193.6C177.15 193.26 178.992 193.59 178.4 192.64Z" fill="black"/>
<path fill-rule="evenodd" clip-rule="evenodd" d="M251.359 63.04C251.093 64.586 251.677 65.282 251.839 66.4C254.775 66.824 256.224 68.735 256.158 72.16C255.437 72.479 254.322 72.404 253.278 72.4C254.485 71.697 252.871 71.103 253.278 69.76C252.426 69.572 252.119 68.84 251.358 68.56C252.697 66.835 249.432 65.953 249.919 63.52C250.599 63.561 250.389 62.708 251.359 63.04Z" fill="black"/>
</g>
<defs>
<clipPath id="clip0">
<rect width="400" height="200" fill="white"/>
</clipPath>
</defs>
</svg>
