<svg width="400" height="200" viewBox="0 0 400 200" fill="none" xmlns="http://www.w3.org/2000/svg">
<g clip-path="url(#clip0)">
<rect width="400" height="200" fill="white"/>
<g clip-path="url(#clip1)">
<path d="M225.054 284.659C226.624 283.752 228.16 281.365 229.663 281.192C228.686 282.639 228.187 284.966 230.807 283.692C231.812 282.992 235.822 280.665 233.973 283.419C231.559 285.739 236.028 283.852 237.159 283.839C238.17 283.179 238.516 280.959 238.922 280.465C238.922 281.792 238.769 284.552 240.87 283.326C241.708 281.885 244.455 282.152 243.324 279.912C243.384 279.178 246.124 281.945 245.4 279.552C244.548 277.825 248.326 281.272 247.288 278.332C247.242 277.585 245.227 275.711 245.579 275.845C246.537 276.625 248.652 278.872 249.23 276.965C248.898 275.891 246.956 273.958 249.151 275.785C250.621 275.971 250.461 272.591 248.938 272.644C247.801 271.091 250.621 272.078 249.25 270.131C249.217 268.717 245.406 265.937 247.268 268.75C248.971 271.504 244.821 273.924 242.859 275.285C241.269 275.691 244.043 271.424 245.539 272.264C245.599 269.684 245.905 267.204 246.557 264.557C248.406 261.983 246.856 258.956 243.63 259.309C240.604 259.376 241.216 263.603 240.431 265.697C243.471 265.137 239.021 268.897 239.753 270.317C237.345 270.451 237.904 274.798 235.117 275.378C232.39 275.511 232.251 280.232 229.71 279.352C229.83 276.505 232.803 275.278 235.004 274.258C237.671 272.344 238.263 268.79 239.214 265.85C239.76 263.383 240.578 260.816 240.232 258.289C238.536 260.103 236.015 261.156 234.499 263.163C232.191 264.683 229.298 265.41 226.89 266.917C224.25 267.65 222.327 269.464 219.707 269.977C217.406 270.604 215.178 271.624 212.604 271.404C208.234 271.457 203.805 271.871 199.468 271.197C197.413 270.737 196.13 267.737 198.89 267.35C200.04 266.757 201.856 263.517 202.84 264.483C202.441 266.33 197.865 268.55 199.841 269.951C200.665 269.464 202.468 266.544 201.942 269.244C203.432 270.711 207.636 270.291 208.254 267.69C208.44 266.51 212.052 263.303 211.314 265.797C209.584 266.644 208.015 271.257 211.453 269.684C212.97 268.244 214.519 268.65 215.544 266.764C217.04 265.717 216.787 266.51 216.588 267.797C218.749 268.624 221.696 266.957 221.935 264.437C222.76 264.81 222.993 265.763 223.299 264.27C225.58 264.917 223.631 259.529 225.46 262.23C227.136 266.344 224.542 257.689 227.475 260.703C229.078 263.396 231.572 257.876 233.667 260.81C234.712 261.996 233.594 259.189 235.27 259.463C235.942 258.689 233.521 257.056 235.762 257.809C236.647 258.169 239.214 258.776 237.272 257.242C235.237 255.669 232.929 258.189 231.253 258.409C231.339 261.21 224.915 260.396 227.994 257.556C228.539 255.856 229.89 255.882 231.04 256.122C232.902 254.649 227.269 252.502 229.856 252.609C232.184 254.522 235.317 254.509 238.097 253.775C240.578 252.389 234.765 253.535 233.84 253.049C232.783 251.148 238.662 253.122 238.463 251.388C237.445 249.668 244.076 249.815 240.611 251.808C242.373 251.748 244.854 250.688 242.54 249.361C244.734 249.335 242.972 247.461 241.742 247.781C242.673 246.628 245.393 244.874 244.821 247.461C246.47 248.575 245.173 242.454 243.191 244.448C240.558 246.454 239.62 242.421 240.711 240.927C242.792 243.461 240.737 237.22 243.391 237.067C246.211 237.08 246.81 234.566 246.869 232.146C246.909 230.926 247.701 228.039 247.654 231.053C248.213 233.273 250.095 229.526 251.478 230.219C252.676 228.346 248.639 226.079 250.255 224.925C251.186 225.865 250.833 227.792 252.716 227.059C253.919 229.639 256.32 224.172 253.321 225.972C251.359 227.319 251.179 224.252 253.101 224.885C253.647 223.732 251.385 221.378 253.041 220.085C253.926 220.825 255.303 222.825 254.325 220.431C252.908 218.218 254.119 215.984 256.66 215.844C259.087 214.537 256.247 214.197 255.975 213.317C256.666 212.01 254.026 209.923 256.4 209.917C257.577 208.11 256.866 203.389 254.032 205.71C252.077 206.243 252.802 204.203 254.199 205.17C253.939 203.309 250.361 205.263 252.762 203.196C253.607 202.629 256.374 205.236 255.336 202.749C253.474 200.862 251.897 197.489 249.796 196.575C249.237 197.922 247.282 194.795 247.621 197.329C246.038 197.529 244.475 199.669 243.012 200.002C241.748 197.282 241.289 204.97 239.666 201.416C239.58 199.669 238.642 198.709 236.966 198.929C234.978 197.275 231.685 198.535 229.996 196.095C228.207 194.315 226.045 192.535 225.407 190.014C224.004 188.994 223.092 187.474 222.008 186.141C218.803 188.128 215.776 190.501 212.291 191.968C209.897 193.535 207.044 194.022 204.17 194.028C201.816 194.315 198.743 193.808 196.881 194.942C195.797 195.462 194.513 195.808 196.169 196.922C196.835 199.076 198.683 199.442 200.785 199.742C198.717 199.136 196.755 201.229 198.989 202.323C199.502 202.463 202.847 201.602 201.55 202.209C200.626 202.649 199.708 203.089 198.783 203.529C200.333 203.803 201.889 204.069 203.439 204.343C202.315 204.77 200.759 204.716 200.06 205.75C201.384 207.843 201.111 210.604 202.514 212.737C203.459 214.757 205.401 216.144 205.847 217.918C207.37 217.858 208.041 218.151 206.625 219.318C206.053 220.751 207.742 221.078 208.294 220.931C207.609 223.052 211.234 224.125 210.323 226.692C211.726 229.479 212.551 225.405 214.446 225.165C216.475 224.352 216.688 218.985 213.941 221.878C213.907 221.605 215.091 220.171 214.799 219.358C215.703 218.178 215.557 216.451 216.235 215.337C218.856 215.544 217.12 212.83 215.537 214.471C214.147 215.684 214.799 215.164 214.692 214.037C212.058 212.937 216.688 212.79 217.592 213.051C219.108 212.89 223.245 212.39 222.421 210.357C220.319 211.497 218.623 212.25 216.022 212.15C214.154 212.464 213.502 211.57 214.892 210.21C211.5 211.824 215.005 207.256 216.588 207.27C216.262 206.37 218.809 204.703 216.967 204.503C215.677 204.863 213.515 207.943 212.69 206.89C214.4 204.583 217.226 203.883 218.51 201.269C219.341 200.529 216.92 198.135 219.288 198.095C219.468 199.196 218.65 200.749 220.206 199.096C222.194 197.235 221.928 202.843 223.784 199.849C224.389 198.469 228.446 197.229 225.487 199.149C223.618 201.062 229.876 201.629 226.172 202.589C224.822 204.363 222.048 203.569 221.855 201.996C220.592 202.483 219.361 203.696 220.898 201.856C222.68 197.762 215.357 203.556 218.876 204.056C220.286 203.963 223.804 203.549 221.184 205.49C219.98 207.11 215.018 207.87 216.295 210.097C217.632 211.184 220.964 208.79 218.31 209.943C216.262 207.837 220.658 206.89 221.47 209.103C222.095 209.45 220.691 206.47 222.733 207.336C224.29 207.41 225.513 208.437 223.571 209.33C222.101 211.504 226.504 211.217 225.061 209.443C226.092 208.483 228.805 207.717 226.338 209.29C224.595 210.357 228.559 209.703 226.099 210.744C223.811 212.03 221.017 212.577 219.069 214.377C217.925 215.237 219.029 219.271 219.468 218.071C219.102 217.098 220.711 217.264 220.179 216.031C221.09 214.097 222.308 214.951 221.629 216.684C221.117 218.104 221.589 221.125 222.58 218.231C223.844 215.918 223.172 211.617 227.03 212.437C229.118 212.917 224.409 216.951 226.032 214.017C225.32 212.024 224.117 215.918 224.775 216.878C224.423 218.084 223.079 220.211 225.061 218.411C227.369 218.771 220.917 220.625 223.159 221.972C224.063 222.458 221.543 224.325 223.944 224.485C224.25 225.545 222.7 226.512 224.23 227.259C222.939 229.686 221.536 232.153 220.651 234.706C222.52 236.82 221.722 240.167 223.318 242.127C223.651 244.028 224.29 248.021 226.298 246.508C225.899 248.388 228.726 250.368 228.074 251.528C226.351 250.662 224.389 245.994 223.106 249.615C221.277 253.042 218.144 255.496 216.076 258.736C215.703 260.883 212.471 261.103 210.635 261.75C208.247 261.596 204.949 263.043 203.206 262.59C207.123 260.643 212.112 260.963 215.297 257.556C216.608 255.922 219.707 254.375 219.348 252.182C217.752 252.155 216.847 251.662 216.069 250.695C213.994 250.135 213.728 252.355 212.019 252.895C213.063 253.895 216.741 250.875 215.377 253.615C214.14 253.942 210.349 254.515 210.422 253.302C212.278 252.482 208.361 250.808 211.294 251.728C212.963 251.628 213.741 249.595 215.643 249.568C215.583 248.301 212.93 248.461 213.695 246.408C213.774 243.981 211.387 243.734 209.797 243.701C210.376 241.027 208.394 238.3 209.451 235.773C211.866 234.166 211.979 231.113 213.728 229.059C212.996 228.706 210.915 232.279 211.048 229.259C210.389 228.206 206.904 229.259 207.902 226.739C210.442 229.379 208.587 224.305 206.798 224.085C204.357 224.005 208.587 222.452 206.106 221.792C206.279 219.851 203.931 218.745 204.137 216.938C202.295 217.258 203.033 213.537 201.736 212.35C200.16 210.457 200.752 206.176 197.48 206.55C196.775 206.17 200.612 205.283 198.118 205.343C195.89 205.416 199.621 204.009 197.513 203.689C197.819 200.802 195.81 198.282 194.434 195.895C192.312 192.261 188.457 190.021 186.714 186.127C186.115 185.101 185.118 182.554 186.788 184.834C188.953 186.181 191.813 186.447 194.187 186.421C196.828 185.727 199.608 185.047 201.67 183.16C202.641 182.327 205.72 181.353 203.166 183.034C202.069 183.427 200.612 185.387 202.741 184.287C204.656 183.874 206.312 180.927 203.319 180.92C201.344 183.387 198.451 180.94 197.473 178.826C196.868 177.873 196.263 176.913 195.664 175.953C197.207 174.606 198.557 172.952 200.366 171.972C199.548 173.546 199.462 174.966 197.493 175.559C196.09 177.273 199.615 177.96 199.754 176.419C202.182 177.08 204.144 175.433 205.674 173.739C206.345 173.086 207.017 172.426 207.689 171.766C206.086 170.125 204.516 167.918 201.996 167.912C200.359 167.105 202.787 166.858 203.093 166.972C201.849 164.325 199.282 162.464 198.484 159.564C196.768 156.197 194.72 161.198 193.15 162.311C190.762 164.931 188.176 167.378 186.095 170.252C184.401 172.039 181.808 173.973 182.888 176.786C183.16 179.253 181.878 173.379 180.497 176.299C179.141 177.306 180.352 178.92 178.447 178.46C174.579 181.22 171.71 185.134 168.53 188.628C166.195 191.175 164.147 194.208 161.069 195.908C158.751 195.488 162.734 192.268 163.498 191.075C164.442 189.754 165.893 189.981 166.052 188.474C167.568 188.461 167.239 186.314 168.772 185.921C170.821 182.173 174.422 179.593 176.961 176.193C178.527 173.999 180.222 171.792 183.012 171.666C183.684 169.492 180.418 173.332 181.203 170.625C182.886 169.005 184.439 166.945 185.957 165.031C186.841 163.625 189.538 166.165 188.873 163.478C188.277 163.545 188.392 165.498 187.471 163.791C187.067 161.358 190.842 162.304 191.913 160.331C196.382 156.724 200.892 153.043 204.583 148.623C205.607 145.396 209.079 143.602 210.123 140.355C209.511 138.488 212.132 140.642 211.839 138.562C214.08 136.915 215.078 134.354 217.153 132.614C217.685 130.407 220.924 130.774 220.605 127.867C219.055 125.9 216.98 130.294 215.65 131.334C213.236 134.134 211.154 137.275 208.381 139.742C206.206 139.368 211.334 137.221 208.573 136.095C206.006 133.948 203.027 134.621 200.665 136.468C197.613 136.895 196.648 139.988 196.821 142.689C197.041 144.509 197.825 148.456 199.608 148.283C202.155 145.749 204.37 142.902 206.744 140.215C207.616 140.002 208.228 141.849 209.225 140.255C210.828 140.042 208.021 142.269 207.077 142.349C203.479 145.242 200.493 148.863 197.779 152.577C197.566 153.09 200.439 150.983 199.162 152.95C196.622 155.504 193.822 157.824 191.148 160.244C190.17 161.464 188.488 161.558 190.097 159.924C191.633 158.011 193.396 156.29 195.065 154.484C192.99 150.496 190.862 146.463 187.604 143.302C185.635 141.322 184.655 138.775 183.045 136.541C181.434 133.654 179.95 130.621 178.87 127.54C177.477 126.467 175.476 128.127 177.879 128.2C177.846 130.854 177.445 133.434 178.362 135.955C178.405 139.035 175.985 141.462 176.87 144.656C177.178 146.709 178.861 147.749 179.353 149.67C180.749 150.916 179.572 146.229 180.9 148.796C181.273 150.116 182.259 153.183 181.263 153.67C181.47 152.217 180.592 149.87 179.566 152.27C178.338 154.717 177.583 157.464 176.97 160.051C176.738 159.037 174.759 154.877 174.645 157.797C174.855 159.457 172.32 158.364 172.725 160.024C170.323 160.351 167.759 159.451 165.81 158.037C164.383 156.304 161.861 157.291 160.281 155.377C158.701 154.07 155.405 153.703 155.033 151.55C154.12 149.336 150.943 149.763 150.679 146.923C148.466 145.136 148.007 142.309 146.058 140.375C145.113 138.582 144.987 136.608 143.414 135.228C143.751 132.354 140.913 130.607 141.24 127.76C140.52 125.853 139.825 124.1 139.352 122.006C137.818 119.079 133.798 120.946 131.944 118.819C131.068 114.572 130.903 110.185 131.046 105.864C131.089 104.664 132.676 106.671 133.178 104.904C134.341 102.344 137.101 103.257 138.928 102.551C137.232 100.757 133.473 101.124 132.527 103.671C130.219 104.371 133.597 101.504 133.43 100.437C134.866 99.657 136.888 100.27 137.748 98.7302C141.811 99.197 145.625 101.017 149.227 102.877C152.648 104.764 154.258 108.791 154.892 112.459C153.842 114.379 151.788 117.839 155.375 118.473C157.925 119.926 159.367 123.006 162.283 123.793C164.938 124.313 167.821 123.427 170.35 124.453C171.161 125.22 171.053 127.274 171.623 127.787L174.492 124.787C173.403 123.066 172.045 121.486 171.258 119.599C172.231 119.379 174.057 122.453 173.609 119.853C174.731 118.819 175.459 122.28 176.089 119.606C176.526 117.452 179.073 114.505 177.698 112.652C175.049 112.212 173.725 116.126 175.706 117.712C175.593 117.933 173.611 116.059 172.966 117.699C172.793 116.299 169.652 115.346 170.92 117.066C172.692 116.646 170.076 119.653 169.72 117.332C168.739 115.532 170.037 112.018 166.853 112.419C164.508 110.892 168.006 109.118 169.009 111.325C172.571 111.658 170.815 106.645 168.502 105.778C165.962 103.011 164.411 99.4503 163.805 95.7699C162.858 93.0696 159.033 93.8297 156.874 92.5628C153.862 91.9694 152.086 89.3291 150.804 86.7688C149.806 84.3285 151.02 81.6482 151.778 79.3146C154.065 76.0875 155.754 72.4604 157.163 68.7647C158.719 64.5322 159.971 59.3949 164.284 57.1266C166.729 56.2618 168.766 54.6157 171.327 54.0129C174.487 53.1882 177.685 52.056 180.973 52.066C179.616 53.6435 176.694 53.6555 174.583 54.0376C171.945 54.5123 169.193 55.1524 167.189 57.0539C165.263 58.4981 162.455 58.4141 161.636 61.0938C160.287 63.2747 159.371 65.6763 158.838 68.1653C157.159 72.3204 154.916 76.2276 152.434 79.9413C151.171 81.0081 150.785 86.3354 153.146 83.8285C153.218 79.3613 157.395 85.282 154.156 86.2488C151.856 88.0756 155.077 91.4427 157.081 90.6759C159.14 90.1225 163.053 90.7493 162.63 87.4756C163.923 83.8685 159.849 87.9156 158.177 86.6355C156.258 85.6287 157.204 83.055 159.17 83.0084C160.544 81.8016 163.05 78.8545 163.979 82.2216C163.308 85.7287 167.358 81.1281 168.921 82.995C168.827 84.1952 164.097 84.1152 166.817 85.0019C167.697 85.0953 169.646 84.6352 170.036 84.6752C168.228 85.382 165.735 85.482 164.848 87.4489C165.154 89.6558 166.272 91.496 168.462 91.8894C169.433 93.883 169.298 88.9157 170.45 90.4093C168.492 92.7762 174.648 95.4498 172.567 92.0228C169.753 92.1361 171.097 88.269 172.649 87.6756C173.524 85.622 172.139 82.2816 175.624 82.5416C178.82 82.0283 182.156 81.8549 185.343 82.3216C181.658 82.955 177.896 83.1817 174.175 83.6218C174.314 88.8957 175.284 94.1497 174.905 99.4236C173.932 102.817 173.602 97.8901 173.059 96.87C172.811 95.7832 171.034 93.4496 171.032 95.8966C170.1 94.4364 170.029 94.8231 169.359 95.9166C167.893 96.37 165.896 92.0228 166.212 94.6231C165.368 94.0497 164.413 91.056 164.832 93.863C165.601 96.0032 164.278 100.097 167.368 100.21C167.803 101.384 167.735 105.538 169.574 102.997C171.635 101.231 169.309 104.111 169.22 104.898C170.585 104.644 172.176 102.144 173.08 103.577C173.638 101.204 177.345 101.537 178.844 99.5037C183.241 96.49 187.005 92.7029 190.975 89.1758C193.695 86.9555 196.329 84.5552 199.289 82.675C198.79 84.6086 197.42 86.6688 195.172 87.5556C192.857 89.3691 190.596 91.3427 188.754 93.6496C190.702 93.3963 192.804 91.4427 194.833 90.5559C196.941 89.8692 198.863 87.9089 200.785 87.9623C201.011 85.5753 207.197 88.269 205.122 90.2159C201.876 91.4827 206.438 93.743 207.363 94.1764C206.139 98.3302 212.231 93.3096 208.587 92.5162C206.332 90.1159 210.735 90.2559 210.21 87.5756C209.937 84.6886 207.03 86.9222 207.636 88.8624C205.428 89.5091 206.079 86.0154 204.064 87.0622C202.282 86.1821 204.982 85.5153 204.935 84.2018C205.953 83.2617 207.536 82.515 207.682 83.9551C210.688 83.4151 206.385 80.5414 208.686 79.6813C208.081 76.7143 203.825 80.128 201.769 79.8813C197.766 80.7014 193.748 81.6082 189.665 81.8816C190.802 80.7348 194.56 80.6414 196.622 80.008C198.444 79.4346 204.111 79.0279 202.022 76.3476C201.071 75.6208 201.543 73.7606 201.018 72.8872C202.528 72.3138 201.55 75.0408 202.767 73.0738C203.672 72.1737 202.694 67.8146 202.109 70.6669C202.714 72.5138 202.069 71.5537 201.264 70.6536C200.286 73.7006 200.965 68.6733 202.302 68.1386C204.057 66.8424 196.755 68.4173 200.074 66.6197C202.621 66.025 200.798 65.1029 199.202 65.7216C198.158 64.0208 200.579 59.7369 197.101 60.1283C195.604 59.5582 193.449 59.1815 194.167 61.6045C195.943 63.126 193.31 65.6036 192.026 64.2768C193.476 63.6241 192.797 62.0992 193.476 60.8017C191.527 61.4345 190.057 56.8059 193.043 58.4608C191.926 55.3211 195.824 54.4756 197.426 52.4061C199.768 51.6706 202.049 50.2231 204.097 49.7077C205.773 49.5857 206.319 47.2241 208.414 47.3335C210.09 46.6647 213.455 45.5059 212.238 43.9951C214.446 43.811 217.858 41.5481 217.905 39.7139C219.76 39.0338 218.829 36.9676 220.944 36.8582C222.268 34.6139 224.768 33.0711 225.919 30.8748C223.671 29.5033 229.836 30.0981 226.883 28.3905C227.336 27.8605 230.016 25.9856 230.495 24.1407C231.865 22.0584 231.386 19.3961 232.769 17.3892C233.049 15.0629 233.355 12.4486 232.37 10.2797C231.805 8.97355 231.113 5.81118 229.264 8.11298C228.413 10.8144 228.333 13.8048 226.518 16.1713C224.795 18.6982 223.006 21.8253 219.927 22.7834C217.492 23.3681 220.04 23.6655 220.991 23.6328C220.778 25.1097 218.709 25.5764 219.195 27.4493C218.058 28.6828 219.069 25.299 216.973 26.2738C214.885 27.3006 216.501 27.0179 217.619 27.1099C216.847 28.3221 214.28 29.6315 215.816 31.4184C216.907 31.1277 216.654 27.9387 217.652 29.9149C217.432 32.4065 215.231 33.7374 213.182 33.4273C215.437 36.1917 212.384 35.3802 211.832 34.2534C212.404 36.259 211.666 39.8368 209.092 37.6365C206.837 37.0851 213.189 41.0516 209.737 40.7402C208.334 39.9934 206.957 41.565 208.6 42.1084C207.669 45.1441 203.572 45.0847 202.774 47.7577C201.237 48.0951 199.788 48.1217 198.644 49.4446C197.001 49.4972 196.243 48.7325 197.759 47.7077C197.892 44.876 201.942 44.7147 201.796 42.0184C203.705 42.0724 202.361 38.8133 204.909 39.172C206.591 39.4274 203.499 36.7784 206.099 36.6184C208.514 35.2749 208.706 31.9245 211.34 30.7323C212.81 30.4136 213.355 30.5197 212.065 29.1548C211.719 28.126 214.592 28.9455 213.415 27.2273C214.346 26.4498 213.675 25.1577 215.351 24.9877C216.668 23.5435 216.355 21.1159 219.075 21.7613C220.166 21.888 222.022 20.2311 219.96 20.9532C219.428 18.8649 222.993 18.3182 223.338 16.0046C224.05 14.107 227.595 14.1864 225.094 12.0041C223.099 13.1603 221.11 15.0871 218.836 16.1239C217.951 16.8554 213.495 18.7076 216.415 16.6633C218.763 15.4992 220.419 13.9723 222.647 12.7549C225.314 10.7473 227.116 7.61986 230.162 6.14042C233.215 5.60002 233.96 9.61316 234.166 11.8941C234.725 17.9562 231.898 23.7008 228.932 28.7894C226.71 31.8625 224.11 34.6521 221.935 37.7692C219.514 41.1449 216.528 44.0806 212.95 46.2082C208.507 49.3899 202.88 51.0848 199.435 55.528C198.757 58.0456 201.131 60.4345 201.889 62.8075C203.113 65.2491 203.439 68.0194 204.935 70.3471C206.365 73.0007 207.283 76.0477 209.511 78.1547C209.844 80.9283 213.196 81.4284 214.267 83.8287C215.983 87.5558 218.736 91.0762 222.74 92.4697C224.309 92.9297 222.633 96.3235 224.156 94.0232C226.498 94.6566 228.14 97.0769 229.943 98.6904C231.399 100.551 232.49 102.144 234.026 103.884C234.838 106.038 236.6 109.772 238.529 106.218C240.671 103.284 242.959 100.251 245.985 98.217C246.457 99.0705 244.861 102.838 246.936 100.731C249.756 97.7837 252.702 94.93 255.23 91.7229C255.25 89.2026 258.482 86.549 260.643 88.6292C261.688 92.223 256.926 92.6764 255.323 95.0633C253.221 97.3503 250.022 99.1438 249.104 102.231C247.973 104.404 248.233 107.438 245.952 108.825C244.495 109.932 242.992 109.045 243.025 111.185C240.817 112.885 238.383 115.252 241.17 117.753C243.803 121.52 246.677 125.26 247.9 129.781C249.304 132.301 248.639 135.101 247.096 137.368C245.732 140.069 243.823 142.429 241.642 144.509C243.358 147.07 245.193 149.57 246.404 152.417C251.731 160.651 253.354 170.566 255.043 180.02C256.879 177.373 256.261 182.634 256.147 183.781C255.489 186.181 254.032 188.314 255.881 190.635C256.699 193.275 258.023 195.582 258.309 198.302C260.105 201.649 261.016 205.443 261.601 209.177C261.329 210.75 262.093 213.577 263.929 211.551C266.922 211.284 267.634 215.271 268.538 217.491C270.161 220.445 266.995 222.218 266.742 224.859C265.818 227.946 262.306 227.972 260.158 229.606C257.664 231.66 259.672 235.067 258.056 237.554C256.699 240.701 254.791 243.741 252.183 245.975C250.082 248.488 254.704 250.195 254.298 252.889C254.751 255.269 254.365 257.556 253.667 259.723C253.873 262.55 251.578 264.757 251.898 267.604C251.811 270.097 252.17 272.584 252.789 274.991C251.605 276.938 252.164 279.945 249.583 280.825C247.707 282.706 245.765 284.879 242.945 285.166C236.727 285.979 230.435 285.726 224.176 285.953C222.527 286.233 224.576 285.179 224.981 284.713L225.054 284.659V284.659ZM250.102 265.617C251.631 262.556 245.519 265.643 249.031 265.317C250.361 265.357 247.056 267.357 249.57 266.337L249.882 266.017L250.102 265.617V265.617ZM248 258.643C247.581 257.562 245.267 257.736 244.276 256.896C243.078 256.949 240.644 259.376 243.324 258.416C244.661 255.756 246.164 261.15 248 258.643V258.643ZM233.035 256.642C231.965 254.435 231.14 258.516 232.982 256.902L233.035 256.642ZM240.684 255.309C238.636 254.815 235.337 254.102 233.787 255.242C235.982 255.736 239.128 256.162 240.937 255.442L240.684 255.309ZM244.342 254.269C243.511 253.922 241.728 254.375 241.821 253.055C237.551 252.842 243.564 256.136 244.342 254.269ZM223.398 246.648C221.45 244.468 222.953 248.601 220.971 248.021C217.472 248.408 224.955 249.575 223.398 246.648ZM247.002 248.601C246.364 247.208 244.828 250.228 246.81 249.101L246.949 248.875L247.002 248.601V248.601ZM222.394 244.268C221.037 242.867 220.632 246.314 222.201 244.594L222.394 244.268ZM214.692 242.554C215.005 240.167 216.335 243.574 217.752 242.127C218.45 242.147 217.698 244.221 219.188 242.901C219.92 241.581 221.203 241.907 220.778 243.254C222.454 242.221 221.25 236.867 218.576 239.567C216.554 240.78 219.308 235 217.506 237.787C217.446 238.674 216.435 242.154 215.83 239.714C216.335 238.367 216.029 234.293 214.579 237.247C213.967 239.02 212.99 243.234 214.38 244.008C214.612 243.587 214.892 243.041 214.692 242.554V242.554ZM245.007 242.641C243.936 240.434 243.112 244.514 244.954 242.901L245.007 242.641ZM250.993 242.641C249.922 240.434 249.097 244.514 250.94 242.901L250.993 242.641ZM210.868 239.667C209.631 237.413 210.449 242.347 210.868 239.667V239.667ZM245.672 239.28C246.304 238.394 247.987 238.173 245.892 238.173C244.023 237.32 242.127 241.167 244.914 239.974C245.2 239.814 245.612 239.654 245.672 239.28V239.28ZM213.748 237.9C213.169 236.96 210.941 238.434 212.225 236.293C209.837 236.393 212.391 240.314 213.748 237.9ZM249.663 237.28C249.51 235.88 246.038 232.746 247.781 235.987C247.787 236.727 249.317 239.174 249.663 237.28ZM214.652 231.326C212.677 232.646 211.001 234.713 209.784 236.78C211.639 235.527 213.262 233.566 214.573 231.673L214.666 231.446L214.652 231.326V231.326ZM253.653 235.933C253.015 234.54 251.478 237.56 253.46 236.433L253.6 236.207L253.653 235.933V235.933ZM216.155 235.1C219.261 234.16 211.965 234.02 214.147 235.8C214.652 235.26 215.397 234.826 216.155 235.1ZM255.649 234.933C254.851 232.653 254.132 236.86 255.575 235.627L255.629 235.326L255.649 234.933V234.933ZM257.644 233.6C256.287 232.199 255.881 235.647 257.451 233.926L257.644 233.6ZM254.565 229.839C255.782 226.972 250.694 231.486 253.374 231.686C253.633 230.999 253.939 230.279 254.565 229.839ZM216.601 229.012C217.519 227.512 219.827 230.453 218.889 227.686C217.373 228.279 217.226 224.339 217.093 227.292C216.461 229.486 214.094 224.185 213.967 226.872C214.785 227.866 216.674 228.859 214.579 229.779C215.051 230.379 216.195 229.352 216.601 229.012V229.012ZM219.993 225.692C219.261 224.165 223.285 220.505 220.439 220.965C220.119 222.358 219.441 222.358 218.104 222.878C216.993 224.485 219.767 222.885 218.536 224.819C218.131 225.665 221.13 227.686 219.993 225.692V225.692ZM261.302 225.972C260.131 224.592 259.154 225.879 261.069 226.439C261.621 227.012 261.701 226.165 261.302 225.972ZM262.632 224.639C260.211 222.005 262.526 227.459 262.632 224.639V224.639ZM255.975 223.292C254.791 221.945 253.507 224.705 255.728 223.918C255.994 223.878 256.167 223.518 255.975 223.292ZM263.084 221.825C260.896 220.531 264.155 224.785 263.364 222.158L263.084 221.825ZM264.441 219.825C263.457 218.318 261.555 218.885 263.39 220.298C264.268 221.558 266.649 221.952 264.767 220.158L264.441 219.825V219.825ZM217.825 219.531C219.168 218.498 216.92 217.691 217.446 216.771C215.597 217.404 218.29 221.005 215.43 219.625C215.331 221.185 217.393 220.538 217.825 219.531ZM257.205 219.138C257.677 217.804 259.553 221.258 258.721 218.771C258.136 217.571 253.374 216.551 255.289 218.618C254.505 220.258 256.746 220.358 257.205 219.138V219.138ZM264.967 217.978C263.942 216.738 261.462 216.991 263.703 218.378C264.528 219.325 267.64 220.071 265.346 218.271L264.967 217.978ZM260.045 216.151C259.067 216.458 260.198 218.898 260.224 216.691L260.171 216.378L260.045 216.151ZM259.347 211.45C258.183 210.13 255.356 211.45 257.391 212.417C256.3 214.051 259.852 211.984 259.347 211.45ZM219.86 205.516C217.765 204.916 219.029 206.67 220.126 205.663L219.86 205.516ZM258.642 203.303C256.221 200.669 258.535 206.123 258.642 203.303V203.303ZM225.054 200.929C223.698 199.529 223.292 202.976 224.861 201.256L225.054 200.929ZM240.431 199.522C238.562 196.849 241.316 203.376 240.684 200.016L240.431 199.522ZM256.314 200.636C255.509 198.682 254.631 201.642 256.227 201.109L256.314 200.636ZM253.713 197.235C253.334 195.342 252.742 197.515 251.964 196.969C252.676 197.855 255.263 200.696 253.713 197.235ZM235.157 196.182C233.062 195.582 234.326 197.335 235.423 196.329L235.157 196.182ZM238.782 195.275C239.966 193.922 244.528 192.555 243.75 191.201C241.855 192.148 239.819 193.795 237.997 191.748C235.676 190.855 234.918 193.995 237.571 193.922C239.62 194.308 234.731 196.235 237.538 195.915C237.997 195.802 238.443 195.602 238.782 195.275ZM252.722 194.535C255.549 191.755 249.217 195.515 251.558 195.735C251.984 195.375 252.35 194.948 252.722 194.535ZM235.576 194.188C235.25 191.408 232.344 193.835 234.326 195.202C235.017 195.568 235.816 194.962 235.576 194.188ZM229.71 193.221C230.182 192.181 231.739 194.822 232.098 192.881C234.944 192.888 234.066 189.414 232.111 188.914C230.768 189.821 232.37 194.375 230.302 191.235C229.644 191.001 228.832 191.861 227.781 191.481C227.509 192.341 229.251 195.368 229.71 193.221V193.221ZM206.305 192.008C208.64 192.228 209.352 190.448 211.314 189.668C210.795 188.114 214.486 184.32 214.193 187.054C212.677 186.421 212.331 190.294 212.956 189.641C214.06 188.234 215.61 187.027 217.512 187.521C219.627 186.867 218.563 186.587 217.08 187.121C217.745 185.594 220.279 185.934 220.698 185.254C219.933 183.334 217.725 181.453 215.85 181.727C216.322 179.066 212.797 178.02 211.373 180.273C210.409 180.92 207.596 182.087 210.343 181.473C208.966 183.64 206.871 183.827 204.742 184.814C200.659 185.561 196.622 186.507 192.678 187.814C191.454 188.461 189.924 185.521 189.359 186.981C191.607 188.121 190.21 191.855 193.556 192.135C197.739 193.588 202.042 191.955 206.305 192.008V192.008ZM211.087 185.714C211.792 184.594 214.087 183.18 212.191 185.181C211.979 185.361 211.22 186.447 211.087 185.714ZM241.921 190.968C242.526 189.401 238.895 190.308 241.409 189.014C242.067 187.087 235.456 188.001 239.001 189.914C239.673 191.361 240.411 193.188 241.921 190.968V190.968ZM237.512 189.088C235.842 186.361 231.386 189.541 235.397 190.821C236.301 190.821 237.744 190.214 237.512 189.088ZM229.105 189.094C228.234 187.607 224.07 188.068 226.591 189.641C226.937 189.708 230.122 190.228 229.105 189.094ZM246.005 188.634C243.584 186.001 245.898 191.455 246.005 188.634V188.634ZM231.705 187.694C231.798 186.621 236.274 187.334 234.133 185.887C233.774 183.627 231.792 183.654 231.2 185.661C228.679 184.707 227.555 187.914 230.335 188.528C230.947 188.774 231.772 188.461 231.705 187.694V187.694ZM225.872 186.261C225.493 184.84 223.066 182 221.822 183.054C222.793 184.08 224.203 187.254 225.872 186.261ZM242.892 184.867C242.892 182.254 239.234 181.667 239.686 184.714C239.254 187.834 241.615 185.281 242.892 184.867ZM238.596 184.967C237.911 183.407 234.605 184.56 236.74 182.58C236.906 180.053 234.731 178.833 232.543 179.86C234.851 179.22 235.829 176.406 232.836 175.953C230.768 176.139 231.173 175.439 232.769 174.839C235.244 172.232 228.692 170.885 229.238 174.426C230.528 178.573 232.55 182.78 236.088 185.467C236.66 186.041 239.081 186.421 238.596 184.967V184.967ZM229.697 183.727C229.544 181.96 226.165 178.08 226.079 181.787C226.238 183.047 229.191 186.674 229.697 183.727ZM231.705 182.78C232.144 181.307 228.48 177.04 229.131 180.287C229.304 181.12 231.313 186.107 231.705 182.78ZM240.884 181.627C241.515 179.92 239.567 177.98 238.536 177.653C240.97 175.713 236.793 172.692 236.667 170.232C234.858 168.492 232.064 171.399 234.253 173.266C234.904 174.493 237.964 173.546 235.862 175.173C234.798 177.006 236.873 177.746 237.379 178.6C236.68 181.073 238.197 183.747 240.884 181.627V181.627ZM223.059 181.407C222.919 178.533 216.621 178.36 219.9 181.32C220.685 181.78 222.62 182.594 223.059 181.407ZM208.121 180.367C209.81 178.693 202.681 179.326 206.039 181.027C206.784 181.567 207.616 180.9 208.121 180.367ZM225.999 179.727C228.273 179.533 223.984 175.799 226.897 177.493C228.899 179.7 229.83 176.459 228.074 175.173C226.797 173.019 225.167 176.353 223.611 176.6C222.068 177.913 224.023 179.613 224.037 181.087C224.589 180.5 225.227 180 225.999 179.727V179.727ZM206.219 178.253C207.995 178.766 209.491 174.779 210.901 176.299C208.913 177.32 210.629 177.173 211.62 177.48C210.828 178.406 208.8 180.813 211.533 179.68C214.247 178.273 211.181 175.933 209.99 174.606C209.345 173.926 208.7 173.239 208.055 172.559C206.046 174.366 204.264 176.506 201.922 177.88C199.807 176.74 197.699 180.12 200.752 180.1C202.774 180.053 204.131 177.873 206.219 178.253V178.253ZM205.986 176.393C206.113 174.699 209.152 173.519 207.356 175.993C207.13 176.706 205.906 178.16 205.986 176.393ZM243.571 179.76C244.701 178.286 243.398 173.546 241.688 176.826C240.857 178.02 241.555 182.454 243.571 179.76ZM219.734 177.26C221.616 177.253 220.465 173.519 219.015 172.999C218.636 174.019 221.596 176.813 218.703 176.173C217.559 175.526 217.619 172.712 215.909 174.733C214.154 176.933 218.403 179.193 219.734 177.26ZM245.672 175.493C244.276 172.659 246.284 180.647 246.111 176.573L245.938 176.019L245.672 175.493ZM223.904 175.566C225.307 173.306 219.421 170.105 221.07 173.732C221.317 175.006 222.494 176.82 223.904 175.566ZM243.431 174.579C246.191 174.213 245.413 170.892 243.737 171.032C244.834 172.132 243.258 175.133 242.925 172.599C241.848 171.839 240.564 171.652 241.436 169.892C241.761 167.552 237.738 168.519 239.913 166.325C240.664 162.364 234.033 164.145 235.623 167.232C233.94 164.351 230.768 167.818 228.38 167.745C225.48 168.265 229.983 165.438 231.2 165.798C232.63 165.351 234.911 163.685 232.031 163.725C230.974 161.051 238.682 162.978 235.922 160.898C234.512 160.451 231.266 158.717 230.282 161.718C229.577 162.791 228.899 165.832 227.967 165.672C228.859 161.971 223.804 165.625 224.762 167.772C226.405 169.159 224.895 170.639 223.804 171.406C222.82 173.526 226.97 175.733 226.045 172.506C224.875 169.439 228.5 174.919 229.63 172.026C232.41 171.559 228.792 167.732 230.907 168.205C232.251 171.806 234.964 168.018 237.325 168.078C238.749 169.279 237.146 172.572 239.839 172.419C239.42 174.386 239.926 177.186 242.367 175.206C242.726 175.006 243.085 174.793 243.431 174.579V174.579ZM180.844 173.426C179.651 173.086 178.481 175.406 180.457 174.053C180.608 173.933 181.049 173.699 180.844 173.426ZM211.952 173.466C211.34 171.399 214.386 175.493 215.71 174.159C216.036 173.039 216.84 172.432 218.124 171.879C217.632 169.965 218.669 169.572 220.013 170.952C220.592 168.772 215.889 169.705 215.371 170.445C217.353 173.072 211.42 171.439 210.017 172.112C209.924 172.679 213.156 176.193 211.952 173.466V173.466ZM213.083 170.099C212.837 169.245 210.855 167.305 212.963 168.265C213.748 171.259 217.931 167.805 215.816 166.478C216.94 164.965 218.117 169.192 219.069 166.632C221.337 164.951 224.995 164.945 226.97 162.378C229.657 162.371 229.91 159.324 232.291 158.864C232.291 157.291 236.348 159.304 234.073 157.664C232.357 157.084 228.746 159.237 229.311 156.29C226.391 155.69 223.345 156.07 220.365 155.964C221.137 157.311 221.649 158.884 222.786 159.964C224.695 160.351 225.62 157.024 226.158 157.131C226.784 158.164 229.57 158.064 227.116 159.177C225.374 159.511 223.811 160.324 223.225 161.884C220.518 160.751 219.813 164.491 218.543 165.138C219.195 163.351 216.468 164.578 217.685 165.918C215.976 163.945 214.087 166.332 215.477 167.918C213.774 166.825 210.449 166.985 209.804 169.352C210.15 170.312 212.564 171.186 213.083 170.099V170.099ZM243.677 168.005C243.943 166.618 242.194 164.131 242.473 166.672C240.744 167.352 243.597 168.592 242.739 169.905C243.637 170.179 243.637 168.539 243.677 168.005ZM221.729 168.705C221.317 167.358 218.836 167.192 220.718 168.672C221.017 169.045 221.815 169.745 221.729 168.705ZM224.369 165.858C222.214 164.691 220.824 167.758 222.673 168.985C223.485 168.145 223.984 166.958 224.369 165.858ZM209.411 167.318C210.735 165.185 205.687 162.344 205.993 165.218C207.503 165.472 208.494 168.145 206.385 166.372C203.472 167.232 208.846 168.745 209.411 167.318V167.318ZM212.125 164.271C212.91 162.158 209.757 163.658 211.028 161.544C208.939 161.538 207.722 163.678 209.877 164.958C211.121 166.732 212.105 166.605 212.125 164.271ZM205.434 165.298C203.013 162.665 205.328 168.118 205.434 165.298V165.298ZM213.748 165.258C213.109 163.865 211.573 166.885 213.555 165.758L213.695 165.532L213.748 165.258V165.258ZM241.934 164.931C242.028 162.538 240.085 167.432 241.768 165.318L241.934 164.931ZM203.485 162.838C202.588 160.651 206.724 165.718 206.139 162.378C206.166 159.577 201.204 158.051 201.317 161.344C201.324 162.178 204.177 165.692 203.485 162.838ZM217.2 162.411C218.896 161.818 223.471 161.098 220.798 158.437C219.614 155.837 214.878 157.797 217.639 160.124C216.448 160.211 214.626 158.504 213.109 160.071C211.759 160.404 213.588 161.244 213.927 161.844C214.799 162.838 216.155 163.985 217.2 162.411V162.411ZM214.706 161.598C211.852 159.371 218.49 163.185 215.544 162.238L215.171 161.958L214.706 161.598V161.598ZM244.322 160.964C243.278 160.384 242.486 164.918 243.93 162.191C244.109 161.804 244.295 161.398 244.322 160.964ZM209.804 160.551C211.227 158.671 208.42 160.538 209.219 158.497C206.359 155.244 204.483 161.098 208.141 161.891C208.946 161.938 209.458 161.171 209.804 160.551ZM240.684 161.298C240.744 160.418 242.22 160.284 240.298 159.637C237.778 159.217 240.864 160.291 239.886 161.671C240.092 162.258 241.143 161.884 240.684 161.298V161.298ZM199.688 157.444C198.324 155.424 202.933 160.691 203.406 157.644C205.933 157.984 208.301 156.044 210.063 154.437C209.737 153.33 207.822 155.664 206.678 154.857C205.853 156.57 205.707 153.29 205.354 152.477C204.929 152.47 204.596 154.837 203.871 154.91C204.47 153.057 200.519 152.79 202.621 154.49C204.004 157.031 202.055 156.224 201.311 154.657C200.692 153.15 200.187 154.677 199.655 155.41C197.859 156.177 199.375 160.884 200.326 159.017C200.28 158.444 200.034 157.897 199.688 157.444V157.444ZM212.624 157.664C215.683 158.591 215.018 154.264 212.81 154.537C212.451 155.384 214.978 157.744 212.664 156.504C211.779 155.457 210.682 154.977 211.653 156.71C212.152 158.351 209.318 154.877 210.396 157.064C211.42 159.531 211.067 158.144 212.624 157.664ZM236.361 157.711C235.656 156.59 233.361 155.177 235.257 157.177C235.47 157.357 236.228 158.444 236.361 157.711ZM219.069 155.304C217.865 153.483 215.224 157.477 215.63 154.23C214.3 154.69 216.049 158.431 217.772 156.337C218.231 156.057 218.836 155.824 219.069 155.304V155.304ZM168.467 156.39C167.705 155.077 163.429 154.637 166.361 156.17C166.701 156.157 168.494 156.884 168.467 156.39ZM173.377 154.877C174.749 153.503 177.371 154.43 177.677 151.963C180.103 149.55 174.674 148.576 172.771 148.756C168.958 148.416 165.004 148.61 161.311 147.536C158.977 144.429 157.317 140.495 153.83 138.508C152.314 138.535 150.416 135.268 153.018 136.881C156.679 139.082 159.334 142.469 162.219 145.536C164.671 148.396 165.899 143.522 163.346 142.535C161.948 142.142 161.265 142.669 161.375 140.955C160.792 139.282 158.496 138.062 157.397 138.228C158.566 135.321 151.228 136.735 154.5 134.041C156.732 133.534 158.065 130.167 155.758 128.787C155.114 127.494 154.521 128.107 153.939 129.067C152.534 130.041 153.094 132.254 152.92 133.154C151.403 130.987 149.989 132.688 151.068 134.655C150.254 136.028 149.301 132.441 148.635 131.961C146.197 130.394 145.684 127.154 145.237 124.567C144.307 123.627 142.544 120.713 144.919 122.833C146.311 124.347 148.124 127.4 149.918 124.5C152.118 122.813 154.545 120.353 151.297 118.293C150.257 116.252 148.444 116.539 148.121 118.259C146.16 116.712 144.375 113.799 141.544 114.179C140.482 117.052 142.878 119.866 142.838 122.786C142.748 125.647 144.359 128.1 145.024 130.774C144.778 132.201 144.004 128.527 143.575 130.574C144.246 132.241 147.427 132.954 146.77 135.201C145.306 134.381 143.719 136.301 146.02 135.728C147.1 136.555 148.331 136.208 148.076 138.228C150.287 139.742 150.345 142.809 151.455 145.042C152.982 147.076 152.162 144.289 152.227 144.296C153.461 146.183 153.592 149.003 156.54 149.196C158.626 150.136 161.936 152.29 159.594 153.917C161.668 154.657 160.883 150.396 162.375 153.037C164.522 154.71 167.468 154.444 169.848 155.53C169.98 157.544 172.612 155.777 173.377 154.877V154.877ZM162.869 155.297C160.449 152.663 162.762 158.117 162.869 155.297V155.297ZM197.014 151.963C199.029 150.97 197.726 146.289 196.056 147.496C197.513 148.016 197.307 151.73 195.418 149.563C195.777 147.783 193.043 146.156 193.196 148.73C193.582 150.436 194.453 152.983 195.577 153.803C196.083 153.217 196.549 152.59 197.014 151.963V151.963ZM209.052 150.316C210.609 150.13 212.391 146.783 210.542 146.989C211.287 148.796 208.839 144.636 208.008 146.936C206.997 148.103 202.255 151.55 206.325 151.13C207.27 151.01 208.201 150.743 209.052 150.316V150.316ZM221.064 149.296C219.993 147.089 219.168 151.17 221.011 149.556L221.064 149.296ZM152.679 147.816C150.486 146.523 153.748 150.776 152.958 148.149L152.679 147.816ZM206.516 146.796C208.351 144.256 203.164 149.543 206.143 147.249L206.516 146.796ZM213.898 144.936C213.872 142.449 211.604 141.715 210.952 144.389C211.138 146.103 215.089 150.103 214.237 146.143C214.144 145.736 214.031 145.336 213.898 144.936ZM224.041 147.269C224.167 145.989 227.978 148.103 225.976 146.223C226.023 145.036 223.296 145.709 223.815 143.649C222.265 139.722 219.392 145.256 221.533 146.463C222.278 143.709 223.09 147.709 224.227 147.909L224.24 147.756L224.041 147.269ZM235.693 146.963C235.786 145.869 238.127 145.396 235.746 145.609C233.911 145.529 233.146 148.85 235.401 147.669L235.613 147.349L235.693 146.963ZM167.92 145.089C165.916 143.069 163.766 148.376 166.878 146.503C167.338 146.263 168.486 145.762 167.92 145.089ZM194.208 146.629C194.255 145.609 192.253 142.902 194.275 144.822C196.569 147.169 194.833 142.069 194.115 141.489C195.678 142.322 197.534 141.049 195.312 140.175C195.552 137.188 198.91 136.308 201.165 135.228C202.475 133.581 205.448 134.294 206.599 133.521C204.564 131.701 207.244 132.608 207.783 133.961C208.441 134.741 209.099 135.515 209.765 136.295C211.394 134.448 213.403 132.721 214.021 130.254C215.631 130.541 217.147 126.987 214.759 128.387C212.385 129.027 213.689 133.534 211.015 131.267C208.84 130.801 210.583 126.58 208.082 128.62C206.998 129.267 204.943 131.121 207.65 130.227C209.159 129.834 210.776 132.008 208.361 131.674C204.663 131.441 200.58 131.934 197.68 134.454C196.908 135.268 197.287 137.341 195.764 135.768C193.696 134.875 192.718 136.755 194.614 137.902C195.585 140.629 192.958 136.981 192.273 136.455C189.852 136.155 188.248 138.642 190.736 140.082C192.313 141.449 194.128 143.682 190.803 143.616C188.052 144.376 190.71 142.875 191.767 142.269C190.45 140.902 189.453 139.122 187.789 138.182C187.313 139.028 185.075 139.508 186.314 138.148C188.98 136.148 184.803 134.655 184.035 133.281C185.849 130.654 179.525 130.447 182.991 128.234C186.087 127.027 180.808 127.794 180.567 128.84C181.392 132.254 183.404 135.261 185.091 138.315C187.128 141.415 189.04 144.909 192.259 146.916C192.924 147.256 193.543 146.643 194.208 146.629V146.629ZM219.069 145.736C219.96 145.356 216.362 145.162 215.797 145.102C215.897 147.309 213.642 142.989 214.799 145.669C215.584 146.449 217.686 145.569 216.469 147.289C217.34 146.803 218.111 146.096 219.069 145.736ZM229.804 145.376C227.682 144.169 230.549 141.969 231.633 143.922C231.181 140.602 226.465 142.835 228.101 145.609C227.955 147.703 232.491 146.863 229.804 145.376ZM234.772 143.476C232.69 142.615 235.045 147.103 234.972 144.009L234.905 143.702L234.772 143.476V143.476ZM226.512 144.176C224.417 143.576 225.68 145.329 226.778 144.322L226.512 144.176ZM172.829 142.769C173.527 140.882 170.669 144.589 171.421 142.269C172.309 140.829 170.915 138.755 169.905 140.982C167.749 138.762 168.241 145.382 170.967 143.782C171.656 143.669 172.479 143.442 172.829 142.769V142.769ZM216.455 141.655C217.772 141.042 217.114 137.422 215.431 139.762C213.835 140.182 213.004 144.869 214.959 142.069C215.245 143.609 215.325 144.242 215.71 142.229C215.817 141.982 216.076 141.455 216.455 141.655ZM167.538 138.648C165.661 136.521 165.408 139.802 164.03 140.222C163.216 142.649 166.48 143.729 166.955 140.902C167.278 140.215 167.751 139.442 167.538 138.648V138.648ZM227.715 142.675C226.704 141.669 223.911 139.282 222.993 140.469C223.638 141.509 226.851 144.202 227.715 142.675ZM239.388 141.902C240.066 140.749 237.565 139.022 238.643 141.215C238.583 142.229 236.94 142.909 238.842 142.402L239.155 142.182L239.388 141.902ZM221.477 139.795C221.131 138.175 222.175 136.001 222.029 134.788C220.093 136.201 221.477 140.188 219.309 140.409C220.453 142.235 221.863 142.549 221.477 139.795V139.795ZM233.163 141.509C231.067 140.909 232.331 142.662 233.429 141.655L233.163 141.509ZM164.518 138.382C164.119 136.801 162.906 135.628 161.984 134.341C161.102 135.248 160.456 136.615 159.267 137.035C159.768 135.541 161.092 134.088 159.172 132.821C158.304 130.241 162.304 135.321 161.776 131.961C161.775 130.274 161.327 126.98 159.285 129.201C159.782 127.774 160.111 125.88 157.941 127.114C157.202 125.76 155.476 122.906 154.978 120.92C153.218 122.193 151.626 124.207 154.197 125.66C155.822 127.334 157.269 129.767 158.862 130.621C158.344 132.741 154.125 134.708 157.583 136.375C159.573 137.608 163.051 142.555 164.518 138.382V138.382ZM147.766 139.028C145.783 136.768 147.046 140.855 148.18 139.688L148.047 139.388L147.766 139.028V139.028ZM174.246 138.142C173.27 138.448 174.406 140.889 174.428 138.682L174.374 138.368L174.246 138.142ZM214.082 138.628C216.669 135.681 212.02 139.342 212.771 139.855C213.257 139.508 213.676 139.068 214.082 138.628ZM229.213 139.508C227.224 139.035 227.683 137.428 228.72 136.688C228.508 134.321 224.178 137.995 225.581 134.534C224.125 133.794 223.426 131.041 222.369 130.441C221.291 133.121 223.24 135.795 224.304 138.168C224.71 140.135 229.193 139.968 229.213 139.508V139.508ZM172.764 138.268C172.677 136.641 168.069 139.828 169.957 136.648C170.287 134.628 171.129 130.561 169.361 129.727C169.122 132.354 167.755 134.668 166.523 136.955C168.154 138.288 170.393 139.895 172.497 138.655L172.764 138.268ZM233.03 138.128C233.05 136.095 230.436 135.288 230.935 137.815C231.288 138.235 232.93 139.182 233.03 138.128ZM242.674 137.301C246.266 134.808 238.783 133.048 239.661 136.608C239.136 137.882 237.872 134.028 236.648 133.794C235.83 132.714 231.301 130.707 232.086 133.148C232.95 133.381 236.668 135.501 234.806 135.875C233.835 135.108 230.849 132.841 232.418 135.735C233.117 137.248 234.467 137.061 235.664 137.628C235.684 135.481 237.307 139.148 238.737 138.275C240.08 138.315 241.563 138.142 242.674 137.301V137.301ZM166.72 133.288C166.724 131.347 163.409 132.654 164.256 130.754C163.037 131.401 164.055 132.781 162.568 133.094C162.835 135.068 166.216 138.235 166.713 134.521C166.795 134.114 166.819 133.694 166.72 133.288V133.288ZM191.137 135.241C193.478 134.988 196.285 133.968 198.566 132.701C200.356 131.841 205.364 129.601 201.593 127.794C200.382 127.66 197.09 128.194 199.744 126.687C203.069 126.474 198.354 122.04 196.671 124.233C193.159 125.78 197.775 128.227 198.453 129.961C199.784 130.547 198.886 133.074 197.921 130.907C196.797 128.634 191.224 130.387 194.563 132.488C196.212 135.768 191.164 129.581 190.519 132.654C191.696 135.021 184.384 132.234 187.744 134.568C188.863 135.488 188.318 137.121 190.326 135.975C190.625 135.808 191.071 135.635 191.137 135.241V135.241ZM230.976 135.135C231.442 132.208 227.897 130.701 226.327 128.694C224.804 127.567 223.474 125.34 221.791 124.913C221.904 127.82 224.079 130.874 226.786 131.974C229.101 132.408 229.453 135.508 230.278 136.455C230.617 136.081 230.79 135.595 230.976 135.135V135.135ZM245.416 134.808C243.334 133.948 245.688 138.435 245.615 135.341L245.549 135.035L245.416 134.808V134.808ZM173.18 132.588C172.081 130.301 171.193 135.181 172.984 133.154L173.127 132.868L173.18 132.588ZM241.684 133.388C240.633 132.274 236.477 134.208 240.022 133.961C240.56 133.914 241.425 133.968 241.684 133.388ZM245.01 133.254C244.371 131.861 242.835 134.881 244.817 133.754L244.957 133.528L245.01 133.254V133.254ZM239.024 131.961C237.361 131.334 240.82 130.994 238.785 130.254C235.891 130.681 238.465 133.848 239.503 132.294L239.024 131.961ZM245.01 131.221C244.119 129.101 242.27 133.888 244.73 131.754L244.937 131.481L245.01 131.221V131.221ZM150.932 131.247C151.294 129.474 146.75 125.273 147.43 128.954C147.87 129.994 149.791 133.088 150.932 131.247ZM188.001 130.794C187.137 128.914 191.625 133.034 190.807 129.587C189.769 127.974 187.613 126.587 186.468 128.274C184.158 126.92 186.502 130.607 184.236 129.474C184.557 130.274 188.686 133.608 188.001 130.794V130.794ZM168.45 129.461C168.44 127.034 167.779 130.227 166.699 130.161C168.019 131.447 168.799 131.721 168.45 129.461ZM233.566 130.127C233.28 127.994 227.746 130.267 231.111 127.96C232.688 126.127 228.418 123.76 227.3 126.28C225.239 128.52 229.881 129.987 231.377 130.627C231.863 131.674 233.858 131.487 233.566 130.127ZM243.708 129.907C245.491 127.194 240.443 131.547 242.012 128.62C239.558 126.48 242.079 134.194 243.708 129.907ZM237.396 128.68C236.093 127.427 231.943 128.3 234.869 130.034C235.674 130.294 237.769 129.867 237.396 128.68ZM142.328 128.14C141.352 128.447 142.488 130.887 142.51 128.68L142.457 128.367L142.328 128.14ZM153.233 128.627C154.48 126.354 151.918 122.94 149.95 125.947C147.833 126.914 152.654 131.974 153.233 128.627ZM165.793 128.127C165.797 125.467 165.092 129.534 163.553 128.274C162.208 129.987 166.522 130.967 165.793 128.127ZM174.757 128.96C173.075 125.947 174.51 132.148 174.757 128.96V128.96ZM194.508 129.274C196.849 127.367 193.111 125.433 191.216 125.927C189.393 126.133 190.976 125.453 191.768 124.98C193.464 123.567 198.299 124.66 197.075 121.193C196.171 118.833 190.012 120.246 192.772 122.58C193.65 125.26 190.404 120.86 189.054 121.88C185.356 122.686 188.722 125.427 189.846 126.96C190.684 128.62 192.433 131.007 194.508 129.274ZM206.486 128.607C209.419 127.36 206.367 122.773 204.198 125.647C201.638 126.847 204.651 130.641 206.486 128.607ZM212.02 127.58C212.372 125.9 216.589 127.94 213.782 126.447C212.426 125.553 208.941 128.62 211.335 128.46C211.654 128.254 211.887 127.934 212.02 127.58V127.58ZM240.207 126.754C239.96 125.52 237.267 126.2 239.428 124.527C241.856 121.986 236.296 124.967 238.125 126.94C237.972 128.94 239.794 127.6 240.207 126.754ZM180.785 126.047C179.814 124.693 178.252 125.14 180.131 126.347C181.276 127.294 182.633 127.694 180.785 126.047ZM187.437 126.707C187.386 124.733 184.174 122.686 186.192 121.333C183.718 121.22 184.734 124.847 183.184 126.073C184.114 126.674 185.55 126.194 186.478 127.274C186.884 127.287 187.238 127.034 187.437 126.707V126.707ZM234.54 126.367C236.01 125.533 235.824 124.027 234.606 123.547C235.032 120.259 229.053 123.627 231.74 125.94C232.259 127.6 233.489 127.354 234.54 126.367ZM166.907 125.607C166.098 124.113 163.163 124.86 165.455 125.993C166.438 126.287 169.147 127 166.907 125.607ZM211.095 125.22C211.973 124.287 213.995 124.527 211.528 123.84C210.304 124.233 209.067 124.473 207.843 124.567C207.251 126.547 210.716 126.847 211.095 125.22ZM178.352 125.16C177.594 123.453 173.11 123.166 175.679 125.633C176.328 126.033 178.352 126.287 178.352 125.16ZM205.768 123.24C204.571 120.62 201.525 119.239 199.995 122.486C199.849 125.593 203.487 126.08 205.209 123.833L205.622 123.48L205.768 123.24ZM227.729 124.793C229.977 123.013 226.067 118.879 224.517 121.993C221.464 123.947 225.927 127.76 227.729 124.793ZM182.387 121.88C181.851 117.926 177.627 122.06 180.31 123.793C181.883 125.127 182.747 123.28 182.387 121.88ZM221.072 123.393C219.422 121.213 218.219 118.959 217.148 116.506C216.183 114.552 214.261 119.699 213.982 117.059C215.146 115.972 216.682 114.832 214.341 113.852C213.057 110.838 217.214 115.812 217.42 112.779C218.924 111.092 216.562 107.111 219.848 108.285C223.406 107.365 221.697 104.278 220.453 102.184C221.783 103.264 223.326 105.631 225.342 103.491C225.608 103.818 222.967 106.198 224.956 107.471C225.535 108.185 226.053 109.605 226.672 109.912C227.729 108.698 229.658 107.325 228.468 105.538C227.769 104.504 227.377 102.471 229.006 104.118C231.028 103.597 229.665 104.951 230.363 105.958C232.784 105.411 228.867 100.23 227.437 102.477C225.335 103.057 225.448 99.8904 223.765 99.1836C224.85 98.4369 228.228 103.171 227.956 99.6037C227.37 98.4835 225.854 99.757 226.559 97.8968C223.832 96.6233 221.398 99.3303 220.008 101.404C219.396 103.217 218.318 104.018 216.429 103.984C214.833 106.171 216.483 105.684 217.76 104.858C217.294 106.331 214.68 109.198 213.849 108.705C215.212 107.925 216.702 105.291 213.915 105.658C212.027 106.331 209.127 108.065 211.694 109.825C211.129 111.205 209.173 106.818 207.617 109.085C205.688 109.698 205.07 111.718 207.55 112.078C208.941 112.145 210.51 111.685 208.568 113.019C208.402 115.399 211.687 116.739 213.097 118.499C215.425 120.419 217.613 122.726 220.467 123.84C220.766 123.947 221.125 123.733 221.072 123.393V123.393ZM211.381 113.685C210.756 112.012 213.084 110.512 213.623 110.258C212.652 111.812 213.084 115.199 211.621 115.706C211.361 115.066 211.381 114.359 211.381 113.685ZM237.367 121.96C237.18 120.173 234.839 121.726 235.318 120.013C233.29 120.306 235.119 122.233 236.09 122.42C235.205 123.813 237.406 122.286 237.273 123.88C237.872 123.52 237.453 122.48 237.367 121.96V121.96ZM215.086 122.626C213.41 121.886 216.629 121.96 214.654 120.746C212.206 118.646 209.998 116.259 207.444 114.299C205.322 114.092 205.948 109.245 203.161 111.232C201.026 113.732 207.072 114.359 204.79 116.199C201.897 116.232 202.735 112.352 200.653 110.832C199.822 109.745 199.603 108.711 200.953 110.158C203.4 112.205 203.886 107.285 201.112 108.238C199.217 109.018 197.574 109.585 196.184 107.958C195 109.138 194.634 112.805 195.958 113.779C197.448 113.245 195.785 108.411 197.561 111.245C198.352 112.252 201.551 111.645 199.177 113.225C196.916 114.032 193.444 115.232 196.929 117.452C197.514 119.046 197.72 123.153 200.407 120.78C203.633 119.599 200.693 116.792 198.552 117.819C200.081 116.879 198.239 113.452 200.647 115.586C201.751 117.472 203.274 118.493 205.429 119.053C206.772 120.139 203.174 119.899 205.389 121.22C207.251 122.526 211.102 122.06 210.969 120.019C212.266 120.313 215.133 122.52 211.953 121.98C208.927 122.46 217.274 124.293 215.086 122.626ZM207.198 118.606C204.212 115.939 209.785 118.593 209.433 119.913C208.581 119.726 207.876 119.126 207.198 118.606ZM243.02 122.626C242.215 120.673 241.337 123.633 242.933 123.1L243.02 122.626ZM223.885 121.146C225.308 119.399 223.739 115.172 221.983 114.979C219.549 116.652 219.236 119.919 221.484 121.913C222.316 123.266 223.393 122.026 223.885 121.146ZM231.773 121.573C234.041 119.626 229.485 116.372 227.55 118.366C225.062 119.426 229.086 122.233 230.476 122.5C230.995 122.326 231.374 121.913 231.773 121.573ZM140.376 120.319C139.611 118.033 138.818 122.86 140.332 120.7L140.376 120.319ZM189.142 120.646C191.842 117.866 182.404 118.793 186.669 120.74C187.449 121.473 188.377 121.266 189.142 120.646ZM239.257 120.793C239.376 118.926 236.776 118.513 237.86 120.766C238.086 121.473 238.977 121.453 239.257 120.793ZM137.671 116.959C138.04 115.126 137.303 113.632 135.376 113.585C135.194 112.265 133.879 110.325 135.883 110.825C136.212 109.091 138.339 113.852 138.328 110.925C137.915 108.891 138.277 104.231 135.219 104.711C133.68 105.444 132.432 106.638 131.058 107.625C131.821 107.918 135.194 107.911 133.782 108.791C131.788 110.738 132.783 114.219 132.821 116.806C132.688 119.186 138.545 121.286 137.646 118.119L137.658 117.559L137.671 116.959V116.959ZM195.556 118.299C196.739 116.659 195.236 117.072 194.651 117.466C193.354 116.699 191.612 113.219 191.698 116.306C189.284 118.999 192.35 121.113 194.777 118.859L195.077 118.679L195.556 118.299ZM235.215 118.893C235.481 117.112 232.794 111.938 231.371 115.339C230.792 117.239 233.293 120.286 235.215 118.893ZM181.495 115.986C181.72 114.412 185.388 112.312 184.022 111.358C181.748 112.972 181.136 115.819 179.268 117.752C180.194 117.839 181.2 116.846 181.495 115.986ZM227.779 116.912C230.087 115.379 226.163 110.305 224.387 113.099C222.618 115.026 225.678 119.753 227.779 116.912ZM220.623 115.146C223.549 112.445 218.062 110.252 217.424 113.732C216.267 115.899 219.532 118.793 220.383 115.572L220.623 115.146ZM179.84 114.545C178.733 113.072 177.943 117.232 179.645 115.139L179.788 114.839L179.84 114.545ZM187.303 114.919C189.437 114.159 192.775 112.819 192.157 110.005C189.955 106.805 188.871 112.745 188.792 113.545C187.958 109.658 183.404 113.232 183.183 115.646C184.213 116.459 186.097 115.099 187.303 114.919ZM173.189 114.292C174.36 112.879 174.88 110.112 173.278 108.638C174.031 111.212 171.056 111.712 169.952 112.559C170.174 113.692 172.686 116.899 173.189 114.292ZM149.246 113.959C147.589 112.439 145.301 110.992 143.736 109.091C141.325 107.631 141.756 104.438 140.471 102.651C138.616 104.384 139.466 107.425 140.364 109.498C141.074 111.865 143.686 111.625 144.403 113.539C145.65 113.972 148.343 115.366 149.246 113.959ZM231.438 113.959C232.076 112.485 230.646 110.625 230.168 109.071C229.848 107.765 229.389 107.438 228.698 108.751C227.022 110.252 227.261 114.192 229.835 114.419C230.38 114.319 230.879 114.025 231.438 113.959ZM235.708 112.545C234.604 111.072 233.812 115.232 235.515 113.139L235.655 112.839L235.708 112.545V112.545ZM224.694 111.738C226.729 110.558 223.563 105.164 221.787 107.778C219.154 109.278 222.28 114.559 224.694 111.738ZM152.239 110.792C151.622 109.465 150.883 107.598 152.219 106.858C151.185 104.811 148.825 102.991 146.88 102.437C149.297 104.991 144.8 103.591 144.139 102.191C143.166 102.484 141.218 106.725 143.764 106.811C144.7 108.471 147.07 107.618 146.867 109.905C147.635 111.725 149.523 110.318 149.724 109.492C148.769 111.425 152.757 113.365 152.239 110.792V110.792ZM147.548 106.978C145.067 104.371 150.776 108.118 148.557 107.685C148.208 107.471 147.876 107.225 147.548 106.978ZM144.432 106.184C145.33 105.704 144.293 103.811 145.593 105.411C146.299 106.551 142.961 106.978 144.432 106.184ZM182.101 110.905C184.292 107.031 177.273 111.005 180.506 111.938C181.191 111.998 181.866 111.545 182.101 110.905ZM233.323 109.458C233.523 107.911 232.073 105.218 230.883 107.578C230.563 109.065 233.111 114.152 233.456 110.558L233.417 110.045L233.323 109.458V109.458ZM187.326 110.365C188.815 109.665 189.002 104.171 187.166 107.245C185.287 107.385 183.654 110.765 186.045 111.158C186.519 110.978 186.923 110.665 187.326 110.365ZM179.48 109.852C184.222 108.471 175.691 105.551 176.991 109.291C177.093 111.245 178.37 110.365 179.48 109.852ZM175.156 107.585C172.481 104.824 175.862 111.632 175.67 108.491L175.458 108.025L175.156 107.585V107.585ZM208.323 107.558C207.937 104.191 204.219 104.264 202.184 106.258C201.705 108.105 205.35 110.852 207.079 108.358C207.491 108.091 207.91 107.825 208.323 107.558V107.558ZM191.981 107.418C193.318 106.431 192.893 103.024 194.861 105.644C196.258 107.285 198.998 109.798 199.916 106.298C200.062 103.811 204.498 102.631 202.463 100.297C200.268 100.044 199.271 102.924 199.144 104.284C197.768 103.231 195.959 106.398 196.903 103.697C197.295 100.504 193.325 98.9169 191.848 102.144C190.006 103.484 187.789 107.571 190.019 108.865C190.758 108.505 191.356 107.938 191.981 107.418ZM182.837 107.291C182.838 106.131 179.881 106.891 182.249 105.558C181.652 105.458 176.375 105.824 179.512 106.985C180.482 107.258 182.109 108.645 182.837 107.291ZM212.067 105.851C215.885 104.911 211.023 100.584 209.094 102.931C205.815 104.771 209.852 108.058 212.067 105.851ZM243.692 102.071C242.628 102.411 239.668 105.338 240.859 105.511C241.963 104.544 242.981 103.364 243.692 102.071ZM183.17 103.971C182.479 102.611 177.45 101.877 178.731 104.111C180.113 104.424 181.91 104.691 183.17 103.971ZM215.758 103.371C216.749 102.377 219.682 101.864 217.075 100.384C214.388 98.3569 211.435 103.531 215.153 103.964C215.472 103.971 215.798 103.704 215.758 103.371V103.371ZM188.719 101.817C189.461 100.09 188.214 99.4036 187.356 101.037C187.027 99.797 186.599 99.0103 186.392 100.77C185.804 102.344 187.27 102.071 187.551 103.304C188.233 103.211 188.543 102.391 188.719 101.817V101.817ZM208.329 102.437C212.499 101.317 206.188 97.5034 205.782 100.957C204.778 102.377 205.35 104.178 207.212 102.891C207.584 102.744 207.957 102.591 208.329 102.437ZM141.268 100.63C140.31 98.6636 136.429 100.01 139.369 101.457C140.036 101.644 141.194 101.504 141.268 100.63ZM184.127 100.21C185.347 96.2966 180.528 99.5837 179.44 100.93C179.311 102.671 184.274 102.384 184.127 100.21ZM191.149 101.317C191.488 100.057 195.253 97.2434 191.874 97.9701C191.309 98.0368 188.327 103.984 191.149 101.317ZM199.795 100.624C202.935 99.0569 198.445 94.6764 196.776 97.7034C195.253 98.4835 195.027 99.6637 196.803 100.244C197.082 102.597 198.505 102.011 199.795 100.624ZM220.413 99.797C222.715 97.6968 219.821 97.2367 218.664 97.6701C221.471 96.2166 216.183 92.1228 215.199 95.5565C213.862 97.5968 216.596 98.2235 217.693 98.5635C217.633 100.85 218.87 102.451 220.413 99.797ZM205.662 98.9503C207.018 98.0768 207.83 94.6231 205.342 96.6233C203.853 97.0567 201.837 101.591 204.564 100.07C204.963 99.7303 205.316 99.3436 205.662 98.9503V98.9503ZM213.935 99.7904C216.775 97.9101 210.191 95.4165 211.302 96.5833C212.246 98.4769 208.156 97.6368 208.349 98.2035C209.838 99.3836 211.687 101.557 213.663 99.9904L213.935 99.7904ZM204.385 96.5766C204.837 95.9566 206.686 95.3765 205.416 94.7098C204.218 93.2829 202.143 91.9294 200.76 93.9963C198.279 96.7433 202.33 99.3836 204.385 96.5766ZM221.078 94.363C220.3 92.3428 217.953 94.163 219.921 95.4965C220.633 95.9166 221.145 94.9564 221.078 94.363ZM214.76 94.4297C216.902 93.683 216.183 87.8623 214.122 91.096C213.217 92.2961 211.288 96.59 214.295 94.7098L214.76 94.4297V94.4297ZM211.767 90.1092C211.754 85.962 208.076 93.8497 211.368 91.9161C211.681 91.3694 211.761 90.7293 211.767 90.1092ZM217.753 91.9161C217.115 90.5226 215.578 93.5429 217.56 92.4161L217.7 92.1895L217.753 91.9161V91.9161ZM197.408 91.1893C197.335 90.2692 200.321 88.8024 197.88 89.6692C196.517 90.1892 194.242 92.4028 197.228 91.5294L197.421 91.376L197.408 91.1893ZM213.643 87.7156C212.466 86.8488 211.361 85.882 210.231 84.9553C211.129 86.1021 211.647 87.9556 213.217 88.2157C213.057 88.1223 213.836 87.9356 213.643 87.7156ZM159.891 84.6219C161.464 81.5549 157.996 85.4753 159.031 85.8487C159.392 85.502 159.647 85.0553 159.891 84.6219ZM206.187 76.1342C205.209 76.4409 206.34 78.8812 206.367 76.6743L206.313 76.3609L206.187 76.1342ZM205.781 74.4807C204.697 72.4271 202.901 78.1811 205.203 75.5541C205.455 75.2474 205.741 74.9007 205.781 74.4807ZM203.121 75.2474C202.482 73.8539 200.946 76.8743 202.928 75.7475L203.068 75.5208L203.121 75.2474V75.2474ZM201.126 63.5801C199.769 62.1819 199.363 65.625 200.933 63.9088L201.126 63.5801ZM195.14 56.5792C194.501 55.1824 192.965 58.2034 194.947 57.0779L195.087 56.8539L195.14 56.5792V56.5792ZM225.461 16.1191C223.712 15.391 223.193 19.2161 225.122 16.9158C225.249 16.7011 225.621 16.4231 225.461 16.1191ZM227.603 10.6551C227.117 8.34775 224.424 13.4121 227.144 11.3585L227.423 11.0178L227.603 10.6551ZM240.08 275.12C242.268 272.153 239.521 277.694 240.08 275.12V275.12ZM203.121 267.426C204.132 265.405 206.559 263.739 208.728 263.552C206.533 264.519 205.189 267.066 203.307 267.899L203.174 267.719L203.121 267.426ZM219.416 263.065C218.272 261.798 218.039 259.418 220.161 260.205C219.416 257.398 224.929 259.485 222.176 261.085C220.167 257.271 222.994 264.859 219.868 263.465L219.416 263.065V263.065ZM244.357 260.645C242.714 258.631 247.383 261.998 244.789 260.918L244.357 260.645ZM223.074 257.978C221.431 255.964 226.1 259.331 223.506 258.251L223.074 257.978ZM224.404 255.978C225.295 255.077 227.29 255.311 225.295 256.231C225.022 256.378 222.735 257.238 224.404 255.978ZM210.922 255.538C212.399 254.971 214.328 256.051 211.714 255.844C211.568 255.831 210.37 255.838 210.922 255.538ZM234.879 250.87C236.469 250.284 237.426 251.57 235.132 251.177C235.032 251.324 234.36 250.93 234.879 250.87ZM238.424 245.03C238.85 242.243 239.043 247.257 238.424 245.03V245.03ZM235.844 239.642C236.282 235.402 236.289 243.376 235.844 239.642V239.642ZM237.872 238.309C237.692 236.675 238.338 236.122 238.291 238.062C238.364 239.389 237.799 240.916 237.872 238.309ZM245.175 232.641C245.102 229.428 246.166 233.568 245.268 233.948C245.181 233.515 245.181 233.075 245.175 232.641ZM239.116 232.795C238.417 231.968 238.078 229.788 239.349 231.681C240.785 234.768 240.28 228.221 240.885 231.321C240.945 232.315 239.98 235.255 239.116 232.795V232.795ZM242.175 229.088C241.477 227.881 241.623 224.514 242.674 227.381C243.093 227.974 242.927 231.421 242.175 229.088ZM243.924 227.614C243.086 224.794 245.494 227.668 244.483 228.588C244.184 228.341 244.077 227.948 243.924 227.614ZM244.789 224.194C243.552 223.06 243.898 221.24 245.155 223.26C246.132 224.134 246.778 226.847 245.075 224.567L244.789 224.194ZM244.357 219.307C242.787 216.24 246.252 220.16 245.215 220.533C244.856 220.187 244.603 219.74 244.357 219.307ZM246.565 219.473C245.827 217.986 245.62 216.653 246.99 218.74C248.048 219.68 247.735 222.194 246.565 219.473ZM248.52 216.166C247.649 214.993 248.008 213.012 249.006 215.306C249.997 216.646 249.431 218.466 248.52 216.166ZM211.767 216.7C212.007 214.799 214.707 214.766 212.998 216.713C212.738 216.96 211.867 217.273 211.767 216.7ZM250.123 214.193C249.192 213.039 249.957 211.079 250.648 213.299C250.988 213.853 250.954 215.093 250.123 214.193ZM253.668 209.385C254.02 207.185 256.076 208.925 254.074 209.745C253.854 209.819 253.635 209.605 253.668 209.385ZM223.739 206.545C223.207 205.698 221.225 206.832 222.675 205.178C223.872 203.318 227.537 204.785 225.069 206.625C224.743 206.938 223.739 207.378 223.739 206.545ZM213.47 203.658C214.408 202.625 216.762 202.418 214.527 203.858C213.796 204.638 211.674 204.925 213.47 203.658ZM251.673 202.365C251.979 201.138 254.759 200.338 253.056 202.011C252.684 202.185 252.085 202.558 251.673 202.365ZM213.762 201.344C214.228 199.624 216.124 201.624 213.955 201.724L213.816 201.584L213.762 201.344V201.344ZM214.428 199.011C215.771 196.644 216.203 200.311 214.428 199.011V199.011ZM223.739 197.697C224.045 196.471 226.825 195.67 225.122 197.344C224.75 197.517 224.151 197.891 223.739 197.697ZM219.748 197.011C221.092 194.644 221.524 198.311 219.748 197.011V197.011ZM223.892 194.924C225.062 193.377 226.206 194.57 224.298 195.33C223.406 195.824 222.568 196.177 223.892 194.924ZM194.182 184.989C195.12 183.956 197.474 183.749 195.24 185.189C194.508 185.969 192.386 186.256 194.182 184.989ZM183.814 181.262C183.036 180.375 183.283 177.628 184.192 180.069C184.941 181.329 185.011 183.849 183.814 181.262ZM201.033 174.821C202.177 173.468 204.079 171.648 205.755 171.761C204.498 173.228 202.675 174.761 200.886 175.268L201.033 174.821ZM200.6 170.901C199.037 168.714 204.564 170.807 201.578 171.514C201.186 171.441 200.866 171.181 200.6 170.901ZM196.47 169.581C197.215 168.381 202.123 167.64 198.904 169.041C198.139 169.267 197.268 169.741 196.47 169.581ZM180.139 167.634C179.301 164.013 179.237 160.133 180.068 156.506C181.901 153.539 180.669 158.699 180.467 159.8C180.31 161.273 178.774 164.987 181.724 163.713C184.903 163.587 181.087 168.587 182.401 165.073C181.388 164.673 180.953 167.72 180.844 169.027C180.837 170.614 180.335 167.947 180.139 167.634ZM183.834 150.965C183.633 148.078 180.252 148.038 178.983 146.545C178.278 145.264 178.926 142.731 179.855 145.298C181.181 146.218 182.946 145.911 183.881 147.251C187.143 145.764 188.554 150.772 185.532 151.765C184.796 152.072 183.707 152.059 183.834 150.965V150.965ZM200.181 151.132C200.693 149.718 205.01 146.958 202.509 149.978C202.283 150.452 199.576 153.325 200.181 151.132ZM181.839 144.631C182.911 142.424 183.737 146.505 181.891 144.891L181.839 144.631ZM179.345 143.531C178.213 142.311 177.885 137.51 180.273 139.897C183.793 138.89 182.573 145.091 179.655 143.644L179.345 143.531V143.531ZM175.52 115.294C175.248 113.247 178.388 116.661 176.006 115.768L175.732 115.554L175.52 115.294V115.294ZM165.211 81.6502C165.751 80.5101 168.859 79.5766 166.957 81.5435C166.559 81.8169 165.414 82.4303 165.211 81.6502ZM163.216 80.0367C163.932 78.5098 166.937 78.7899 164.492 80.3034C164.109 80.6501 163.17 80.8234 163.216 80.0367ZM156.964 79.3833C156.443 76.6896 160.55 77.8498 161.556 76.0162C163.13 76.0962 167.487 73.936 164.253 72.9425C162.709 73.1159 160.771 76.6696 161.547 73.1292C162.596 71.9224 167.63 70.8289 164.435 68.4953C164.237 66.2404 165.588 62.6846 168.265 62.5606C170.869 63.396 173.696 64.4402 175.853 66.1177C177.422 66.5931 178.873 68.8487 181.061 67.4712C181.773 65.925 182.212 70.4489 183.964 68.9487C185.606 71.7957 180.16 71.709 178.32 71.8224C176.663 72.4891 177.737 76.8096 178.764 73.7226C179.869 71.229 184.168 73.3559 181.495 75.4161C180.085 75.3161 179.912 78.6232 178.846 77.2897C177.915 75.8562 177.353 79.97 175.862 77.8431C173.869 75.6628 178.905 76.0229 176.34 74.6094C174.316 73.4026 174.469 76.843 172.208 75.7695C169.265 74.9627 169.242 78.4832 167.207 79.0899C167.149 78.2031 165.873 76.3496 167.469 76.8296C167.914 75.3961 165.761 73.6292 166.085 75.7628C164.971 75.8895 163.923 76.0562 164.225 77.203C161.766 76.6563 158.42 77.443 157.464 79.87L157.253 79.7766L156.964 79.3833V79.3833ZM176.78 72.9025C177.077 70.2689 173.765 74.9361 176.304 73.6493L176.572 73.3092L176.78 72.9025V72.9025ZM175.56 70.0755C174.364 67.8892 171.898 66.5644 169.534 66.009C167.295 66.4964 167.934 70.4022 170.458 70.5022C172.05 71.6623 175.419 74.6094 175.665 70.6889L175.56 70.0755V70.0755ZM169.202 79.3299C169.668 77.6097 171.564 79.61 169.397 79.71L169.254 79.57L169.202 79.3299ZM188.089 78.5098C188.286 76.7763 191.708 79.3699 189.014 79.0232C188.672 78.9432 188.301 78.8165 188.089 78.5098ZM189.334 76.2229C190.657 75.2894 191.894 77.5364 189.334 76.2229V76.2229ZM188.005 72.2224C189.327 71.289 190.564 73.5359 188.005 72.2224V72.2224ZM193.81 72.0024C194.096 70.1422 198.997 70.9689 195.685 71.3556C194.362 71.5623 198.871 72.7825 195.639 72.5758C195.053 72.5425 194.102 72.6291 193.81 72.0024ZM185.269 69.2887C185.733 66.1444 185.733 72.4358 185.269 69.2887V69.2887ZM194.142 67.9552C193.87 65.907 197.009 69.3221 194.628 68.4266L194.355 68.2146L194.142 67.9552V67.9552ZM184.836 63.296C185.022 61.9685 187.81 64.7449 185.307 63.7614L185.044 63.5521L184.836 63.296ZM185.652 61.2051C189.014 59.2555 184.323 63.3167 185.652 61.2051V61.2051ZM182.966 59.9923C183.464 57.7647 181.044 58.8915 180.462 59.8883C177.567 60.0863 182.653 56.1225 183.725 58.3354C185.694 59.3429 182.571 63.0213 182.966 59.9923ZM170.585 59.0102C171.01 56.2205 171.202 61.2358 170.585 59.0102V59.0102ZM171.915 59.0102C172.34 56.2205 172.532 61.2358 171.915 59.0102V59.0102ZM173.245 59.0102C173.671 56.2205 173.862 61.2358 173.245 59.0102V59.0102ZM183.834 52.9875C183.643 51.676 180.934 51.88 183.398 51.0072C186.533 49.0317 187.565 45.1065 188.788 41.8228C190.158 37.4443 190.85 32.721 193.623 28.9306C194.861 26.6517 195.679 24.1247 197.474 22.1865C198.312 20.895 197.468 23.0899 197.428 23.628C195.905 28.6619 192.114 32.7824 191.149 38.0143C190.617 41.6534 188.438 44.7731 187.216 48.1836C187.967 49.7091 190.404 46.0873 191.555 45.3879C194.016 42.8316 192.859 47.7882 192.34 49.0663C191.967 50.7092 191.854 50.0011 191.801 48.7316C191.508 45.3826 190.604 53.8196 190.571 49.6384C190.71 46.13 188.512 50.9039 187.194 51.4019C186.485 51.7713 184.206 54.4216 183.834 52.9875V52.9875ZM193.145 42.9703C193.85 40.4473 195.705 38.5071 196.942 36.2775C199.376 30.6788 203.713 26.2489 207.73 21.7737C208.927 20.6023 205.382 19.8122 208.109 20.3269C210.231 21.237 209.266 19.2154 210.158 18.134C208.668 18.2307 206.573 17.0558 209.1 16.3018C210.171 15.869 212.505 16.8745 212.033 14.8249C210.63 14.8356 208.96 15.503 211.182 14.3462C212.751 12.4613 212.778 8.59778 210.936 6.93598C209.519 8.80713 208.402 11.2918 206.533 13.0167C204.631 15.2696 202.363 17.2825 200.826 19.7962C197.794 21.5711 201.212 17.6579 201.99 16.8425C204.644 13.9328 207.398 11.0371 209.273 7.53605C210.73 4.61677 214.494 6.22803 213.716 9.32426C213.869 12.3673 213.656 15.4617 212.725 18.362C213.496 18.5214 215.272 17.7119 213.616 19.0221C208.202 22.6525 203.387 27.2304 199.875 32.7564C198.425 34.8226 197.561 37.2102 196.377 39.4138C194.621 40.0479 195.28 43.0843 193.145 42.9703ZM216.423 34.6179C217.653 33.5872 220.068 34.1439 217.44 34.8766C216.981 35.2373 215.093 35.4027 216.423 34.6179ZM210.104 11.2818C211.521 9.39627 212.06 12.2059 210.131 11.8959C209.905 11.7686 209.991 11.4478 210.104 11.2818Z" fill="black"/>
</g>
</g>
<defs>
<clipPath id="clip0">
<rect width="400" height="200" fill="white"/>
</clipPath>
<clipPath id="clip1">
<rect width="138" height="280" fill="white" transform="translate(131 6)"/>
</clipPath>
</defs>
</svg>
